<?xml version="1.0" encoding="utf-8"?>
<!-- Generator: Adobe Illustrator 23.0.3, SVG Export Plug-In . SVG Version: 6.00 Build 0)  -->
<svg version="1.1" id="bias" xmlns="http://www.w3.org/2000/svg" xmlns:xlink="http://www.w3.org/1999/xlink" x="0px" y="0px"
	 viewBox="0 0 32 32" style="enable-background:new 0 0 32 32;" xml:space="preserve">
<style type="text/css">
	.circle{fill:none;stroke:#323234;stroke-miterlimit:10;}
	.obj{fill:#323234;}
</style>
<g>
	<circle class="circle" cx="16" cy="16" r="15"/>
	<path class="obj" d="M17.2,14.4c0,1.3,2,2.4,4.4,2.4c2.4,0,4.4-1.1,4.4-2.4h-1.2l-3.1-6.7l0.9-0.2l-0.3-1.3l-5,1.2
		c-0.3-0.5-0.9-0.8-1.6-0.8c-1,0-1.8,0.7-1.9,1.7L8.8,9.4l0.3,1.3l1-0.2L7,17H5.9c0,1.3,2,2.4,4.4,2.4c2.4,0,4.4-1.1,4.4-2.4h-1.2
		l-3-6.6l3.6-0.9c0.2,0.3,0.5,0.6,0.9,0.7v11.2H6.9V24h8.2h1.3h8.3v-2.6h-8.3V10.2c0.6-0.2,1.1-0.8,1.2-1.5l3.8-0.9l-3.2,6.6H17.2z
		 M7.6,17l2.7-5.9L13,17H7.6z M21.5,8.4l2.7,5.9h-5.3L21.5,8.4z"/>
</g>
</svg>
