<?xml version="1.0" encoding="utf-8"?>
<!-- Generator: Adobe Illustrator 23.0.3, SVG Export Plug-In . SVG Version: 6.00 Build 0)  -->
<svg version="1.1" id="Layer_1" xmlns="http://www.w3.org/2000/svg" xmlns:xlink="http://www.w3.org/1999/xlink" x="0px" y="0px"
	 viewBox="0 0 87.5 34.3" style="enable-background:new 0 0 87.5 34.3;" xml:space="preserve">
<style type="text/css">
	.st0{fill:url(#SVGID_1_);}
	.st1{fill:url(#SVGID_2_);}
	.st2{fill:url(#SVGID_3_);}
	.st3{fill:url(#SVGID_4_);}
	.st4{fill:url(#SVGID_5_);}
	.st5{fill:url(#SVGID_6_);}
	.st6{fill:url(#SVGID_7_);}
	.st7{fill:url(#SVGID_8_);}
	.st8{fill:url(#SVGID_9_);}
	.st9{fill:url(#SVGID_10_);}
	.st10{fill:url(#SVGID_11_);}
	.st11{fill:url(#SVGID_12_);}
</style>
<g>
	
		<linearGradient id="SVGID_1_" gradientUnits="userSpaceOnUse" x1="-425.5285" y1="-161.2684" x2="-424.5285" y2="-161.2684" gradientTransform="matrix(5.355114e-15 34.3319 87.4557 -2.102224e-15 14147.5947 14609.2031)">
		<stop  offset="0" style="stop-color:#511818"/>
		<stop  offset="0.503" style="stop-color:#73000A"/>
		<stop  offset="1" style="stop-color:#CC5252"/>
	</linearGradient>
	<path class="st0" d="M17.2,0h53.1c9.5,0,17.2,7.7,17.2,17.2s-7.7,17.2-17.2,17.2H17.2C7.7,34.3,0,26.6,0,17.2S7.7,0,17.2,0z"/>
	
		<linearGradient id="SVGID_2_" gradientUnits="userSpaceOnUse" x1="-425.5285" y1="-157.4025" x2="-424.5294" y2="-157.4025" gradientTransform="matrix(2.677557e-15 34.3319 43.7278 -2.102224e-15 6948.8145 14609.2031)">
		<stop  offset="0" style="stop-color:#E5CE5C"/>
		<stop  offset="0.477" style="stop-color:#D4C595"/>
		<stop  offset="1" style="stop-color:#E1E5CF"/>
	</linearGradient>
	<path class="st1" d="M61.3,0h9.4c9.4,0,17.1,7.7,17.1,17.2s-7.7,17.1-17.1,17.1h-9.4c-9.5,0-17.2-7.7-17.2-17.1S51.8,0,61.3,0z"/>
	<g>
		
			<linearGradient id="SVGID_3_" gradientUnits="userSpaceOnUse" x1="-411.3511" y1="-144.0495" x2="-410.3511" y2="-144.0495" gradientTransform="matrix(7.624559e-16 12.4519 12.4518 -7.624562e-16 1816.3761 5132.3691)">
			<stop  offset="0" style="stop-color:#E5CE5C"/>
			<stop  offset="0.477" style="stop-color:#D4C595"/>
			<stop  offset="1" style="stop-color:#E1E5CF"/>
		</linearGradient>
		<path class="st2" d="M22.7,11.8c2.6,0,4.7,2.1,4.7,4.7s-2.1,4.7-4.7,4.7S18,19.1,18,16.5C17.9,13.9,20.1,11.8,22.7,11.8
			 M22.7,10.3c-3.4,0-6.2,2.8-6.2,6.2s2.8,6.2,6.2,6.2s6.2-2.8,6.2-6.2l0,0C28.9,13.1,26.1,10.3,22.7,10.3L22.7,10.3z"/>
		
			<linearGradient id="SVGID_4_" gradientUnits="userSpaceOnUse" x1="-366.8159" y1="-103.8447" x2="-365.8158" y2="-103.8447" gradientTransform="matrix(2.539867e-16 4.1479 4.1479 -2.539842e-16 446.1125 1543.3312)">
			<stop  offset="0" style="stop-color:#E5CE5C"/>
			<stop  offset="0.477" style="stop-color:#D4C595"/>
			<stop  offset="1" style="stop-color:#E1E5CF"/>
		</linearGradient>
		<path class="st3" d="M13.9,26c-0.3,0-0.6-0.3-0.6-0.6c0-0.2,0.1-0.3,0.2-0.4l2.9-2.9c0.2-0.2,0.6-0.2,0.9,0c0.2,0.2,0.2,0.6,0,0.9
			l-2.9,2.9C14.2,25.9,14,26,13.9,26z"/>
		
			<linearGradient id="SVGID_5_" gradientUnits="userSpaceOnUse" x1="-381.7967" y1="35.6778" x2="-380.7968" y2="35.6778" gradientTransform="matrix(7.663111e-17 5.3475 1.2515 -3.274386e-16 -21.8507 2045.324)">
			<stop  offset="0" style="stop-color:#E5CE5C"/>
			<stop  offset="0.477" style="stop-color:#D4C595"/>
			<stop  offset="1" style="stop-color:#E1E5CF"/>
		</linearGradient>
		<path class="st4" d="M22.8,9c-0.3,0-0.6-0.3-0.6-0.6V4.3c0-0.3,0.3-0.6,0.6-0.6c0.3,0,0.6,0.3,0.6,0.6v4.1C23.4,8.7,23.1,9,22.8,9
			z"/>
		
			<linearGradient id="SVGID_6_" gradientUnits="userSpaceOnUse" x1="-381.7968" y1="35.6778" x2="-380.7967" y2="35.6778" gradientTransform="matrix(7.663111e-17 5.3475 1.2515 -3.274386e-16 -21.8507 2065.8853)">
			<stop  offset="0" style="stop-color:#E5CE5C"/>
			<stop  offset="0.477" style="stop-color:#D4C595"/>
			<stop  offset="1" style="stop-color:#E1E5CF"/>
		</linearGradient>
		<path class="st5" d="M22.8,29.6c-0.3,0-0.6-0.3-0.6-0.6v-4.1c0-0.3,0.3-0.6,0.6-0.6c0.3,0,0.6,0.3,0.6,0.6V29
			C23.4,29.3,23.1,29.6,22.8,29.6z"/>
		
			<linearGradient id="SVGID_7_" gradientUnits="userSpaceOnUse" x1="-212.2623" y1="-117.3898" x2="-211.2623" y2="-117.3898" gradientTransform="matrix(3.275923e-16 1.2515 5.35 -7.663043e-17 640.3856 281.6393)">
			<stop  offset="0" style="stop-color:#E5CE5C"/>
			<stop  offset="0.477" style="stop-color:#D4C595"/>
			<stop  offset="1" style="stop-color:#E1E5CF"/>
		</linearGradient>
		<path class="st6" d="M14.4,17.2h-4.1c-0.3,0-0.6-0.3-0.6-0.6c0-0.3,0.3-0.6,0.6-0.6l0,0h4.1c0.3,0,0.6,0.3,0.6,0.6
			C15,17,14.7,17.2,14.4,17.2L14.4,17.2z"/>
		
			<linearGradient id="SVGID_8_" gradientUnits="userSpaceOnUse" x1="-212.2623" y1="-117.4011" x2="-211.2623" y2="-117.4011" gradientTransform="matrix(3.275923e-16 1.2515 5.35 -7.663043e-17 660.9459 281.6393)">
			<stop  offset="0" style="stop-color:#E5CE5C"/>
			<stop  offset="0.477" style="stop-color:#D4C595"/>
			<stop  offset="1" style="stop-color:#E1E5CF"/>
		</linearGradient>
		<path class="st7" d="M34.9,17.2h-4.1c-0.3,0-0.6-0.3-0.6-0.6s0.3-0.6,0.6-0.6l0,0h4.1c0.3,0,0.6,0.3,0.6,0.6
			C35.5,17,35.3,17.2,34.9,17.2L34.9,17.2L34.9,17.2z"/>
		
			<linearGradient id="SVGID_9_" gradientUnits="userSpaceOnUse" x1="-366.8159" y1="-103.8391" x2="-365.8154" y2="-103.8391" gradientTransform="matrix(2.539869e-16 4.1479 4.1479 -2.539842e-16 446.114 1528.792)">
			<stop  offset="0" style="stop-color:#E5CE5C"/>
			<stop  offset="0.477" style="stop-color:#D4C595"/>
			<stop  offset="1" style="stop-color:#E1E5CF"/>
		</linearGradient>
		<path class="st8" d="M16.8,11.4c-0.2,0-0.3-0.1-0.4-0.2l-2.9-2.9c-0.2-0.2-0.2-0.6,0-0.9c0.2-0.2,0.6-0.2,0.9,0l2.9,2.9
			c0.2,0.2,0.2,0.6,0,0.9C17.1,11.4,16.9,11.4,16.8,11.4z"/>
		
			<linearGradient id="SVGID_10_" gradientUnits="userSpaceOnUse" x1="-366.8159" y1="-103.8481" x2="-365.8154" y2="-103.8481" gradientTransform="matrix(2.539867e-16 4.1479 4.1479 -2.539842e-16 460.6517 1543.3312)">
			<stop  offset="0" style="stop-color:#E5CE5C"/>
			<stop  offset="0.477" style="stop-color:#D4C595"/>
			<stop  offset="1" style="stop-color:#E1E5CF"/>
		</linearGradient>
		<path class="st9" d="M31.3,26c-0.2,0-0.3-0.1-0.4-0.2L28,22.9c-0.2-0.2-0.2-0.6,0-0.9c0.2-0.2,0.6-0.2,0.9,0l2.9,2.9
			c0.2,0.2,0.2,0.6,0,0.9C31.6,25.9,31.5,26,31.3,26z"/>
		
			<linearGradient id="SVGID_11_" gradientUnits="userSpaceOnUse" x1="-366.8159" y1="-103.8544" x2="-365.8158" y2="-103.8544" gradientTransform="matrix(2.539869e-16 4.1479 4.1479 -2.539842e-16 460.6528 1528.792)">
			<stop  offset="0" style="stop-color:#E5CE5C"/>
			<stop  offset="0.477" style="stop-color:#D4C595"/>
			<stop  offset="1" style="stop-color:#E1E5CF"/>
		</linearGradient>
		<path class="st10" d="M28.4,11.4c-0.3,0-0.6-0.3-0.6-0.6c0-0.2,0.1-0.3,0.2-0.4l2.9-2.9c0.2-0.2,0.6-0.2,0.9,0
			c0.2,0.2,0.2,0.6,0,0.9l-2.9,2.9C28.7,11.4,28.6,11.4,28.4,11.4z"/>
	</g>
	
		<linearGradient id="SVGID_12_" gradientUnits="userSpaceOnUse" x1="-419.342" y1="-143.8485" x2="-418.3423" y2="-143.8485" gradientTransform="matrix(7.549824e-16 19.4322 12.3298 -1.189882e-15 1839.572 8155.688)">
		<stop  offset="0" style="stop-color:#511818"/>
		<stop  offset="0.503" style="stop-color:#73000A"/>
		<stop  offset="1" style="stop-color:#CC5252"/>
	</linearGradient>
	<path class="st11" d="M69.5,8.2c0.1,0,0.2,0,0.3,0c-4.6,3.9-5.2,10.9-1.3,15.5c0.4,0.5,0.8,0.9,1.3,1.3c-0.1,0-0.2,0-0.3,0
		c-4.7,0-8.4-3.8-8.4-8.4c0-0.2,0-0.4,0-0.6c0.3-4.2,3.6-7.5,7.8-7.8C69.1,8.2,69.3,8.2,69.5,8.2 M69.5,6.9c-0.2,0-0.4,0-0.7,0
		c-5.4,0.4-9.4,5-9,10.4s5,9.4,10.4,9c0.5,0,0.9-0.1,1.4-0.2c0.4-0.1,0.6-0.4,0.5-0.8c0-0.2-0.2-0.3-0.3-0.4
		c-4.5-2.8-5.9-8.8-3.1-13.4c0.8-1.2,1.8-2.3,3.1-3.1c0.3-0.2,0.4-0.6,0.2-0.9c-0.1-0.2-0.2-0.3-0.4-0.3C70.9,7,70.2,6.9,69.5,6.9
		L69.5,6.9z"/>
</g>
</svg>
