<?xml version="1.0" encoding="utf-8"?>
<!-- Generator: Adobe Illustrator 23.0.3, SVG Export Plug-In . SVG Version: 6.00 Build 0)  -->
<svg version="1.1" id="Layer_1" xmlns="http://www.w3.org/2000/svg" xmlns:xlink="http://www.w3.org/1999/xlink" x="0px" y="0px"
	 viewBox="0 0 590 394" style="enable-background:new 0 0 590 394;" xml:space="preserve">
<style type="text/css">
	.st0{opacity:0.4;fill:#E5CE5C;enable-background:new    ;}
	.st1{fill:#210A0A;stroke:#515151;stroke-width:2;stroke-miterlimit:10;}
	.st2{fill:none;stroke:url(#SVGID_1_);stroke-width:3;stroke-miterlimit:10;}
</style>
<g id="Group_7" transform="translate(-70.9 -89.2)">
	<g id="Group_5">
		<path id="Path_4" class="st0" d="M167.8,364.3h421.3v62.9H167.8V364.3z"/>
		<path id="Path_5" class="st0" d="M167.8,238.6h421.3v62.9H167.8V238.6z"/>
		<path id="Path_6" class="st0" d="M167.8,112.8h421.3v62.9H167.8V112.8z"/>
	</g>
	<g id="Group_6">
		<path id="Path_7" class="st1" d="M167.8,458.6V112.8"/>
		<path id="Path_8" class="st1" d="M589.1,427.2H136.4"/>
		<path id="Path_9" class="st1" d="M230.7,427.2V446"/>
		<path id="Path_10" class="st1" d="M293.5,427.2V446"/>
		<path id="Path_11" class="st1" d="M356.4,427.2V446"/>
		<path id="Path_12" class="st1" d="M419.3,427.2V446"/>
		<path id="Path_13" class="st1" d="M482.2,427.2V446"/>
		<path id="Path_14" class="st1" d="M545.1,427.2V446"/>
		<path id="Path_15" class="st1" d="M148.9,364.3h18.9"/>
		<path id="Path_16" class="st1" d="M148.9,301.4h18.9"/>
		<path id="Path_17" class="st1" d="M148.9,238.6h18.9"/>
		<path id="Path_18" class="st1" d="M148.9,175.7h18.9"/>
	</g>
</g>
<linearGradient id="SVGID_1_" gradientUnits="userSpaceOnUse" x1="476.2215" y1="149.9499" x2="158.4407" y2="151.789">
	<stop  offset="0" style="stop-color:#511818"/>
	<stop  offset="0.503" style="stop-color:#73000A"/>
	<stop  offset="1" style="stop-color:#CC5252"/>
</linearGradient>
<polyline class="st2" points="159.8,149.4 222.6,275.1 285.5,149.4 348.4,212.2 411.3,149.4 474.2,23.6 "/>
</svg>
