<?xml version="1.0" encoding="utf-8"?>
<!-- Generator: Adobe Illustrator 23.0.3, SVG Export Plug-In . SVG Version: 6.00 Build 0)  -->
<svg version="1.1" id="Layer_1" xmlns="http://www.w3.org/2000/svg" xmlns:xlink="http://www.w3.org/1999/xlink" x="0px" y="0px"
	 viewBox="0 0 590 550" style="enable-background:new 0 0 590 550;" xml:space="preserve">
<style type="text/css">
	.st0{opacity:0.4;fill:#E5CE5C;enable-background:new    ;}
	.st1{fill:#210A0A;stroke:#515151;stroke-width:2;stroke-miterlimit:10;}
	.st2{fill:url(#SVGID_1_);}
	.st3{fill:url(#SVGID_2_);}
	.st4{fill:url(#SVGID_3_);}
	.st5{fill:url(#SVGID_4_);}
	.st6{fill:url(#SVGID_5_);}
	.st7{fill:url(#SVGID_6_);}
</style>
<g id="Group_7" transform="translate(-70.9 -89.2)">
	<g id="Group_5">
		<path id="Path_4" class="st0" d="M167.8,520.3h421.3v62.9H167.8V520.3z"/>
		<path id="Path_5" class="st0" d="M167.8,394.6h421.3v62.9H167.8V394.6z"/>
		<path id="Path_6" class="st0" d="M167.8,268.8h421.3v62.9H167.8V268.8z"/>
	</g>
	<g id="Group_6">
		<path id="Path_7" class="st1" d="M167.8,614.6V268.8"/>
		<path id="Path_8" class="st1" d="M589.1,583.2H136.4"/>
		<path id="Path_9" class="st1" d="M230.7,583.2V602"/>
		<path id="Path_10" class="st1" d="M293.5,583.2V602"/>
		<path id="Path_11" class="st1" d="M356.4,583.2V602"/>
		<path id="Path_12" class="st1" d="M419.3,583.2V602"/>
		<path id="Path_13" class="st1" d="M482.2,583.2V602"/>
		<path id="Path_14" class="st1" d="M545.1,583.2V602"/>
		<path id="Path_15" class="st1" d="M148.9,520.3h18.9"/>
		<path id="Path_16" class="st1" d="M148.9,457.4h18.9"/>
		<path id="Path_17" class="st1" d="M148.9,394.6h18.9"/>
		<path id="Path_18" class="st1" d="M148.9,331.7h18.9"/>
	</g>
</g>
<linearGradient id="SVGID_1_" gradientUnits="userSpaceOnUse" x1="123.625" y1="239.975" x2="196.275" y2="312.625" gradientTransform="matrix(1 0 0 -1 0 708)">
	<stop  offset="0" style="stop-color:#511818"/>
	<stop  offset="0.503" style="stop-color:#73000A"/>
	<stop  offset="1" style="stop-color:#CC5252"/>
</linearGradient>
<rect x="150.2" y="368.8" class="st2" width="19.5" height="125.8"/>
<linearGradient id="SVGID_2_" gradientUnits="userSpaceOnUse" x1="170.475" y1="255.8251" x2="274.825" y2="360.175" gradientTransform="matrix(1 0 0 -1 0 708)">
	<stop  offset="0" style="stop-color:#511818"/>
	<stop  offset="0.503" style="stop-color:#73000A"/>
	<stop  offset="1" style="stop-color:#CC5252"/>
</linearGradient>
<rect x="212.9" y="305.4" class="st3" width="19.5" height="189.2"/>
<linearGradient id="SVGID_3_" gradientUnits="userSpaceOnUse" x1="241.225" y1="247.975" x2="329.875" y2="336.625" gradientTransform="matrix(1 0 0 -1 0 708)">
	<stop  offset="0" style="stop-color:#511818"/>
	<stop  offset="0.503" style="stop-color:#73000A"/>
	<stop  offset="1" style="stop-color:#CC5252"/>
</linearGradient>
<rect x="275.8" y="336.8" class="st4" width="19.5" height="157.8"/>
<linearGradient id="SVGID_4_" gradientUnits="userSpaceOnUse" x1="288.05" y1="264.0499" x2="408.65" y2="384.6501" gradientTransform="matrix(1 0 0 -1 0 708)">
	<stop  offset="0" style="stop-color:#511818"/>
	<stop  offset="0.503" style="stop-color:#73000A"/>
	<stop  offset="1" style="stop-color:#CC5252"/>
</linearGradient>
<rect x="338.6" y="272.8" class="st5" width="19.5" height="221.7"/>
<linearGradient id="SVGID_5_" gradientUnits="userSpaceOnUse" x1="343.35" y1="271.55" x2="479.15" y2="407.3499" gradientTransform="matrix(1 0 0 -1 0 708)">
	<stop  offset="0" style="stop-color:#511818"/>
	<stop  offset="0.503" style="stop-color:#73000A"/>
	<stop  offset="1" style="stop-color:#CC5252"/>
</linearGradient>
<rect x="401.5" y="242.5" class="st6" width="19.5" height="252.1"/>
<linearGradient id="SVGID_6_" gradientUnits="userSpaceOnUse" x1="398.4" y1="279.5" x2="549.9" y2="431" gradientTransform="matrix(1 0 0 -1 0 708)">
	<stop  offset="0" style="stop-color:#511818"/>
	<stop  offset="0.503" style="stop-color:#73000A"/>
	<stop  offset="1" style="stop-color:#CC5252"/>
</linearGradient>
<rect x="464.4" y="211" class="st7" width="19.5" height="283.5"/>
</svg>
