<?xml version="1.0" encoding="utf-8"?>
<!-- Generator: Adobe Illustrator 23.0.3, SVG Export Plug-In . SVG Version: 6.00 Build 0)  -->
<svg version="1.1" id="graph2" xmlns="http://www.w3.org/2000/svg" xmlns:xlink="http://www.w3.org/1999/xlink" x="0px" y="0px"
	 viewBox="0 0 590 477.7" enable-background="new 0 0 590 477.7" xml:space="preserve">
<g id="Squares">
	<path id="sq5" opacity="0.4" fill="#E5CE5C" enable-background="new    " d="M108.6,106.1h408v30.4h-408L108.6,106.1L108.6,106.1z"
		/>
	<path id="sq4" opacity="0.4" fill="#E5CE5C" enable-background="new    " d="M109.2,167.1h408v30.4h-408L109.2,167.1L109.2,167.1z"
		/>
	<path id="sq3" opacity="0.4" fill="#E5CE5C" enable-background="new    " d="M108.6,228.2h408v30.4h-408L108.6,228.2L108.6,228.2z"
		/>
	<path id="sq2" opacity="0.4" fill="#E5CE5C" enable-background="new    " d="M108.6,289.5h408V320h-408L108.6,289.5L108.6,289.5z"
		/>
	<path id="sq1" opacity="0.4" fill="#E5CE5C" enable-background="new    " d="M108.6,350.5h408v30.4h-408L108.6,350.5L108.6,350.5z"
		/>
</g>
<g id="Lines">
	<path id="Main_line" fill="#210A0A" stroke="#515151" stroke-miterlimit="10" d="M108.6,432.5V85.3"/>
	<path id="Main_Line2" fill="#210A0A" stroke="#515151" stroke-miterlimit="10" d="M516.6,411.8H87.9"/>
	<path id="_x31_" fill="#210A0A" stroke="#515151" stroke-miterlimit="10" d="M145.4,411.8v9.8"/>
	<path id="_x32_" fill="#210A0A" stroke="#515151" stroke-miterlimit="10" d="M202.1,411.8v9.8"/>
	<path id="_x33_" fill="#210A0A" stroke="#515151" stroke-miterlimit="10" d="M258.9,411.8v9.8"/>
	<path id="_x34_" fill="#210A0A" stroke="#515151" stroke-miterlimit="10" d="M315.8,411.8v9.8"/>
	<path id="_x35_" fill="#210A0A" stroke="#515151" stroke-miterlimit="10" d="M372.8,411.8v9.8"/>
	<path id="_x36_" fill="#210A0A" stroke="#515151" stroke-miterlimit="10" d="M429.7,411.8v9.8"/>
	<path id="_x37_" fill="#210A0A" stroke="#515151" stroke-miterlimit="10" d="M486.6,411.8v9.8"/>
	<path id="v1" fill="#210A0A" stroke="#515151" stroke-miterlimit="10" d="M98,380.9h10.6"/>
	<path id="v2" fill="#210A0A" stroke="#515151" stroke-miterlimit="10" d="M98,350.5h10.6"/>
	<path id="v3" fill="#210A0A" stroke="#515151" stroke-miterlimit="10" d="M98,319.6h10.6"/>
	<path id="v4" fill="#210A0A" stroke="#515151" stroke-miterlimit="10" d="M98,289.5h10.6"/>
	<path id="v5_1_" fill="#210A0A" stroke="#515151" stroke-miterlimit="10" d="M98,258.6h10.6"/>
	<path id="v6_1_" fill="none" stroke="#515151" stroke-miterlimit="10" d="M98,228.2h10.6"/>
	<path id="v7_1_" fill="#210A0A" stroke="#515151" stroke-miterlimit="10" d="M98,197.6h10.6"/>
	<path id="v8" fill="#210A0A" stroke="#515151" stroke-miterlimit="10" d="M98,167.1h10.6"/>
	<path id="v9" fill="#210A0A" stroke="#515151" stroke-miterlimit="10" d="M98,134.8h10.6"/>
	<path id="v10" fill="#210A0A" stroke="#515151" stroke-miterlimit="10" d="M98,106.1h10.6"/>
</g>
<g id="Names">
	<text transform="matrix(1 0 0 1 240.0225 433.8675)" font-family="'OpenSans'" font-size="10.8544px">Gender</text>
	<text transform="matrix(1 0 0 1 292.7861 433.8675)" font-family="'OpenSans'" font-size="10.8544px">Disability</text>
	<text transform="matrix(1 0 0 1 356.2031 433.8675)" font-family="'OpenSans'" font-size="10.8544px">Sexual</text>
	<text transform="matrix(1 0 0 1 343.8031 446.8675)" font-family="'OpenSans'" font-size="10.8544px">Orientation</text>
	<text transform="matrix(1 0 0 1 409.5732 433.8675)" font-family="'OpenSans'" font-size="10.8544px">Religion</text>
	<text transform="matrix(1 0 0 1 472.5615 433.8675)" font-family="'OpenSans'" font-size="10.8544px">Race/</text>
	<text transform="matrix(1 0 0 1 462.9614 446.8675)" font-family="'OpenSans'" font-size="10.8544px">Ethnicity/</text>
	<text transform="matrix(1 0 0 1 464.6615 459.9675)" font-family="'OpenSans'" font-size="10.8544px">Ancestry</text>
	<text transform="matrix(1 0 0 1 183.061 433.8675)" font-family="'OpenSans'" font-size="10.8544px">Gender</text>
	<text transform="matrix(1 0 0 1 183.061 446.8675)" font-family="'OpenSans'" font-size="10.8544px">Identity</text>
	<text transform="matrix(1 0 0 1 126.2728 433.8675)" font-family="'OpenSans'" font-size="10.8544px">Multiple-</text>
	<text transform="matrix(1 0 0 1 126.2728 446.8675)" font-family="'OpenSans'" font-size="10.8544px">Bias </text>
	<text transform="matrix(1 0 0 1 126.2728 459.9675)" font-family="'OpenSans'" font-size="10.8544px">Incidents</text>
	<text transform="matrix(1 0 0 1 73.5707 384.8948)" font-family="'OpenSans'" font-size="11.6212px">500</text>
	<text transform="matrix(1 0 0 1 66.9257 324.0776)" font-family="'OpenSans'" font-size="11.6212px">1500</text>
	<text transform="matrix(1 0 0 1 66.9257 263.1148)" font-family="'OpenSans'" font-size="11.6212px">2500</text>
	<text transform="matrix(1 0 0 1 66.9257 202.2482)" font-family="'OpenSans'" font-size="11.6212px">3500</text>
	<text transform="matrix(1 0 0 1 66.9257 231.5998)" font-family="'OpenSans'" font-size="11.6212px">3000</text>
	<text transform="matrix(1 0 0 1 66.9257 292.6568)" font-family="'OpenSans'" font-size="11.6212px">2000</text>
	<text transform="matrix(1 0 0 1 66.9257 354.01)" font-family="'OpenSans'" font-size="11.6212px">1000</text>
	<text transform="matrix(1 0 0 1 66.9257 170.6019)" font-family="'OpenSans'" font-size="11.6212px">4000</text>
	<text transform="matrix(1 0 0 1 66.9257 138.3169)" font-family="'OpenSans'" font-size="11.6212px">4500</text>
	<text transform="matrix(1 0 0 1 66.9257 109.6037)" font-family="'OpenSans'" font-size="11.6212px">5000</text>
</g>
<g id="expl">
	<rect x="258.9" y="60.4" opacity="0.4" fill="#E5CE5C" enable-background="new    " width="257.7" height="24.9"/>
	<rect x="326.1" y="66.3" fill="#CC5252" width="12.9" height="12.9"/>
	<rect x="406.1" y="66.3" fill="#73000A" width="12.9" height="12.9"/>
	<rect x="486.1" y="65.9" fill="#511818" width="12.9" height="12.9"/>
	<text transform="matrix(1 0 0 1 273.808 76.128)" font-family="'OpenSans'" font-size="10.8544px">Incidents</text>
	<text transform="matrix(1 0 0 1 353.808 76.128)" font-family="'OpenSans'" font-size="10.8544px">Offenses</text>
	<text transform="matrix(1 0 0 1 433.808 75.7477)" font-family="'OpenSans'" font-size="10.8544px">Victims</text>
</g>
<g id="ANIME">
	<rect id="rect1" x="132.8" y="408.4" fill="#CC5252" width="8.4" height="3"/>
	<rect id="rect2" x="141.2" y="399.7" fill="#73000A" width="8.4" height="11.7"/>
	<rect id="rect3" x="149.5" y="398.8" fill="#511818" width="8.4" height="12.6"/>
	<rect id="rect4" x="189.1" y="406.2" fill="#CC5252" width="8.4" height="5.2"/>
	<rect id="rect5" x="197.5" y="404.3" fill="#73000A" width="8.4" height="7"/>
	<rect id="rect6" x="205.8" y="404.2" fill="#511818" width="8.4" height="7.2"/>
	<rect id="rect7" x="246.6" y="410" fill="#CC5252" width="8.4" height="1.4"/>
	<rect id="rect8" x="255" y="409" fill="#73000A" width="8.4" height="2.4"/>
	<rect id="rect9" x="263.3" y="408" fill="#511818" width="8.4" height="3.4"/>
	<rect id="rect10" x="302.9" y="404.1" fill="#CC5252" width="8.4" height="7.3"/>
	<rect id="rect11" x="311.3" y="404.1" fill="#73000A" width="8.4" height="7.3"/>
	<rect id="rect12" x="319.7" y="402.1" fill="#511818" width="8.4" height="9.3"/>
	<rect id="rect13" x="360" y="338" fill="#CC5252" width="8.4" height="73.3"/>
	<rect id="rect14" x="368.3" y="335" fill="#73000A" width="8.4" height="76.3"/>
	<rect id="rect15" x="376.7" y="334" fill="#511818" width="8.4" height="77.3"/>
	<rect id="rect16" x="416.9" y="315.5" fill="#CC5252" width="8.4" height="95.9"/>
	<rect id="rect17" x="425.3" y="309.5" fill="#73000A" width="8.4" height="101.9"/>
	<rect id="rect18" x="433.6" y="304.7" fill="#511818" width="8.4" height="106.7"/>
	<rect id="rect19" x="473.9" y="160.9" fill="#CC5252" width="8.4" height="250.4"/>
	<rect id="rect20" x="482.3" y="118.9" fill="#73000A" width="8.4" height="292.4"/>
	<rect id="rect21" x="490.6" y="102.9" fill="#511818" width="8.4" height="308.4"/>
</g>
</svg>
