<?xml version="1.0" encoding="utf-8"?>
<!-- Generator: Adobe Illustrator 23.0.3, SVG Export Plug-In . SVG Version: 6.00 Build 0)  -->
<svg version="1.1" id="Layer_1" xmlns="http://www.w3.org/2000/svg" xmlns:xlink="http://www.w3.org/1999/xlink" x="0px" y="0px"
	 viewBox="0 0 590 394" style="enable-background:new 0 0 590 394;" xml:space="preserve">
<style type="text/css">
	.st0{opacity:0.4;fill:#E5CE5C;enable-background:new    ;}
	.st1{fill:#210A0A;stroke:#515151;stroke-width:2;stroke-miterlimit:10;}
	.st2{fill:url(#SVGID_1_);}
	.st3{fill:url(#SVGID_2_);}
	.st4{fill:url(#SVGID_3_);}
	.st5{fill:url(#SVGID_4_);}
	.st6{fill:url(#SVGID_5_);}
	.st7{fill:url(#SVGID_6_);}
</style>
<g id="Group_7" transform="translate(-70.9 -89.2)">
	<g id="Group_5">
		<path id="Path_4" class="st0" d="M167.8,364.3h421.3v62.9H167.8V364.3z"/>
		<path id="Path_5" class="st0" d="M167.8,238.6h421.3v62.9H167.8V238.6z"/>
		<path id="Path_6" class="st0" d="M167.8,112.8h421.3v62.9H167.8V112.8z"/>
	</g>
	<g id="Group_6">
		<path id="Path_7" class="st1" d="M167.8,458.6V112.8"/>
		<path id="Path_8" class="st1" d="M589.1,427.2H136.4"/>
		<path id="Path_9" class="st1" d="M230.7,427.2V446"/>
		<path id="Path_10" class="st1" d="M293.5,427.2V446"/>
		<path id="Path_11" class="st1" d="M356.4,427.2V446"/>
		<path id="Path_12" class="st1" d="M419.3,427.2V446"/>
		<path id="Path_13" class="st1" d="M482.2,427.2V446"/>
		<path id="Path_14" class="st1" d="M545.1,427.2V446"/>
		<path id="Path_15" class="st1" d="M148.9,364.3h18.9"/>
		<path id="Path_16" class="st1" d="M148.9,301.4h18.9"/>
		<path id="Path_17" class="st1" d="M148.9,238.6h18.9"/>
		<path id="Path_18" class="st1" d="M148.9,175.7h18.9"/>
	</g>
</g>
<linearGradient id="SVGID_1_" gradientUnits="userSpaceOnUse" x1="123.5993" y1="311.9993" x2="196.2421" y2="239.3565">
	<stop  offset="0" style="stop-color:#511818"/>
	<stop  offset="0.503" style="stop-color:#73000A"/>
	<stop  offset="1" style="stop-color:#CC5252"/>
</linearGradient>
<rect x="150.2" y="212.8" class="st2" width="19.5" height="125.8"/>
<linearGradient id="SVGID_2_" gradientUnits="userSpaceOnUse" x1="170.4643" y1="296.1368" x2="274.8321" y2="191.7691">
	<stop  offset="0" style="stop-color:#511818"/>
	<stop  offset="0.503" style="stop-color:#73000A"/>
	<stop  offset="1" style="stop-color:#CC5252"/>
</linearGradient>
<rect x="212.9" y="149.4" class="st3" width="19.5" height="189.2"/>
<linearGradient id="SVGID_3_" gradientUnits="userSpaceOnUse" x1="241.1999" y1="303.9963" x2="329.8486" y2="215.3476">
	<stop  offset="0" style="stop-color:#511818"/>
	<stop  offset="0.503" style="stop-color:#73000A"/>
	<stop  offset="1" style="stop-color:#CC5252"/>
</linearGradient>
<rect x="275.8" y="180.8" class="st4" width="19.5" height="157.8"/>
<linearGradient id="SVGID_4_" gradientUnits="userSpaceOnUse" x1="288.0892" y1="288.0096" x2="408.7115" y2="167.3872">
	<stop  offset="0" style="stop-color:#511818"/>
	<stop  offset="0.503" style="stop-color:#73000A"/>
	<stop  offset="1" style="stop-color:#CC5252"/>
</linearGradient>
<rect x="338.6" y="116.8" class="st5" width="19.5" height="221.7"/>
<linearGradient id="SVGID_5_" gradientUnits="userSpaceOnUse" x1="343.3735" y1="280.4178" x2="479.1794" y2="144.612">
	<stop  offset="0" style="stop-color:#511818"/>
	<stop  offset="0.503" style="stop-color:#73000A"/>
	<stop  offset="1" style="stop-color:#CC5252"/>
</linearGradient>
<rect x="401.5" y="86.5" class="st6" width="19.5" height="252.1"/>
<linearGradient id="SVGID_6_" gradientUnits="userSpaceOnUse" x1="398.3901" y1="272.5583" x2="549.9149" y2="121.0335">
	<stop  offset="0" style="stop-color:#511818"/>
	<stop  offset="0.503" style="stop-color:#73000A"/>
	<stop  offset="1" style="stop-color:#CC5252"/>
</linearGradient>
<rect x="464.4" y="55" class="st7" width="19.5" height="283.5"/>
</svg>
