<?xml version="1.0" encoding="utf-8"?>
<!-- Generator: Adobe Illustrator 23.0.3, SVG Export Plug-In . SVG Version: 6.00 Build 0)  -->
<svg version="1.1" id="Layer_1" xmlns="http://www.w3.org/2000/svg" xmlns:xlink="http://www.w3.org/1999/xlink" x="0px" y="0px"
	 viewBox="0 0 590 400" style="enable-background:new 0 0 590 400;" xml:space="preserve">
<style type="text/css">
	.st0{fill:#0E0100;}
	.st1{opacity:0.7;}
	.st2{fill:#FFCC66;}
	.st3{fill:#2C2C2C;}
</style>
<g>
	<g>
		<path class="st0" d="M366.5,167.8c0.7-0.7,1.3,18,0.5,20.2c-2.2,6-6.4,12.4-10.1,17.3c-8.9,11.6-18.1,22-28.8,31.9
			c-2.1,1.9-24.7,17-24.7,17.2c0,2,15.9-7.6,17.3-8.7c14.1-11,27.3-26.6,38.1-40.7c5.2-6.7,10.6-15.2,11.5-23.8
			C370.5,179.5,369.1,165.2,366.5,167.8 M366.2,190.1L366.2,190.1L366.2,190.1z M349.7,214.8C349.7,214.8,349.7,214.8,349.7,214.8
			C349.7,214.8,349.7,214.8,349.7,214.8"/>
		<path class="st0" d="M314.7,249c-0.1,2.5-0.6,4.7-1.6,6.9c0.5-1.2-2.5,5.3-2.1,5.5C314,263.2,314.8,247.7,314.7,249"/>
		<path class="st0" d="M239.1,224.6c-10.5,0.5-17.7,7.1-20,17.1c3.3-0.9,4.9-6.2,7.1-9.1c14-17.9,46.9,4.8,60.4,13.1
			c8.1,5,59.3,47.1,56.9,49.4c1.3-1.3-39.5-40.5-44.6-44.1C282.7,239.6,259.9,223.6,239.1,224.6 M260.8,231.4c0,0,0.1,0,0.1,0.1
			C260.9,231.4,260.9,231.4,260.8,231.4 M309.5,262C309.5,262,309.5,262,309.5,262C309.5,262,309.5,262,309.5,262"/>
		<path class="st0" d="M219.4,240C219.4,240,219.8,239,219.4,240"/>
		<path class="st0" d="M236.9,279.5c-1.1,0.5,5.5,5.9,7.1,7.3c-0.2-0.2-2.3-2.3-2.2-2.4c0.4-0.2,10.7,9.9,12.3,11.2
			c13.8,12,30.6,21.2,39.6,37.1c-0.5,0.2-1.7,0.2-1.4,1.2c1.1,4.1,2-3.5,2-3.7c-0.4-5.2-6.7-10.4-9.8-12.8
			c-7.3-5.7-14-10.8-20.8-16.7C260.2,297.7,240.7,277.8,236.9,279.5 M278.7,315.5C278.9,315.6,278.9,315.6,278.7,315.5 M280.6,316.9
			C280.8,317.1,280.8,317.1,280.6,316.9"/>
		<path class="st0" d="M235.7,280C236.3,280.5,235.8,280,235.7,280"/>
		<path class="st0" d="M236.8,280.8c0.9,0.8,1.9,1.5,2.8,2.3C238.8,282.3,236.4,280.4,236.8,280.8"/>
		<path class="st0" d="M237.2,281.5C237.4,281.7,237.1,281.5,237.2,281.5"/>
		<path class="st0" d="M239.1,283C240.4,284.2,238.1,282.1,239.1,283"/>
		<path class="st0" d="M238.8,282.8C238.8,282.8,238.8,282.8,238.8,282.8"/>
		<path class="st0" d="M241.2,285c0.8,0.7,1.6,1.3,2.3,2C243,286.5,240.2,284.1,241.2,285"/>
		<path class="st0" d="M241.2,285.1c0.6,0.5,1.2,1,1.8,1.5C242.8,286.5,240.4,284.5,241.2,285.1"/>
		<path class="st0" d="M247.6,290.4C250.1,292.6,246.9,289.8,247.6,290.4"/>
		<path class="st0" d="M250.4,292.5C251.7,293.8,251.3,293.4,250.4,292.5"/>
		<path class="st0" d="M294.3,333.7C293.2,334.9,294.4,333.6,294.3,333.7"/>
		<path class="st0" d="M320.6,328.9c-7.6,4.5-17.5,3.5-25.7,6.5c-0.1-0.6-0.5-2.5-1.5-2.2c-3,0.8,2.3,3.4,2.6,3.4
			c3.1,0.8,8.3-2.2,11.5-2.8c3-0.6,6.8-0.2,9.6-1.4C318.6,331.7,322.2,328,320.6,328.9"/>
		<path class="st0" d="M248,252.2c-0.5,1.8,18.9,10.4,20.3,10.9c17.6,7.2,16.7,33.8,32.8,44.5c5.6,3.7,10.2,4.6,12.8,10.5
			c1.1,2.6-0.5,4.6,1.6,7.5c0.6,0.8,6.7,6.1,7.5,3.1c0.2-0.7-5.6-4.4-6.4-6.3c-1.1-2.5,0.9-4.7,0-7.2c-3.1-7.8-16.6-10.1-21.9-17.1
			c-7.3-9.6-8.1-22.3-16.8-31.1C275.6,264.9,248.7,249.5,248,252.2 M316.6,322.7C316.6,322.7,316.7,322.7,316.6,322.7
			C316.7,322.7,316.6,322.7,316.6,322.7"/>
		<path class="st0" d="M321.3,329.2c-0.3,0.1-2.2,2.1-2.2,2.1C319.7,332.2,322,329,321.3,329.2"/>
		<path class="st0" d="M375.6,316.8c-4.8,18.5-24,27.6-41.9,25.1c-1.3-0.2-6.2,0.1-2.9,2.2c4.1,2.6,12.6-0.1,16.7-1
			c11.3-2.3,17.5-4.7,24.3-13.7C374.6,326,375,319.3,375.6,316.8 M369.7,330.1C369.7,330.1,369.7,330.1,369.7,330.1
			C369.7,330.1,369.7,330.1,369.7,330.1 M369.7,330.1C369.7,330.1,369.7,330.2,369.7,330.1C369.7,330.2,369.7,330.1,369.7,330.1"/>
		<path class="st0" d="M378.9,312.3c-0.2,0.4-1.9,3.6-2,3.4C378.3,317.3,379.5,311.2,378.9,312.3 M377.3,315.3
			C377.2,315.3,377.2,315.3,377.3,315.3 M377.4,315.3C377.4,315.4,377.4,315.4,377.4,315.3"/>
		<path class="st0" d="M319.4,328.8c-1,0.6,4.9,6.3,5.9,7.4c-6.4,3.6-14.2,6.5-21.4,7.8c0.4-0.1-16.4,1.1-16.5,1.3
			c-1.4,5.2,29-3.9,32.1-5.4c3.7-1.8,6.2-2,5.8-4.9C325.3,334.4,319.6,328.6,319.4,328.8 M324.4,336.6
			C324.4,336.6,324.4,336.6,324.4,336.6C324.4,336.6,324.4,336.6,324.4,336.6 M322.9,337.3L322.9,337.3L322.9,337.3z M324.3,337.7
			L324.3,337.7L324.3,337.7z"/>
		<path class="st0" d="M297.1,335.1c-2.2,2.9-8,3.9-9.6,6.6c-1,1.6-0.7,6.8,0.6,4.5c0.7-1.3-1.8-1.8,0.8-3.5
			C292.4,340.5,296.7,335.5,297.1,335.1"/>
		<path class="st0" d="M286.6,344.6c-0.5,0.5,2.1,2.3,2.4,1.7C289.1,346.1,286.8,344.3,286.6,344.6"/>
		<path class="st0" d="M287.1,344.6c-0.5,0.1,0.5,1.8,1.1,1.3C288.3,345.7,287.6,344.5,287.1,344.6"/>
		<path class="st0" d="M323.6,334.4c1.7-1.7,10.7,25.6,9.3,25.2C338,361,328.1,329.9,323.6,334.4"/>
		<path class="st0" d="M286.4,342.2c-8.7,3.7-18,4.1-25.6,10.3c-1.7,1.4-10.3,15.7-7.1,14.9c1.3-0.4,2.1-5.8,2.8-7.1
			c2.4-4.3,6.8-7.4,10.9-9.8C272.8,347.5,283.4,343.5,286.4,342.2 M271.2,346.7c0.1,0,0.1-0.1,0.2-0.1
			C271.4,346.6,271.3,346.7,271.2,346.7 M271.4,346.6C271.4,346.6,271.5,346.6,271.4,346.6"/>
		<path class="st0" d="M333.1,359.5c-5.8,1.4-13.9,2.7-19.5,3.5c-5.2,0.7-60.4,5.4-60.4,3.9c0,2.4,44,0.1,49.8-0.7
			c6.3-0.9,14.8-1.7,21.7-3.1C327.1,362.5,333.1,359.5,333.1,359.5 M330,361.6C330,361.7,329.9,361.7,330,361.6L330,361.6z
			 M303.5,364.5C303.3,364.5,303.3,364.5,303.5,364.5"/>
		<path class="st0" d="M274.9,324.1c1.8-1.8-1.7,7.7-1.5,7.1c-1,3.5-4.7,4.8,2.1,5.8c1.1,0.2,18.6-0.3,17.5-4.4
			c0.1,0.3-19.7,7-20.9,1.9C272.9,338,279.3,319.7,274.9,324.1 M288.8,334C288.7,334.1,288.7,334.1,288.8,334 M272.1,334.5
			C272.1,334.6,272.1,334.6,272.1,334.5 M272.1,334.6C272.1,334.6,272.1,334.6,272.1,334.6 M275.5,335.6
			C275.5,335.6,275.5,335.6,275.5,335.6 M274.5,336.9C274.5,336.9,274.6,336.9,274.5,336.9C274.6,336.9,274.5,336.9,274.5,336.9"/>
		<path class="st0" d="M289,325.8c-2.4,1.5-4.5,1.9-7.2,2.6c-1.2,0.3-3.6-2-4.5-1.4c-2.4,1.4,5.5,2.8,6.3,2.7
			C286.8,329.4,289.6,325.4,289,325.8"/>
		<path class="st0" d="M270.8,334c-6.1,3.9-14.2,4.9-20.8,7.8c-3.4,1.4-8.6,4-10.7,7.2c-0.6,0.9-3.5,8.6-1.2,8.6
			c-0.3,0,3.6-8.4,4.7-9.6c3.6-3.7,9.9-5.6,14.4-7.4C262.5,338.6,267.9,335.8,270.8,334 M267.8,336.6
			C267.8,336.6,267.8,336.6,267.8,336.6C267.8,336.6,267.8,336.6,267.8,336.6 M242.9,347.8C242.7,347.9,242.7,347.9,242.9,347.8"/>
		<path class="st0" d="M236.6,356.1C236.8,357.5,236.5,356.1,236.6,356.1"/>
		<path class="st0" d="M237.1,356.3c0.6,0.7,16.7,6,17.3,3.8C254.7,359.2,237.3,357.6,237.1,356.3 M237.1,356.3
			C237.1,356.3,237.1,356.3,237.1,356.3"/>
		<path class="st0" d="M228.6,224.8c-11.5,1.9-25.5,8.6-25,22.1c0.4,10.1,7,20.2,14.6,26.4c-7.3-10.4-19.9-25.2-9.5-37.7
			c3.6-4.3,9.3-6.8,14.5-8.4c1.7-0.5,14.6-1.4,14.5-1.2C238.2,224.2,229.3,224.7,228.6,224.8"/>
		<path class="st0" d="M223.4,277.4c14.3,11.2,33.4,20.7,43.1,36.7c2.4,3.9,3,10.1,7.2,11.7c4.1,1.6,11.9-2.7,16-4.2
			c-3.5-1.7-7.4,1.8-11.6,1.7c-7.9-0.2-5.6-4.4-10.3-11.7c-6.1-9.4-17.2-17-25.9-23.8C236.6,283.6,226.5,279.7,223.4,277.4
			 M276.6,323.8c-0.1,0-0.1,0-0.2,0C276.4,323.8,276.5,323.8,276.6,323.8 M273.7,324.3C273.7,324.3,273.7,324.3,273.7,324.3z"/>
		<path class="st0" d="M289.7,167.5c-0.1,12.5-10.9,25.3-15.1,36.9c-2.1,5.9-3.9,12-4.2,18.2c0,0.9,1.4,15.7,3.8,13.2
			c0.5-0.5-2.1-10.2-2.1-11.8c0-6.1,1.8-12,3.6-17.8c3.4-11.1,9.1-21,13.5-31.6C290.3,172.2,289.7,168.3,289.7,167.5 M280.2,193.9
			C280.2,194,280.2,194,280.2,193.9L280.2,193.9z M280.2,194C280.1,194.1,280.1,194.1,280.2,194 M278.3,198.5c0,0,0,0.1-0.1,0.1
			L278.3,198.5z"/>
		<path class="st0" d="M287.6,150.5c-0.6,0.3,5.1,8.8,5.2,9c0.3,0.7,1.8,8,1.3,7.9C296.5,168,291.9,147.9,287.6,150.5"/>
		<path class="st0" d="M287.5,150.6c-0.2,0,0.8,2.3,1.1,2.1C288.6,152.7,287.7,150.5,287.5,150.6 M287.8,151
			C287.8,151,287.8,151,287.8,151z"/>
		<path class="st0" d="M287,149.9c-0.3,0.2,1.7,2.7,1.9,2.5C289,152.3,287.2,149.7,287,149.9"/>
		<path class="st0" d="M290.1,167.1c-0.5,0.2,15,3.7,15.6,1.5c0.3-1.2-4.4-1.2-4.8-1.2C297.7,167.9,293,166,290.1,167.1"/>
		<path class="st0" d="M314,172.4c-1.3,0-14.6,2.9-14.6,2.8c-0.3,1.3,18-1.4,17.9-1.3C317.9,172.9,314.7,172.3,314,172.4
			 M304.3,174.9C304.2,174.9,304.2,174.9,304.3,174.9"/>
		<path class="st0" d="M299.1,175.4c0,0-0.9,4.2-0.2,4.2C299.7,179.7,299.9,174.6,299.1,175.4"/>
		<path class="st0" d="M314.8,179.5c-2.2,0.3-2.9,0.4-2.2,0.3c-2.5,0.3-17.2,2.5-17.7,2c0.2,0.2,0.8-0.1,0.6,0
			c2.1-1.5,21.3,1,22-1.6C317.7,179.3,315.4,179.5,314.8,179.5 M314,180.3C313.9,180.3,313.9,180.3,314,180.3
			C313.9,180.3,313.9,180.3,314,180.3 M313.9,180.3C313.8,180.3,313.8,180.3,313.9,180.3"/>
		<path class="st0" d="M290.5,173.1c-0.4,0.1-1.7,0.9-1,0.8c0.3-0.1,5-0.4,4.9-0.1C294.6,172.9,290.9,173,290.5,173.1"/>
		<path class="st0" d="M288.2,138.5c0.6-0.6,14.1,20,14.6,21.3c0.3,0.7,2.7,15,1.3,14.1c2.7,1.6,2-9.3,1.9-10.1
			c-1.1-4.9-4.5-9.9-7.3-13.8c0,0-0.1-0.1-0.1-0.1C298.5,149.8,289.7,136.9,288.2,138.5 M291.9,142.9
			C292,142.9,292,142.9,291.9,142.9 M293.2,144.7C293.3,144.7,293.3,144.7,293.2,144.7 M305.1,166.9
			C305.1,166.9,305.1,167,305.1,166.9 M305.1,167C305.2,167.1,305.2,167.1,305.1,167 M298.6,150C298.6,150,298.6,150,298.6,150"/>
		<path class="st0" d="M286.5,130c0.1-0.2,8.6,8.7,8.5,8.6c0.8,1,10.8,18.7,11.4,16.6c0.5-1.7-8.7-15.2-10.2-17.2
			C295.9,137.3,288,127.5,286.5,130"/>
		<path class="st0" d="M303.4,138.2c-0.5,0,4.8,6.4,5,7.7c0.1,0.4-4.1,9.1-1.6,9.1c-0.6,0,2-8.3,2.4-9.1c4.1,7.6,4.1,1,10.5,3.5
			c5.9,2.3,3.5,4.2,2.1,8.7c-2.2,6.9-2.7,10.9-3.1,17.9c-0.1,2.2-8.3,35.9-5.2,35.9c1.9,0,3.8-39.2,6.5-43.4c1.5-2.4,9.3-5.3,12-7.7
			c1.3,6.8-1.1,9.5-4.8,14.2c-1.5,1.9-11.6,16.2-10.5,16.9c-0.7-0.4,11.5-16.9,12.9-18.7c-0.1,0.3-1,1.5-0.8,1.6
			c0.3,0.2,0.6-0.7,0.7-1c-1,1.9-4.4,14-2,14.6c-1.8-0.5,14.2-14,14.4-13.5c-0.7-1.2-13.5,10.1-13.7,10.5
			c-1.1-9.5,9.2-16.8,4.7-26.4c-1.5-3.2-17.1-16.9-19.9-9.2C311.3,147,306,138.2,303.4,138.2 M319.9,167.9c0.7-5,2.8-10.3,5.4-14.6
			c2.7,1.8,5.4,3.6,6.5,6.9C327.7,162.5,323.9,166,319.9,167.9 M329.8,172.7c0.1-0.6,0.7-1.1,1.1-1.6
			C330.5,171.6,330.1,172.1,329.8,172.7z"/>
		<path class="st0" d="M392,206.8c-5.3,3.1-5.6,26-6.3,30.9c-1.7,10.7-3.4,21.5-4.7,32.2c-1.1,8.4-3.8,16.7-3.5,23.7
			c0.1,3.1-0.4,11.4,0.4,15.6c1.2,6.5,1.7,2.1,2.3-2.3c0.9-6.4-2.2-12.4-1.4-18.1c0.4-2.7,2.9-6.7,3.4-10.6
			c1.5-11.6,2.8-23.9,4.7-36.2C387.5,236.8,388.4,208.9,392,206.8 M390,217.8C390,217.8,390,217.9,390,217.8L390,217.8z M389.6,220
			C389.6,220,389.6,220,389.6,220 M389.3,223.2C389.3,223.2,389.3,223.3,389.3,223.2C389.3,223.3,389.3,223.2,389.3,223.2
			 M382.1,261.4C382.1,261.4,382.1,261.4,382.1,261.4C382.1,261.4,382.1,261.4,382.1,261.4 M383.9,262.5
			C383.8,262.6,383.8,262.6,383.9,262.5 M379.1,284.7C379,285,379,285,379.1,284.7"/>
		<path class="st0" d="M335.5,280.1c-0.1,0.2,25.3,16.2,27.7,18.3c1.6,1.4,13.8,16.8,14.2,16.5C383,311.7,338.7,274.8,335.5,280.1
			 M346,285.2C345.9,285.1,345.9,285.1,346,285.2"/>
		<path class="st0" d="M379.2,311.5c-0.1,0.5-0.7,2.6-0.3,2.7C379.7,314.4,379.4,311.1,379.2,311.5"/>
		<path class="st0" d="M378.3,311c-0.4,0.2-1.1,3.4-0.4,3.6c0.6,0.2,1.2-2.8,0.8-2.9c-0.4-0.1-0.5,1.7-0.7,2.1
			C378.2,313.4,378.6,310.8,378.3,311 M378.3,312.8C378.2,312.8,378.2,312.8,378.3,312.8"/>
		<path class="st0" d="M385.4,140.5c-8.1,4.7,4.5,16.9,7,19.9c3.8,4.4,4.7,7.3,4.4,13.2c0,0.9-1.5,17.3,0.9,15.9
			c-0.6,0.3-0.3-11.9-0.1-13.5c0.8-6.4,0.6-10.4-3.7-15.7c-2.5-3.1-6.5-5.2-8.1-8.8C384.9,149.4,384.7,140.9,385.4,140.5
			 M384.8,144.9C384.8,145,384.8,145,384.8,144.9 M388.9,156.7C389,156.8,389,156.8,388.9,156.7 M397.1,171.9
			C397.1,172.1,397.1,172.1,397.1,171.9 M396.8,186.2C396.8,186.3,396.8,186.3,396.8,186.2 M395.5,162.3
			C395.7,162.5,395.4,162.1,395.5,162.3"/>
		<path class="st0" d="M350.3,143.9c-6.2,3.6,19.7,12.8,19.5,12.7c10.9,4.1,11.3,11.9,12.7,22.2c0.5,3.5,11.4,27.5,9,28.2
			c4.9-1.4-5.6-20.8-6.7-24.1c-1.9-6-0.2-13.1-2.7-18.8c-3.3-7.5-11.2-9-18.1-11.1C363.5,152.8,347.9,145.2,350.3,143.9
			 M355.5,149.7C355.6,149.8,355.6,149.8,355.5,149.7 M380.6,165.4C380.6,165.4,380.6,165.4,380.6,165.4
			C380.6,165.4,380.6,165.4,380.6,165.4"/>
		<path class="st0" d="M390.6,178.2c0,7.7,5.5,12.3,5.7,19c0,1.4-5.3,11.9-3.8,11.9c2.8,0,4.1-13.6,3.5-15.5
			C394.4,188.1,390.7,182.8,390.6,178.2 M396.3,196.7L396.3,196.7L396.3,196.7z M393.4,205.8C393.4,205.8,393.4,205.8,393.4,205.8
			C393.4,205.8,393.4,205.8,393.4,205.8 M393.3,205.9C393.3,205.9,393.3,205.9,393.3,205.9"/>
		<path class="st0" d="M397.3,187.1c0,0,1.7,9.7,0.5,9.4C399.9,197.1,398,186.4,397.3,187.1 M398.1,193.7
			C398.1,193.8,398.1,193.8,398.1,193.7"/>
		<path class="st0" d="M396.1,181.9c0,1.2,2.9,15.6,1.7,15.3C400.5,197.9,396.1,181.4,396.1,181.9 M398.2,191.3
			C398.2,191.4,398.2,191.4,398.2,191.3C398.2,191.4,398.2,191.4,398.2,191.3 M398.2,194C398.2,194.1,398.2,194.1,398.2,194
			 M398.4,195.1C398.4,195.2,398.4,195.2,398.4,195.1C398.4,195.2,398.4,195.2,398.4,195.1 M398.4,195.2
			C398.4,195.2,398.4,195.2,398.4,195.2"/>
		<path class="st0" d="M314.2,56c-11.4,0.2-24.7,6.5-31,15.7c-2.9,4.1-15.7,31.9-11.7,35.9c-2.4-2.4,8.4-27.9,10.8-32.3
			c5.3-9.6,15.4-15.3,26.1-17.3c20.1-3.8,38,12.7,47.6,28.4c5.6,9.2,8.6,20.8,16.6,26.9c6.2,4.6,12.5,11.9,15.8,19.3
			c1,2.2,3.4,22.5,1.7,22.5c3.1,0,0.9-19.7,0.5-21c-2.9-8.5-9.6-15.6-16.3-21.3C361,101.3,359.2,81.4,344.4,70
			C335.9,63.4,326.3,55.8,314.2,56 M310.4,57.6C310.3,57.6,310.3,57.6,310.4,57.6C310.3,57.6,310.3,57.6,310.4,57.6 M328.6,60.8
			C328.6,60.8,328.6,60.8,328.6,60.8C328.6,60.8,328.6,60.8,328.6,60.8 M336.2,65.1C336.3,65.2,336.3,65.2,336.2,65.1 M289.6,66.1
			C289.6,66.1,289.6,66.1,289.6,66.1C289.6,66.1,289.6,66.1,289.6,66.1 M286.1,69.5C286,69.6,286,69.6,286.1,69.5 M370.8,110.2
			C370.9,110.3,370.9,110.3,370.8,110.2 M388.9,133.4C388.9,133.5,388.9,133.5,388.9,133.4 M390.7,140.5
			C390.7,140.6,390.7,140.6,390.7,140.5 M390.5,153.8C390.5,153.9,390.5,153.9,390.5,153.8C390.5,153.9,390.5,153.9,390.5,153.8
			 M372.6,113.3C372.6,113.3,372.6,113.3,372.6,113.3z"/>
		<path class="st0" d="M272.5,107.3c-9.6,5.4-12.6,18.4-7.4,27.7c0.6,1.2,20.3,31.7,16.8,31.7c5.6,0-15.9-31.7-16.5-32.9
			C260.6,125,264.3,111.9,272.5,107.3 M264,118.3L264,118.3L264,118.3z M273.6,146.1C273.6,146.2,273.6,146.2,273.6,146.1"/>
		<path class="st0" d="M282.5,113.2c-0.7,0.2,4.1,20.7,4.3,23c0.3,3.9-4.2,31.1-4.8,30.9C287.9,168.8,288.8,111.5,282.5,113.2
			 M286.7,145.3C286.7,145.3,286.7,145.3,286.7,145.3C286.7,145.3,286.7,145.3,286.7,145.3"/>
		<path class="st0" d="M292.8,118.4c-7.1,4.2,10,10.9,10.9,11.2c9,2.6,17.6,4.8,24.3,11.9c5.2,5.4,7.5,12.8,12.3,18.5
			c2.1,2.4,5.7,6.5,8.9,7.5c0.4,0.1,8.2,1.2,6.9-1c0.7,1.3-6.9-0.4-7.6-0.7c-2.5-1.1-5.5-4.2-7.4-6.6c-8.2-10.3-12-21.9-25.4-27.5
			C314.3,131,285.3,122.7,292.8,118.4 M297.4,126.5C297.5,126.5,297.5,126.5,297.4,126.5C297.5,126.5,297.5,126.5,297.4,126.5"/>
		<path class="st0" d="M325.6,132.7c-3.3,1.9,14.1,8.3,13.2,7.9c0.4,0.2-0.3-0.1,0.4,0.2c6.2,2.6,8.2,8,10,14.4
			c0.7,2.6,0.5,6.4,2.1,8.7c0.1,0.1,5.1,5.1,5.1,3c0,1.6-5.1-5.1-5.3-5.6c-2.4-5.7-1.4-12.7-5.9-17.7
			C344.8,143,325.2,133,325.6,132.7 M346.7,147.9C346.7,147.9,346.7,147.9,346.7,147.9C346.7,147.9,346.7,147.9,346.7,147.9
			 M339,140.7C339,140.7,338.9,140.7,339,140.7"/>
		<path class="st0" d="M351.9,157.7c0,0.1,15.7,10.2,17.2,11.9c2.5,3,4.5,23,3.1,22.6c3.1,0.9,0.9-18.8-0.6-21.1
			C370,168.7,352.3,156.2,351.9,157.7 M353.8,158.7C353.8,158.7,353.8,158.7,353.8,158.7 M364.3,165.7
			C364.4,165.8,364.4,165.8,364.3,165.7"/>
		<path class="st0" d="M366.3,155.8c-3.9,1.1,11.8,16.8,12.3,18.4c1.3,4.2-0.5,8.7-2.3,12.4c0,0-5.2,9.4-3.2,8.2
			c1.6-1,5.2-9.1,5.9-11.2c1.8-5.6,1.1-10.3-2.5-14.7C376.3,168.6,363.5,156.6,366.3,155.8 M371.3,165.8
			C371.4,165.9,371.4,165.9,371.3,165.8 M378.8,175.7C378.9,175.8,378.9,175.8,378.8,175.7"/>
		<path class="st0" d="M372.3,191c-0.1,0.1-0.3,2.8-0.1,2.8C372.7,193.8,372.4,191,372.3,191"/>
		<path class="st0" d="M372.1,192.1c0-0.1-0.2,3,0.2,2.9C372.8,194.9,372.2,191.5,372.1,192.1"/>
		<path class="st0" d="M343.9,164.7c1.7-0.5-4.6,15.4-5.2,16.4c-3.7,6.1-8.5,11.6-13.2,17c-5.2,5.9-10.5,11.7-15.7,17.6
			c-1.5,1.7-13.6,12.4-13.1,14.2c0.3,1.1,16.8-16.3,18.6-18.3c6.6-7.6,13.7-14.7,19.8-22.7C336,187.7,348.4,163.5,343.9,164.7
			 M335.5,186C335.4,186.2,335.4,186.2,335.5,186 M333.4,188.8C333.3,188.9,333.3,188.9,333.4,188.8 M311.1,216.4
			C311,216.6,311,216.6,311.1,216.4 M298,229.8C297.9,229.9,297.9,229.9,298,229.8"/>
		<path class="st0" d="M344.3,164.3c-0.1,0,0.4,2.1,0.5,2.1C344.9,166.4,344.4,164.3,344.3,164.3"/>
		<path class="st0" d="M342.9,163.4c-0.4,0.3,0.6,2.4,0.8,2.2c0.2-0.1-0.1-1.6-0.1-1.3c0-0.1,0-0.2,0-0.4c0.1,0.3,0.3,2.4,0.3,2.4
			c0.1,0,0.2-2.5-0.3-2.6c-0.3-0.1,0.1,1.8-0.1,1.3C343.5,164.9,343.1,163.2,342.9,163.4 M343.7,163.8
			C343.7,163.8,343.7,163.9,343.7,163.8 M343.8,165.4C343.8,165.4,343.8,165.4,343.8,165.4 M343.6,165.1
			C343.6,165.1,343.6,165.1,343.6,165.1"/>
		<path class="st0" d="M342.8,162.1c0,0.3,0.7,2.1,1.1,1.8c0,0,0-0.1,0-0.1c0,0.1-0.7-1-0.8-1.1c0.2,0.2,1.8,2.7,1.4,2.8
			C345.4,165.2,342.8,161.9,342.8,162.1 M343.7,163.7C343.7,163.8,343.7,163.8,343.7,163.7 M344.1,164
			C344.1,164,344.1,164,344.1,164C344.1,164,344.1,164,344.1,164"/>
		<path class="st0" d="M220.3,239c-1.5,0.9-1.4,7.3-1.3,8.5C220.2,246.7,220.3,239,220.3,239"/>
		<path class="st0" d="M220.3,242C220.3,242,220.3,242,220.3,242L220.3,242z"/>
		<path class="st0" d="M220.3,242C220.3,242,220.3,242,220.3,242C220.3,242,220.3,242,220.3,242"/>
		<path class="st0" d="M219.9,240c-3.8,1.1,0,15.9,0.7,18.4c2.4,7.9,7.7,19.2,16.3,22.3c5.1,1.8,0-1.8-1.4-3.4
			c-3.5-3.8-7.3-6.1-9.9-10.7C223.7,263.2,216.4,241,219.9,240"/>
		<path class="st0" d="M215,268.4c-0.8,0.8,13,10.7,12.7,11.2C228.7,277.9,214.1,269.3,215,268.4 M219.4,272.8
			C219.4,272.8,219.4,272.8,219.4,272.8 M222.2,274.3C222.2,274.3,222.2,274.3,222.2,274.3C222.2,274.3,222.2,274.3,222.2,274.3
			 M222.9,274.9C222.9,274.9,223.1,275,222.9,274.9 M223.6,275.3C223.6,275.4,223.6,275.4,223.6,275.3
			C223.6,275.4,223.6,275.4,223.6,275.3 M227.2,279.1C227.2,279.1,227.2,279.1,227.2,279.1C227.2,279.1,227.2,279.1,227.2,279.1
			 M223.7,275.5C223.7,275.5,223.7,275.4,223.7,275.5C223.7,275.4,223.7,275.5,223.7,275.5 M223.7,275.4
			C223.7,275.4,223.7,275.4,223.7,275.4 M223.7,275.4C223.7,275.4,223.7,275.4,223.7,275.4 M223.1,275C223.1,275,223,275,223.1,275
			C223,275,223.1,275,223.1,275 M220,273.3C220,273.3,220,273.3,220,273.3C220,273.3,220,273.3,220,273.3 M219.8,273.1
			C219.8,273.1,219.8,273.1,219.8,273.1"/>
		<path class="st0" d="M216.1,269.6c-0.5,0.7-0.2,0.7,0.2,1.5c-0.2-0.1-0.8-0.9-1-0.7c-0.6,0.6,17,12.7,17.3,11.6
			C232.9,280.6,216.3,269.6,216.1,269.6 M225,276.2C225,276.2,225,276.2,225,276.2C225,276.2,225,276.2,225,276.2 M225.5,276.6
			C225.5,276.6,225.5,276.6,225.5,276.6"/>
		<path class="st0" d="M217,270.2c0.3-0.2-0.4,2.1-0.8,1.5c0.1,0.2,8,6.6,8.6,6C225.7,276.8,217.7,269.8,217,270.2 M222.5,276.3
			C222.5,276.3,222.5,276.4,222.5,276.3"/>
		<path class="st0" d="M220.6,238.9c-4.1,3.8,1.3,13.6,0.5,15.1C222.6,251.5,219.8,240.7,220.6,238.9"/>
		<path class="st0" d="M219.2,244.9c0.1,9.6,4.1,19.3,9.8,27c0.6,0.8,9.4,11.9,10.6,10.7c0.4-0.4-5.4-6.2-6.3-7.1
			c-3.6,0-7.5-9.5-8.6-12.2c0,0.1-1.6-4.5-2.2-6.1C221.5,254.9,219.2,246.1,219.2,244.9 M233.3,275.5
			C233.3,275.5,233.3,275.5,233.3,275.5C233.3,275.5,233.3,275.5,233.3,275.5"/>
		<path class="st0" d="M226.7,267.3c0.7,1.6,1.6,3.1,2.8,4.4c-0.4-0.5-0.4-0.7-0.2-0.4C228.4,270.1,227.4,268.8,226.7,267.3"/>
		<line class="st0" x1="233.3" y1="275.5" x2="233.3" y2="275.5"/>
		<polyline class="st0" points="233.3,275.5 233.3,275.5 233.3,275.5 		"/>
		<polyline class="st0" points="233.3,275.5 233.3,275.5 233.3,275.5 		"/>
		<path class="st0" d="M239,282.6C239.4,282.9,238.6,282.2,239,282.6"/>
		<path class="st0" d="M220.8,237.5c-0.9,2.1-4,15.6-0.9,15.6C218.7,253.1,220.2,239,220.8,237.5 M220.7,237.8
			C220.7,237.8,220.7,237.8,220.7,237.8 M220.5,239.3C220.5,239.3,220.5,239.3,220.5,239.3C220.5,239.3,220.5,239.3,220.5,239.3
			 M219.6,251.5C219.6,251.5,219.6,251.5,219.6,251.5C219.6,251.5,219.6,251.5,219.6,251.5"/>
		<path class="st0" d="M221,235.9c-1.2,3.3-1.4,16.8-1,16.4c0.5-0.5-0.2-7.4-0.1-8.2C220.1,242.4,220.9,236.2,221,235.9"/>
		<path class="st0" d="M295.8,182.6c6.6,0-8.2,31.6-8.9,33.3c-1,2.3-7.6,25.7-3.7,24.6c-0.1,0,6.2-27.1,7.7-30.7
			C292.3,206.3,302.7,182.6,295.8,182.6"/>
		<path class="st0" d="M283.2,239.6c-1.3,0.4-0.1,3.5,0.8,3C284.4,242.2,283.6,239.5,283.2,239.6"/>
		<path class="st0" d="M272,123.4c-3.6,6.1,4.8,15,7.4,19.9c0.3,0.6,4.4,11.3,4.3,11.3c4.5,0-7.8-19.3-7.5-18.8
			C274.6,132.9,271,125.3,272,123.4"/>
		<path class="st0" d="M283.9,151.6c-0.3,0.4,0.4,5.8,0.6,5.8C285.2,157.4,284.3,151.2,283.9,151.6"/>
		<path class="st0" d="M283.5,153.3c0,0.8-0.4,5,0.2,5.6C284.5,159.7,283.4,152.1,283.5,153.3"/>
		<path class="st0" d="M271.8,108.1c-3.9,2-6,5.8-7.4,9.3c-3.9,9.4,1,15.9,5.6,23.4c1.1,1.7,11.9,27.9,12.1,27.9
			c3.7,0-12.5-31-14.3-34C262.7,126.4,263.1,112.5,271.8,108.1 M264.1,118C264,118.1,264,118.1,264.1,118 M263.7,126.4
			C263.7,126.6,263.7,126.6,263.7,126.4 M278.2,152.4C278.2,152.4,278.2,152.4,278.2,152.4C278.2,152.4,278.2,152.4,278.2,152.4
			 M277.4,155.1C277.4,155.1,277.4,155.1,277.4,155.1C277.4,155.1,277.4,155.1,277.4,155.1 M277.4,155.1
			C277.5,155.3,277.5,155.3,277.4,155.1"/>
		<path class="st0" d="M263.7,130c-1,1,3.3,6.3,3.6,6.2C268.2,135.7,264,129.8,263.7,130 M263.9,131.7
			C263.9,131.7,263.9,131.5,263.9,131.7"/>
		<path class="st0" d="M263.1,120.9c-1.6,4.6,4.2,14.4,4.2,14.3C267.9,133,262.7,122.2,263.1,120.9 M264,127.1
			C264,127.2,264,127.2,264,127.1"/>
		<path class="st0" d="M270.9,107.9c-3.1,3.3-5.3,6.2-6.5,10.9c-0.1,0.4-1.1,15.6,1.2,14.9c-0.1,0-0.5-13.1-0.1-14.5
			C266.1,116.8,270.9,107.9,270.9,107.9 M264.9,122C264.9,122.1,264.9,122.1,264.9,122"/>
		<path class="st0" d="M284.1,71.2c-1.5,2.7-14.1,38.1-11.6,38.1C272.3,109.4,283.1,73.2,284.1,71.2 M281.9,77
			C281.9,77.1,281.9,77.1,281.9,77 M280.4,78.8C280.4,78.8,280.3,78.8,280.4,78.8C280.3,78.8,280.4,78.8,280.4,78.8"/>
		<path class="st0" d="M275.3,96.3c-2.4,0.8-3.6,12.4-2.8,12.6C273.4,109.2,274.3,96.7,275.3,96.3 M272.5,107.2
			C272.5,107.2,272.5,107.2,272.5,107.2"/>
		<path class="st0" d="M397.4,187.4c1.1-0.3,0.2,10.6,0.2,10.6C399.1,198.4,399.4,186.8,397.4,187.4"/>
		<path class="st0" d="M397.3,187.6c0.4-0.1,0,9.7-0.3,10.4c-0.1,0.3-1.3,1.6-0.7,2C398.3,201.1,399.3,187,397.3,187.6 M397.1,198
			C397.1,198,397.1,198,397.1,198C397.1,198,397.1,198,397.1,198 M397.1,198C397.1,198,397.1,198,397.1,198"/>
		<path class="st0" d="M390.1,153.5c-0.3,0.8,0.4,4.1,1.2,3.7C391.2,157.2,390.3,153,390.1,153.5"/>
		<path class="st0" d="M390.7,204.6c0,0,0.6,4.5,1.3,3.8C392.1,208.2,390.6,203.8,390.7,204.6"/>
		<path class="st0" d="M391,205.3c-0.8,0.2,1.5,4.1,1.8,3.6C392.9,208.9,390.9,205.4,391,205.3"/>
		<path class="st0" d="M372.4,191.5c0,0.4-0.4,2.5,0.3,2.3c0-0.1,0.1-0.2,0.2-0.2C373.1,192.9,372.4,190.9,372.4,191.5"/>
		<path class="st0" d="M350.8,157.5c-0.7,1.2,17.1,11.2,17,11.5C368.7,167.4,351.7,156.1,350.8,157.5 M364.3,166.9
			C364.3,166.9,364.3,166.9,364.3,166.9C364.3,166.9,364.3,166.9,364.3,166.9 M364.4,166.9C364.4,167,364.4,167,364.4,166.9
			C364.4,167,364.4,167,364.4,166.9"/>
		<path class="st0" d="M350.4,157.1c1.5-0.9,17.8,11.7,20.1,15.4c1.1,1.8,4.3,17.3,2.8,17.3c1.8,0-0.9-15.4-1.8-17.1
			C370.1,170.1,354.2,154.8,350.4,157.1 M364.8,166.8C364.8,166.8,364.8,166.8,364.8,166.8C364.8,166.8,364.8,166.8,364.8,166.8
			 M372.8,179.1C372.8,179.1,372.8,179.1,372.8,179.1"/>
		<path class="st0" d="M372.9,187.3c-0.3,0.4-0.9,7-0.1,6.8C373.7,193.9,373.2,187,372.9,187.3"/>
		<path class="st0" d="M316.6,173.5c-0.1,0.2,1.2,1.2,1.4,1C318.3,174.3,316.9,173.1,316.6,173.5"/>
		<path class="st0" d="M317,173.5c-0.5,0.3,1.1,1.5,1.4,1C318.7,174.1,317.4,173.3,317,173.5"/>
		<path class="st0" d="M318.7,174.9c0.4-0.1-1.7,6.1-1.3,6.2C319,181.6,320.3,174.5,318.7,174.9"/>
		<path class="st0" d="M330.2,172c-2.5,2.1-17.5,21.8-14.6,22.6C316.1,194.7,329.9,172.2,330.2,172 M324.5,177.8
			C324.5,177.8,324.5,177.9,324.5,177.8C324.5,177.9,324.5,177.8,324.5,177.8"/>
		<path class="st0" d="M315.8,193c-0.3,1.2-3.7,17.1-1.7,17.1C314.4,210.1,315.8,192.7,315.8,193 M315,200.8
			C315,200.9,315,200.9,315,200.8 M314.8,202C314.8,202.1,314.8,202.1,314.8,202"/>
		<path class="st0" d="M342.4,174.7c-1.5,0.8-17.4,12.9-15.6,13.4C328.6,188.6,342.4,174.7,342.4,174.7"/>
		<path class="st0" d="M331.7,170.2c-0.5,0.8-7.9,17.8-5.1,18.6C326.3,188.7,331.7,170.2,331.7,170.2 M326.3,188
			C326.3,188,326.3,187.7,326.3,188"/>
		<path class="st0" d="M328.6,185.8c-0.2,0.3-2.2,2.3-1.6,2.6C328.2,189.2,329,185.2,328.6,185.8 M328.3,187.1
			C328.3,187.1,328.3,187.1,328.3,187.1"/>
		<path class="st0" d="M337.9,178.1c-3.1,2.2-8.3,5.4-10,8.9c-0.6,1.3,0.3,0.6,0.3,0.1C328.2,185,336.8,178.9,337.9,178.1
			 M327.9,187.6C327.9,187.6,327.9,187.6,327.9,187.6 M328.2,187.2C328.2,187.2,328.2,187.2,328.2,187.2 M328,187
			C328,187,328,187,328,187"/>
		<path class="st0" d="M341.5,175.4c0.8-0.5-5.6,3.3-5,3.9C337.1,179.9,342.4,174.8,341.5,175.4"/>
		<path class="st0" d="M331.7,160.1c-1.7,1.5-11.8,8.5-12,8.4C324.3,166.9,329.2,162.3,331.7,160.1 M328.4,163.6
			C328.4,163.6,328.4,163.6,328.4,163.6"/>
		<path class="st0" d="M286.9,149.4c-0.4,0.2,0.8,2,1.2,1.7C288.4,151,287.4,149.1,286.9,149.4 M287.7,150.1
			C287.8,150.2,287.8,150.2,287.7,150.1C287.8,150.2,287.8,150.2,287.7,150.1"/>
		<path class="st0" d="M286.7,149.2c1.9-1.1,8.1,19.3,7,19C296.8,169.1,290.8,146.8,286.7,149.2"/>
		<path class="st0" d="M287.7,137.8c0.4-0.4,15.7,22.4,16.5,24.9c0.9,2.6,0.9,4.7,0.9,7.1c0,1-2.4,3.9-1.9,4.7
			c0.6,1,2.6-3.9,2.7-4.5c0.6-3.6-0.5-6.5-2-10C302.8,157.5,290.1,135.4,287.7,137.8 M293.5,145.3
			C293.5,145.3,293.5,145.3,293.5,145.3C293.5,145.3,293.5,145.3,293.5,145.3 M296.5,149.1C296.6,149.1,296.6,149.1,296.5,149.1
			C296.6,149.1,296.6,149.1,296.5,149.1 M303.4,173.9C303.4,173.9,303.4,173.9,303.4,173.9"/>
		<path class="st0" d="M304.7,172.2c-0.3,0.6-1.5,1.9-0.7,2.7C304.4,175.4,305.1,171.4,304.7,172.2 M304,174
			C304,174,304,174,304,174"/>
		<path class="st0" d="M324.4,153.8c-1.5,1.6-8.8,22.4-5.5,21.4C318.3,175.4,323.3,155,324.4,153.8"/>
		<path class="st0" d="M318,174.8c1-0.6-0.1,5.7-0.1,5.7c1.6,0.9,1.8-5.9,1.1-5.6C319,174.8,318,174.8,318,174.8 M319,175
			C319,175.1,319,175.1,319,175"/>
		<path class="st0" d="M317.3,174.2c-0.4,0.4,1.5,2.5,1.9,2.1C319.6,175.8,317.8,173.7,317.3,174.2"/>
	</g>
	<g>
		<g class="st1">
			<g>
				<path class="st2" d="M256.9,12.8c-4.5,6.2-0.1,26.7,0.2,34.3c0.4,12.7,0.9,25.3,0.8,38.1c-0.3,27.1,0,54.7-2.3,81.4
					c0,0.4-0.1,0.8-0.1,1.2c-0.2,2.6-1.6,59.7,2.6,59.7c1.7,0,2.3-100.8,2.3-109.3c0-18.3,1.4-36.6,0.6-54.9
					c-0.4-8.9-0.9-17.8-1.4-26.7c-0.3-4.9-0.3-9.7-0.4-14.6C259.2,21.8,258.6,10,256.9,12.8"/>
			</g>
		</g>
		<g class="st1">
			<g>
				<path class="st2" d="M409.5,259.8c-2.6,3.5-0.3,14.8-0.3,19.3c0.1,7.9-0.7,15.8-1.1,23.7c-0.2,3.3-1.6,37.6,3.3,33.4
					c2.6-2.1,0.6-11.5,0.6-14.4c0.1-9.1,0.4-18.2,0.7-27.3c0.2-7.1,0-13.9-0.5-20.9C412.1,272.2,410.8,257.5,409.5,259.8"/>
			</g>
		</g>
		<g class="st1">
			<g>
				<path class="st2" d="M244.5,317.8c-22.3,0.2-44.8,0.6-67.1,2c-3,0.2-21.2,0.2-21.7,1.9c-1.5,5.1,13.2,2.9,15.4,2.8
					c24.4-1,49-2.7,73.4-2.2c2.5,0.1,23.7,2.4,21.3-2.3C264.3,317.1,248.4,317.7,244.5,317.8"/>
			</g>
		</g>
		<g class="st1">
			<g>
				<path class="st2" d="M265.4,320c-6.9,0.3,1.8,4.3,1.8,2.2C267.2,320.4,267.8,319.8,265.4,320"/>
			</g>
		</g>
		<g class="st1">
			<g>
				<path class="st2" d="M265.1,320.4c-4.5,0.3,3.8,3.1,2.4,1.8C267,321.7,267.1,320.3,265.1,320.4"/>
			</g>
		</g>
		<g class="st1">
			<g>
				<path class="st2" d="M257.4,304.8c-1.9,2.8-1.4,18.9,0.8,16.6C261.4,318,258,304,257.4,304.8"/>
			</g>
		</g>
		<g class="st1">
			<g>
				<path class="st2" d="M408.7,336.8c-2,3.2,2.9,3.4,2.4,2.5C411.1,339.3,409.6,335.3,408.7,336.8"/>
			</g>
		</g>
		<g class="st1">
			<g>
				<path class="st2" d="M371.6,333c-4.3,5.9,12.7,5.6,14.9,6.1c7.1,1.5,14.1,4,21.3,5.3c8.5,1.6,17.2,3.3,25.8,4.4
					c1.1,0.1,15.7,3.3,15.8,3.2c3.4-3.3-32.8-10.2-36.3-10.9C409.2,340.4,374.3,328.5,371.6,333"/>
			</g>
		</g>
	</g>
</g>
</svg>
