<?xml version="1.0" encoding="utf-8"?>
<!-- Generator: Adobe Illustrator 23.0.3, SVG Export Plug-In . SVG Version: 6.00 Build 0)  -->
<svg version="1.1" id="Layer_1" xmlns="http://www.w3.org/2000/svg" xmlns:xlink="http://www.w3.org/1999/xlink" x="0px" y="0px"
	 viewBox="0 0 590 550" style="enable-background:new 0 0 590 550;" xml:space="preserve">
<style type="text/css">
	.st0{fill:#2C2C2C;}
	.st1{fill:none;}
</style>
<g>
	<path class="st0" d="M481.2,237.5c-0.6,0.2-0.9,1.5-1,1.8C480.1,239.3,482.6,237.2,481.2,237.5"/>
	<path class="st0" d="M481,237c-1,0.7-1.4,2.7-1.8,3.8C479.4,240.3,481,237,481,237"/>
	<path class="st0" d="M505.9,434.2c-0.6,0.2-1.3,0.3-1.9,0.5c1.1-0.2,2.2-0.4,3.3-0.6C506.7,434,506.3,434.1,505.9,434.2"/>
	<path class="st0" d="M447.4,387.8c-0.9,0-3.9,0.4-2.3,1.9c0.5,0.5,4.8,0.2,6,0.8c3.5,1.9,7.8,5.1,9.9,8.5c2.3,3.7,3.4,8,5.4,11.9
		c0.5,1,1.8,3.3,3.1,1.3c0.5-0.8-0.3-1.8-0.5-2.5c0,0.1-1.1-2.7-0.7-1.6c-1.9-4.4-4-10.2-7.6-13.5
		C457.5,391.6,451.9,387.6,447.4,387.8 M468.8,409.4C468.9,409.6,469.2,410.4,468.8,409.4"/>
	<path class="st0" d="M464.2,382.4c-5.5,0-11.6,0.1-16.7,2.4c-1.7,0.8-5,2.9-1.4,2.2c2.6-0.5,5-2.3,7.7-2.7
		c10.5-1.8,22.4-0.9,31.8,2.9c6.9,3,11.5,7.2,16.1,13.1c4.1,5.1-2.2,6.9-6.7,7.4c-6.4,0.8-12.8,1.4-19.1,2.6
		c-1,0.2-10.2,2.3-7.4,3.3c1,0.4,4-1,5.2-1.2c1.6-0.3,3.2-0.5,4.8-0.8c5.8-1,11.9-0.9,17.7-2.1c2.8-0.6,7.2-1.2,8.2-4.3
		c1-2.9-1.5-5.5-3.1-7.4C491.7,386.7,479.1,382.3,464.2,382.4 M475.9,382.9C476.1,383,476.1,383,475.9,382.9 M476.2,384.2
		C476.3,384.2,476.3,384.2,476.2,384.2 M500.6,398.8C500.6,398.8,500.7,398.8,500.6,398.8C500.7,398.8,500.6,398.8,500.6,398.8
		 M494.7,407.7h-0.1H494.7 M492.7,408C492.4,408,492.4,408,492.7,408 M495,407.7C495.3,407.6,495.3,407.6,495,407.7"/>
	<path class="st0" d="M333.3,345.5c-2.3,2.9-4.5,5.2-5.4,8.9c-0.4,1.5-0.6,3.1-0.8,4.6c-0.1,0.7-0.9,6.8,0.8,5.2
		c0.6-0.6,0.2-5.1,0.4-6.4c0.2-1.9,0.5-3.9,1.3-5.7c0.8-1.9,2.4-3.3,3.3-5.1C332.9,346.9,333.9,344.7,333.3,345.5 M333.3,346.5
		L333.3,346.5L333.3,346.5 M332.8,347L332.8,347 M332.4,347.6C332.3,347.7,332.3,347.7,332.4,347.6
		C332.3,347.7,332.3,347.7,332.4,347.6 M327.4,357.5L327.4,357.5L327.4,357.5"/>
	<path class="st0" d="M310,353.5c-0.7,2.3-1.4,4.6-2.3,6.8c-0.3,0.7-6.3,11.2-6.1,11.3c0.9,0.5,6.4-10.4,6.9-11.6
		c0.4-1.1,1-2.7,1.5-4.1C310.2,355.5,310.4,352.5,310,353.5"/>
	<path class="st0" d="M407.4,396.6c-2.2,1.3,6,7,7.1,7.3c3.4,0.9,7,0.3,10.5,0.7c3.4,0.4,6.3,1.7,9.1,3.7c0.9,0.7,4.5,4.7,5.1,2.6
		c0.5-1.7-3.5-3.9-4.5-4.6c-2.9-2-5.9-3.3-9.4-3.7c-3.7-0.4-7.9,0.7-11.4-0.3C412.5,401.8,407.3,396.6,407.4,396.6 M409.6,399.1
		C409.6,399.2,409.6,399.2,409.6,399.1"/>
	<path class="st0" d="M424.3,418.5c0.1-0.1,9,9.5,9,9.5c2.4,0.1-3.1-5.3-3.7-5.8c-1.1-0.9-2.2-1.7-3.3-2.5
		C426.2,419.6,424.6,418.1,424.3,418.5 M431.5,425.7C431.6,425.7,431.6,425.7,431.5,425.7 M426.4,419.7
		C426.4,419.8,426.3,419.6,426.4,419.7"/>
	<path class="st0" d="M421.9,422.7c0.3-0.3,5,9.9,5.3,11.3c0.4,1.5,1.1,3.2,1.3,4.8c0.1,1-0.7,3.3-0.3,4c0.9,1.5,1.4-2.6,1.4-3.3
		c-0.1-1.9-0.8-3.9-1.3-5.7C428.1,432.9,423.4,421.1,421.9,422.7"/>
	<path class="st0" d="M415.6,416.1c0.2-0.2,3.1,7.3,3.2,8.4c0.2,2.2,0.1,4.5,0.1,6.7c0,0.8-0.7,8,0.8,7.3c1.6-0.8,0.8-13.7,0.4-15.8
		C419.9,421.5,417.2,414.5,415.6,416.1"/>
	<path class="st0" d="M257.5,282.8c0.2-0.4,6,4.9,6.5,5.4c1.8,2.1,2.9,5.2,5.1,6.9c2.6,2.1,6.3,3,8.8,5.3c2.3,2.1,1.8,4.7,1.9,7.6
		c0.2,6.7,2.8,9.7,8.9,11.6c3.5,1.1,9.5,1.8,11.4,4.9c1.2,1.7,2.3,3.4,3.2,5.4c0.8,1.8,1,4.4,0.7,6.6c-0.1,0.9-0.1,2.4-0.3,3.4l0,0
		c0,0.2-0.7,2.6-0.4,2.7c0.7,0.2,1.3-9.7,1.1-11.1c-0.6-3.1-2.5-7.1-4.7-9.4c-3.5-3.5-9.7-4.1-13.5-5.8c-5-2.1-4-7.5-4.6-12
		c-0.6-5-4.6-6.6-8.6-8.9c-2.3-1.3-3.5-1.7-4.9-3.9c-1.2-1.9-2.2-3.1-3.7-4.7C263.6,286.4,258.6,280.9,257.5,282.8 M278.3,300.7
		L278.3,300.7L278.3,300.7 M303.6,340C303.6,340,303.6,339.9,303.6,340"/>
	<path class="st0" d="M261.9,276.4c-2,0.1,3.9,3.4,4.3,3.9c1.9,2.1,4.8,5.1,6.2,7.6c1.3,2.2,1.5,5,3.4,6.9c1.4,1.4,3.6,2.7,5.4,3.6
		c5.2,2.7,9.8,1.7,11.4,8.4c1.6,6.9,6.3,10,10.7,15.1c0.1,0.2,1.1,1.9,1.2,2.1c1.2,2.9,2,5.9,2.4,9.1c0.1,1.1,0.8,11.6,0.9,11.6
		c2.4,0-2-18.4-2.8-20.3l0,0c-1-2.2-2.8-4.1-4.1-5.9c-2.1-2.6-5-5.3-6.2-8.7c-1.1-3.1-0.8-6.5-3.3-9c-4.4-4.4-12.8-3-15.7-9.5
		c-0.8-1.6-1.1-3.4-2.2-4.9s-2.6-2.6-3.8-4C267.6,280.1,265.7,276.3,261.9,276.4 M289.9,301.5L289.9,301.5L289.9,301.5 M301.2,318.8
		L301.2,318.8L301.2,318.8 M305.1,324.4C305.1,324.4,305,324.3,305.1,324.4 M300.9,318.5C301,318.5,300.9,318.5,300.9,318.5"/>
	<path class="st0" d="M260.8,270.7c-2,0.7-0.4,1.2,0.3,1.5c1.2,0.5,4,0.2,5.3,0.4c6.3,1,11.1,10.6,12.8,14.7
		c4.3,10.3,14,17.6,22.6,24.9c3.7,3.2,8.7,5.7,9.4,11c0.7,5,0.2,11-0.3,15.6c-0.2,1.5-0.1,3.4,0.8,1.2c0.8-2,0.7-5,0.7-7.1
		c0-4.3,0.1-9.7-1.9-13.6c-3.8-7.3-11.8-12.5-17.6-18c-6.2-5.9-9.7-13.4-14.5-20.4C274.7,275.6,267.8,269.4,260.8,270.7 M261,272.2
		C260.9,272.2,260.9,272.2,261,272.2 M310.6,321L310.6,321 M279.2,287.4C279.1,287.3,279.1,287.3,279.2,287.4 M266.2,272.5
		C266,272.5,266,272.5,266.2,272.5"/>
	<path class="st0" d="M267.8,265.3c0,1,7.5,2.1,8.5,2.6c4.3,2.1,6.7,4.8,8.9,8.9c1.9,3.7,3.9,8,6.5,11.2c2.6,3.3,6.9,5.4,10,6.7
		c2.8,1.2,6.3,3.7,8.2,6.2c1.8,2.4,1.9,4.9,2.2,7.8c0.4,3.1,0.6,6.4,1.3,9.4c0.8,3.3,2.9,5.4,4.6,8.2c0.8,1.5,1.2,2.6,1.3,4.3
		c0,0.6-0.5,2.8-0.1,3.1c1.6,1,0.5-6.4,0.2-7.1c-1.2-2.7-3.3-4.9-4.1-7.8c-0.9-3.1-1-6.5-1.3-9.6c-0.4-3.6-0.4-7-2.7-10.1
		c-1.8-2.4-4.5-4.8-7.2-6.3c-5.2-2.9-9.5-4.4-12.8-9.7c-3.2-5.3-5.8-11.7-11.2-15.2C279,267.3,267.8,262.9,267.8,265.3 M268.4,266
		C268.7,266,268.7,266,268.4,266 M284.2,274.6c0,0,0,0.1,0.1,0.1C284.2,274.7,284.2,274.6,284.2,274.6"/>
	<path class="st0" d="M266.5,258c0-0.6,14.1,2.5,15.3,4c3.4,4.2,4.5,10.4,9.8,12.6c4.4,1.8,9.1,2.6,12.7,6c4.3,4.2,4.4,9.7,5.8,15.2
		c0.4,1.6,2.5,14,6.2,11.1c1.5-1.2-2.2-9.4-2.7-11c-1.7-6.1-2.1-12.2-6.9-16.8c-4.9-4.7-11.6-4-16.7-7.7c-4.2-3.1-5.1-9.4-10.3-11.4
		C278.6,259.7,266.5,256.4,266.5,258 M277.6,259.5L277.6,259.5L277.6,259.5z"/>
	<path class="st0" d="M312.6,299.2c-0.7,0.4-0.2,1.3,0,1.9c0.4,1,1.3,3.4,1.9,4.9c2.1,4.9,6.9,7,8.3,12.4c0.7,2.9-0.1,6.3,1,9
		c1,2.7,1.2,1.6,1.7-0.2c1.2-5,0.1-13.1-3.8-16.7c-2.6-2.4-4.6-3.7-6.2-7.2C314.9,302.3,314,298.4,312.6,299.2"/>
	<path class="st0" d="M305.1,314.3c-0.7,0.7,2.6,5.5,2.9,5.8c4.1,5.4,4.4,11.5,3.6,18.2c0,0.1-0.7,2.9-0.5,3
		c1,0.3,1.9-15.5,0.9-18.3C311.2,321.2,306.2,313.2,305.1,314.3 M308.2,320.3L308.2,320.3"/>
	<path class="st0" d="M260.6,271.4c-0.4,0.3-5.5,3.1-3.7,3.6c0,0,2.6-2,3-2.4C260.1,272.5,261.6,270.7,260.6,271.4"/>
	<path class="st0" d="M259.7,271.5c-0.5,0.5-4.5,3.4-4.2,3.8c0.4,0.8,3-1.5,3.3-1.7c0.2-0.2,2-1.6,1.5-2.1
		C260,271.4,259.9,271.4,259.7,271.5 M258.3,272.9L258.3,272.9L258.3,272.9"/>
	<path class="st0" d="M269.7,265.7c-1,0.1-5.9,0.2-5.7,1.3c0.1,0.4,4.3-0.3,4.9-0.6C269,266.3,270.6,265.6,269.7,265.7"/>
	<path class="st0" d="M247.9,369.2c-1.4,5.3,1.3,8.9,3,13.3c1.1-1.8,0.8-1.2,0.1-2.8c-0.8-1.9-1.7-2.7-2-4.9c-0.3-1.9-0.3-4-0.6-5.9
		C248.2,368.9,248.1,369,247.9,369.2"/>
	<path class="st0" d="M247.5,377C247.8,377.5,247.5,376.3,247.5,377"/>
	<path class="st0" d="M249.6,381C249.5,380.9,249.3,380.6,249.6,381"/>
	<path class="st0" d="M250.3,382.4C250.7,383.2,250.2,382,250.3,382.4"/>
	<path class="st0" d="M251.6,384.7c0.1,0.7,0,2.9,0.2,3.4c0.6,1.2,1,0.6,2.7,1c0.2-2.4-0.5-4.6-1.6-6.7
		C252.5,383.2,252,383.9,251.6,384.7"/>
	<path class="st0" d="M251.2,390.8c-1.3,3-2.8,5.9-3.5,9.1c-0.6,2.8-0.4,7.3-0.2,8.6c1.1,8.1,5.3,15.2,3.5,23.5
		c-1,4.3-3.6,7.3-3.5,12c0.1,4.3,0.9,6.6,2.4,10.2c0.3-1-1-2.9-1.2-3.9c-0.6-2.4-0.5-5.4-0.2-7.9c0.2-2.7,1.3-4.4,2.7-6.6
		c1.7-2.8,2.3-6.1,2.5-9.4c0.3-5.6-1.8-11.3-2.6-16.9c-1-7.3,1.4-12,3.3-18.8C253.7,390.7,251.5,390.1,251.2,390.8 M251.3,390.5
		c0,0.1,0,0.1-0.1,0.2C251.3,390.6,251.3,390.6,251.3,390.5"/>
	<path class="st0" d="M251.5,413.1C251.5,413.2,251.5,412.9,251.5,413.1"/>
	<path class="st0" d="M250,453.9C250,453.8,249.7,452.9,250,453.9"/>
	<path class="st0" d="M247.9,370.4c-0.3,0.9-0.3,7.6,0.9,8.3c0.8,0.5-0.2-7.4-0.2-8.8C248.2,369.9,248,370,247.9,370.4"/>
	<path class="st0" d="M259.6,379.5c-5.9,8.8-5.8,20-4.6,30.1c1,8.7,0.5,18.8,1.4,26.3c0.2,1.4,1.8,16.9,1.2,16.9
		c1.6,0,0.3-15.3,0.1-16.5c-1.2-7.8,1-14.8,0.5-22.5c-0.5-7.1-2.1-14-1.8-21.2c0.1-2.8,0.8-5.8,1.7-8.4c0.4-1.2,1.4-2.3,1.8-3.4
		C259.8,381.3,260.8,377.7,259.6,379.5 M258.5,383.4C258.4,383.4,258.4,383.4,258.5,383.4 M257.1,432.3
		C257.1,432.5,257.1,432.5,257.1,432.3"/>
	<path class="st0" d="M266.7,383.8c-2.6,5.3-5.3,12.1-5.2,18c0.1,5.5,1,11.5,1.7,17c0.9,7,3.4,12.8,2.2,20c-0.5,3-0.8,5.7-0.4,8.7
		c0.1,0.7,1.6,7.7,2.8,7c-0.1,0.1-2.1-7.6-2.2-8.6c-0.3-3.3,0.7-6.3,1.2-9.6c0.9-6.5-1.6-12.3-2.2-18.7c-0.6-6-2.6-13.5-1.7-19.5
		c0.5-3,1.7-5.8,2.6-8.7c0.2-0.7,1.9-4.8,1.7-5.2C267.3,384.1,267.1,383,266.7,383.8 M265.9,431.2L265.9,431.2L265.9,431.2
		 M266.9,451.7L266.9,451.7L266.9,451.7"/>
	<path class="st0" d="M268.7,378.1c-0.3,5.4-0.2,10.6-0.9,16c-0.7,4.8-1.4,10.3-0.6,15.1c1.6,9.6,9,16.9,7.6,27.1
		c-0.7,4.6-1.6,9.1-0.2,13.7c0.2,0.8,1.9,5.7,2.6,3.2c0.2-0.8-1.1-3.1-1.3-4.1c-0.3-1.5-0.4-2.9-0.4-4.4c0-5,1.9-9.6,1.2-14.6
		c-0.7-5.7-4-10.6-6.2-15.8c-2.3-5.3-2.6-11.3-2.1-17.4c0.2-3,0.8-5.8,0.9-8.8c0-1.8-0.1-3.7,0-5.5c0-1,0.4-2.5,0.1-3.5
		C269.5,380.3,268.8,376.4,268.7,378.1 M269,390.8C269,390.9,269,390.9,269,390.8 M268.6,393.2C268.6,393.3,268.6,393.3,268.6,393.2
		 M274.7,430C274.7,430.1,274.7,430.1,274.7,430C274.7,430.1,274.7,430.1,274.7,430"/>
	<path class="st0" d="M273.6,392c-1.3,0.4,7.5,16.5,8,17.6c-1.4-3.4,0.4,1,0.4,1s0.1,0.1,0,0c0.8,1.7,2.9,11.6,4.4,12.1
		c0.6,0.2-3.4-12.5-4.1-14.1C282.2,408.6,273.8,392,273.6,392"/>
	<path class="st0" d="M282,410.7L282,410.7"/>
	<path class="st0" d="M282,410.7L282,410.7"/>
	<path class="st0" d="M282,410.7L282,410.7"/>
	<path class="st0" d="M260.4,339c-0.2,0.9,0,2.8-1.2,3.1c-0.3,0.1-0.4,0.4-0.7,0.5C260.9,342.5,260.2,339.8,260.4,339 M260.7,339.3
		L260.7,339.3L260.7,339.3"/>
	<path class="st0" d="M248,339.6c-0.4,0.4,3.2,4.2,4.2,4.4c1.5,0.3,3.7-1,5.2-1.3c-1.5,0.2-3.1,1.1-4.7,0.9
		C252,343.5,247.8,339.8,248,339.6"/>
	<polyline class="st0" points="255.1,343.4 255.1,343.4 255.1,343.4 255.1,343.4 	"/>
	<path class="st0" d="M260.4,339c-0.8,0.5-0.3,2.7-1.6,3.4c-0.7,0.4-1.9,0.3-2.7,0.5c-1.2,0.2-2.4,0.6-3.7,0.6
		c0,0.5,6.3-0.3,6.8-0.6C260.2,342.3,261.1,338.6,260.4,339"/>
	<path class="st0" d="M252.5,343.4C252.5,343.4,252.8,343.3,252.5,343.4"/>
	<path class="st0" d="M260.5,338.8c-0.1,2.8-0.9,3.4-3.2,4.1c-0.4,0.1-5,0.5-5,1.2c0,1.3,7.3-0.9,7.8-1.3c0.8-0.8,1.2-1.5,1.3-2.6
		C261.4,339.5,260.6,337.4,260.5,338.8 M260,341.6L260,341.6L260,341.6"/>
	<path class="st0" d="M247.9,340.1c-1.4,0.8,4.7,6.1,4.7,4C252.5,343.9,247.9,340.1,247.9,340.1"/>
	<path class="st0" d="M245.5,348.5c0.2,0.4,0.4,0.4,0.6,0C245.9,348.1,245.7,348.1,245.5,348.5"/>
	<path class="st0" d="M270.8,319.6c-2.5,0-5.2,0.6-7,2.4c0-0.5,5.1-1.9,6.1-1.9c0.5,0,4.4,0.5,4.4,0.6
		C274.5,319.9,271.4,319.6,270.8,319.6z"/>
	<path class="st0" d="M500.1,228.8c-3.3,0.8-1.3,2.2-4.5,1.6c-0.6-0.1-1.1-0.7-1.6-0.8c-2.4-0.5-2.6,0.9-4.1,2.3
		c-1.6,1.5-0.8,0.7-2.9,0.8c-1.4,0.1-7.6,3.3-6.7,4.4c0,0,3.6-2.7,4-2.9c1.1-0.4,1.6-0.3,2.5-0.4c2.3-0.3,1.6,0.3,3.5-1.9
		s2.2-1.5,4.9-0.9c2.6,0.7,2.9-1.6,5.5-1.6c7.6,0,5.7,12.6,3.8,16.9c-2.7,6-7.1,10.9-9.1,17.2c-1.5,4.8-1.4,9.9-1.5,14.8
		c0,1.4,0.7,14.3,0.3,14.5c-0.1,3.5-10.3,3.2-12.5,2.9c-2.8-0.3-4.8-1.4-6.8-3.2c-1.8-1.6-1.5-1.4-1.2-3.3c0.3-1.5,0.9-2.9,1.2-4.4
		c0.9,1.9,3.7,3.4,5.6,4.1c1.4,0.5,10.3-0.7,9.3-3.4c-0.1-0.2-1.7,1-2,1.2c-2.8,1.5-4.9,1-7.5-0.4c-2.9-1.6-5.3-4.2-6-7.6
		c-1.1-5,0.2-11.3,0.8-16.3c1.3-9.7-1.5-19.4,8.9-24.3c3.6-1.7,8.3-3.9,12.5-3.7c0.8,0,2.4,0.3,3.2,0.6c0.7,0.3,4.3,3.4,2.6,0.9
		c-3.1-4.7-10.8-1.1-14.4,0.4c-5.9,2.5-10.6,4.9-12.5,11.4c-0.7,2.3-0.7,4.5-0.7,6.8c-0.1,4.7-0.8,9.1-1.3,13.8
		c-0.3,2.7-0.6,5.4-0.8,8.1c-0.1,2.9,1.3,5.7,1.3,8c0,2.3-0.5,2.6-2.3,2.5c-1.1,0-3.6-1.6-2.9,0.6c-0.1-0.1-1,6.7-1.1,7.1
		c-0.3,1-0.3,2.2-0.5,3c-0.3,0.9-1.1,2-1.3,3.1c-0.2,0.9-0.2,4.5,1.2,3.6c0.6-0.4,0.1-3.6,0.7-4.4c4.5,3.6,8.2,7.8,14.5,7.7
		c4.6-0.1,9.7-1.3,14-2.8c-1,6.8-1.2,14-0.5,20.8c-1.5-2.7-7-5.2-9.3-6.8c-4.9-3.5-9.1-7.9-14.5-10.9c-1.5-0.8-3.1-2.3-4.1-2.9
		c-1.9-1.1-3.5-1.3-5.3-2.8c-3.6-3.1-6.4-6.9-9.8-10.1c-3-2.8-6.2-5.3-8.1-9c-1.2-2.3-1.9-4.7-3.1-6.9c-1.8-3.3-4.6-7.1-8.5-7.8
		c-3.8-0.7-9.2,1.9-10.4,5.7c-0.4,1.3,1.1,10,1.8,9.5c-1.6,9.9,11.1,14.1,15.2,21.2c2.3,4,2.2,8.5,1.5,12.8
		c-0.8,4.9-0.5,14.8,7,13.8c-2.9,0.7,4.5,3.4,4.7,3.5c1.6,0.9,3.1,2,4.6,3.1c3.7,2.7,6.1,7.1,9.2,10.4c5.2,5.6,8.9,12.2,14.4,17.5
		c3.1,3.1,6.6,5.8,9.7,9c-2.1,1.5,0.4,6-0.7,8.5c-10.2-3.9-22.8-7.8-33.7-8.3c2.7-0.8,4.2-7.8,4.6-9.6c0.7-3,1.4-6,2.2-9
		c0.6-2.5,1.4-5,1.4-7.6c0-1,0.4-3.8-1.7-3c-1.5,0.6-0.9,4.3-1.1,5.5c-0.6,3.4-2,6.7-2.8,10.1c-0.3,1.3-0.6,2.5-0.9,3.8
		c-0.5,2.2-1,4-2,6c-0.5,0.9-2.3,2.7-2,3.9c-0.7-0.6-4,0-4.9,0.1c1.1-0.1-1.4-1.5-1.7-1.5c-1.2-0.3-3.2,0.2-4.4,0.2
		c-2.3,0-4.5-0.1-6.8-0.2c-7.7-0.2-15.3-1.2-23-0.1c-8.2,1.3-19.3,3.9-24.4,11.2c-2-1.8-4.3-2.8-6.3-4.6c-2.7-2.3-5.1-4.9-7.2-7.7
		c-3.1-4.1-5.3-8.8-7.9-13.2c-5.5-9.1-11.7-17.1-21-22.5c-5.5-3.2-10.4-4.6-16.8-3.9c3-3.4,4.2-8.7,4.1-13
		c-0.3-8.2-5.7-13.1-7.2-20.7c-0.7-3.6-0.4-7.4-1.3-11c-0.7-3.1-2.6-5.6-4.1-8.4c-1.4-2.5-2.4-5.2-3.7-7.8c-4.5-9-10-14.4-20.2-15.7
		c-4.2-0.5-8.3-1.3-12.5-2c-2.9-0.5-4.4-0.5-6.8-1.9c-3.4-2-7.4-2.2-11.2-1.3c1.4-0.7-2.7,0.7-1.5,0.4c-0.8,0.2-1.6,0.3-2.4,0.5
		c-2.1,0.5-4,1.1-6,1.8c-6.8,2.2-13,6.9-18,12c-1.9,2-3.1,4.5-4.9,6.5c-1.3,1.4-3.3,2.4-4.8,3.5c-3.9,3-6.4,6.8-7.7,11.4
		c-1.4,5-2.2,10.4-4.6,15c-1.5,3-3.1,6-4.8,8.8c-3.4,5.5-4.3,12-2.7,18.4c1.2,4.6,4.1,10,3.1,14.9c-1.3,5.9-5.5,9.4-4.3,16
		c0.7,3.7,1.6,7.5,2.6,11.1c0.9,3.3,3.4,6.5,3.8,9.9c0.3,2.4-0.7,4.9-1.4,7.2c-1.3,4.3-2,10.4-0.1,14.6c3.1,6.7,8.1,11.4,5,19.4
		c-1.5,3.7-2.7,7.4-3.3,11.4c-0.6,3.8-2,8.6-1.2,12.2c0.6,2.7,3.1,4.4,4.4,6.7c1.2,2,2.5,3.5,1.7-0.1c-1.3-6.2-2.4-12.2,1.3-18
		c-0.1,3.8,1.9,8,2.9,11.7c0.8,3.1,1.9,6.4,1.9,9.6c0,2.7-0.1,3.3-2.2,4.2c-4.2,2-10.5,2.3-14.9,2.4c-3.2,0.1-6.3-0.2-9.5-0.5
		c-0.8-0.1-11.1-0.6-10.2,1.2c-1.6,0.2-1.6-4.3-1.9-5.8c-0.4-2.2-0.9-4.4-1.3-6.6c-0.8-4.3-1.8-8.5-2.6-12.7c-0.3-1.8-0.7-3.5-1-5.3
		c-0.5-2.2,0-2.6-2.4-2.3c2.9,12.4,5.2,24.8,7.8,37.2c1.4,6.4,2.2,13,3.8,19.3c1.1,4,1.2,8.3,2.5,12.3c1.5,4.5,3.1,9.1,4.5,13.7
		c-2.4,0.7-5.2,2.6-7.3,1.2s-2.5-5.2-2.7-7.6c-0.8-6.7-2.2-13.2-4-19.7c-2.7-10.3-4.7-20.7-7.3-31.1c-1.4-5.5-3.1-10.9-4.4-16.4
		c-1.3-5.6-1.7-11.4-2.7-17.1c-1.5-8.3-3.7-16.4-5-24.7c1.8,0,4.7-3,5.8-4.2c1.2,5.2,2.2,10.4,3.4,15.5c0.9,3.8,2,7.5,2.9,11.2
		c0.6,2.1,1.2,4.3,1.7,6.4c0.5,2.1,0.1,2.5,2.4,2c-2.3-10.2-5.5-20.1-7.4-30.3c-0.8-4.7-0.9-9.3-6.7-9.5c-6.5-0.2-12.7,0-19.2,0.1
		c-15.8,0.4-31.6-0.9-47.4-2c-12.6-0.9-25.3-0.1-37.9-1.8c-8-1.1-16.1-1.9-24-3.2c-2.9-0.5-5.8-1.1-8.7-1.6c-1.6-0.3-3.4-0.9-5-0.7
		c-0.5,0.1-3.7,0.9-1.3,1.6c-2.4-0.6-5.5,10-0.4,10.8c-0.5,0.1,13.7,52.7,14.5,57c1.6,7.7,3.7,15.3,5.3,23c0.9,4.3,1.5,8.5,3.2,12.6
		c2.2,5.3,5.3,6.7,10.4,7.9c6.9,1.7,14.1,2.4,21.1,4c6.8,1.6,13.7,2.7,20.6,4c4.7,0.9,9.5,1.7,14.2,2.4c6.2,1,12.1,3,18.3,4.1
		c13.7,2.3,27.4,4,41,6.3c5.4,0.9,9.7,2.1,15.1,3.4c6.1,1.5,11.3,1.6,17.2,0.6c-0.1-0.1-0.3-0.1-0.3-0.2
		c21.2-3.7,40.4-15.1,61.3-20.2c2-0.5,14.1-3.8,13.8-4.7c-0.1-0.4-26.1,7.6-27.2,8.1c-10.3,4.2-21,8.1-31.6,11.6
		c-2.9,1-6.3,1.6-9.3,2.4c-1.4,0.3-2.7,0.7-4.1,0.9c-1,0.2-2.9,1-3.9,0.8c-1.1-0.2-1.8-1-2.6-1.9c0.7-0.1,1.1-1.1,0.6-1.7
		c10.9-2.6,21-7.9,31.8-11c5-1.4,10.2-2.6,15.2-3.9c2.6-0.7,5.2-1.7,7.8-2.6c2-0.7,4-1.5,6-2.1c0.5-0.2,1-0.3,1.6-0.4
		c0.9-0.2,2.5-1.2,2.7-1.3c6.7-1.9,17.6,1.4,24.2,3c-0.1,0-0.3,0.1-0.4,0.2c5.5,1.4,10.6,3.1,16.3,3.1c7.8,0,15.6,1.7,23.3,2.3
		c8.1,0.6,16.3,2,24.3,0.4c1.7-0.3,2.8-1,4.3-1.9c3.4-2.2,4.9-4.1,5.6-8.2c0.2-1.2,0.5-1.9,0.8-3.2c2.2-7.8,2-15.7,2.9-23.7
		c2.6,2.5,8.9,0.1,11.6-1.1c4.5-1.9,8.5-3.9,13.2-5.3c8.3-2.4,17-4.1,25.2-7c-3.4-2-4-1.5-7.7-0.6c-2,0.5-4,1-6,1.6
		c-2.8,0.7-5.4,1.7-8.1,2.6c-5.2,1.9-10.2,3.7-15.2,6.2c-2.4,1.2-4.9,2.3-7.6,2.6c-1.1,0.1-4.6-0.9-5.2,0c1-8.2,2.3-16.3,3.1-24.5
		c1.1-10.7,0.8-20.9-0.6-31.6c-0.2-1.8-1.1-4.4-0.9-6.1c0.2-1.4-0.4-0.8,0.6-1.8c-0.2,0.2,2.9-0.6,1.1-0.7c1.8-0.4,4.4-2.8,5.7-3.9
		c1.5-1.2,3.6-2.9,3.8-5.1c0.2-3-1.7-2.1-3-3.3c-2.2-1.9-5.1-9-8.6-9c-3.6-0.1,2.7,4.6,3.6,5.6c1,1.2,2,2.5,3,3.8
		c-0.8-0.9-7.7,2.5-9.4,3.1c-3.9,1.4-7.6,3.2-11.4,4.6c-7.2,2.6-17,6-22,12.1c-0.3-5-1.2-8.6,2.1-12.9c0.8-1.1,11.1-6.6,11.4-5.7
		c0,0.1-5.7,1.4-6.4,1.6c-3.6,1.2-5.8,3.6-7.7,6.8c0.6-4.6,0.3-9.1,1.4-13.7c1.5-5.9,4-10.4,7.5-15.3c0.9-1.3,6.5-6.7,6.4-7.5
		c0,0-4.4,4.3-4.8,4.8c-1.9,2.1-3.8,4.2-5.7,6.3c-4.6,5.5-7.2,12.8-7.1,20c-0.2-1.1-0.6-2.2-0.7-3.3c-0.3-2.1,0.4-6.1-0.6-7.9
		c-1-2-0.4,5-0.3,6.4c0.1,1.6,0.3,3,0.7,4.6c0.8,2.9,1.5,6.1,1.6,9.1c0.1,1.7-0.2,3.1,0,5c0.1,0.7,0.5,5.2,1.7,3.3
		c-0.2,2.3,0.5,4.7,1,7c1.2,6.2,1.2,12.8,1.2,19.1c-0.1,8.2-0.5,16.8-1.7,25c0-0.1-14-1.2-16.2-1.2c-4.3,0-9,1.6-13.1,1.1
		c-3.6-0.4-6.9-2.9-9.4-5.7c-3.2-3.7-6.2-6.6-7.7-11.3c-1.9-6-3.7-12.1-6.7-17.7c-3.7-6.7-5.2-14.6-5.8-22.2c-0.3-3-0.5-6-0.5-9
		c0.1-3.9,1.3-7.7,1.7-11.5c3.4,4.1,6.2,9.5,8.6,14.5c1.4,2.9,2.8,5.6,4.8,8.2c1.7,2.3,4,4.3,5.7,6.5c0.2,0.3,1.3,1.7,0.2,1.2
		c2.4,3.2,6.4,8.1,10.6,8.7c4.4,0.7,6.5-1.9,8.5-5.3c3.4-5.7,4.5-12.1,5.6-18.6c1.5-8.9,2.3-17.3,1.8-26.4
		c-0.2-4.5-0.7-8.9-1.3-13.3c-0.4-3.6-0.8-7.9,0.5-11.3c0.5-1.3,1.2-2.7,2.1-3.7c1.4-1.6,3.3-2.7,4.7-4.4c2.3-2.6,2.7-2.8,6.7-2.9
		c7.4-0.2,13.7,3,19.1,8.1c11,10.5,16,25.1,26.2,36c2.3,2.5,5.1,4.5,7.7,6.6c3.1,2.5,5.2,4.5,7.4,7.8c1.6,2.3,3.2,4.7,4.8,7
		c0.9,1.2,4,4.2,4.1,5.4c0,0.6-0.9,1.5-1.1,2c-1,1.7-1.8,3.7-3.1,5.1c-0.7,0.8-6.8,5.3-1.6,3.3c3.4-1.3,5.7-6.4,7-9.5
		c1.8,2,3.6,3.5,5.9,4.7c1,0.5,8.2,4.2,8.7,1.7c0.4-1.7-2.4-1.7-3.3-2c-1.5-0.5-2.9-1.7-4.3-2.6c-5.5-3.3-9.6-8.3-13.4-13.6
		c4-1.4,8.5-1.4,12.7-1.3c7.3,0.2,13,3,19.9,4.6c9.3,2.2,18.1,7,25,13c4.4,3.8,6.3,9.5,10,13.7c1.9,2.2,3.8,4.2,5.9,6.2
		c0,0.7,1.3,2.2,1.7,3.1c-0.7-0.1-0.4,1.6-0.8,1.8c-1.2,0.7-3.2-0.6-4.5-0.6c-3.6-0.1-6.8,1.1-10.2,1.7c-7.8,1.2-15,2.4-22.7,4.5
		c-6.2,1.7-12.1,4.1-18.2,6.4c3.5,1.9,4,1.5,7.4,0.2c3-1.1,6-2.3,9.1-3.2c4.6-1.4,9.3-2.5,13.9-3.7c6.7-1.7,13.8-2.1,20.7-1.9
		c7.3,0.2,14.5,0.1,21.8,0.1c9.4,0,18.2,0.2,27.5-1.7c5.9-1.2,11.9-1.2,17.9-2.1c6.9-1,13.6-3,20.4-4.7c4.1-1,12.5-2.2,14.7-6.2
		c7.3-12.6-7.1-26.6-15.3-34.8c-7.7-7.6-15.3-15.6-22.6-23.6c-9-9.8-15.7-21.4-25.3-30.6c-2.3-2.2-4.8-4.2-6.9-6.6
		c-1.9-2.2-1.7-4.4-1.8-7.3c-0.1-6.9,1-13.7,1.3-20.6c0.2-4.1-1.8-7.5-3.1-11.3c-1.1-3.2-0.1-7.8,0.5-11.3
		c0.8-5.8,0.5-11.8,1.9-17.4c2.3-9.3,12.5-17.1,8.6-27.7C505.6,231,503.1,228.3,500.1,228.8 M266.5,254.8c5.8-1.5,10.2,1.7,15.7,2.5
		c5.4,0.7,10.7,2,16.1,2.8c9.8,1.5,14.2,9.9,17.9,18c2.6,5.5,5.7,9.6,6.2,15.8c0.2,2.3,0.4,4.5,0.9,6.8c0.7,3.5,2.5,6.2,4,9.3
		c2.3,4.7,4.8,11.3,2.9,16.5c-1.1,3.1-2.9,5.3-5.1,7.6c-3.2,3.3-7.4,6.6-11.4,9.3c-2.7,1.8-5.3,2.7-8.6,2.5c-3.8-0.1-4-0.8-4.2-4.3
		c-0.1-3.1-0.1-6.2-0.9-9.2c-1.2-4.7-4.3-7.1-8.1-9.7c-3.2-2.2-7.2-2.8-10.4-5c-4-2.8-6.2-7.8-8.6-11.8c-4-6.6-9.4-12.1-15.3-17
		c-3.7-3.1-6.1-4.1-5.5-9.8c0.3-3.1,2.1-6.4,3.6-9.1c2-3.3,4.9-6,6.8-9.2C263.5,259.4,266.8,256.2,266.5,254.8z M219.4,411.2
		c-2.8-6.2-7-12.2-6.2-19.3c0.3-2.4,1.3-4.7,1.7-7c0.9-4.6-1.4-7.5-2.8-11.6c-1.8-5.2-3-12-1.3-17.3c1.6-5,3.4-8.8,3.3-13.9
		c-0.1-6.3-4.4-11.9-4.6-18.3c-0.2-5,1.2-8.6,3.9-12.6c3.8-5.7,6.1-11,8-17.6c1.4-4.7,2.3-9.2,5.6-13c1.8-2.1,3.9-3.5,6-5.2
		c2.2-1.8,3.8-4,5.7-6.1c5.9-6.6,14.5-11.5,23.1-13.5c-3.5,5.2-7.6,10-9.9,16c-1.7,4.5-3.8,8.2-6.5,12.2c-3.7,5.5-8.2,9.9-11.1,16
		c-1.5,3.1-3.8,5.2-5.5,8.3c-1.4,2.6-2.5,5.2-3.5,8c-2.5,7.1-3.3,14-1.9,21.5c0.6,3,1.7,5.9,2.5,8.8c1.4,5.4,1.3,11.9,0.1,17.4
		c-0.9,4.4-1.7,8.7-3.2,13c-1.6,4.8-1.8,9.3-0.2,14.1c1.3,4.1,3.5,8.8,4,13c0.5,4.6-2.4,8.4-2.6,13c-0.1,3,0.9,5.8,1.5,8.7
		c1.5,8.1,1.5,16.2,0.4,24.4c-0.7-2.9-1.4-5.8-2.3-8.7c-0.5-1.5-1.2-2.9-1.5-4.4c-0.4-2.1,0.3-3.5,0.3-5.3c0-1.1-0.5-2.3-0.6-3.3
		c-1.6-8.4-0.5-17-1-25.5c-0.4-6.6-4.6-11.3-3.9-18c0.5-5.7,2.5-10.9,3.6-16.5c1-5.3,1.7-10.5,1.8-15.9c0.1-13.8-4.6-28.2-1.1-41.8
		c1.3-5.2,4.6-9.5,7.4-14c2.4-3.7,3.7-7.9,5.2-12c2.1-5.5,4.1-16,11.6-16.3c0.8,0,4.3,1.3,4.7,0c0.5-1.5-5.1-1.5-6.1-1.3
		c-2.9,0.6-5.2,3.4-6.8,5.9c-3,4.9-4.9,11.1-7,16.5c-2.2,5.5-6,9.8-8.7,15c-3.9,7.6-4.3,17.3-3,25.6c1.9,12.4,2.9,24.4,0.7,36.8
		c-1.8,10.2-6.3,19-1.9,29.2c2.1,4.9,1.9,10.7,2,15.9C219.6,411.8,219.5,411.5,219.4,411.2 M424.1,281.8c-0.8-3-2.3-6.6,0.1-9.3
		c2.2-2.6,6.5-4.3,9.7-3c6.4,2.5,8.3,11.5,11,17.1c0.6,1.3,1.2,2.6,1.6,4c0.3,0.9,1.1,4.1,1.6,1.7c0.3-1.2-0.9-3.3-1.3-4.3
		c2.7,3.1,5.7,5.9,8.4,9c2.9,3.3,7,8.3,11.6,9c-0.5,0.3,5.6,4,6.5,4.6c1.9,1.2,3.4,2.6,5,4.1c4,3.7,8.3,6.3,12.6,9.5
		c9.1,6.7,16.8,16.1,23.7,25c3.7,4.8,6.9,9.9,10.9,14.5c4.2,4.9,9,9.3,13.5,14c8.7,9.1,18,18.2,25.3,28.4c3.1,4.3,5.3,8,4.1,13.3
		c-0.8,3.7-0.9,5-4.6,5.9c-1.8,0.4-3.6,0.8-5.4,1.2c-12.1,2.7-24.5,4.6-36.7,6.6c-6.7,1.1-14.1,3-21,3.2c-6.3,0.3-13.1-0.2-19.3-1.1
		c-0.9-0.1-2.7,0-3.4-0.5c-0.6-0.4-0.3-1.1-0.7-1.5c-2.8-3.2-7.1-6.5-9.2-10.4c-4-7.4-8.4-14.2-16.1-18.5c-3.7-2-7.2-4.3-11-6.1
		c-4.8-2.2-9.6-3.5-14.6-5.1c-2.8-0.9-5.2-1.7-8.2-1.9c4-3.9,10.7-7.5,15.8-9.9c7.8-3.7,15.4-5.7,24.1-4.9c12.2,1.1,23.5,6.2,35,8.9
		c5.2,1.3,10.2,3.3,15.2,5.2c2,0.8,4.1,1.4,6.2,2.2c0.7,0.3,2.2,1.3,2.8,1.2c2.3-0.3-0.7-1.5-1.6-1.9c-1.7-0.7-3.3-1.2-5.1-1.8
		c-1.4-0.5-3.7-1-4.8-1.8c-1.3-1-2.8-3.9-4-5.3c-5.1-5.8-10.6-11.6-16.2-17c-4.5-4.4-9.1-8.8-13.3-13.5c-4.8-5.3-9-12.9-15.1-16.9
		c1.7,1.1,6.9-3.1,7.9-4.2c2.4-2.6,2.3-5.4,3.8-8.4c0.8-1.6,2.2-2.8,3.3-4.2c1.8-2.3,2.9-5-0.3-3c-2.2,1.4-4.5,4.4-5.5,6.7
		c-1.4,3.1-1.4,5.9-4.4,8.2c-2,1.5-4.1,2.1-6.5,2.3c-1.8,0.1-1.1,0.2-2.8-0.2c-1.5-0.4-3.1-1.5-4.7-1.5c1.9-0.3,3.4-4.3,4.1-5.8
		c1.3-2.9,2.4-5.2,5.3-6.8c3.1-1.7,5-3.5,7.1-6.4c0.5-0.7,1.1-1.4,1.5-2.1c1.4-2.3,0.5-2.4-1.1-0.5c-0.8,0.9-1.4,2-2.1,3
		c-2.5,3.3-4.9,3.9-7.9,6.2c-3.3,2.6-3,7.2-6,10c-1.5,1.4-2,1.2-4-0.2c-3.6-2.4-2.7-7.6-2-11.2c1.5-7.9-0.7-15-7.2-20.2
		c-3.7-2.9-8.3-6-9.6-10.6c-0.3-1-0.6-1.9-0.6-2.9c0-2.1,2.1-3.6,2.2-5.4C428.2,274.7,424.1,282.1,424.1,281.8 M424.3,282.8
		C424.3,282.3,424.3,282.9,424.3,282.8z M232.8,313.1c0.5-3.6,0.9-8,2.9-11.1c1.8-2.8,4-4.8,5.4-7.9c0.7-1.5,1.4-2.7,2.6-3.9
		c0.7-0.7,2.6-2.7,3.6-3c2.1-0.7,5.3,1.1,7,2.3c3.5,2.4,6.9,5.5,10.1,8.4c2.9,2.7,5.3,5.4,7.4,8.8c1.7,2.7,3,5.9,5,8.4
		c-3.9-1.6-6.3-3-10.8-1.9c-2.2,0.5-9.5,3.7-5.5,6.7c2,1.5,6.4-2.1,8.7-2.8c0.8-0.3,8.4-0.7,8-0.1c0.1-0.2-0.1-0.4-0.2-0.4
		c0.2,0.1,0.4-0.5,0.4-0.7c1.8,2.7,5.3,4.1,6.8,6.3c1.2,1.7,2.4,3.9,3.5,5.7c2,3.2,2.5,7,3.2,10.6c0.1,0.8,1.7,7.9,2.7,7.3
		c0,0-2-8.4-2.2-9.5c-0.5-2.7-1.1-5.5-2.5-7.9c-1.3-2.3-3.5-4-4.1-6.6c3.7,2.2,7.7,4.6,10.6,7.4c1.9,2.5,0.7,6.1,0.8,9
		c0.3,5.3-0.7,9.9-4.6,14c-4.5,4.7-10.3,8-15.7,11.6c-3,2-5.9,4.1-9.1,5.6c-2,0.9-8.5,2-9,3.6c2.7,0.6,6-0.3,8.6-1.3l0,0
		c0.4-0.4,2.1-1.1,2.5-1.1c3.5,0,11.7-7.3,14.1-9.1c7.1-5.3,17.5-13,14.6-23c-0.1-0.2,0.1-9.7-0.5-9.7c0.9,1.6,1.6,3.4,2.2,5.2
		c1,3.1,0.9,6,1,9.2c0,2.3,0.9,5,0.9,6.9c0,1.7-5.3,23.5-2.9,23.5c-0.6,0,3.3-21.8,3.3-23.9c2.1,0.9,14.4,6.4,15.3,4.2
		c0.5,8.4,1.8,16.7,1.7,25.2c-0.1,5.8-0.9,11.3-2,17c-0.7,4-1.3,7.9-2.4,11.8c-0.9,3-2.7,8.2-5.5,10.1c-6,4-14.7-8.4-18.1-12.6
		c-3.7-4.6-6.1-10-9.1-15.1c-2.2-3.7-3.7-8.4-6.6-11.7c1.9,0.2,2-5.3,2-6.5c1.1,2,2.1,4.1,3.2,6c0.6,1.2,2.1,4.6,2.9,2.5
		c1.1-2.9-4.1-10.8-5.8-12.9c-1,0.5-2.9,3.2-2.9,4.1c-4.2,9.5-5.9,19.8-4.4,30c1.2,7.8,2.4,15.3,5.9,22.5c2.6,5.4,4.3,10.9,6.1,16.6
		c0.8,2.5,2.3,4.9,3.1,7.3c0.8,2.4,0.7,5,2,7.7c0.6,1.2,1.5,2.3,2.1,3.6c-1-0.8-2.1-3.1-3.4-3.1c-2.2,0-2.4,3.7-3,5.3
		c0-1.1-3.4-2.5-4.2-3.4c-1.2-1.2-2.2-3.6-3.6-1.5c-1.3,1.9,0.3,4.2-1.9,6c-2.7-5.6-7.4-2.6-12.1-3c-3.1-0.2-3.1-3.5-5.3-5.1
		c-0.2,2.8-0.1,4.3-2.1,6.5c-0.6-1.6-2.6-2.8-4-3.7c-0.9-0.5-1.5-1.9-2.3-0.5c-0.3,0.5,1,1.2,1,1.5c0,0.9-1,2.6-1.4,3.4
		c-4.9-7.4-8.2-15.5-14.2-22.2c0.7-0.7,0.5-1.6,0.6-2.6c0.3-2.5,0.6-4.8,1.5-7.1c1.6-4.2,4.6-7.8,5.7-12.2c1.5,4.9,3.9,9.4,2.5,14.6
		c-0.3,1.2-5.3,13.1-3.1,13.1c-1.7,0,4.5-13.2,4.8-14.8c1.3-5.9-2.5-10.1-3.4-15.6c-0.7-4.6,0.6-9.1,2.4-13.3
		c1.6-3.7,2.9-6.7,2.2-10.9c-0.6-3.3-1.9-6.4-3-9.5c-1.6-4.5-2.8-8.9-1.6-13.8c0.1-0.6,2.7-6.3,0.1-5c-0.8,0.4-1.5,3.9-1.7,4.8
		c-0.7,2.9-0.7,6,0.1,8.9c1.4,5.2,4.3,9.9,5.2,15.3c0.9,5.2-2.1,8.7-3.8,13.5c-2.5-10.5-10.7-19.5-6.9-30.9
		c2.5-7.3,1.5-14.7,1.2-22.3c0-0.9-0.3-7.7-0.3-7.7c-1.3,0-1.2,16.3-1.2,17.7c-0.9-6.6-4.4-12.3-5.1-19c-0.3-3.4,0-7.1,0.9-10.4
		c0.2-0.7,2.4-5,0.2-3.9c-2.6,1.2-2.7,12-2.5,14.3c0.5,5.6,3,10.5,4.1,16c0.7,3.9,0.3,7.8-0.6,11.6c-0.9,4.3-2.1,8.7-1.9,13.1
		c0.1,2.5,0.7,5,0.9,7.5c0.3,3.4-0.2,6.8-0.4,10.2c-0.3,6.2,0.8,12.3,1.1,18.5c0.1,2.5-0.3,4.9-0.3,7.5c0,1.7,0.8,5.4,0.5,7
		c1.5-0.4,1.2-19.3,1.2-20.1c-0.6-6.9,0-13.2,0.4-20.2c0.8,3.4,4.4,7.3,5.7,10.5c1.4,3.4,1.7,7,1.2,10.6c-0.6,4.9-3.3,8.3-5.2,12.7
		c-1.6,3.6-2,7.3-2.2,11.2c-3.9-4.8-3.9,0.9-4.5,3.9c0.7-6.4,0-12.7-1.1-19c-0.5-2.9-1.4-5.4-1.1-8.4c0.3-2.8,1.3-5,1.9-7.6
		c0.9-3.6,0.3-7.4-0.6-10.9c-0.6-2.5-1.7-4.9-2.4-7.4c-1.7-6.2,0-14,1.9-20s1.8-12.4,1.5-18.7c-0.2-5.2-2.5-9.7-3.3-14.7
		c-1.8-10.2,0.7-22.4,7.3-30.8c-2.5,3.2-1.8,11.7-1.3,15.1c0.4,2.5,1.2,5,1.6,7.5c0.7,3.7,1,7.4,2.4,10.9c2.1,5.1,4.9,10.2,7.6,15.1
		c1.5,2.7,3.6,5,5.1,7.7s2.8,5.5,5,7.6c1.2-1.3-2.3-4.9-3.3-6.7c-2.8-5.2-6.3-10-9.2-15.2c-2.2-4-4.6-8.3-5.3-12.8
		c-0.6-3.2-0.6-6.5-1.2-9.7c-0.4-2.4-1.1-4.9-1-7.4c0.3,0.2,4.7-1.1,5.6-1.1c1.7,0.1,3.1,0.6,4.7,1c-0.2-0.1-7.4,0.6-7.1,1.6
		c0.2,0.6,3.5-0.8,4.3-0.9c0.8-0.1,2.6-0.3,3.5,0c0.4,0.2,1.8,1.5,2.2,1.5c0.9,0-1.5-1.8-1.6-1.9c1.9,0.8,9,1.4,5.6-2.3
		c-1.2-1.3-3.9-1.7-5.5-2.2c-4.1-1.2-8.6-1.2-11.4,2.5C232.6,315.1,232.7,314.1,232.8,313.1 M471.7,288.6c0.4-0.1,0.9,0,1.3-0.1
		c-0.1,0.5-0.5,1.1-0.6,1.6c-0.5-0.5-0.9-1.1-1.3-1.6C471.3,288.6,471.6,288.6,471.7,288.6 M481.9,305.9c-5.1-0.2-6.9-2.8-10.5-5.8
		c-1.2-1-2.7-1.6-2.9-3.1c-0.3-2.1,1.3-5.3,1.3-7.7c3.4,5.6,8.8,8.5,15.2,8.4c2.6-0.1,9.9-0.3,10.4-3.9c0.7,2.3,1.2,5.1,0.9,7.5
		c-0.2,2.9-1.8,2.6-4.3,3.1C488.9,305.2,485.2,306.1,481.9,305.9 M238.1,296.4c0.2-0.5-0.3,0.5-0.3,0.6
		C237.9,296.8,238,296.6,238.1,296.4 M315.2,346.6C315.8,346.4,315.5,346.6,315.2,346.6 M306.5,348.9
		C306.8,349,306.8,349.1,306.5,348.9 M434.3,376.4c3.1-0.1,6.2-0.1,9.3-0.4c-8.2,1.4-15.6,6.4-22.5,10.8c-1.6,1-4.1,4.1-5.7,4.3
		c-1.2,0.1-1.7-0.8-2.8-1.1c-3-0.9-6.4-0.8-9.5-0.6c-2.3,0.2-6.7,0.4-8.6,2c-0.8-1.2-1.6-2.2-2.5-3.3c4-1.3,9.7,0.1,13.9,0.1
		c3.8,0,7.5-0.9,11.1-3.3c2.1-1.3,3.8-3.2,5.4-5.1c1.2-1.4,2-3,3.6-3.6C428.3,375.5,431.8,376.5,434.3,376.4 M421,376.3
		c0.6,0,1.1,0,1.7,0c-1.2,0.3-3.6,4.1-4.6,5c-1.9,1.8-4.2,3.3-6.7,4.2c-2.2,0.8-3.7,0.2-5.9-0.2c-3.9-0.8-8.1-1.5-12-1
		C401.2,378.4,411.4,376.3,421,376.3z M504.2,388c-4.2-1.7-8.4-2.8-12.8-4.1c0.4-2.4,2-4.3,1.2-6.9c2.3,2.3,5.2,3.9,7.5,6.3
		C501.5,384.9,502.8,386.5,504.2,388z M38.4,394c-3.1-0.6-6.1-1-9.2-1.5c-1.8-0.3-6.2-0.8-7-2.5c-0.4-0.9,0.1-2.8,0.4-3.8
		c1.1-3.8,4.1-4.3,7.7-3.6c4.8,0.9,9.6,1.8,14.4,2.4c13.7,1.7,26.9,3.5,40.8,3.5c12.4,0,24.9,1.2,37.3,2.1
		c9.1,0.7,18.5,0.8,27.6,0.1c3.9-0.3,7.8-0.7,11.8-0.5c2,0.1,6.4-0.8,7.8,1.5c-1.7,0.3-4,3.5-5.9,4.4c-0.9,0.4-2,0.6-3,1
		c-3.5,1.4-7.4,1.7-11.1,2.2c-7.1,0.9-13.9-0.1-20.9-1.1c-8.6-1.1-17.3-2.8-26-2.9c-12.5-0.3-24.9,0.3-37.3,0
		c-5.7-0.1-11.3-0.5-16.9-0.5C45.4,394.7,41.7,394.7,38.4,394 M276.3,382.6C276.3,382.6,276.5,383,276.3,382.6z M378.5,388.9
		c-0.1-0.4-0.4-0.7-0.4-1.1C378.3,388.2,378.6,389.2,378.5,388.9 M366.4,392.7c0-1.2,8.6-3.3,9.9-3.5c-0.3,3.2-5.6,6.7-8.2,8.5
		c-0.2-1.1-1.3-5.7-2-3.6c-0.4,1,0.6,3.3,0.9,4.4c0,0.1-2.1,2.7,0.5,2.2c0,3.7,1.1,7.9,1.7,11.5c1.1,7.3,0.7,15.3,0.1,22.6
		c-1,11.1-3.2,22.2-3.6,33.3c-0.3,7.8-1,15.6-3.8,22.8c-4.7,12.4-18.1,8-28.4,7.3c-12.7-0.9-25.8-1.5-38.4-3.7
		c-6.6-1.2-12.7-3.7-19.6-4.4c-8.8-0.9-18.1-1.5-26.8,0.8c-4.1,1.1-7.9,3.1-12.1,3.6c-4.1,0.5-8.5-0.5-12.4,1.1
		c-3.9,1.7-7.4,4.3-11.1,6.4c-1.8,1-3,1.3-3.7-0.7c-1-2.7,1.8-5,3.5-6.4c2.4-2,4.9-3.8,7.5-5.4c2-1.3,4-2.6,6.1-3.7
		c2.7-1.4,2.2-2.8-1.3-1.8c-4,1.1-8.1,2.3-12.1,3.6c-2.8,1-5.5,2.6-7.8,4.6c-1.8,1.5-6.9,5.9-7.5,8.6c-1,4.3,2.9,0,3.9-1.2
		c2.2-2.4,4.4-4.7,7-6.6c3.5-2.6,7.5-3.8,11.5-5.2c-3.5,2.2-7.1,4.2-10,7.2c-1.6,1.7-4.5,7.2-1.1,8.6c-0.3,3.1,7.8-2,8.7-2.4
		c3.4-1.7,7-3.9,10.8-4.2c4.3-0.4,8.4,0,12.5-1.2c2.8-0.9,5.5-2,8.4-2.7c4.2-1,8.5-1.3,12.9-1.4c-11.3,3.8-23.1,6.7-34.5,10.4
		c-4.6,1.5-9.2,3.2-13.8,4.9c-2.5,0.9-5.1,1.5-7.6,2.3c-1.6,0.5-4.9,2.4-6.4,2c0.1,0,0.1,0.1,0.2,0.1c-2.1,0-3.6-6.2-4.1-8.4
		c-0.5-2.2-1.6-6.2-1.2-8.4c0.9-5,7.8-8.9,11.5-11.9c1.2-1,5.6-3.7,6.1-5.2c1.1-3.2-3.3,0.7-4.1,1.4c-0.9,0.7-1.7,1.4-2.6,2.1
		c-4,3-10,6.5-11.9,11.3c-0.4-1.7-2-4.8-1.5-6.5c0.3-1.3,2.8-3.1,3.8-4.2c1.6-1.7,3.1-3.5,4.8-5c3.6-3.3,0.7-3-1.9-0.6
		c-2.6,2.4-4.7,5.3-7.2,7.7c-0.2-1.2-0.9-2.8-0.6-3.9c0.4-1.9,3.1-3.9,4.5-4.8c3.2-2.2,7.2-3.2,11-4c8.3-1.9,16.9-1.1,25.3-0.2
		c14.3,1.6,28.6,1.6,42.9,2.8c7,0.6,14,0.8,21,0.7c10.4,0,21.3-0.9,31.5,0.6c2.3,0.3,4.5,0.7,6.8,1.1c0.9,0.2,1.7,0.3,2.6,0.6
		c0.8,0.3,4.7,3.5,4.5,2.2c-0.6-3.7-8.9-4.2-11.7-4.5c1.8-0.3,2.9-10.3,3.2-11.9c1.2-6.3,1.3-12.7,1.9-19c0.7-7.6,0.5-15-0.2-22.6
		c-0.3-3.2-1.1-6.2-1.6-9.3c-0.3-1.7-0.4-2.5,0.8-3.9c1.6-1.8,5.2-3.3,7.5-4.1c4.5-1.6,9.1-3,13.5-5.1
		C356.4,397.4,366.4,393.1,366.4,392.7 M396,393C396.4,393,396.3,393,396,393z M52.2,489c-5.4-10.3-7.9-22.6-11-33.7
		c-1.3-4.5-1.6-9.4-2.5-14c-1.4-7.1-4-13.9-5.6-21c-2.1-9-4.4-17.9-6.8-26.8c12.8,3.2,27.2,3.7,40.2,3.8c11.9,0.1,23.8-0.1,35.8,0.1
		c10.4,0.2,20.7,1.7,31,3c9.2,1.2,19.4,1.8,28.3-1.2c0.7,7.1,2.9,14.2,4.2,21.2c1.7,9,3.3,17.7,5.8,26.5
		c4.6,16.1,8.4,32.4,12.3,48.7c0.4,1.8,0.9,3.5,1.3,5.3c1,4.3,0.9,9.9,3.9,13.4c-0.4-0.5-3.2-0.5-4-0.7c-2.8-0.6-5.6-1.1-8.4-1.6
		c-6.2-1.2-12.2-2-18.5-2.7c-6.5-0.8-13-1.8-19.5-2.7c-9-1.3-17.5-4.1-26.4-5.6c-8.9-1.6-17.7-3-26.5-4.8
		c-7.3-1.5-14.4-3.6-21.7-4.8C60.4,490.8,55.7,488.5,52.2,489z M216.5,449c-3.3-4.4-1.4-10.5-0.6-15.5c0.7-4,2.1-7.6,3.7-11.3
		c0.1,4.6,2.6,7.9,0.1,11.9c-1.1,1.8-1.8,3.6-2.4,5.6c-0.6,2.2-0.9,4.5-0.8,6.8C216.5,446.8,217,449.6,216.5,449 M229.6,441.3
		c0.6-2.1,0.8-0.8,1.8,0.1c3.1,2.7,5.2,7,7.2,10.5c1.8,3.3,4,9.8,7,12.3c2.4,1.9,3.3-0.3,4.1-2.7c0.5,0.6,4.1,3.8,4.4,2.2
		c1.4-0.6,2.4-1.8,2.9-3.2c0.2,0.1,0.5,0.3,0.7,0.5c-1.4,4.5-5.7,5.7-9.7,6.9c-2.1,0.7-4.6,1.7-6.8,1.8c-2.6,0.1-5.9-0.8-8.5-1.1
		c-5.7-0.6-12.8-1.5-18.6-0.9c-4.3,0.5-9.4,0.8-13.3,2.5c-3.3,1.4-8.3,4-9.9,7.5c-0.7-4.4-1.7-8.7-2.7-13c1.3,0,2.8-0.6,3.5-0.7
		c3.7-0.5,7.6,0.3,11.3,0.6c4.8,0.3,9.5,0.1,14.3-0.6c3.4-0.5,7.4-1.7,10.4-3.4c1.2-0.7,6.8-4.9,3.2-4c-1.3,0.3-2.5,2.3-3.8,2.9
		c1.3-0.7-0.2-5.6,0-6.8c0.8-0.6,0.7-4,1.1-5.4C228.4,445.2,229.1,442.7,229.6,441.3 M290.9,461.7c2.3-0.1,0.6-2.6,0-3.7
		c-1.3-2.3-2.6-4.4-3.2-7c2.6,2.8,4.3,5.4,7.4,7.1c2.2,1.2,4.2,2.7,6.7,3.2c4.1,0.8,8.6-0.3,12.8-0.2c2.8,0,16.1,2.5,16.9,0.4
		c-0.4,1.9-0.6,3.9-1,5.8c-0.2,1.1-2,5.7-1.5,6.6c-0.6-1.1-8.5-0.5-8.7-0.5c-3.7,0-7.5,0-11.2,0c-9.9,0-19.7,0.2-29.6-0.4
		c-11.5-0.7-23-1.3-34.3-2.9c2-0.4,3.9-0.7,5.8-1.4c1.8-0.6,3.3-1.4,4.7-2.7c1.3-1.1,2-3.6,3.2-4.5c0.2-0.1,2.6-0.4,3-0.4
		c1.6-0.2,4.4-0.2,6,0c2.3,0.3,2.2,1.5,3.7,2.7c3.1,2.7,4.5-2.7,4.9-5.4c0.1,0.7,5.6,4.8,5.9,4.8c2.5,0.6,2.9-2.9,3.5-4.8
		C287,460.2,288.8,461.8,290.9,461.7 M253.7,463.7c-0.1,0.2-0.2,0.2-0.6,0C253.3,463.8,253.4,463.8,253.7,463.7 M229.4,469
		c-0.1,0-0.4-0.2-0.5-0.2c3,0.2,6,0.4,8.9,0.9C235,469.5,232.2,468.9,229.4,469z M191.7,477.1c0.4-0.5,0.8-0.9,1.2-1.3
		C192.7,476.1,191.4,477.6,191.7,477.1 M48.5,483.6C48.4,483.2,48.5,483.8,48.5,483.6z M50.6,490.2c-1.6-0.9-2.5-3.4-3.2-5
		C48.1,486.7,50.2,490.1,50.6,490.2 M232.1,508.3c2.1-0.8,4.2-1.5,6.3-2.2c-1.1,0.5-2.2,0.9-3.3,1.3
		C234.5,507.6,231.5,508.7,232.1,508.3z M197.2,515.9C197.7,515.8,197.8,515.8,197.2,515.9z"/>
	<path class="st0" d="M270.8,316.9C270.8,316.9,270.9,316.9,270.8,316.9"/>
	<path class="st0" d="M297.4,329.6L297.4,329.6L297.4,329.6"/>
	<path class="st0" d="M297.4,329.9C297.5,329.9,297.5,329.9,297.4,329.9L297.4,329.9"/>
	<path class="st0" d="M297.7,330.3L297.7,330.3"/>
	<path class="st0" d="M297.4,330.4c0.1,0.5,0.2,1,0.2,1.5C297.6,331.4,297.5,330.8,297.4,330.4"/>
	<path class="st0" d="M297.7,330.6C297.9,330.8,297.6,330.1,297.7,330.6"/>
	<path class="st0" d="M299,333.7C299.1,334.2,299.1,334.2,299,333.7"/>
	<line class="st1" x1="268.9" y1="370.4" x2="268.9" y2="370.4"/>
	<polyline class="st0" points="274.4,371.9 274.4,371.9 274.4,371.9 	"/>
	<path class="st0" d="M274.4,371.8L274.4,371.8"/>
	<path class="st0" d="M253.8,370.7c0.8,0.6,1.6,1.1,2.5,1.6C256.5,371.2,254.6,369.8,253.8,370.7"/>
	<path class="st0" d="M270.3,314.8c-2.3,0.5-4.6,0.8-6.9,1.3c-5.9,1.3,0,3-0.2,3.4c0.5-0.9-2.2-1.2-1.8-2.1c0.4-0.8,3.4-0.6,4.2-0.8
		c1.1-0.2,2.9-0.3,3.9-0.8C269.6,315.7,271.7,314.5,270.3,314.8 M265.2,315.9L265.2,315.9 M261.3,317.5L261.3,317.5 M261.2,317.5
		C261.2,317.6,261.2,317.5,261.2,317.5 M261.2,317.5C261.2,317.6,261.2,317.5,261.2,317.5 M261.2,317.6L261.2,317.6z"/>
	<path class="st0" d="M271.9,315.5c0,0.1,1.9,0.6,1.9,0.4C273.9,315.8,272,315.3,271.9,315.5"/>
	<path class="st0" d="M270.9,315c-0.2,0.7,5.2,2.3,6.2,2.2C281,316.6,271.2,314,270.9,315"/>
	<path class="st0" d="M261.7,315.5c-1,0.5-1.8,0.7-2,1.8c0.5,0.7,4.3-0.7,4.1-1.1c-0.2-0.7-1.7,0.1-2.1,0.3
		C262.3,316.1,262.7,315,261.7,315.5"/>
	<path class="st0" d="M268.8,322.9c-0.6,0.8-2.4,3.2,0.4,3.2C271.6,326.1,271.2,322.3,268.8,322.9"/>
	<path class="st0" d="M240.6,323.4c0,2.3,3.6,2.3,3.6,0C244.2,321.2,240.6,321.1,240.6,323.4"/>
	<path class="st0" d="M242.2,320.4c-1.1,0.1-1.9,0.6-2.9,0.8c-1.1,0.2-3.7-0.2-4.4,0.2c-1.8,1.1,0.1,0.7,0.5,1.2
		c0.5,0.7,1.9,1.8,2.9,2.5c1.4,0.9,8.5,3.3,8,0.6c-4.1,1.4-7-0.5-10-3.2c2.5,0.1,4.7-1.3,7.1-1.1c1.2,0.1,3.3,1.4,4,0.7
		C245.9,321.6,244.3,320.3,242.2,320.4"/>
	<path class="st0" d="M270.9,322.1c-3,0.1-5.7,1.2-7.5,3c3.7,3.1,8.1,4,12,1c0.5-0.4,2.8-2.5,2.4-3.1
		C277.6,322.6,271.3,322,270.9,322.1 M271.5,322.6c0.5-0.1,5.4,0.9,5.4,1.1c0.4,0.9-4.3,3-4.6,3.1c-3.3,1-5.5-0.1-8.1-2.1
		C263,324,271.4,322.6,271.5,322.6"/>
	<path class="st0" d="M276.6,323.8L276.6,323.8"/>
	<line class="st1" x1="269.5" y1="328" x2="269.5" y2="328"/>
	<path class="st0" d="M269.2,322.7L269.2,322.7L269.2,322.7"/>
	<path class="st0" d="M269.5,328C269.4,327.9,269.3,327.9,269.5,328"/>
	<path class="st0" d="M268.9,322.2c0.3,0,0.5,0,0.8,0.1l0,0l0,0l0,0l0,0c1.8,0.1,2.6,1.6,2.5,3.2
		C272.8,323.6,270.8,321.4,268.9,322.2"/>
	<path class="st0" d="M272.1,326.3C272.1,326.3,272.1,326.1,272.1,326.3"/>
	<path class="st0" d="M272.1,326.8L272.1,326.8c-0.6,0.7-1.3,0.9-2.1,1.2C271.2,328.2,271.4,327.1,272.1,326.8 M271.8,327.1
		L271.8,327.1"/>
	<path class="st0" d="M269.4,322.4C268.5,322.9,269.5,322.3,269.4,322.4"/>
	<path class="st0" d="M269.2,322.7C269.3,322.6,269.3,322.6,269.2,322.7"/>
	<polyline class="st0" points="269.2,322.7 269.2,322.7 269.2,322.7 	"/>
	<path class="st0" d="M268.9,322.9c-0.4,0-0.8,0.4-1,0.7C268.1,323.3,268.8,322.9,268.9,322.9z"/>
	<path class="st0" d="M268.2,323.2L268.2,323.2"/>
	<path class="st0" d="M266.4,324.3c0,0.1,0,0.2,0,0.3l0,0c0,0.2,0.1,0.8,0.1,0.9l0,0c0.1-0.3,0-0.4,0.2,0c-0.2-0.3-0.1-0.6,0-1
		c-0.1,0.1-0.1,0.2-0.2,0.3l0,0C266.5,324.6,266.4,324.2,266.4,324.3 M266.5,325.4L266.5,325.4L266.5,325.4"/>
	<path class="st0" d="M266.6,324.8L266.6,324.8"/>
	<path class="st0" d="M268.3,327c0.3,0.3,0.5,0.4,0.3,0.1C268.5,327,268.2,326.9,268.3,327"/>
	<path class="st0" d="M266.4,324.4L266.4,324.4"/>
	<polyline class="st0" points="266.4,324.5 266.4,324.5 266.4,324.5 	"/>
	<path class="st0" d="M266.4,325.2C266.4,325.3,266.4,325.2,266.4,325.2"/>
	<polyline class="st0" points="266.4,325.3 266.4,325.2 266.4,325.3 	"/>
	<path class="st0" d="M266.5,325.6C266.5,325.7,266.5,325.6,266.5,325.6"/>
	<path class="st0" d="M266.7,322.7c-0.4,0.1-0.4,0.5-0.5,0.9C266.4,323.4,266.8,322.7,266.7,322.7"/>
	<path class="st0" d="M266.4,326.5c0.1,0.6,0.4,0.9,0.9,1.1C267,327.3,266.3,325.9,266.4,326.5"/>
	<path class="st0" d="M269.7,322.3L269.7,322.3"/>
	<path class="st0" d="M242.1,320.6c-2.7,0.1-4.5,4.4-1.7,5.8c-0.4-0.3-0.7-0.6-0.8-1c0,0,0,0,0-0.1c0.5,0.7,1.2,0.7,1.9,0.7
		c-0.5-0.3-1.1-0.1-1.5-0.5l0,0c-0.7-0.7-0.7-1.6-0.4-2.5c0.3-0.7,3.1-2.3,3.1-1.7c0-0.2-1.8,0.1-2.2,0.2c2-2.1,6.9,1,4.7,3.4
		c0-0.1,0-0.1,0.1-0.2c-0.1,0.3-0.4,0.6-0.6,0.9c0.4-0.2-0.4,0.6-0.5,0.7c-0.6,0.3-0.9,0.6-1.6,0.7
		C246.4,327.4,246.8,320.4,242.1,320.6 M239.5,322.3c0.1-0.2,0.3-0.3,0.4-0.4c-0.3,0.5-0.5,1-0.7,1.6c0-0.1,0-0.2,0-0.1
		C239.3,323,239.4,322.6,239.5,322.3"/>
	<path class="st0" d="M245.2,324.5C245.1,324.7,245.3,324.2,245.2,324.5"/>
	<path class="st0" d="M245.5,324.5L245.5,324.5"/>
	<path class="st0" d="M241.8,326L241.8,326C241.4,326,242.2,326,241.8,326"/>
	<polyline class="st0" points="244.8,322.4 244.8,322.4 244.8,322.4 	"/>
	<path class="st0" d="M245.3,323.6C245.3,323.7,245.3,323.6,245.3,323.6"/>
	<path class="st0" d="M245.3,324.1C245.2,324.1,245.3,324,245.3,324.1"/>
	<path class="st0" d="M239.5,325.5L239.5,325.5L239.5,325.5z"/>
	<line class="st1" x1="241.2" y1="320.9" x2="241.2" y2="320.9"/>
	<path class="st0" d="M240.6,321.3C240.6,321.3,240.7,321.3,240.6,321.3"/>
	<path class="st0" d="M244.5,321.7L244.5,321.7"/>
	<polyline class="st0" points="244.5,321.7 244.5,321.7 244.5,321.7 	"/>
	<polyline class="st0" points="244.5,321.7 244.5,321.7 244.5,321.7 	"/>
	<path class="st0" d="M239.3,323.8C239.3,323.7,239.3,323.7,239.3,323.8"/>
	<polyline class="st0" points="239.6,325.3 239.6,325.3 239.6,325.3 	"/>
	<path class="st0" d="M239.6,325.3C239.7,325.3,239.6,325.3,239.6,325.3"/>
	<line class="st1" x1="239.6" y1="325.3" x2="239.6" y2="325.3"/>
	<polyline class="st0" points="239.5,325.5 239.5,325.5 239.5,325.5 	"/>
	<polyline class="st0" points="239.5,325.5 239.5,325.5 239.5,325.5 	"/>
	<polyline class="st0" points="244.1,326.2 244.1,326.2 244.1,326.2 	"/>
	<path class="st0" d="M270.7,322c-0.4,0,0.8,0.5,1,0.6C271.4,322.3,271,322,270.7,322"/>
	<path class="st0" d="M268.4,322.4c-4.1,1.2-0.8,6.7,2.6,4.6c1.2-0.8,2-2.8,0.9-3.9c1.3,2.2-0.9,4.5-3.2,4.1l0,0l0,0
		c-1.1-0.3-2.2-1.5-2.1-2.7c0.1-1.5,3.6-2.6,3.6-1.9C270.2,322.4,268.6,322.4,268.4,322.4 M267.1,323.2L267.1,323.2"/>
	<path class="st0" d="M271.7,323C271.7,322.9,271.6,322.8,271.7,323"/>
	<path class="st0" d="M271.9,323.2L271.9,323.2L271.9,323.2z"/>
	<path class="st0" d="M272.2,324.7L272.2,324.7"/>
	<path class="st0" d="M266.6,348.5c-0.9,0.5-1.7,1-2.5,1.7C265.1,349.8,266.7,348.4,266.6,348.5"/>
	<path class="st0" d="M247.7,349.3c-1.4,0.8,5.2,4.5,6.3,4.7c4,0.5,7.8-1.7,10.9-3.8c-3,1.1-5.8,3-9.1,3.4c-2.3,0.2-3.9-0.5-5.7-2
		C249.7,351.2,247.7,349.3,247.7,349.3 M262.1,351.5L262.1,351.5L262.1,351.5"/>
	<path class="st0" d="M255.6,353.5C255.7,353.5,255.7,353.5,255.6,353.5"/>
	<path class="st0" d="M253.5,353.9L253.5,353.9"/>
	<path class="st0" d="M246.5,349.2c-1,0.6,5.8,1.7,6.3,1.8c2.4,0.3,4.7,0,7.1,0.1c0.7,0.1,4.8-1,4.6-1.7c0.2,0.7-9.5,1.2-10.8,1.1
		C252.2,350.4,247.4,348.7,246.5,349.2"/>
	<path class="st0" d="M257.4,347.8c-0.2,0-2.3,0.6-1.8,1.1c2.1-2.6,10.1,2.8,11.8-0.1C267.3,348.7,258.1,347.7,257.4,347.8"/>
	<path class="st0" d="M250,347.7c-1.1,0.1-2.2,0.4-3.2,0.9c1.1,0.3,7.4,0,7.3,0.4C254.4,348,250.6,347.6,250,347.7 M249.9,348.4
		L249.9,348.4L249.9,348.4"/>
	<path class="st0" d="M245.9,349.1c-0.9,0.8,1.5,0,1.5,0C246.7,348.8,246.7,348.4,245.9,349.1"/>
	<path class="st0" d="M245.7,349.4c-1.2,0.7,6.5,7.6,7.7,8.1c2.8,1,5.2,0.7,7.5-1.2c0.7-0.6,5.8-6.5,5.3-6.8
		c-0.6-0.3-2.2,1.7-2.5,2.1c0,0,0.8-0.7,0.8-0.4c0.4,1.3-6.2,5.8-6.7,5.9c-4.5,1.3-7.5-2.3-10.1-5.3c-0.2-0.2-1.6-1.8-1.6-1.9
		c0.1-0.1,0.2,0,0.2,0.1C246.4,349.8,246.1,349.2,245.7,349.4"/>
	<line class="st1" x1="247.2" y1="350.9" x2="247.2" y2="350.9"/>
	<path class="st0" d="M264.9,350.1C264.2,350.4,265,350.1,264.9,350.1"/>
	<path class="st0" d="M256.4,348.3c-0.9,0.3-1.9,0.3-2.6,1C254.8,349.6,255.9,348.5,256.4,348.3"/>
	<path class="st0" d="M246.7,350.1c0.2,0.2,0.7,0.5,0.7,0C247.1,349.7,246.9,349.7,246.7,350.1"/>
	<path class="st0" d="M244.8,347.9c-0.3,0.5,2.9,2.7,3.2,2.1C248.1,349.9,245.3,347.1,244.8,347.9"/>
	<path class="st0" d="M246.1,348.5c-0.9,0.9,8.3,3.6,10,3c-2.2-0.1-5.5-0.6-7.5-1.5C248.4,349.9,246.3,348.2,246.1,348.5 M253,351.2
		L253,351.2"/>
	<path class="st0" d="M263.8,350c-1.3,0.5-2.7,0.8-4.1,1.1c0.1,0,0.2,0,0.1,0c0.8,0,1.4,0.1,2.1-0.3
		C262.6,350.8,264.1,349.9,263.8,350"/>
	<path class="st0" d="M259.8,351.3C260.2,351.4,260.1,351.1,259.8,351.3"/>
	<path class="st0" d="M256.1,351.9C256.2,351.9,256.2,351.9,256.1,351.9"/>
	<path class="st0" d="M245.2,348.1c-0.7,0.4,5.4,2.7,6.3,2.8c1.3,0.3,3.1,0.7,4.5,0.6c1.3-0.1,2.5-0.5,3.9-0.4
		c1.1,0.2,3.1-0.4,4.2-0.9c-0.3-0.6-4,0.6-4.5,0.7c-2.2,0.3-4.3-0.3-6.5-0.4C252,350.3,245.7,347.8,245.2,348.1"/>
	<polyline class="st0" points="253,350.5 253,350.5 253,350.5 	"/>
	<path class="st0" d="M263.7,350.7C263.8,350.7,264.2,350.5,263.7,350.7"/>
	<path class="st0" d="M259.8,351.3C260.2,351.4,260.1,351.1,259.8,351.3"/>
	<path class="st0" d="M257,351.5C257.3,351.5,257.7,351.3,257,351.5"/>
	<path class="st0" d="M250.2,347.5c-1.1,0.1-2,0.5-3.1,0.6c-0.8,0-2.1-0.6-2.9-0.3c0.1,0,2,1,2.5,1c0-0.1-0.2-0.1-0.1-0.2
		c0.1-0.1,3.9-0.3,4-0.3c1.2,0.1,2.5,1.2,3.7,1.1c1.9-0.1,3.4-1.4,5.6-1.2c1.5,0.1,7.3,2.2,7.4,0.3c-4,0-7.1-1.3-10.9-0.3
		c-2,0.5-3.1,0.4-5-0.4C251.6,347.9,250.5,347.5,250.2,347.5 M248.8,347.9L248.8,347.9L248.8,347.9z M248.6,348.6
		C248.5,348.6,248.5,348.6,248.6,348.6C248.5,348.6,248.5,348.6,248.6,348.6"/>
	<path class="st0" d="M267.5,349C267.5,349.1,267.9,348.4,267.5,349"/>
	<path class="st0" d="M244.2,347.9L244.2,347.9"/>
	<polyline class="st0" points="267.3,348.6 267.3,348.6 267.3,348.6 	"/>
	<path class="st0" d="M245.1,347.8L245.1,347.8L245.1,347.8"/>
	<path class="st0" d="M266,348.5c-0.5,0.3-0.9,0.8-1.1,1.4c0.1,0,0.4-0.1,0.4,0c0-0.1-1.9,1.9-2,2.1c0.1-0.1,1.4-1,1.4-0.8
		c0.1,0.2-1.6,1.9-1.9,2.1C263.6,354,267.1,348.2,266,348.5 M263.4,353C263.4,353.1,263.4,353.1,263.4,353"/>
	<polyline class="st0" points="263.8,351.2 263.8,351.2 263.8,351.2 	"/>
	<path class="st0" d="M262.9,352.5C262.5,352.7,262.9,352.5,262.9,352.5"/>
	<path class="st0" d="M263.8,351.2L263.8,351.2"/>
	<path class="st0" d="M266.7,348c-0.6,0.2-1.9,2.6-2.4,3.2c0,0,0.3-0.2,0.3-0.1c0.1,0.2-2.1,2.4-2.3,2.6c-1,1.2-2.1,2.4,0,1.2
		c1.3-0.7,2.6-2.7,3.5-3.9C265.5,351.5,268.7,347.4,266.7,348"/>
	<path class="st0" d="M244.3,347.4c-0.8,0.8,2.7,2.9,3.5,3.6C247.6,350.2,244.9,346.8,244.3,347.4"/>
	<path class="st0" d="M246.5,350.2c0.2,0.2,0.6,1.2,1,1.2C247.5,351,246.6,350.4,246.5,350.2"/>
	<path class="st0" d="M247.2,350.9L247.2,350.9L247.2,350.9z"/>
	<path class="st0" d="M244.4,347.9L244.4,347.9"/>
	<path class="st0" d="M266.3,348.9c-0.7,0.4-4.5,0.9-4.3,1.5c0.2,0.7,2.4-0.3,3-0.5C265.4,349.7,266.9,348.5,266.3,348.9"/>
	<path class="st0" d="M265.8,349.5c-0.3,0.1-0.5,0.2-0.8,0.3l0.2,0.1c0.2,0.4-3.1,0.8-2.5,1.7C263.3,352.7,267.6,348.8,265.8,349.5"
		/>
	<path class="st0" d="M264.8,349.9C264.8,349.9,264.9,349.9,264.8,349.9"/>
	<path class="st0" d="M247.2,349.6c-0.7,0.7,3.4,3.4,4.2,3.8c1.9,1,4,1.3,6.2,0.9c1.7-0.3,6.1-1.6,7-3.2c0.9-1.4-1.2-0.3-1.9,0
		c-1.7,0.7-3.1,1.7-4.9,2.1c-1.7,0.4-4.1,0.2-5.3-0.3C251.5,352.4,247.8,349,247.2,349.6"/>
	<path class="st0" d="M268.4,265c-1,0.2-7.7,2.3-4.6,3.2c0,0,5.8-0.8,6-1.3C270.5,265.8,269.7,264.7,268.4,265 M264.3,267.9
		C264.2,268,264.2,268,264.3,267.9C264.2,268,264.2,268,264.3,267.9"/>
	<path class="st0" d="M269.2,266c-1.6,0.1-3.3,0.6-4.8,1c-1.2,0.3-3.3,0.8-1.4,1.5c1.1,0.4,2.3-0.3,3.4-0.4c2.3-0.2,5.3-0.3,7.4,0
		c1.1,0.2,4,0.9,5.6,1.4c0.3,0.1,2.4,2.1,1.9,0.3C280.6,267.4,270.9,265.9,269.2,266 M262.6,267.6
		C262.5,267.6,262.5,267.6,262.6,267.6 M279.7,269.7L279.7,269.7 M264.6,268.3L264.6,268.3C264.4,268.4,264.7,268.3,264.6,268.3
		 M264.6,268.3C264.5,268.3,264.9,268.3,264.6,268.3"/>
	<path class="st0" d="M270.6,257.7c-1.2,0.1-1.6,0.2-1.1,0.1c-0.3,0-0.6,0.1-1,0.1h-0.1c-3.2,0.5-3.8,1.4,0.3,1
		c0.9-0.1,1.2-0.2,0.9-0.1h0.1c3.6-0.5,8.1,1.4,10.9,4.2c1.6,1.6,2.7,4.6,5.2,5.4c3.5,1.1,0-1.3-1.3-2.3c-1.8-1.4-4.1-4.6-6.2-6.1
		C276.2,258.5,273.2,257.4,270.6,257.7 M278.7,260.4L278.7,260.4L278.7,260.4 M268.5,259C268.6,258.9,268.6,258.9,268.5,259
		 M269.5,258.8L269.5,258.8 M268.4,257.9C268.4,257.9,268.5,257.9,268.4,257.9 M269.1,257.9C269.1,257.9,269.3,257.8,269.1,257.9"/>
	<path class="st0" d="M279.3,260.4c-0.4,0.6,6.5,8.7,6.2,8.8C287.3,268.4,280.2,258.8,279.3,260.4 M283,265.5
		C283.1,265.6,283.1,265.6,283,265.5"/>
	<path class="st0" d="M270.4,257.7c-1.7,0.1-5.5,0.6-6.7,1.8c-1.5,1.5,0.3,0.9,1.5,0.9c3.5-0.2,6.5-1.1,9.9,0.1
		c3.6,1.3,4.4,3.6,6.9,6c1.3,1.2,3.5,2.4,2.1,0.2c-0.4-0.6-1.3-1.1-1.7-1.8c-0.9-1.4-1.1-3.2-2.3-4.4c-1.9-1.8-4.3-1.3-6.6-1.9
		c0,0-0.3-0.7-0.8-0.8C272,257.6,271.2,257.6,270.4,257.7 M263.6,259.6C263.6,259.6,263.4,259.7,263.6,259.6 M275.9,260.8
		C275.9,260.8,276,260.8,275.9,260.8C276,260.8,275.9,260.8,275.9,260.8"/>
	<path class="st0" d="M283.4,267.5c-1.1,1.1,5.8,5.6,6.1,4.3C289.7,271.3,283.7,267.3,283.4,267.5"/>
	<path class="st0" d="M268.4,257c-1.7,0.7-3.5,1.2-5.2,1.9c-1.2,0.5,2.4,0.2,3,0C266.1,258.9,269.1,256.8,268.4,257"/>
	<path class="st0" d="M270.9,258.3c-0.9,0-7.3-0.3-7.4,0.9c-0.1,0.7,6,0,6.8,0.1c1.1,0.1,5.8,1.7,5.8,0.7
		C276.3,259.1,271.6,258.3,270.9,258.3 M271.8,259.3C271.9,259.3,271.9,259.3,271.8,259.3 M275.5,259.6
		C275.6,259.6,275.7,259.6,275.5,259.6"/>
	<path class="st0" d="M250.3,347.6c-2.2,0.3-3.4,1-5.6,0.7c0.6,0.9,1.6,0.9,2.6,0.8c-0.1,0-0.8-0.4-0.7-0.5c1-1.1,5,0.3,6.2,0.5
		c1.7,0.3,3.2-0.5,4.9-0.6c0.8,0,7.6,1.7,7.6,1c0-1.6-8.3-1.2-9.6-1C253.7,348.7,252.1,347.4,250.3,347.6 M247.2,348.5L247.2,348.5
		L247.2,348.5z"/>
	<path class="st0" d="M252.4,368.8c-1.5,0.4,5.9,4.2,6.6,4.3C258.9,372.8,252.9,368.7,252.4,368.8"/>
	<path class="st0" d="M254.4,370.3L254.4,370.3"/>
	<path class="st0" d="M254.4,370.3L254.4,370.3"/>
	<polyline class="st0" points="254.4,370.3 254.4,370.3 254.4,370.3 	"/>
	<path class="st0" d="M255.5,372.9C255.7,372.9,255.5,372.8,255.5,372.9"/>
	<path class="st0" d="M256.2,372c0,0-0.6,0-0.5,0c1.6,0.9,3.1,1.1,4.8,1.1c0,0,0.9-0.2,0.6-0.1C261.3,372.2,256.7,372,256.2,372z
		 M260.6,372.7L260.6,372.7L260.6,372.7"/>
	<path class="st0" d="M260.3,373.1C260.2,373.1,260.2,373.1,260.3,373.1"/>
	<path class="st0" d="M252.7,387.6c-1,0.2-3.1,7.6,0,4.8C253.8,391.4,255.7,387,252.7,387.6"/>
	<path class="st0" d="M251.5,380.9c-1.6-0.1,0.5,5,1.3,5.5C254.6,387.4,252.9,380.6,251.5,380.9"/>
	<path class="st0" d="M250.4,382.7C250.5,382.8,250.5,382.5,250.4,382.7"/>
	<path class="st0" d="M253.3,389.7c-0.1,0.4-0.2,0.8-0.4,1.2c0,0.1-1.1,2-0.6,2.3C253.6,394,253.6,388.6,253.3,389.7"/>
	<path class="st0" d="M244.3,283.3c-2.6,1.7-5.7,2.7-7.1,5.9c-0.6,1.3-4,14.5-3.2,14.8c0.6,0.2,3.3-12.7,3.8-14
		c0.5-1.2,6.6-7.1,7-6.5C244.7,283.3,244.5,283.2,244.3,283.3 M240.5,286.5C240.4,286.5,240.4,286.5,240.5,286.5 M238.2,289.3
		C238.1,289.4,238.1,289.4,238.2,289.3"/>
	<path class="st0" d="M179.3,427.6c-0.6,0.2,0.2,4.9,1.4,4.5C181.8,431.8,180.9,427.1,179.3,427.6"/>
	<path class="st0" d="M179.7,427.7c-1.4,1.4,0.9,3.9,0.7,2.6c0,0.1,0,0,0-0.2c0.2,0.4,0.3,1.8,0.7,1.9
		C181.9,432.2,180.9,426.5,179.7,427.7"/>
	<path class="st0" d="M180.4,430.3L180.4,430.3"/>
	<path class="st0" d="M198.3,500.7c-0.8,0.6-2.8,3.6-1.5,4.4c1,0.6,2.4-3.9,2.3-4c-0.1,0-0.2,0.1-0.3,0.2
		C198.7,501.1,198.7,500.4,198.3,500.7 M198.7,501.2L198.7,501.2L198.7,501.2"/>
	<path class="st0" d="M208.9,502.5c-1.1,0.6,1.8,2.1,2.2,1.5C211.4,503.6,209.3,502.3,208.9,502.5"/>
	<path class="st0" d="M290,405.8c-0.7,0.9,2.5,4.9,3.1,5.7c1,1.2,4.1,3,1.8,0C294.3,410.8,290.4,405.5,290,405.8 M289.9,406.2
		C290,406.2,289.9,406.2,289.9,406.2 M290.1,406.6L290.1,406.6 M290.1,406.6L290.1,406.6"/>
	<path class="st0" d="M254.2,388.6c-0.1,0.2-1.4,3-0.7,3C254.8,391.6,254.4,388.3,254.2,388.6"/>
	<path class="st0" d="M251.6,380.3c-0.7,0.2,1.1,3.2,1.4,3.2C253.5,383.4,252,380.2,251.6,380.3 M251.8,380.6
		C251.8,380.7,251.8,380.7,251.8,380.6 M252.8,382.2L252.8,382.2"/>
	<path class="st0" d="M267.3,322.6c-0.1,0-0.6,0.1-0.5,0.2C266.9,323.3,267.6,322.3,267.3,322.6"/>
	<path class="st0" d="M266.9,322.6C266.3,322.7,267.2,322.6,266.9,322.6"/>
	<path class="st0" d="M268.9,322.1c-0.6,0.1-1,0.2-1.5,0.4c-0.1,0-0.7,0.1-0.6,0.4c0.1,0.3,0.7,0.1,0.8,0.1c0.4,0,2.6-0.6,2.6-0.7
		C270,322,269.1,322.1,268.9,322.1"/>
	<path class="st0" d="M267.6,322.3L267.6,322.3"/>
	<path class="st0" d="M267.6,322.3C267.6,322.3,267.7,322.3,267.6,322.3"/>
	<path class="st0" d="M267.6,322.3C267.6,322.3,267.7,322.3,267.6,322.3"/>
	<polyline class="st0" points="267.3,322.4 267.3,322.4 267.3,322.4 	"/>
	<path class="st0" d="M267.3,322.9L267.3,322.9L267.3,322.9"/>
	<path class="st0" d="M264.3,324.2c-1,0.4-0.2,0.8-0.2,0.9C264,325.1,264.9,324.1,264.3,324.2 M264.1,324.4L264.1,324.4
		 M264.4,324.7C264.3,324.7,264.3,324.7,264.4,324.7"/>
	<path class="st0" d="M246.6,322c-0.4,0,2.4,2.9,2.7,2.6C249.8,324.2,247.4,321.5,246.6,322 M246.8,322.6L246.8,322.6"/>
	<path class="st0" d="M248.7,324.5c-0.5,0.3-4.8,1.9-3.4,2.4c0.6,0.2,1.5-0.4,1.9-0.7C247.8,326,249.4,324.2,248.7,324.5"/>
	<path class="st0" d="M245.6,326.4c-0.3,0-2.8,0.2-2.8,0.5C242.8,328.1,246.5,326.3,245.6,326.4 M245.5,326.4L245.5,326.4"/>
	<path class="st0" d="M245.4,326.3c-0.4,0.1-3.3,0.1-3.3,0.3c0,0.6,3.9,0.4,4-0.1C246,326.2,245.5,326.3,245.4,326.3 M244.3,326.4
		C244.3,326.4,244.2,326.4,244.3,326.4C244.2,326.4,244.3,326.4,244.3,326.4 M244.2,326.4L244.2,326.4L244.2,326.4"/>
	<path class="st0" d="M245.6,323.2c0,0-1,3.5-1.4,3C244.9,327,246,322.9,245.6,323.2 M244.8,325.5L244.8,325.5 M245.4,324.8
		C245.4,324.9,245.4,324.8,245.4,324.8"/>
	<path class="st0" d="M270.1,319.7c-0.1,0-0.7,0-0.7,0.2c0.3-1.2,6.5,1.8,6.7,1.6C276.4,320.9,270.6,319.6,270.1,319.7 M270,319.9
		L270,319.9 M272,320.1L272,320.1"/>
	<path class="st0" d="M270.2,319.9c-0.3,0-1.6-0.1-1.8,0.2c-0.1,0.2,3.2,0,3.2,0.2C271.6,320,270.4,320,270.2,319.9z M270.8,320.2
		L270.8,320.2"/>
	<path class="st0" d="M273.6,313.9c0,0,0.9,0.8,1.1,0.9c-0.5,0,0.8,0.7,0.8,0.7s0,0,0,0.1c0,0-1.9-0.3-1.8,0
		c-0.1-0.2,3.7,1.3,4.1,1.3c0,0-1.8-0.9-2.1-1c0,0,2.2,0.8,2.3,0.5c0.1-0.2-2.6-1.1-2.5-1.1c0.2,0.1,2.2,0.9,2.3,0.8
		C277.9,315.8,274.4,313.8,273.6,313.9 M274,314.1L274,314.1L274,314.1 M277.1,315.8C277.2,315.8,277.2,315.8,277.1,315.8
		C277.2,315.8,277.2,315.8,277.1,315.8 M276.4,316.2C276.5,316.2,276.5,316.2,276.4,316.2z M277.5,316.7L277.5,316.7L277.5,316.7"/>
	<path class="st0" d="M273,313.7c-0.1,0.4,1.6,1,2.6,1.5c0,0-0.1,0-0.1,0.1c-0.1,0-0.9-0.4-0.9-0.3c-0.1,0.4,4.2,1.9,4.2,1.9
		c0-0.4-2-1.2-2.3-1.4c0.2,0.1,1.5,0.9,1.6,0.7C278.4,315.8,273.1,313.4,273,313.7 M276.6,315.9C276.6,316,276.6,316,276.6,315.9
		 M277,316.1L277,316.1L277,316.1z M278.4,316.7L278.4,316.7 M277.9,316.7L277.9,316.7L277.9,316.7"/>
	<path class="st0" d="M286.4,342.8C286.4,343.1,286.5,342.5,286.4,342.8"/>
	<path class="st0" d="M269.6,319.9c0,0-1.5,0.1-1.1,0.4c0.2,0.1,4.4-0.2,4.3,0.1C272.9,320.1,269.8,319.9,269.6,319.9"/>
	<path class="st0" d="M270.6,320.1c0.3,0,4.7,0.9,4.7,1C275.4,320.5,270.9,320.1,270.6,320.1z M272.3,320.2L272.3,320.2L272.3,320.2
		"/>
</g>
</svg>
