<?xml version="1.0" encoding="utf-8"?>
<!-- Generator: Adobe Illustrator 23.0.3, SVG Export Plug-In . SVG Version: 6.00 Build 0)  -->
<svg version="1.1" id="Layer_1" xmlns="http://www.w3.org/2000/svg" xmlns:xlink="http://www.w3.org/1999/xlink" x="0px" y="0px"
	 viewBox="0 0 590 550" style="enable-background:new 0 0 590 550;" xml:space="preserve">
<style type="text/css">
	.st0{fill:#0E0100;}
	.st1{fill:none;}
	.st2{opacity:0.7;}
	.st3{fill:#FFCC66;}
</style>
<g>
	<g>
		<path class="st0" d="M366.5,325.3c0.7-0.7,1.3,18,0.5,20.2c-2.2,6-6.4,12.4-10.1,17.3c-8.9,11.6-18.1,22-28.8,31.9
			c-2.1,1.9-24.7,17-24.7,17.2c0,2,15.9-7.6,17.3-8.7c14.1-11,27.3-26.6,38.1-40.7c5.2-6.7,10.6-15.2,11.5-23.8
			C370.5,337,369.1,322.7,366.5,325.3 M366.2,347.6L366.2,347.6L366.2,347.6z M349.7,372.3L349.7,372.3L349.7,372.3"/>
		<path class="st0" d="M314.7,406.5c-0.1,2.5-0.6,4.7-1.6,6.9c0.5-1.2-2.5,5.3-2.1,5.5C314,420.7,314.8,405.2,314.7,406.5"/>
		<path class="st0" d="M239.1,382.1c-10.5,0.5-17.7,7.1-20,17.1c3.3-0.9,4.9-6.2,7.1-9.1c14-17.9,46.9,4.8,60.4,13.1
			c8.1,5,59.3,47.1,56.9,49.4c1.3-1.3-39.5-40.5-44.6-44.1C282.7,397.1,259.9,381.1,239.1,382.1 M260.8,388.9c0,0,0.1,0,0.1,0.1
			C260.9,388.9,260.9,388.9,260.8,388.9 M309.5,419.5L309.5,419.5L309.5,419.5"/>
		<path class="st0" d="M219.4,397.5C219.4,397.5,219.8,396.5,219.4,397.5"/>
		<path class="st0" d="M236.9,437c-1.1,0.5,5.5,5.9,7.1,7.3c-0.2-0.2-2.3-2.3-2.2-2.4c0.4-0.2,10.7,9.9,12.3,11.2
			c13.8,12,30.6,21.2,39.6,37.1c-0.5,0.2-1.7,0.2-1.4,1.2c1.1,4.1,2-3.5,2-3.7c-0.4-5.2-6.7-10.4-9.8-12.8
			c-7.3-5.7-14-10.8-20.8-16.7C260.2,455.2,240.7,435.3,236.9,437 M278.7,473C278.9,473.1,278.9,473.1,278.7,473 M280.6,474.4
			C280.8,474.6,280.8,474.6,280.6,474.4"/>
		<path class="st0" d="M235.7,437.5C236.3,438,235.8,437.5,235.7,437.5"/>
		<path class="st0" d="M236.8,438.3c0.9,0.8,1.9,1.5,2.8,2.3C238.8,439.8,236.4,437.9,236.8,438.3"/>
		<path class="st0" d="M237.2,439C237.4,439.2,237.1,439,237.2,439"/>
		<path class="st0" d="M239.1,440.5C240.4,441.7,238.1,439.6,239.1,440.5"/>
		<path class="st0" d="M238.8,440.3L238.8,440.3"/>
		<path class="st0" d="M241.2,442.5c0.8,0.7,1.6,1.3,2.3,2C243,444,240.2,441.6,241.2,442.5"/>
		<path class="st0" d="M241.2,442.6c0.6,0.5,1.2,1,1.8,1.5C242.8,444,240.4,442,241.2,442.6"/>
		<path class="st0" d="M247.6,447.9C250.1,450.1,246.9,447.3,247.6,447.9"/>
		<path class="st0" d="M250.4,450C251.7,451.3,251.3,450.9,250.4,450"/>
		<path class="st0" d="M294.3,491.2C293.2,492.4,294.4,491.1,294.3,491.2"/>
		<path class="st0" d="M320.6,486.4c-7.6,4.5-17.5,3.5-25.7,6.5c-0.1-0.6-0.5-2.5-1.5-2.2c-3,0.8,2.3,3.4,2.6,3.4
			c3.1,0.8,8.3-2.2,11.5-2.8c3-0.6,6.8-0.2,9.6-1.4C318.6,489.2,322.2,485.5,320.6,486.4"/>
		<path class="st0" d="M248,409.7c-0.5,1.8,18.9,10.4,20.3,10.9c17.6,7.2,16.7,33.8,32.8,44.5c5.6,3.7,10.2,4.6,12.8,10.5
			c1.1,2.6-0.5,4.6,1.6,7.5c0.6,0.8,6.7,6.1,7.5,3.1c0.2-0.7-5.6-4.4-6.4-6.3c-1.1-2.5,0.9-4.7,0-7.2c-3.1-7.8-16.6-10.1-21.9-17.1
			c-7.3-9.6-8.1-22.3-16.8-31.1C275.6,422.4,248.7,407,248,409.7 M316.6,480.2C316.6,480.2,316.7,480.2,316.6,480.2
			C316.7,480.2,316.6,480.2,316.6,480.2"/>
		<path class="st0" d="M321.3,486.7c-0.3,0.1-2.2,2.1-2.2,2.1C319.7,489.7,322,486.5,321.3,486.7"/>
		<path class="st0" d="M375.6,474.3c-4.8,18.5-24,27.6-41.9,25.1c-1.3-0.2-6.2,0.1-2.9,2.2c4.1,2.6,12.6-0.1,16.7-1
			c11.3-2.3,17.5-4.7,24.3-13.7C374.6,483.5,375,476.8,375.6,474.3 M369.7,487.6L369.7,487.6L369.7,487.6 M369.7,487.6
			C369.7,487.6,369.7,487.7,369.7,487.6C369.7,487.7,369.7,487.6,369.7,487.6"/>
		<path class="st0" d="M378.9,469.8c-0.2,0.4-1.9,3.6-2,3.4C378.3,474.8,379.5,468.7,378.9,469.8 M377.3,472.8
			C377.2,472.8,377.2,472.8,377.3,472.8 M377.4,472.8C377.4,472.9,377.4,472.9,377.4,472.8"/>
		<path class="st0" d="M319.4,486.3c-1,0.6,4.9,6.3,5.9,7.4c-6.4,3.6-14.2,6.5-21.4,7.8c0.4-0.1-16.4,1.1-16.5,1.3
			c-1.4,5.2,29-3.9,32.1-5.4c3.7-1.8,6.2-2,5.8-4.9C325.3,491.9,319.6,486.1,319.4,486.3 M324.4,494.1L324.4,494.1L324.4,494.1
			 M322.9,494.8L322.9,494.8L322.9,494.8z M324.3,495.2L324.3,495.2L324.3,495.2z"/>
		<path class="st0" d="M297.1,492.6c-2.2,2.9-8,3.9-9.6,6.6c-1,1.6-0.7,6.8,0.6,4.5c0.7-1.3-1.8-1.8,0.8-3.5
			C292.4,498,296.7,493,297.1,492.6"/>
		<path class="st0" d="M286.6,502.1c-0.5,0.5,2.1,2.3,2.4,1.7C289.1,503.6,286.8,501.8,286.6,502.1"/>
		<path class="st0" d="M287.1,502.1c-0.5,0.1,0.5,1.8,1.1,1.3C288.3,503.2,287.6,502,287.1,502.1"/>
		<path class="st0" d="M323.6,491.9c1.7-1.7,10.7,25.6,9.3,25.2C338,518.5,328.1,487.4,323.6,491.9"/>
		<path class="st0" d="M286.4,499.7c-8.7,3.7-18,4.1-25.6,10.3c-1.7,1.4-10.3,15.7-7.1,14.9c1.3-0.4,2.1-5.8,2.8-7.1
			c2.4-4.3,6.8-7.4,10.9-9.8C272.8,505,283.4,501,286.4,499.7 M271.2,504.2c0.1,0,0.1-0.1,0.2-0.1
			C271.4,504.1,271.3,504.2,271.2,504.2 M271.4,504.1C271.4,504.1,271.5,504.1,271.4,504.1"/>
		<path class="st0" d="M333.1,517c-5.8,1.4-13.9,2.7-19.5,3.5c-5.2,0.7-60.4,5.4-60.4,3.9c0,2.4,44,0.1,49.8-0.7
			c6.3-0.9,14.8-1.7,21.7-3.1C327.1,520,333.1,517,333.1,517 M330,519.1C330,519.2,329.9,519.2,330,519.1L330,519.1z M303.5,522
			C303.3,522,303.3,522,303.5,522"/>
		<path class="st0" d="M274.9,481.6c1.8-1.8-1.7,7.7-1.5,7.1c-1,3.5-4.7,4.8,2.1,5.8c1.1,0.2,18.6-0.3,17.5-4.4
			c0.1,0.3-19.7,7-20.9,1.9C272.9,495.5,279.3,477.2,274.9,481.6 M288.8,491.5C288.7,491.6,288.7,491.6,288.8,491.5 M272.1,492
			C272.1,492.1,272.1,492.1,272.1,492 M272.1,492.1L272.1,492.1 M275.5,493.1L275.5,493.1 M274.5,494.4
			C274.5,494.4,274.6,494.4,274.5,494.4C274.6,494.4,274.5,494.4,274.5,494.4"/>
		<path class="st0" d="M289,483.3c-2.4,1.5-4.5,1.9-7.2,2.6c-1.2,0.3-3.6-2-4.5-1.4c-2.4,1.4,5.5,2.8,6.3,2.7
			C286.8,486.9,289.6,482.9,289,483.3"/>
		<path class="st0" d="M270.8,491.5c-6.1,3.9-14.2,4.9-20.8,7.8c-3.4,1.4-8.6,4-10.7,7.2c-0.6,0.9-3.5,8.6-1.2,8.6
			c-0.3,0,3.6-8.4,4.7-9.6c3.6-3.7,9.9-5.6,14.4-7.4C262.5,496.1,267.9,493.3,270.8,491.5 M267.8,494.1L267.8,494.1L267.8,494.1
			 M242.9,505.3C242.7,505.4,242.7,505.4,242.9,505.3"/>
		<path class="st0" d="M236.6,513.6C236.8,515,236.5,513.6,236.6,513.6"/>
		<path class="st0" d="M237.1,513.8c0.6,0.7,16.7,6,17.3,3.8C254.7,516.7,237.3,515.1,237.1,513.8 M237.1,513.8L237.1,513.8"/>
		<path class="st0" d="M228.6,382.3c-11.5,1.9-25.5,8.6-25,22.1c0.4,10.1,7,20.2,14.6,26.4c-7.3-10.4-19.9-25.2-9.5-37.7
			c3.6-4.3,9.3-6.8,14.5-8.4c1.7-0.5,14.6-1.4,14.5-1.2C238.2,381.7,229.3,382.2,228.6,382.3"/>
		<path class="st0" d="M223.4,434.9c14.3,11.2,33.4,20.7,43.1,36.7c2.4,3.9,3,10.1,7.2,11.7c4.1,1.6,11.9-2.7,16-4.2
			c-3.5-1.7-7.4,1.8-11.6,1.7c-7.9-0.2-5.6-4.4-10.3-11.7c-6.1-9.4-17.2-17-25.9-23.8C236.6,441.1,226.5,437.2,223.4,434.9
			 M276.6,481.3c-0.1,0-0.1,0-0.2,0C276.4,481.3,276.5,481.3,276.6,481.3 M273.7,481.8L273.7,481.8z"/>
		<path class="st0" d="M289.7,325c-0.1,12.5-10.9,25.3-15.1,36.9c-2.1,5.9-3.9,12-4.2,18.2c0,0.9,1.4,15.7,3.8,13.2
			c0.5-0.5-2.1-10.2-2.1-11.8c0-6.1,1.8-12,3.6-17.8c3.4-11.1,9.1-21,13.5-31.6C290.3,329.7,289.7,325.8,289.7,325 M280.2,351.4
			C280.2,351.5,280.2,351.5,280.2,351.4L280.2,351.4z M280.2,351.5C280.1,351.6,280.1,351.6,280.2,351.5 M278.3,356
			c0,0,0,0.1-0.1,0.1L278.3,356z"/>
		<path class="st0" d="M287.6,308c-0.6,0.3,5.1,8.8,5.2,9c0.3,0.7,1.8,8,1.3,7.9C296.5,325.5,291.9,305.4,287.6,308"/>
		<path class="st0" d="M287.5,308.1c-0.2,0,0.8,2.3,1.1,2.1C288.6,310.2,287.7,308,287.5,308.1 M287.8,308.5L287.8,308.5z"/>
		<path class="st0" d="M287,307.4c-0.3,0.2,1.7,2.7,1.9,2.5C289,309.8,287.2,307.2,287,307.4"/>
		<path class="st0" d="M290.1,324.6c-0.5,0.2,15,3.7,15.6,1.5c0.3-1.2-4.4-1.2-4.8-1.2C297.7,325.4,293,323.5,290.1,324.6"/>
		<path class="st0" d="M314,329.9c-1.3,0-14.6,2.9-14.6,2.8c-0.3,1.3,18-1.4,17.9-1.3C317.9,330.4,314.7,329.8,314,329.9
			 M304.3,332.4C304.2,332.4,304.2,332.4,304.3,332.4"/>
		<path class="st0" d="M299.1,332.9c0,0-0.9,4.2-0.2,4.2C299.7,337.2,299.9,332.1,299.1,332.9"/>
		<path class="st0" d="M314.8,337c-2.2,0.3-2.9,0.4-2.2,0.3c-2.5,0.3-17.2,2.5-17.7,2c0.2,0.2,0.8-0.1,0.6,0c2.1-1.5,21.3,1,22-1.6
			C317.7,336.8,315.4,337,314.8,337 M314,337.8C313.9,337.8,313.9,337.8,314,337.8C313.9,337.8,313.9,337.8,314,337.8 M313.9,337.8
			C313.8,337.8,313.8,337.8,313.9,337.8"/>
		<path class="st0" d="M290.5,330.6c-0.4,0.1-1.7,0.9-1,0.8c0.3-0.1,5-0.4,4.9-0.1C294.6,330.4,290.9,330.5,290.5,330.6"/>
		<path class="st0" d="M288.2,296c0.6-0.6,14.1,20,14.6,21.3c0.3,0.7,2.7,15,1.3,14.1c2.7,1.6,2-9.3,1.9-10.1
			c-1.1-4.9-4.5-9.9-7.3-13.8l-0.1-0.1C298.5,307.3,289.7,294.4,288.2,296 M291.9,300.4C292,300.4,292,300.4,291.9,300.4
			 M293.2,302.2C293.3,302.2,293.3,302.2,293.2,302.2 M305.1,324.4C305.1,324.4,305.1,324.5,305.1,324.4 M305.1,324.5
			C305.2,324.6,305.2,324.6,305.1,324.5 M298.6,307.5L298.6,307.5"/>
		<path class="st0" d="M286.5,287.5c0.1-0.2,8.6,8.7,8.5,8.6c0.8,1,10.8,18.7,11.4,16.6c0.5-1.7-8.7-15.2-10.2-17.2
			C295.9,294.8,288,285,286.5,287.5"/>
		<path class="st0" d="M303.4,295.7c-0.5,0,4.8,6.4,5,7.7c0.1,0.4-4.1,9.1-1.6,9.1c-0.6,0,2-8.3,2.4-9.1c4.1,7.6,4.1,1,10.5,3.5
			c5.9,2.3,3.5,4.2,2.1,8.7c-2.2,6.9-2.7,10.9-3.1,17.9c-0.1,2.2-8.3,35.9-5.2,35.9c1.9,0,3.8-39.2,6.5-43.4c1.5-2.4,9.3-5.3,12-7.7
			c1.3,6.8-1.1,9.5-4.8,14.2c-1.5,1.9-11.6,16.2-10.5,16.9c-0.7-0.4,11.5-16.9,12.9-18.7c-0.1,0.3-1,1.5-0.8,1.6
			c0.3,0.2,0.6-0.7,0.7-1c-1,1.9-4.4,14-2,14.6c-1.8-0.5,14.2-14,14.4-13.5c-0.7-1.2-13.5,10.1-13.7,10.5
			c-1.1-9.5,9.2-16.8,4.7-26.4c-1.5-3.2-17.1-16.9-19.9-9.2C311.3,304.5,306,295.7,303.4,295.7 M319.9,325.4
			c0.7-5,2.8-10.3,5.4-14.6c2.7,1.8,5.4,3.6,6.5,6.9C327.7,320,323.9,323.5,319.9,325.4 M329.8,330.2c0.1-0.6,0.7-1.1,1.1-1.6
			C330.5,329.1,330.1,329.6,329.8,330.2z"/>
		<path class="st0" d="M392,364.3c-5.3,3.1-5.6,26-6.3,30.9c-1.7,10.7-3.4,21.5-4.7,32.2c-1.1,8.4-3.8,16.7-3.5,23.7
			c0.1,3.1-0.4,11.4,0.4,15.6c1.2,6.5,1.7,2.1,2.3-2.3c0.9-6.4-2.2-12.4-1.4-18.1c0.4-2.7,2.9-6.7,3.4-10.6
			c1.5-11.6,2.8-23.9,4.7-36.2C387.5,394.3,388.4,366.4,392,364.3 M390,375.3C390,375.3,390,375.4,390,375.3L390,375.3z
			 M389.6,377.5L389.6,377.5 M389.3,380.7C389.3,380.7,389.3,380.8,389.3,380.7C389.3,380.8,389.3,380.7,389.3,380.7 M382.1,418.9
			L382.1,418.9L382.1,418.9 M383.9,420C383.8,420.1,383.8,420.1,383.9,420 M379.1,442.2C379,442.5,379,442.5,379.1,442.2"/>
		<path class="st0" d="M335.5,437.6c-0.1,0.2,25.3,16.2,27.7,18.3c1.6,1.4,13.8,16.8,14.2,16.5C383,469.2,338.7,432.3,335.5,437.6
			 M346,442.7C345.9,442.6,345.9,442.6,346,442.7"/>
		<path class="st0" d="M379.2,469c-0.1,0.5-0.7,2.6-0.3,2.7C379.7,471.9,379.4,468.6,379.2,469"/>
		<path class="st0" d="M378.3,468.5c-0.4,0.2-1.1,3.4-0.4,3.6c0.6,0.2,1.2-2.8,0.8-2.9c-0.4-0.1-0.5,1.7-0.7,2.1
			C378.2,470.9,378.6,468.3,378.3,468.5 M378.3,470.3C378.2,470.3,378.2,470.3,378.3,470.3"/>
		<path class="st0" d="M385.4,298c-8.1,4.7,4.5,16.9,7,19.9c3.8,4.4,4.7,7.3,4.4,13.2c0,0.9-1.5,17.3,0.9,15.9
			c-0.6,0.3-0.3-11.9-0.1-13.5c0.8-6.4,0.6-10.4-3.7-15.7c-2.5-3.1-6.5-5.2-8.1-8.8C384.9,306.9,384.7,298.4,385.4,298 M384.8,302.4
			C384.8,302.5,384.8,302.5,384.8,302.4 M388.9,314.2C389,314.3,389,314.3,388.9,314.2 M397.1,329.4
			C397.1,329.6,397.1,329.6,397.1,329.4 M396.8,343.7C396.8,343.8,396.8,343.8,396.8,343.7 M395.5,319.8
			C395.7,320,395.4,319.6,395.5,319.8"/>
		<path class="st0" d="M350.3,301.4c-6.2,3.6,19.7,12.8,19.5,12.7c10.9,4.1,11.3,11.9,12.7,22.2c0.5,3.5,11.4,27.5,9,28.2
			c4.9-1.4-5.6-20.8-6.7-24.1c-1.9-6-0.2-13.1-2.7-18.8c-3.3-7.5-11.2-9-18.1-11.1C363.5,310.3,347.9,302.7,350.3,301.4
			 M355.5,307.2C355.6,307.3,355.6,307.3,355.5,307.2 M380.6,322.9L380.6,322.9L380.6,322.9"/>
		<path class="st0" d="M390.6,335.7c0,7.7,5.5,12.3,5.7,19c0,1.4-5.3,11.9-3.8,11.9c2.8,0,4.1-13.6,3.5-15.5
			C394.4,345.6,390.7,340.3,390.6,335.7 M396.3,354.2L396.3,354.2L396.3,354.2z M393.4,363.3L393.4,363.3L393.4,363.3 M393.3,363.4
			L393.3,363.4"/>
		<path class="st0" d="M397.3,344.6c0,0,1.7,9.7,0.5,9.4C399.9,354.6,398,343.9,397.3,344.6 M398.1,351.2
			C398.1,351.3,398.1,351.3,398.1,351.2"/>
		<path class="st0" d="M396.1,339.4c0,1.2,2.9,15.6,1.7,15.3C400.5,355.4,396.1,338.9,396.1,339.4 M398.2,348.8
			C398.2,348.9,398.2,348.9,398.2,348.8C398.2,348.9,398.2,348.9,398.2,348.8 M398.2,351.5C398.2,351.6,398.2,351.6,398.2,351.5
			 M398.4,352.6C398.4,352.7,398.4,352.7,398.4,352.6C398.4,352.7,398.4,352.7,398.4,352.6 M398.4,352.7L398.4,352.7"/>
		<path class="st0" d="M314.2,213.5c-11.4,0.2-24.7,6.5-31,15.7c-2.9,4.1-15.7,31.9-11.7,35.9c-2.4-2.4,8.4-27.9,10.8-32.3
			c5.3-9.6,15.4-15.3,26.1-17.3c20.1-3.8,38,12.7,47.6,28.4c5.6,9.2,8.6,20.8,16.6,26.9c6.2,4.6,12.5,11.9,15.8,19.3
			c1,2.2,3.4,22.5,1.7,22.5c3.1,0,0.9-19.7,0.5-21c-2.9-8.5-9.6-15.6-16.3-21.3c-13.3-11.5-15.1-31.4-29.9-42.8
			C335.9,220.9,326.3,213.3,314.2,213.5 M310.4,215.1C310.3,215.1,310.3,215.1,310.4,215.1C310.3,215.1,310.3,215.1,310.4,215.1
			 M328.6,218.3L328.6,218.3L328.6,218.3 M336.2,222.6C336.3,222.7,336.3,222.7,336.2,222.6 M289.6,223.6L289.6,223.6L289.6,223.6
			 M286.1,227C286,227.1,286,227.1,286.1,227 M370.8,267.7C370.9,267.8,370.9,267.8,370.8,267.7 M388.9,290.9
			C388.9,291,388.9,291,388.9,290.9 M390.7,298C390.7,298.1,390.7,298.1,390.7,298 M390.5,311.3
			C390.5,311.4,390.5,311.4,390.5,311.3C390.5,311.4,390.5,311.4,390.5,311.3 M372.6,270.8L372.6,270.8z"/>
		<path class="st0" d="M272.5,264.8c-9.6,5.4-12.6,18.4-7.4,27.7c0.6,1.2,20.3,31.7,16.8,31.7c5.6,0-15.9-31.7-16.5-32.9
			C260.6,282.5,264.3,269.4,272.5,264.8 M264,275.8L264,275.8L264,275.8z M273.6,303.6C273.6,303.7,273.6,303.7,273.6,303.6"/>
		<path class="st0" d="M282.5,270.7c-0.7,0.2,4.1,20.7,4.3,23c0.3,3.9-4.2,31.1-4.8,30.9C287.9,326.3,288.8,269,282.5,270.7
			 M286.7,302.8L286.7,302.8L286.7,302.8"/>
		<path class="st0" d="M292.8,275.9c-7.1,4.2,10,10.9,10.9,11.2c9,2.6,17.6,4.8,24.3,11.9c5.2,5.4,7.5,12.8,12.3,18.5
			c2.1,2.4,5.7,6.5,8.9,7.5c0.4,0.1,8.2,1.2,6.9-1c0.7,1.3-6.9-0.4-7.6-0.7c-2.5-1.1-5.5-4.2-7.4-6.6c-8.2-10.3-12-21.9-25.4-27.5
			C314.3,288.5,285.3,280.2,292.8,275.9 M297.4,284C297.5,284,297.5,284,297.4,284C297.5,284,297.5,284,297.4,284"/>
		<path class="st0" d="M325.6,290.2c-3.3,1.9,14.1,8.3,13.2,7.9c0.4,0.2-0.3-0.1,0.4,0.2c6.2,2.6,8.2,8,10,14.4
			c0.7,2.6,0.5,6.4,2.1,8.7c0.1,0.1,5.1,5.1,5.1,3c0,1.6-5.1-5.1-5.3-5.6c-2.4-5.7-1.4-12.7-5.9-17.7
			C344.8,300.5,325.2,290.5,325.6,290.2 M346.7,305.4L346.7,305.4L346.7,305.4 M339,298.2C339,298.2,338.9,298.2,339,298.2"/>
		<path class="st0" d="M351.9,315.2c0,0.1,15.7,10.2,17.2,11.9c2.5,3,4.5,23,3.1,22.6c3.1,0.9,0.9-18.8-0.6-21.1
			C370,326.2,352.3,313.7,351.9,315.2 M353.8,316.2L353.8,316.2 M364.3,323.2C364.4,323.3,364.4,323.3,364.3,323.2"/>
		<path class="st0" d="M366.3,313.3c-3.9,1.1,11.8,16.8,12.3,18.4c1.3,4.2-0.5,8.7-2.3,12.4c0,0-5.2,9.4-3.2,8.2
			c1.6-1,5.2-9.1,5.9-11.2c1.8-5.6,1.1-10.3-2.5-14.7C376.3,326.1,363.5,314.1,366.3,313.3 M371.3,323.3
			C371.4,323.4,371.4,323.4,371.3,323.3 M378.8,333.2C378.9,333.3,378.9,333.3,378.8,333.2"/>
		<path class="st0" d="M372.3,348.5c-0.1,0.1-0.3,2.8-0.1,2.8C372.7,351.3,372.4,348.5,372.3,348.5"/>
		<path class="st0" d="M372.1,349.6c0-0.1-0.2,3,0.2,2.9C372.8,352.4,372.2,349,372.1,349.6"/>
		<path class="st0" d="M343.9,322.2c1.7-0.5-4.6,15.4-5.2,16.4c-3.7,6.1-8.5,11.6-13.2,17c-5.2,5.9-10.5,11.7-15.7,17.6
			c-1.5,1.7-13.6,12.4-13.1,14.2c0.3,1.1,16.8-16.3,18.6-18.3c6.6-7.6,13.7-14.7,19.8-22.7C336,345.2,348.4,321,343.9,322.2
			 M335.5,343.5C335.4,343.7,335.4,343.7,335.5,343.5 M333.4,346.3C333.3,346.4,333.3,346.4,333.4,346.3 M311.1,373.9
			C311,374.1,311,374.1,311.1,373.9 M298,387.3C297.9,387.4,297.9,387.4,298,387.3"/>
		<path class="st0" d="M344.3,321.8c-0.1,0,0.4,2.1,0.5,2.1C344.9,323.9,344.4,321.8,344.3,321.8"/>
		<path class="st0" d="M342.9,320.9c-0.4,0.3,0.6,2.4,0.8,2.2c0.2-0.1-0.1-1.6-0.1-1.3c0-0.1,0-0.2,0-0.4c0.1,0.3,0.3,2.4,0.3,2.4
			c0.1,0,0.2-2.5-0.3-2.6c-0.3-0.1,0.1,1.8-0.1,1.3C343.5,322.4,343.1,320.7,342.9,320.9 M343.7,321.3
			C343.7,321.3,343.7,321.4,343.7,321.3 M343.8,322.9L343.8,322.9 M343.6,322.6L343.6,322.6"/>
		<path class="st0" d="M342.8,319.6c0,0.3,0.7,2.1,1.1,1.8v-0.1c0,0.1-0.7-1-0.8-1.1c0.2,0.2,1.8,2.7,1.4,2.8
			C345.4,322.7,342.8,319.4,342.8,319.6 M343.7,321.2C343.7,321.3,343.7,321.3,343.7,321.2 M344.1,321.5L344.1,321.5L344.1,321.5"/>
		<path class="st0" d="M220.3,396.5c-1.5,0.9-1.4,7.3-1.3,8.5C220.2,404.2,220.3,396.5,220.3,396.5"/>
		<path class="st0" d="M220.3,399.5L220.3,399.5L220.3,399.5z"/>
		<path class="st0" d="M220.3,399.5L220.3,399.5L220.3,399.5"/>
		<path class="st0" d="M219.9,397.5c-3.8,1.1,0,15.9,0.7,18.4c2.4,7.9,7.7,19.2,16.3,22.3c5.1,1.8,0-1.8-1.4-3.4
			c-3.5-3.8-7.3-6.1-9.9-10.7C223.7,420.7,216.4,398.5,219.9,397.5"/>
		<path class="st0" d="M215,425.9c-0.8,0.8,13,10.7,12.7,11.2C228.7,435.4,214.1,426.8,215,425.9 M219.4,430.3L219.4,430.3
			 M222.2,431.8L222.2,431.8L222.2,431.8 M222.9,432.4C222.9,432.4,223.1,432.5,222.9,432.4 M223.6,432.8
			C223.6,432.9,223.6,432.9,223.6,432.8C223.6,432.9,223.6,432.9,223.6,432.8 M227.2,436.6L227.2,436.6L227.2,436.6 M223.7,433
			C223.7,433,223.7,432.9,223.7,433C223.7,432.9,223.7,433,223.7,433 M223.7,432.9L223.7,432.9 M223.7,432.9L223.7,432.9
			 M223.1,432.5C223.1,432.5,223,432.5,223.1,432.5C223,432.5,223.1,432.5,223.1,432.5 M220,430.8L220,430.8L220,430.8 M219.8,430.6
			L219.8,430.6"/>
		<path class="st0" d="M216.1,427.1c-0.5,0.7-0.2,0.7,0.2,1.5c-0.2-0.1-0.8-0.9-1-0.7c-0.6,0.6,17,12.7,17.3,11.6
			C232.9,438.1,216.3,427.1,216.1,427.1 M225,433.7L225,433.7L225,433.7 M225.5,434.1L225.5,434.1"/>
		<path class="st0" d="M217,427.7c0.3-0.2-0.4,2.1-0.8,1.5c0.1,0.2,8,6.6,8.6,6C225.7,434.3,217.7,427.3,217,427.7 M222.5,433.8
			C222.5,433.8,222.5,433.9,222.5,433.8"/>
		<path class="st0" d="M220.6,396.4c-4.1,3.8,1.3,13.6,0.5,15.1C222.6,409,219.8,398.2,220.6,396.4"/>
		<path class="st0" d="M219.2,402.4c0.1,9.6,4.1,19.3,9.8,27c0.6,0.8,9.4,11.9,10.6,10.7c0.4-0.4-5.4-6.2-6.3-7.1
			c-3.6,0-7.5-9.5-8.6-12.2c0,0.1-1.6-4.5-2.2-6.1C221.5,412.4,219.2,403.6,219.2,402.4 M233.3,433L233.3,433L233.3,433"/>
		<path class="st0" d="M226.7,424.8c0.7,1.6,1.6,3.1,2.8,4.4c-0.4-0.5-0.4-0.7-0.2-0.4C228.4,427.6,227.4,426.3,226.7,424.8"/>
		<line class="st1" x1="233.3" y1="433" x2="233.3" y2="433"/>
		<polyline class="st0" points="233.3,433 233.3,433 233.3,433 		"/>
		<polyline class="st0" points="233.3,433 233.3,433 233.3,433 		"/>
		<path class="st0" d="M239,440.1C239.4,440.4,238.6,439.7,239,440.1"/>
		<path class="st0" d="M220.8,395c-0.9,2.1-4,15.6-0.9,15.6C218.7,410.6,220.2,396.5,220.8,395 M220.7,395.3L220.7,395.3
			 M220.5,396.8L220.5,396.8L220.5,396.8 M219.6,409L219.6,409L219.6,409"/>
		<path class="st0" d="M221,393.4c-1.2,3.3-1.4,16.8-1,16.4c0.5-0.5-0.2-7.4-0.1-8.2C220.1,399.9,220.9,393.7,221,393.4"/>
		<path class="st0" d="M295.8,340.1c6.6,0-8.2,31.6-8.9,33.3c-1,2.3-7.6,25.7-3.7,24.6c-0.1,0,6.2-27.1,7.7-30.7
			C292.3,363.8,302.7,340.1,295.8,340.1"/>
		<path class="st0" d="M283.2,397.1c-1.3,0.4-0.1,3.5,0.8,3C284.4,399.7,283.6,397,283.2,397.1"/>
		<path class="st0" d="M272,280.9c-3.6,6.1,4.8,15,7.4,19.9c0.3,0.6,4.4,11.3,4.3,11.3c4.5,0-7.8-19.3-7.5-18.8
			C274.6,290.4,271,282.8,272,280.9"/>
		<path class="st0" d="M283.9,309.1c-0.3,0.4,0.4,5.8,0.6,5.8C285.2,314.9,284.3,308.7,283.9,309.1"/>
		<path class="st0" d="M283.5,310.8c0,0.8-0.4,5,0.2,5.6C284.5,317.2,283.4,309.6,283.5,310.8"/>
		<path class="st0" d="M271.8,265.6c-3.9,2-6,5.8-7.4,9.3c-3.9,9.4,1,15.9,5.6,23.4c1.1,1.7,11.9,27.9,12.1,27.9
			c3.7,0-12.5-31-14.3-34C262.7,283.9,263.1,270,271.8,265.6 M264.1,275.5C264,275.6,264,275.6,264.1,275.5 M263.7,283.9
			C263.7,284.1,263.7,284.1,263.7,283.9 M278.2,309.9L278.2,309.9L278.2,309.9 M277.4,312.6L277.4,312.6L277.4,312.6 M277.4,312.6
			C277.5,312.8,277.5,312.8,277.4,312.6"/>
		<path class="st0" d="M263.7,287.5c-1,1,3.3,6.3,3.6,6.2C268.2,293.2,264,287.3,263.7,287.5 M263.9,289.2
			C263.9,289.2,263.9,289,263.9,289.2"/>
		<path class="st0" d="M263.1,278.4c-1.6,4.6,4.2,14.4,4.2,14.3C267.9,290.5,262.7,279.7,263.1,278.4 M264,284.6
			C264,284.7,264,284.7,264,284.6"/>
		<path class="st0" d="M270.9,265.4c-3.1,3.3-5.3,6.2-6.5,10.9c-0.1,0.4-1.1,15.6,1.2,14.9c-0.1,0-0.5-13.1-0.1-14.5
			C266.1,274.3,270.9,265.4,270.9,265.4 M264.9,279.5C264.9,279.6,264.9,279.6,264.9,279.5"/>
		<path class="st0" d="M284.1,228.7c-1.5,2.7-14.1,38.1-11.6,38.1C272.3,266.9,283.1,230.7,284.1,228.7 M281.9,234.5
			C281.9,234.6,281.9,234.6,281.9,234.5 M280.4,236.3C280.4,236.3,280.3,236.3,280.4,236.3C280.3,236.3,280.4,236.3,280.4,236.3"/>
		<path class="st0" d="M275.3,253.8c-2.4,0.8-3.6,12.4-2.8,12.6C273.4,266.7,274.3,254.2,275.3,253.8 M272.5,264.7L272.5,264.7"/>
		<path class="st0" d="M397.4,344.9c1.1-0.3,0.2,10.6,0.2,10.6C399.1,355.9,399.4,344.3,397.4,344.9"/>
		<path class="st0" d="M397.3,345.1c0.4-0.1,0,9.7-0.3,10.4c-0.1,0.3-1.3,1.6-0.7,2C398.3,358.6,399.3,344.5,397.3,345.1
			 M397.1,355.5L397.1,355.5L397.1,355.5 M397.1,355.5L397.1,355.5"/>
		<path class="st0" d="M390.1,311c-0.3,0.8,0.4,4.1,1.2,3.7C391.2,314.7,390.3,310.5,390.1,311"/>
		<path class="st0" d="M390.7,362.1c0,0,0.6,4.5,1.3,3.8C392.1,365.7,390.6,361.3,390.7,362.1"/>
		<path class="st0" d="M391,362.8c-0.8,0.2,1.5,4.1,1.8,3.6C392.9,366.4,390.9,362.9,391,362.8"/>
		<path class="st0" d="M372.4,349c0,0.4-0.4,2.5,0.3,2.3c0-0.1,0.1-0.2,0.2-0.2C373.1,350.4,372.4,348.4,372.4,349"/>
		<path class="st0" d="M350.8,315c-0.7,1.2,17.1,11.2,17,11.5C368.7,324.9,351.7,313.6,350.8,315 M364.3,324.4L364.3,324.4
			L364.3,324.4 M364.4,324.4C364.4,324.5,364.4,324.5,364.4,324.4C364.4,324.5,364.4,324.5,364.4,324.4"/>
		<path class="st0" d="M350.4,314.6c1.5-0.9,17.8,11.7,20.1,15.4c1.1,1.8,4.3,17.3,2.8,17.3c1.8,0-0.9-15.4-1.8-17.1
			C370.1,327.6,354.2,312.3,350.4,314.6 M364.8,324.3L364.8,324.3L364.8,324.3 M372.8,336.6L372.8,336.6"/>
		<path class="st0" d="M372.9,344.8c-0.3,0.4-0.9,7-0.1,6.8C373.7,351.4,373.2,344.5,372.9,344.8"/>
		<path class="st0" d="M316.6,331c-0.1,0.2,1.2,1.2,1.4,1C318.3,331.8,316.9,330.6,316.6,331"/>
		<path class="st0" d="M317,331c-0.5,0.3,1.1,1.5,1.4,1C318.7,331.6,317.4,330.8,317,331"/>
		<path class="st0" d="M318.7,332.4c0.4-0.1-1.7,6.1-1.3,6.2C319,339.1,320.3,332,318.7,332.4"/>
		<path class="st0" d="M330.2,329.5c-2.5,2.1-17.5,21.8-14.6,22.6C316.1,352.2,329.9,329.7,330.2,329.5 M324.5,335.3
			C324.5,335.3,324.5,335.4,324.5,335.3C324.5,335.4,324.5,335.3,324.5,335.3"/>
		<path class="st0" d="M315.8,350.5c-0.3,1.2-3.7,17.1-1.7,17.1C314.4,367.6,315.8,350.2,315.8,350.5 M315,358.3
			C315,358.4,315,358.4,315,358.3 M314.8,359.5C314.8,359.6,314.8,359.6,314.8,359.5"/>
		<path class="st0" d="M342.4,332.2c-1.5,0.8-17.4,12.9-15.6,13.4C328.6,346.1,342.4,332.2,342.4,332.2"/>
		<path class="st0" d="M331.7,327.7c-0.5,0.8-7.9,17.8-5.1,18.6C326.3,346.2,331.7,327.7,331.7,327.7 M326.3,345.5
			C326.3,345.5,326.3,345.2,326.3,345.5"/>
		<path class="st0" d="M328.6,343.3c-0.2,0.3-2.2,2.3-1.6,2.6C328.2,346.7,329,342.7,328.6,343.3 M328.3,344.6L328.3,344.6"/>
		<path class="st0" d="M337.9,335.6c-3.1,2.2-8.3,5.4-10,8.9c-0.6,1.3,0.3,0.6,0.3,0.1C328.2,342.5,336.8,336.4,337.9,335.6
			 M327.9,345.1L327.9,345.1 M328.2,344.7L328.2,344.7 M328,344.5L328,344.5"/>
		<path class="st0" d="M341.5,332.9c0.8-0.5-5.6,3.3-5,3.9C337.1,337.4,342.4,332.3,341.5,332.9"/>
		<path class="st0" d="M331.7,317.6c-1.7,1.5-11.8,8.5-12,8.4C324.3,324.4,329.2,319.8,331.7,317.6 M328.4,321.1L328.4,321.1"/>
		<path class="st0" d="M286.9,306.9c-0.4,0.2,0.8,2,1.2,1.7C288.4,308.5,287.4,306.6,286.9,306.9 M287.7,307.6
			C287.8,307.7,287.8,307.7,287.7,307.6C287.8,307.7,287.8,307.7,287.7,307.6"/>
		<path class="st0" d="M286.7,306.7c1.9-1.1,8.1,19.3,7,19C296.8,326.6,290.8,304.3,286.7,306.7"/>
		<path class="st0" d="M287.7,295.3c0.4-0.4,15.7,22.4,16.5,24.9c0.9,2.6,0.9,4.7,0.9,7.1c0,1-2.4,3.9-1.9,4.7
			c0.6,1,2.6-3.9,2.7-4.5c0.6-3.6-0.5-6.5-2-10C302.8,315,290.1,292.9,287.7,295.3 M293.5,302.8L293.5,302.8L293.5,302.8
			 M296.5,306.6C296.6,306.6,296.6,306.6,296.5,306.6C296.6,306.6,296.6,306.6,296.5,306.6 M303.4,331.4L303.4,331.4"/>
		<path class="st0" d="M304.7,329.7c-0.3,0.6-1.5,1.9-0.7,2.7C304.4,332.9,305.1,328.9,304.7,329.7 M304,331.5L304,331.5"/>
		<path class="st0" d="M324.4,311.3c-1.5,1.6-8.8,22.4-5.5,21.4C318.3,332.9,323.3,312.5,324.4,311.3"/>
		<path class="st0" d="M318,332.3c1-0.6-0.1,5.7-0.1,5.7c1.6,0.9,1.8-5.9,1.1-5.6C319,332.3,318,332.3,318,332.3 M319,332.5
			C319,332.6,319,332.6,319,332.5"/>
		<path class="st0" d="M317.3,331.7c-0.4,0.4,1.5,2.5,1.9,2.1C319.6,333.3,317.8,331.2,317.3,331.7"/>
	</g>
	<g>
		<g class="st2">
			<g>
				<path class="st3" d="M256.9,170.3c-4.5,6.2-0.1,26.7,0.2,34.3c0.4,12.7,0.9,25.3,0.8,38.1c-0.3,27.1,0,54.7-2.3,81.4
					c0,0.4-0.1,0.8-0.1,1.2c-0.2,2.6-1.6,59.7,2.6,59.7c1.7,0,2.3-100.8,2.3-109.3c0-18.3,1.4-36.6,0.6-54.9
					c-0.4-8.9-0.9-17.8-1.4-26.7c-0.3-4.9-0.3-9.7-0.4-14.6C259.2,179.3,258.6,167.5,256.9,170.3"/>
			</g>
		</g>
		<g class="st2">
			<g>
				<path class="st3" d="M409.5,417.3c-2.6,3.5-0.3,14.8-0.3,19.3c0.1,7.9-0.7,15.8-1.1,23.7c-0.2,3.3-1.6,37.6,3.3,33.4
					c2.6-2.1,0.6-11.5,0.6-14.4c0.1-9.1,0.4-18.2,0.7-27.3c0.2-7.1,0-13.9-0.5-20.9C412.1,429.7,410.8,415,409.5,417.3"/>
			</g>
		</g>
		<g class="st2">
			<g>
				<path class="st3" d="M244.5,475.3c-22.3,0.2-44.8,0.6-67.1,2c-3,0.2-21.2,0.2-21.7,1.9c-1.5,5.1,13.2,2.9,15.4,2.8
					c24.4-1,49-2.7,73.4-2.2c2.5,0.1,23.7,2.4,21.3-2.3C264.3,474.6,248.4,475.2,244.5,475.3"/>
			</g>
		</g>
		<g class="st2">
			<g>
				<path class="st3" d="M265.4,477.5c-6.9,0.3,1.8,4.3,1.8,2.2C267.2,477.9,267.8,477.3,265.4,477.5"/>
			</g>
		</g>
		<g class="st2">
			<g>
				<path class="st3" d="M265.1,477.9c-4.5,0.3,3.8,3.1,2.4,1.8C267,479.2,267.1,477.8,265.1,477.9"/>
			</g>
		</g>
		<g class="st2">
			<g>
				<path class="st3" d="M257.4,462.3c-1.9,2.8-1.4,18.9,0.8,16.6C261.4,475.5,258,461.5,257.4,462.3"/>
			</g>
		</g>
		<g class="st2">
			<g>
				<path class="st3" d="M408.7,494.3c-2,3.2,2.9,3.4,2.4,2.5C411.1,496.8,409.6,492.8,408.7,494.3"/>
			</g>
		</g>
		<g class="st2">
			<g>
				<path class="st3" d="M371.6,490.5c-4.3,5.9,12.7,5.6,14.9,6.1c7.1,1.5,14.1,4,21.3,5.3c8.5,1.6,17.2,3.3,25.8,4.4
					c1.1,0.1,15.7,3.3,15.8,3.2c3.4-3.3-32.8-10.2-36.3-10.9C409.2,497.9,374.3,486,371.6,490.5"/>
			</g>
		</g>
	</g>
</g>
</svg>
