<?xml version="1.0" encoding="utf-8"?>
<!-- Generator: Adobe Illustrator 23.0.3, SVG Export Plug-In . SVG Version: 6.00 Build 0)  -->
<svg version="1.1" id="imp" xmlns="http://www.w3.org/2000/svg" xmlns:xlink="http://www.w3.org/1999/xlink" x="0px" y="0px"
	 viewBox="0 0 32 32" style="enable-background:new 0 0 32 32;" xml:space="preserve">
<style type="text/css">
	.st0{fill:none;stroke:#323234;stroke-miterlimit:10;}
	.st1{fill:#323234;}
</style>
<circle class="st0" cx="16" cy="16" r="15"/>
<path class="st1" d="M22.0662479,11.4104071c-0.1861897-0.1866074-0.446352-0.3037996-0.7311783-0.303731h-2.3806496
	l-0.6383953-1.0308819h-0.5067406c-0.0285759-0.1919508-0.0947495-0.3555822-0.1864223-0.4869118
	c-0.0930138-0.1342916-0.2090492-0.2340393-0.3264732-0.3065529c-0.1766815-0.1088409-0.3563004-0.1594429-0.4930439-0.1854267
	c-0.1369076-0.0256834-0.2320499-0.0260534-0.24193-0.0261221c-0.2704105-0.0006943-0.4988041,0.0760536-0.6740971,0.1938019
	c-0.1318159,0.087924-0.2339697,0.1964865-0.312499,0.3068533c-0.1178179,0.1659212-0.1844778,0.3360767-0.2238579,0.4662275
	c-0.0039797,0.0132351-0.0074739,0.0257521-0.0108986,0.0381308h-0.533349l-0.6384192,1.0308819h-0.8499908
	c0.0856562-0.1510201,0.1887589-0.2919989,0.3126612-0.4159021c0.6193075-0.6196537,1.0040426-1.4774418,1.0040655-2.4235001
	v-0.000741V8.2664871c-0.0002775-1.8985505-1.539011-3.4370995-3.4373999-3.4372845
	c-0.0620556,0-0.1243658,0.0015731-0.1869993,0.0049515c-0.8859005,0.0469928-1.6864462,0.4396415-2.2703285,1.0396514
	C8.156373,6.4737225,7.7854967,7.2847033,7.7614336,8.1714363v0.000185
	c-0.0009027,0.0315371-0.0013189,0.063097-0.0013189,0.0946808v0.0006704v0.0003242
	c0.0000229,0.9309959,0.3729811,1.7764521,0.9750738,2.393445c0.3785572,0.3878126,0.5780983,0.9253502,0.5794868,1.4799404
	l0.0001154-0.0000229l0.0001154,0.0027533v1.6112251H9.023138c-0.0619164,0.0000458-0.1177244,0.0251045-0.159234,0.0664053
	c-0.0413246,0.0415087-0.0663595,0.0973177-0.0664053,0.1592579v0.2210121
	c0.0000458,0.061986,0.0251045,0.1178408,0.0664282,0.1593733c0.0415096,0.0413475,0.0973177,0.0664053,0.1592112,0.066452
	h0.2916527l0.0002079,0.1310062c0.00037,0.2766581,0.1146479,0.5299711,0.2960024,0.7108164l0.0002546,0.0002546
	c0.1812849,0.1817245,0.435153,0.2960949,0.7124596,0.2960253h0.0009718h0.0001383h0.5338593v8.3526573
	c-0.0000696,0.2848282,0.1171465,0.5449886,0.3037529,0.7311783c0.1861668,0.1866074,0.446352,0.3038006,0.7311554,0.30373
	h9.4414768c0.2848263,0.0000706,0.5449886-0.1171227,0.7311783-0.30373c0.1866074-0.1861897,0.3037987-0.4463501,0.30373-0.7311783
	V12.1415844C22.3700466,11.8567581,22.2528553,11.5965967,22.0662479,11.4104071z M13.98067,12.250679
	c0.0023832-0.008399,0.0046272-0.0151548,0.0065708-0.0207777l0.3163404-0.5108128l0.3792515-0.6124125l0.3674984-0.593461
	h0.6597748l0.0232534-0.1915817c0.0000229-0.0002079,0.0017576-0.0136738,0.0064783-0.0378304
	c0.0158958-0.0852623,0.0717268-0.2963486,0.1972265-0.4668741c0.0625877-0.0857725,0.140378-0.1615715,0.239152-0.2166395
	c0.0991001-0.0547905,0.2204113-0.0916491,0.3849907-0.0920658c0.0018044,0.0000238,0.0148087,0.0002317,0.0380383,0.0020132
	c0.0436611,0.003355,0.1200161,0.0124941,0.2065754,0.0353546c0.1306591,0.0340586,0.2801056,0.0994692,0.3886681,0.2097902
	c0.0547905,0.055439,0.1012745,0.1217976,0.1359119,0.2079172c0.0344067,0.0861645,0.0571728,0.1932697,0.0572662,0.3311939
	v0.2187223h0.6847172l0.3675213,0.593461l0.3792286,0.6124125l0.3162003,0.510582
	c0.0029392,0.0083523,0.0065956,0.0194817,0.0101128,0.0338039c0.005043,0.0200377,0.0083752,0.0431519,0.0082817,0.0585155
	c-0.0083981,0.0013189-0.0200825,0.0024529-0.035862,0.00243h-2.5564518h-2.5565662
	c-0.0156641,0.0000229-0.0274649-0.0010881-0.0358639-0.0024071C13.9687767,12.3032255,13.9740982,12.2730303,13.98067,12.250679z
	 M9.0881786,10.316659C8.5713491,9.7862711,8.2531347,9.0651579,8.253089,8.2663021
	c0-0.0269794,0.00037-0.0540962,0.0010872-0.0814686c0.0204306-0.7562594,0.336956-1.4507408,0.8394165-1.9672232
	c0.5026464-0.5162973,1.187849-0.8512635,1.9432297-0.8912225c0.053957-0.0028458,0.1075211-0.0042806,0.1608315-0.0042806
	c0.8136873,0.0000696,1.5484982,0.3293204,2.0819397,0.8623462l0.0001392,0.0001159
	c0.5330257,0.5334425,0.862277,1.2682762,0.8623228,2.0821028c-0.0000229,0.8115358-0.3284407,1.5432692-0.85987,2.0757389
	c-0.4823542,0.4834881-0.7312937,1.1436329-0.7313175,1.8159256v0.3768454h-1.0169525v-2.4672079l0.0597878-0.0388021
	c0.0138369-0.0089779,0.0263538-0.0189037,0.0377607-0.0302181l0.8886309-0.8886309
	c0.0438232-0.043869,0.0655727-0.1010427,0.0656881-0.1596279c-0.0001154-0.0585852-0.0218649-0.1157818-0.0656652-0.159605
	l-0.1564341-0.1563416c-0.04387-0.0438929-0.1010199-0.0656424-0.1595354-0.0657806
	c-0.0585384,0.0001383-0.1157589,0.0218878-0.1597433,0.0658264l-0.831666,0.831666l-0.8316889-0.8316889
	c-0.0439386-0.0439157-0.1011124-0.0656652-0.1596279-0.0658035c-0.0585384,0.0001383-0.1156654,0.0218878-0.1596508,0.0658731
	L9.9053831,8.7910671C9.8615837,8.8349133,9.8398342,8.8921099,9.839695,8.950695
	C9.8398342,9.0092802,9.8615837,9.0664539,9.9053831,9.110323l0.8843737,0.8842812l0.071496,0.0580988v2.4824791h-1.053442
	v-0.3888083C9.807765,11.4733648,9.5668306,10.8082218,9.0881786,10.316659z M12.550868,13.0901194v0.6645184H9.8078108v-0.5332804
	v-0.131238H12.550868z M12.550683,14.5592089c-0.0005779,0.1396828-0.0583534,0.2679815-0.1513443,0.3609724L12.399107,14.920413
	l-0.0003929,0.00037c-0.0934534,0.0934076-0.2227707,0.1516914-0.3639812,0.1514835h-1.7108097
	c-0.1411638,0.0002308-0.2704582-0.0581226-0.3639116-0.1514139l-0.0001621-0.0001621L9.959341,14.9201813
	c-0.0930605-0.0930367-0.1506968-0.2213593-0.1512756-0.3609724L9.80721,14.4271383h2.7443523L12.550683,14.5592089z
	 M20.6761742,23.2040749c0,0.1136284-0.0930367,0.2066669-0.2067585,0.2066669h-7.6430912
	c-0.1137228,0-0.2067604-0.0930386-0.2067604-0.2066669v-0.1042366c0-0.1137218,0.0930376-0.2067585,0.2067604-0.2067585h7.6430912
	c0.1137218,0,0.2067585,0.0930367,0.2067585,0.2067585V23.2040749z M20.6761742,21.4071445
	c0,0.1137238-0.0930367,0.2067604-0.2067585,0.2067604h-7.6430912c-0.1137228,0-0.2067604-0.0930367-0.2067604-0.2067604v-0.1042347
	c0-0.1137218,0.0930376-0.2067604,0.2067604-0.2067604h7.6430912c0.1137218,0,0.2067585,0.0930386,0.2067585,0.2067604V21.4071445z
	 M20.6761742,19.6102161c0,0.1137218-0.1788082,0.2067604-0.3973446,0.2067604h-7.261919
	c-0.2185373,0-0.3973465-0.0930386-0.3973465-0.2067604v-0.1042347c0-0.1137238,0.1788092-0.2067604,0.3973465-0.2067604h7.261919
	c0.2185364,0,0.3973446,0.0930367,0.3973446,0.2067604V19.6102161z M20.6761742,17.8132877
	c0,0.1137218-0.1788082,0.2067585-0.3973446,0.2067585h-7.261919c-0.2185373,0-0.3973465-0.0930367-0.3973465-0.2067585v-0.1042366
	c0-0.1136284,0.1788092-0.2066669,0.3973465-0.2066669h7.261919c0.2185364,0,0.3973446,0.0930386,0.3973446,0.2066669V17.8132877z
	 M20.6761742,16.0163593c0,0.1137218-0.1551857,0.2067585-0.3448448,0.2067585h-6.3022089
	c-0.189661,0-0.3448467-0.0930367-0.3448467-0.2067585v-0.1041441c0-0.1137218,0.1551857-0.2067595,0.3448467-0.2067595h6.3022089
	c0.1896591,0,0.3448448,0.0930376,0.3448448,0.2067595V16.0163593z M20.6761742,14.2195225
	c0,0.1136293-0.1279755,0.2066669-0.2843628,0.2066669H15.194664c-0.1564112,0-0.2843637-0.0930376-0.2843637-0.2066669v-0.1042356
	c0-0.1137228,0.1279526-0.2067595,0.2843637-0.2067595h5.1971474c0.1563873,0,0.2843628,0.0930367,0.2843628,0.2067595V14.2195225z"
	/>
</svg>
