<?xml version="1.0" encoding="utf-8"?>
<!-- Generator: Adobe Illustrator 23.0.3, SVG Export Plug-In . SVG Version: 6.00 Build 0)  -->
<svg version="1.1" id="Layer_1" xmlns="http://www.w3.org/2000/svg" xmlns:xlink="http://www.w3.org/1999/xlink" x="0px" y="0px"
	 viewBox="0 0 32 32" style="enable-background:new 0 0 32 32;" xml:space="preserve">
<style type="text/css">
	.st0{fill:none;stroke:#323234;stroke-miterlimit:10;}
	.st1{fill:#323234;}
</style>
<circle class="st0" cx="16" cy="16" r="15"/>
<path class="st1" d="M22.1,11.4c-0.2-0.2-0.4-0.3-0.7-0.3H19l-0.6-1h-0.5c0-0.2-0.1-0.4-0.2-0.5c-0.1-0.1-0.2-0.2-0.3-0.3
	c-0.2-0.1-0.4-0.2-0.5-0.2c-0.1,0-0.2,0-0.2,0c-0.3,0-0.5,0.1-0.7,0.2c-0.1,0.1-0.2,0.2-0.3,0.3c-0.1,0.2-0.2,0.3-0.2,0.5
	c0,0,0,0,0,0h-0.5l-0.6,1h-0.8c0.1-0.2,0.2-0.3,0.3-0.4c0.6-0.6,1-1.5,1-2.4v0v0c0-1.9-1.5-3.4-3.4-3.4c-0.1,0-0.1,0-0.2,0
	c-0.9,0-1.7,0.4-2.3,1c-0.6,0.6-1,1.4-1,2.3v0c0,0,0,0.1,0,0.1v0v0c0,0.9,0.4,1.8,1,2.4c0.4,0.4,0.6,0.9,0.6,1.5l0,0l0,0v1.6H9
	c-0.1,0-0.1,0-0.2,0.1c0,0-0.1,0.1-0.1,0.2v0.2c0,0.1,0,0.1,0.1,0.2c0,0,0.1,0.1,0.2,0.1h0.3l0,0.1c0,0.3,0.1,0.5,0.3,0.7l0,0
	c0.2,0.2,0.4,0.3,0.7,0.3h0h0h0.5v8.4c0,0.3,0.1,0.5,0.3,0.7c0.2,0.2,0.4,0.3,0.7,0.3h9.4c0.3,0,0.5-0.1,0.7-0.3
	c0.2-0.2,0.3-0.4,0.3-0.7V12.1C22.4,11.9,22.3,11.6,22.1,11.4z M14,12.3C14,12.2,14,12.2,14,12.3l0.3-0.5l0.4-0.6l0.4-0.6h0.7l0-0.2
	c0,0,0,0,0,0c0-0.1,0.1-0.3,0.2-0.5c0.1-0.1,0.1-0.2,0.2-0.2c0.1-0.1,0.2-0.1,0.4-0.1c0,0,0,0,0,0c0,0,0.1,0,0.2,0
	c0.1,0,0.3,0.1,0.4,0.2c0.1,0.1,0.1,0.1,0.1,0.2c0,0.1,0.1,0.2,0.1,0.3v0.2h0.7l0.4,0.6l0.4,0.6l0.3,0.5c0,0,0,0,0,0c0,0,0,0,0,0.1
	c0,0,0,0,0,0h-2.6L14,12.3C14,12.3,14,12.3,14,12.3C14,12.3,14,12.3,14,12.3z M9.1,10.3C8.6,9.8,8.3,9.1,8.3,8.3c0,0,0-0.1,0-0.1
	c0-0.8,0.3-1.5,0.8-2c0.5-0.5,1.2-0.9,1.9-0.9c0.1,0,0.1,0,0.2,0c0.8,0,1.5,0.3,2.1,0.9l0,0c0.5,0.5,0.9,1.3,0.9,2.1
	c0,0.8-0.3,1.5-0.9,2.1c-0.5,0.5-0.7,1.1-0.7,1.8v0.4h-1v-2.5l0.1,0c0,0,0,0,0,0l0.9-0.9c0,0,0.1-0.1,0.1-0.2c0-0.1,0-0.1-0.1-0.2
	l-0.2-0.2c0,0-0.1-0.1-0.2-0.1c-0.1,0-0.1,0-0.2,0.1l-0.8,0.8l-0.8-0.8c0,0-0.1-0.1-0.2-0.1c-0.1,0-0.1,0-0.2,0.1L9.9,8.8
	c0,0-0.1,0.1-0.1,0.2c0,0.1,0,0.1,0.1,0.2l0.9,0.9l0.1,0.1v2.5H9.8v-0.4C9.8,11.5,9.6,10.8,9.1,10.3z M12.6,13.1v0.7H9.8v-0.5v-0.1
	H12.6z M12.6,14.6c0,0.1-0.1,0.3-0.2,0.4l0,0l0,0c-0.1,0.1-0.2,0.2-0.4,0.2h-1.7c-0.1,0-0.3-0.1-0.4-0.2l0,0l0,0
	c-0.1-0.1-0.2-0.2-0.2-0.4l0-0.1h2.7L12.6,14.6z M20.7,23.2c0,0.1-0.1,0.2-0.2,0.2h-7.6c-0.1,0-0.2-0.1-0.2-0.2v-0.1
	c0-0.1,0.1-0.2,0.2-0.2h7.6c0.1,0,0.2,0.1,0.2,0.2V23.2z M20.7,21.4c0,0.1-0.1,0.2-0.2,0.2h-7.6c-0.1,0-0.2-0.1-0.2-0.2v-0.1
	c0-0.1,0.1-0.2,0.2-0.2h7.6c0.1,0,0.2,0.1,0.2,0.2V21.4z M20.7,19.6c0,0.1-0.2,0.2-0.4,0.2H13c-0.2,0-0.4-0.1-0.4-0.2v-0.1
	c0-0.1,0.2-0.2,0.4-0.2h7.3c0.2,0,0.4,0.1,0.4,0.2V19.6z M20.7,17.8c0,0.1-0.2,0.2-0.4,0.2H13c-0.2,0-0.4-0.1-0.4-0.2v-0.1
	c0-0.1,0.2-0.2,0.4-0.2h7.3c0.2,0,0.4,0.1,0.4,0.2V17.8z M20.7,16c0,0.1-0.2,0.2-0.3,0.2H14c-0.2,0-0.3-0.1-0.3-0.2v-0.1
	c0-0.1,0.2-0.2,0.3-0.2h6.3c0.2,0,0.3,0.1,0.3,0.2V16z M20.7,14.2c0,0.1-0.1,0.2-0.3,0.2h-5.2c-0.2,0-0.3-0.1-0.3-0.2v-0.1
	c0-0.1,0.1-0.2,0.3-0.2h5.2c0.2,0,0.3,0.1,0.3,0.2V14.2z"/>
</svg>
