<?xml version="1.0" encoding="utf-8"?>
<!-- Generator: Adobe Illustrator 23.0.3, SVG Export Plug-In . SVG Version: 6.00 Build 0)  -->
<svg version="1.1" id="imp" xmlns="http://www.w3.org/2000/svg" xmlns:xlink="http://www.w3.org/1999/xlink" x="0px" y="0px"
	 viewBox="0 0 32 32" style="enable-background:new 0 0 32 32;" xml:space="preserve">
<style type="text/css">
	.circle{fill:none;stroke:#323234;stroke-miterlimit:10;}
	.obj{fill:#323234;}
</style>
<circle class="circle" cx="16" cy="16" r="15"/>
<path class="obj" d="M22.1,11.4c-0.2-0.2-0.4-0.3-0.7-0.3H19l-0.6-1h-0.5c0-0.2-0.1-0.4-0.2-0.5s-0.2-0.2-0.3-0.3
	c-0.2-0.1-0.4-0.2-0.5-0.2s-0.2,0-0.2,0c-0.3,0-0.5,0.1-0.7,0.2c-0.1,0.1-0.2,0.2-0.3,0.3c-0.1,0.2-0.2,0.3-0.2,0.5l0,0H15l-0.6,1
	h-0.8c0.1-0.2,0.2-0.3,0.3-0.4c0.6-0.6,1-1.5,1-2.4l0,0l0,0c0-1.9-1.5-3.4-3.4-3.4c-0.1,0-0.1,0-0.2,0c-0.9,0-1.7,0.4-2.3,1
	S8,7.3,8,8.2l0,0v0.1l0,0l0,0c0,0.9,0.4,1.8,1,2.4c0.4,0.4,0.6,0.9,0.6,1.5l0,0l0,0v1.6H9c-0.1,0-0.1,0-0.2,0.1c0,0-0.1,0.1-0.1,0.2
	v0.2c0,0.1,0,0.1,0.1,0.2c0,0,0.1,0.1,0.2,0.1h0.3v0.1c0,0.3,0.1,0.5,0.3,0.7l0,0c0.2,0.2,0.4,0.3,0.7,0.3l0,0l0,0h0.5v8.4
	c0,0.3,0.1,0.5,0.3,0.7s0.4,0.3,0.7,0.3h9.4c0.3,0,0.5-0.1,0.7-0.3c0.2-0.2,0.3-0.4,0.3-0.7v-12C22.4,11.9,22.3,11.6,22.1,11.4z
	 M14,12.3C14,12.2,14,12.2,14,12.3l0.3-0.5l0.4-0.6l0.4-0.6h0.7v-0.2l0,0c0-0.1,0.1-0.3,0.2-0.5c0.1-0.1,0.1-0.2,0.2-0.2
	c0.1-0.1,0.2-0.1,0.4-0.1l0,0c0,0,0.1,0,0.2,0s0.3,0.1,0.4,0.2c0.1,0.1,0.1,0.1,0.1,0.2c0,0.1,0.1,0.2,0.1,0.3v0.2h0.7l0.4,0.6
	l0.4,0.6l0.3,0.5l0,0c0,0,0,0,0,0.1l0,0h-2.6H14L14,12.3L14,12.3z M9.1,10.3c-0.5-0.5-0.8-1.2-0.8-2V8.2c0-0.8,0.3-1.5,0.8-2
	s1.2-0.9,1.9-0.9c0.1,0,0.1,0,0.2,0c0.8,0,1.5,0.3,2.1,0.9l0,0c0.5,0.5,0.9,1.3,0.9,2.1c0,0.8-0.3,1.5-0.9,2.1
	c-0.5,0.5-0.7,1.1-0.7,1.8v0.4h-1v-2.5h0.1l0,0l0.9-0.9c0,0,0.1-0.1,0.1-0.2c0-0.1,0-0.1-0.1-0.2l-0.2-0.2c0,0-0.1-0.1-0.2-0.1
	c-0.1,0-0.1,0-0.2,0.1l-0.8,0.8l-0.8-0.8c0,0-0.1-0.1-0.2-0.1c-0.1,0-0.1,0-0.2,0.1L9.9,8.8c0,0-0.1,0.1-0.1,0.2
	c0,0.1,0,0.1,0.1,0.2l0.9,0.9l0.1,0.1v2.5H9.8v-0.4C9.8,11.5,9.6,10.8,9.1,10.3z M12.6,13.1v0.7H9.8v-0.5v-0.1L12.6,13.1L12.6,13.1z
	 M12.6,14.6c0,0.1-0.1,0.3-0.2,0.4l0,0l0,0c-0.1,0.1-0.2,0.2-0.4,0.2h-1.7c-0.1,0-0.3-0.1-0.4-0.2l0,0l0,0c-0.1-0.1-0.2-0.2-0.2-0.4
	v-0.1h2.7L12.6,14.6z M20.7,23.2c0,0.1-0.1,0.2-0.2,0.2h-7.6c-0.1,0-0.2-0.1-0.2-0.2v-0.1c0-0.1,0.1-0.2,0.2-0.2h7.6
	c0.1,0,0.2,0.1,0.2,0.2V23.2z M20.7,21.4c0,0.1-0.1,0.2-0.2,0.2h-7.6c-0.1,0-0.2-0.1-0.2-0.2v-0.1c0-0.1,0.1-0.2,0.2-0.2h7.6
	c0.1,0,0.2,0.1,0.2,0.2V21.4z M20.7,19.6c0,0.1-0.2,0.2-0.4,0.2H13c-0.2,0-0.4-0.1-0.4-0.2v-0.1c0-0.1,0.2-0.2,0.4-0.2h7.3
	c0.2,0,0.4,0.1,0.4,0.2C20.7,19.5,20.7,19.6,20.7,19.6z M20.7,17.8c0,0.1-0.2,0.2-0.4,0.2H13c-0.2,0-0.4-0.1-0.4-0.2v-0.1
	c0-0.1,0.2-0.2,0.4-0.2h7.3c0.2,0,0.4,0.1,0.4,0.2C20.7,17.7,20.7,17.8,20.7,17.8z M20.7,16c0,0.1-0.2,0.2-0.3,0.2H14
	c-0.2,0-0.3-0.1-0.3-0.2v-0.1c0-0.1,0.2-0.2,0.3-0.2h6.3c0.2,0,0.3,0.1,0.3,0.2V16H20.7z M20.7,14.2c0,0.1-0.1,0.2-0.3,0.2h-5.2
	c-0.2,0-0.3-0.1-0.3-0.2v-0.1c0-0.1,0.1-0.2,0.3-0.2h5.2c0.2,0,0.3,0.1,0.3,0.2V14.2z"/>
</svg>
