<?xml version="1.0" encoding="utf-8"?>
<!-- Generator: Adobe Illustrator 23.0.3, SVG Export Plug-In . SVG Version: 6.00 Build 0)  -->
<svg version="1.1" id="adv" xmlns="http://www.w3.org/2000/svg" xmlns:xlink="http://www.w3.org/1999/xlink" x="0px" y="0px"
	 viewBox="0 0 66 36" style="enable-background:new 0 0 66 36;" xml:space="preserve">
<style type="text/css">
	.st0{fill:#323234;stroke:#323234;stroke-miterlimit:10;}
	.st1{fill:#FBFBFB;stroke:#323234;stroke-miterlimit:10;}
	.st2{fill:#FBFBFB;}
	.st3{fill:#323234;}
</style>
<path class="st0" d="M48.5,3h-31c-8.3,0-15,6.7-15,15c0,8.3,6.7,15,15,15h31c8.3,0,15-6.7,15-15C63.5,9.7,56.8,3,48.5,3z"/>
<circle class="st1" cx="48.5" cy="18" r="15"/>
<g id="Sol">
	<path class="st2" d="M17.6,13.4c2.5,0,4.4,2,4.4,4.4c0,2.5-2,4.4-4.4,4.4s-4.4-2-4.4-4.4C13.1,15.4,15.1,13.4,17.6,13.4 M17.6,12
		c-3.2,0-5.9,2.6-5.9,5.9c0,3.2,2.6,5.9,5.9,5.9s5.9-2.6,5.9-5.9C23.4,14.6,20.8,12,17.6,12L17.6,12z"/>
	<path class="st2" d="M17.7,10.8c-0.3,0-0.6-0.3-0.6-0.6V6.4c0-0.3,0.3-0.6,0.6-0.6s0.6,0.3,0.6,0.6v3.9
		C18.2,10.6,18,10.8,17.7,10.8z"/>
	<path class="st2" d="M17.7,30.2c-0.3,0-0.6-0.3-0.6-0.6v-3.9c0-0.3,0.3-0.6,0.6-0.6s0.6,0.3,0.6,0.6v3.9
		C18.2,29.9,18,30.2,17.7,30.2z"/>
	<path class="st2" d="M9.7,18.6H5.9c-0.3,0-0.6-0.3-0.6-0.6s0.3-0.6,0.6-0.6h3.9c0.3,0,0.6,0.3,0.6,0.6S10.1,18.6,9.7,18.6z"/>
	<path class="st2" d="M29.1,18.6h-3.9c-0.3,0-0.6-0.3-0.6-0.6s0.3-0.6,0.6-0.6h3.9c0.3,0,0.6,0.3,0.6,0.6S29.4,18.6,29.1,18.6z"/>
	<path class="st2" d="M12,13.1c-0.2,0-0.3-0.1-0.4-0.2l-2.7-2.7c-0.2-0.2-0.2-0.6,0-0.8c0.2-0.2,0.6-0.2,0.8,0l2.7,2.7
		c0.2,0.2,0.2,0.6,0,0.8C12.3,13.1,12.2,13.1,12,13.1z"/>
	<path class="st2" d="M25.7,26.8c-0.2,0-0.3-0.1-0.4-0.2l-2.7-2.7c-0.2-0.2-0.2-0.6,0-0.8c0.2-0.2,0.6-0.2,0.8,0l2.7,2.7
		c0.2,0.2,0.2,0.6,0,0.8C26,26.7,25.9,26.8,25.7,26.8z"/>
	<path class="st2" d="M23,13.1c-0.2,0-0.3-0.1-0.4-0.2c-0.2-0.2-0.2-0.6,0-0.8l2.7-2.7c0.2-0.2,0.6-0.2,0.8,0c0.2,0.2,0.2,0.6,0,0.8
		l-2.7,2.7C23.3,13.1,23.1,13.1,23,13.1z"/>
	<path class="st2" d="M9.3,26.8c-0.2,0-0.3-0.1-0.4-0.2c-0.2-0.2-0.2-0.6,0-0.8l2.7-2.7c0.2-0.2,0.6-0.2,0.8,0
		c0.2,0.2,0.2,0.6,0,0.8l-2.7,2.7C9.6,26.7,9.4,26.8,9.3,26.8z"/>
</g>
<g id="Klart_natt">
	<path class="st3" d="M50.6,9.4c0.1,0,0.2,0,0.3,0c-2.5,2.1-4,5.2-4,8.6c0,3.4,1.5,6.5,4,8.6c-0.1,0-0.2,0-0.3,0
		c-2.4,0-4.6-1-6.3-2.7c-1.6-1.8-2.5-4.1-2.3-6.5c0.3-4.3,3.7-7.7,8-8C50.2,9.4,50.4,9.4,50.6,9.4 M50.6,8.1c-0.2,0-0.5,0-0.7,0
		c-4.9,0.3-8.9,4.3-9.2,9.2c-0.4,5.8,4.2,10.6,9.9,10.6c0.7,0,1.4-0.1,2.1-0.2c0.6-0.1,0.8-0.9,0.2-1.3c-2.8-1.8-4.7-4.9-4.7-8.4
		c0-3.5,1.9-6.7,4.7-8.4c0.5-0.3,0.4-1.1-0.2-1.3C52,8.1,51.3,8.1,50.6,8.1L50.6,8.1z"/>
</g>
</svg>
