<?xml version="1.0" encoding="utf-8"?>
<!-- Generator: Adobe Illustrator 23.0.3, SVG Export Plug-In . SVG Version: 6.00 Build 0)  -->
<svg version="1.1" id="Layer_1" xmlns="http://www.w3.org/2000/svg" xmlns:xlink="http://www.w3.org/1999/xlink" x="0px" y="0px"
	 viewBox="0 0 180 134.7" style="enable-background:new 0 0 180 134.7;" xml:space="preserve">
<style type="text/css">
	.st0{fill:#ECE9E2;}
	.st1{fill:url(#SVGID_1_);}
	.st2{fill:url(#SVGID_2_);}
	.st3{fill:url(#SVGID_3_);}
	.st4{fill:url(#SVGID_4_);}
	.st5{fill:url(#SVGID_5_);}
	.st6{fill:url(#SVGID_6_);}
	.st7{fill:url(#SVGID_7_);}
	.st8{fill:url(#SVGID_8_);}
	.st9{fill:url(#SVGID_9_);}
	.st10{fill:url(#SVGID_10_);}
	.st11{fill:url(#SVGID_11_);}
	.st12{fill:url(#SVGID_12_);}
	.st13{fill:url(#SVGID_13_);}
	.st14{fill:#73000A;}
	.st15{font-family:'LibreBaskerville-Bold';}
	.st16{font-size:10.3242px;}
</style>
<g>
	<path class="st0" d="M155.8,133.5H24.2c-3.1,0-6.1-0.6-9-1.8c-2.8-1.2-5.2-2.8-7.3-5c-2.1-2.1-3.8-4.6-5-7.3
		c-1.2-2.8-1.8-5.9-1.8-9V24.2V1.1h23.1h131.5h23.1v104.8v4.5c0,3.1-0.6,6.1-1.8,9c-1.2,2.8-2.8,5.2-5,7.3c-2.1,2.1-4.6,3.8-7.3,5
		C161.9,132.9,158.9,133.5,155.8,133.5z"/>
	
		<linearGradient id="SVGID_1_" gradientUnits="userSpaceOnUse" x1="-137.1" y1="554.45" x2="-136.1" y2="554.45" gradientTransform="matrix(8.230768e-15 -134.4186 -134.4186 -8.230768e-15 74618.4141 -18294.2559)">
		<stop  offset="0" style="stop-color:#E5CE5C"/>
		<stop  offset="0.477" style="stop-color:#D4C595"/>
		<stop  offset="1" style="stop-color:#E1E5CF"/>
	</linearGradient>
	<path class="st1" d="M155.8,133.5v-1H24.2c-3,0-5.9-0.6-8.6-1.7c-2.6-1.1-5-2.7-7-4.7c-2-2-3.6-4.4-4.7-7c-1.2-2.7-1.7-5.6-1.7-8.6
		V24.2V2.1l22.1,0h131.5h22.1l0,103.8v4.5c0,3-0.6,5.9-1.7,8.6c-1.1,2.6-2.7,5-4.7,7c-2,2-4.4,3.6-7,4.7c-2.7,1.2-5.6,1.7-8.6,1.7
		V133.5v1c3.3,0,6.4-0.6,9.4-1.9c2.9-1.2,5.5-3,7.7-5.2c2.2-2.2,4-4.8,5.2-7.7c1.3-3,1.9-6.1,1.9-9.4v-4.5V0.1h-24.1H24.2H0.1v24.1
		v86.2c0,3.3,0.6,6.4,1.9,9.4c1.2,2.9,3,5.5,5.2,7.7c2.2,2.2,4.8,4,7.7,5.2c3,1.3,6.1,1.9,9.4,1.9h131.5V133.5z"/>
	
		<linearGradient id="SVGID_2_" gradientUnits="userSpaceOnUse" x1="-137.1" y1="554.45" x2="-136.1" y2="554.45" gradientTransform="matrix(5.355114e-15 34.3319 -87.4557 2.102224e-15 48580.0117 4784.23)">
		<stop  offset="0" style="stop-color:#511818"/>
		<stop  offset="0.503" style="stop-color:#73000A"/>
		<stop  offset="1" style="stop-color:#CC5252"/>
	</linearGradient>
	<path class="st2" d="M63.7,77.3h53.1c9.5,0,17.2,7.7,17.2,17.2s-7.7,17.2-17.2,17.2H63.7c-9.5,0-17.2-7.7-17.2-17.2
		S54.2,77.3,63.7,77.3z"/>
	
		<linearGradient id="SVGID_3_" gradientUnits="userSpaceOnUse" x1="-137.1" y1="554.45" x2="-136.1" y2="554.45" gradientTransform="matrix(2.677557e-15 34.3319 -43.7278 2.102224e-15 24313.2539 4784.23)">
		<stop  offset="0" style="stop-color:#E5CE5C"/>
		<stop  offset="0.477" style="stop-color:#D4C595"/>
		<stop  offset="1" style="stop-color:#E1E5CF"/>
	</linearGradient>
	<path class="st3" d="M63.7,77.3h9.4c9.5,0,17.2,7.7,17.2,17.2s-7.7,17.2-17.2,17.2h-9.4c-9.5,0-17.2-7.7-17.2-17.2
		S54.2,77.3,63.7,77.3z"/>
	
		<linearGradient id="SVGID_4_" gradientUnits="userSpaceOnUse" x1="-137.1" y1="554.45" x2="-136.1" y2="554.45" gradientTransform="matrix(7.624559e-16 12.4519 -12.4518 7.624562e-16 6973.0938 1794.7471)">
		<stop  offset="0" style="stop-color:#511818"/>
		<stop  offset="0.503" style="stop-color:#73000A"/>
		<stop  offset="1" style="stop-color:#CC5252"/>
	</linearGradient>
	<path class="st4" d="M69.2,89.1c2.6,0,4.7,2.1,4.7,4.7c0,2.6-2.1,4.7-4.7,4.7c-2.6,0-4.7-2.1-4.7-4.7
		C64.4,91.2,66.6,89.1,69.2,89.1 M69.2,87.6c-3.4,0-6.2,2.8-6.2,6.2c0,3.4,2.8,6.2,6.2,6.2c3.4,0,6.2-2.8,6.2-6.2v0
		C75.4,90.4,72.6,87.6,69.2,87.6L69.2,87.6z"/>
	
		<linearGradient id="SVGID_5_" gradientUnits="userSpaceOnUse" x1="-137.1" y1="554.4501" x2="-136.1" y2="554.4501" gradientTransform="matrix(7.663111e-17 5.3475 -1.2515 3.274386e-16 763.1331 814.1315)">
		<stop  offset="0" style="stop-color:#511818"/>
		<stop  offset="0.503" style="stop-color:#73000A"/>
		<stop  offset="1" style="stop-color:#CC5252"/>
	</linearGradient>
	<path class="st5" d="M69.2,86.3c-0.3,0-0.6-0.3-0.6-0.6v-4.1c0-0.3,0.3-0.6,0.6-0.6c0.3,0,0.6,0.3,0.6,0.6v4.1
		C69.9,86.1,69.6,86.3,69.2,86.3z"/>
	
		<linearGradient id="SVGID_6_" gradientUnits="userSpaceOnUse" x1="-137.1" y1="554.4501" x2="-136.1" y2="554.4501" gradientTransform="matrix(7.663111e-17 5.3475 -1.2515 3.274386e-16 763.1331 834.6928)">
		<stop  offset="0" style="stop-color:#511818"/>
		<stop  offset="0.503" style="stop-color:#73000A"/>
		<stop  offset="1" style="stop-color:#CC5252"/>
	</linearGradient>
	<path class="st6" d="M69.2,106.9c-0.3,0-0.6-0.3-0.6-0.6v-4.1c0-0.3,0.3-0.6,0.6-0.6c0.3,0,0.6,0.3,0.6,0.6v4.1
		C69.9,106.6,69.6,106.9,69.2,106.9z"/>
	
		<linearGradient id="SVGID_7_" gradientUnits="userSpaceOnUse" x1="-137.1" y1="554.45" x2="-136.1" y2="554.45" gradientTransform="matrix(3.275923e-16 1.2515 -5.35 7.663043e-17 3025.1062 264.8976)">
		<stop  offset="0" style="stop-color:#511818"/>
		<stop  offset="0.503" style="stop-color:#73000A"/>
		<stop  offset="1" style="stop-color:#CC5252"/>
	</linearGradient>
	<path class="st7" d="M60.9,94.6h-4.1c-0.3,0-0.6-0.3-0.6-0.6c0-0.3,0.3-0.6,0.6-0.6h0h4.1c0.3,0,0.6,0.3,0.6,0.6
		C61.5,94.3,61.2,94.6,60.9,94.6L60.9,94.6z"/>
	
		<linearGradient id="SVGID_8_" gradientUnits="userSpaceOnUse" x1="-137.1" y1="554.45" x2="-136.1" y2="554.45" gradientTransform="matrix(3.275923e-16 1.2515 -5.35 7.663043e-17 3045.6667 264.8976)">
		<stop  offset="0" style="stop-color:#511818"/>
		<stop  offset="0.503" style="stop-color:#73000A"/>
		<stop  offset="1" style="stop-color:#CC5252"/>
	</linearGradient>
	<path class="st8" d="M81.4,94.6h-4.1c-0.3,0-0.6-0.3-0.6-0.6s0.3-0.6,0.6-0.6h0h4.1c0.3,0,0.6,0.3,0.6,0.6
		C82,94.3,81.8,94.6,81.4,94.6L81.4,94.6L81.4,94.6z"/>
	
		<linearGradient id="SVGID_9_" gradientUnits="userSpaceOnUse" x1="-137.1" y1="554.45" x2="-136.1" y2="554.45" gradientTransform="matrix(2.539869e-16 4.1479 -4.1479 2.539842e-16 2361.6306 653.277)">
		<stop  offset="0" style="stop-color:#511818"/>
		<stop  offset="0.503" style="stop-color:#73000A"/>
		<stop  offset="1" style="stop-color:#CC5252"/>
	</linearGradient>
	<path class="st9" d="M63.3,88.8c-0.2,0-0.3-0.1-0.4-0.2l-2.9-2.9c-0.2-0.2-0.2-0.6,0-0.9c0.2-0.2,0.6-0.2,0.9,0l2.9,2.9
		c0.2,0.2,0.2,0.6,0,0.9C63.6,88.7,63.4,88.8,63.3,88.8z"/>
	
		<linearGradient id="SVGID_10_" gradientUnits="userSpaceOnUse" x1="-137.1" y1="554.45" x2="-136.1" y2="554.45" gradientTransform="matrix(2.539867e-16 4.1479 -4.1479 2.539842e-16 2376.1682 667.8162)">
		<stop  offset="0" style="stop-color:#511818"/>
		<stop  offset="0.503" style="stop-color:#73000A"/>
		<stop  offset="1" style="stop-color:#CC5252"/>
	</linearGradient>
	<path class="st10" d="M77.8,103.3c-0.2,0-0.3-0.1-0.4-0.2l-2.9-2.9c-0.2-0.2-0.2-0.6,0-0.9c0.2-0.2,0.6-0.2,0.9,0l2.9,2.9
		c0.2,0.2,0.2,0.6,0,0.9C78.1,103.2,78,103.3,77.8,103.3z"/>
	
		<linearGradient id="SVGID_11_" gradientUnits="userSpaceOnUse" x1="-137.1" y1="554.45" x2="-136.1" y2="554.45" gradientTransform="matrix(2.539869e-16 4.1479 -4.1479 2.539842e-16 2376.1697 653.277)">
		<stop  offset="0" style="stop-color:#511818"/>
		<stop  offset="0.503" style="stop-color:#73000A"/>
		<stop  offset="1" style="stop-color:#CC5252"/>
	</linearGradient>
	<path class="st11" d="M74.9,88.8c-0.3,0-0.6-0.3-0.6-0.6c0-0.2,0.1-0.3,0.2-0.4l2.9-2.9c0.2-0.2,0.6-0.2,0.9,0
		c0.2,0.2,0.2,0.6,0,0.9l-2.9,2.9C75.2,88.7,75.1,88.8,74.9,88.8z"/>
	
		<linearGradient id="SVGID_12_" gradientUnits="userSpaceOnUse" x1="-137.1" y1="554.45" x2="-136.1" y2="554.45" gradientTransform="matrix(2.539867e-16 4.1479 -4.1479 2.539842e-16 2361.6292 667.8162)">
		<stop  offset="0" style="stop-color:#511818"/>
		<stop  offset="0.503" style="stop-color:#73000A"/>
		<stop  offset="1" style="stop-color:#CC5252"/>
	</linearGradient>
	<path class="st12" d="M60.4,103.3c-0.3,0-0.6-0.3-0.6-0.6c0-0.2,0.1-0.3,0.2-0.4l2.9-2.9c0.2-0.2,0.6-0.2,0.9,0
		c0.2,0.2,0.2,0.6,0,0.9l-2.9,2.9C60.7,103.2,60.5,103.3,60.4,103.3z"/>
	
		<linearGradient id="SVGID_13_" gradientUnits="userSpaceOnUse" x1="-137.1" y1="554.45" x2="-136.1" y2="554.45" gradientTransform="matrix(7.549824e-16 19.4322 -12.3298 1.189882e-15 6948.6665 2748.4255)">
		<stop  offset="0" style="stop-color:#E5CE5C"/>
		<stop  offset="0.477" style="stop-color:#D4C595"/>
		<stop  offset="1" style="stop-color:#E1E5CF"/>
	</linearGradient>
	<path class="st13" d="M116,85.6c0.1,0,0.2,0,0.3,0c-4.6,3.9-5.2,10.9-1.3,15.5c0.4,0.5,0.8,0.9,1.3,1.3c-0.1,0-0.2,0-0.3,0
		c-4.7,0-8.4-3.8-8.4-8.4c0-0.2,0-0.4,0-0.6c0.3-4.2,3.6-7.5,7.8-7.8C115.6,85.6,115.8,85.6,116,85.6 M116,84.3c-0.2,0-0.4,0-0.7,0
		c-5.4,0.4-9.4,5-9,10.4s5,9.4,10.4,9c0.5,0,0.9-0.1,1.4-0.2c0.4-0.1,0.6-0.4,0.5-0.8c0-0.2-0.2-0.3-0.3-0.4
		c-4.5-2.8-5.9-8.8-3.1-13.4c0.8-1.2,1.8-2.3,3.1-3.1c0.3-0.2,0.4-0.6,0.2-0.9c-0.1-0.2-0.2-0.3-0.4-0.3
		C117.4,84.3,116.7,84.3,116,84.3L116,84.3z"/>
	<text transform="matrix(1 0 0 1 30.4093 30.074)"><tspan x="0" y="0" class="st14 st15 st16">Looks li</tspan><tspan x="43.2" y="0" class="st14 st15 st16">k</tspan><tspan x="49.8" y="0" class="st14 st15 st16">e the sun has</tspan></text>
	<text transform="matrix(1 0 0 1 16.2804 44.4461)"><tspan x="0" y="0" class="st14 st15 st16">g</tspan><tspan x="6.2" y="0" class="st14 st15 st16">one d</tspan><tspan x="36.5" y="0" class="st14 st15 st16">o</tspan><tspan x="43.1" y="0" class="st14 st15 st16">wn.</tspan><tspan x="62.5" y="0" class="st14 st15 st16"> </tspan><tspan x="64.8" y="0" class="st14 st15 st16">W</tspan><tspan x="76.7" y="0" class="st14 st15 st16">ould</tspan><tspan x="101.7" y="0" class="st14 st15 st16"> </tspan><tspan x="104.1" y="0" class="st14 st15 st16">y</tspan><tspan x="110.6" y="0" class="st14 st15 st16">ou li</tspan><tspan x="134.9" y="0" class="st14 st15 st16">k</tspan><tspan x="141.5" y="0" class="st14 st15 st16">e</tspan></text>
	<text transform="matrix(1 0 0 1 31.1417 58.8162)"><tspan x="0" y="0" class="st14 st15 st16">to </tspan><tspan x="13.5" y="0" class="st14 st15 st16">r</tspan><tspan x="18.6" y="0" class="st14 st15 st16">ead in dar</tspan><tspan x="72.7" y="0" class="st14 st15 st16">k</tspan><tspan x="79.4" y="0" class="st14 st15 st16"> mode?</tspan></text>
</g>
</svg>
