<?xml version="1.0" encoding="utf-8"?>
<!-- Generator: Adobe Illustrator 23.0.3, SVG Export Plug-In . SVG Version: 6.00 Build 0)  -->
<svg version="1.1" id="stud" xmlns="http://www.w3.org/2000/svg" xmlns:xlink="http://www.w3.org/1999/xlink" x="0px" y="0px"
	 viewBox="0 0 32 32" style="enable-background:new 0 0 32 32;" xml:space="preserve">
<style type="text/css">
	.obj{fill:#323234;}
	.circle{fill:none;stroke:#323234;stroke-miterlimit:10;}
</style>
<g>
	<path class="obj" d="M15.6,21.3l-6.1-2.6v2.2c0,0.5,0.1,1.1,0.4,1.5c0.7,1,2.3,2.6,5.7,2.6s5-1.5,5.7-2.6c0.3-0.4,0.4-1,0.4-1.5
		v-2.2L15.6,21.3z"/>
	<path class="obj" d="M28.2,21.7l-0.6-2.9c0.3-0.2,0.4-0.5,0.4-0.8c0-0.6-0.4-1-1-1v-2.3l0.4-0.2L15.6,9L3.7,14.4l11.9,5.4l11.2-5.1
		v2.2c-0.5,0.1-0.9,0.5-0.9,1c0,0.4,0.2,0.7,0.5,0.9l-0.6,2.9c-0.2,0.7,0.4,1.4,1.2,1.4h0C27.7,23.1,28.3,22.5,28.2,21.7z"/>
	<circle class="circle" cx="15.9" cy="16.2" r="15"/>
</g>
</svg>
