<?xml version="1.0" encoding="utf-8"?>
<!-- Generator: Adobe Illustrator 23.0.3, SVG Export Plug-In . SVG Version: 6.00 Build 0)  -->
<svg version="1.1" id="graph2" xmlns="http://www.w3.org/2000/svg" xmlns:xlink="http://www.w3.org/1999/xlink" x="0px" y="0px"
	 viewBox="0 0 590 477.7" style="enable-background:new 0 0 590 477.7;" xml:space="preserve">
<style type="text/css">
	.st0{opacity:0.75;}
	.st1{opacity:0.4;fill:#FBFBFB;enable-background:new    ;}
	.st2{fill:#210A0A;stroke:#FBFBFB;stroke-miterlimit:10;}
	.st3{fill:none;stroke:#FBFBFB;stroke-miterlimit:10;}
	.st4{fill:#FBFBFB;}
	.st5{font-family:'OpenSans';}
	.st6{font-size:10.8544px;}
	.st7{font-size:11.6212px;}
	.st8{fill:#EBCC91;}
	.st9{fill:#E5BF75;}
	.st10{fill:#E4B663;}
	.st11{fill:none;stroke:#E4B663;stroke-width:8.4;stroke-miterlimit:10;}
	.st12{fill:none;stroke:#E5BF75;stroke-width:8.4;stroke-miterlimit:10;}
	.st13{fill:none;stroke:#EBCC91;stroke-width:8.4;stroke-miterlimit:10;}
</style>
<g id="Squares" class="st0">
	<path id="sq5" class="st1" d="M108.6,106.1h408v30.4h-408L108.6,106.1L108.6,106.1z"/>
	<path id="sq4" class="st1" d="M109.2,167.1h408v30.4h-408L109.2,167.1L109.2,167.1z"/>
	<path id="sq3" class="st1" d="M108.6,228.2h408v30.4h-408L108.6,228.2L108.6,228.2z"/>
	<path id="sq2" class="st1" d="M108.6,289.5h408V320h-408L108.6,289.5L108.6,289.5z"/>
	<path id="sq1" class="st1" d="M108.6,350.5h408v30.4h-408L108.6,350.5L108.6,350.5z"/>
</g>
<g id="Lines">
	<path id="Main_line" class="st2" d="M108.6,432.5V85.3"/>
	<path id="Main_Line2" class="st2" d="M516.6,411.8H87.9"/>
	<path id="_x31_" class="st2" d="M145.4,411.8v9.8"/>
	<path id="_x32_" class="st2" d="M202.1,411.8v9.8"/>
	<path id="_x33_" class="st2" d="M258.9,411.8v9.8"/>
	<path id="_x34_" class="st2" d="M315.8,411.8v9.8"/>
	<path id="_x35_" class="st2" d="M372.8,411.8v9.8"/>
	<path id="_x36_" class="st2" d="M429.7,411.8v9.8"/>
	<path id="_x37_" class="st2" d="M486.6,411.8v9.8"/>
	<path id="v1" class="st2" d="M98,380.9h10.6"/>
	<path id="v2" class="st2" d="M98,350.5h10.6"/>
	<path id="v3" class="st2" d="M98,319.6h10.6"/>
	<path id="v4" class="st2" d="M98,289.5h10.6"/>
	<path id="v5_1_" class="st2" d="M98,258.6h10.6"/>
	<path id="v6_1_" class="st3" d="M98,228.2h10.6"/>
	<path id="v7_1_" class="st2" d="M98,197.6h10.6"/>
	<path id="v8" class="st2" d="M98,167.1h10.6"/>
	<path id="v9" class="st2" d="M98,134.8h10.6"/>
	<path id="v10" class="st2" d="M98,106.1h10.6"/>
</g>
<g id="Names">
	<text transform="matrix(1 0 0 1 240.0225 433.8675)" class="st4 st5 st6">Gender</text>
	<text transform="matrix(1 0 0 1 292.7861 433.8675)" class="st4 st5 st6">Disability</text>
	<text transform="matrix(1 0 0 1 356.2031 433.8675)" class="st4 st5 st6">Sexual</text>
	<text transform="matrix(1 0 0 1 343.8031 446.8675)" class="st4 st5 st6">Orientation</text>
	<text transform="matrix(1 0 0 1 409.5732 433.8675)" class="st4 st5 st6">Religion</text>
	<text transform="matrix(1 0 0 1 472.5615 433.8675)" class="st4 st5 st6">Race/</text>
	<text transform="matrix(1 0 0 1 462.9614 446.8675)" class="st4 st5 st6">Ethnicity/</text>
	<text transform="matrix(1 0 0 1 464.6615 459.9675)" class="st4 st5 st6">Ancestry</text>
	<text transform="matrix(1 0 0 1 183.061 433.8675)" class="st4 st5 st6">Gender</text>
	<text transform="matrix(1 0 0 1 183.061 446.8675)" class="st4 st5 st6">Identity</text>
	<text transform="matrix(1 0 0 1 126.2728 433.8675)" class="st4 st5 st6">Multiple-</text>
	<text transform="matrix(1 0 0 1 126.2728 446.8675)" class="st4 st5 st6">Bias </text>
	<text transform="matrix(1 0 0 1 126.2728 459.9675)" class="st4 st5 st6">Incidents</text>
	<text transform="matrix(1 0 0 1 73.5707 384.8948)" class="st4 st5 st7">500</text>
	<text transform="matrix(1 0 0 1 66.9257 324.0776)" class="st4 st5 st7">1500</text>
	<text transform="matrix(1 0 0 1 66.9257 263.1148)" class="st4 st5 st7">2500</text>
	<text transform="matrix(1 0 0 1 66.9257 202.2482)" class="st4 st5 st7">3500</text>
	<text transform="matrix(1 0 0 1 66.9257 231.5998)" class="st4 st5 st7">3000</text>
	<text transform="matrix(1 0 0 1 66.9257 292.6568)" class="st4 st5 st7">2000</text>
	<text transform="matrix(1 0 0 1 66.9257 354.01)" class="st4 st5 st7">1000</text>
	<text transform="matrix(1 0 0 1 66.9257 170.6019)" class="st4 st5 st7">4000</text>
	<text transform="matrix(1 0 0 1 66.9257 138.3169)" class="st4 st5 st7">4500</text>
	<text transform="matrix(1 0 0 1 66.9257 109.6037)" class="st4 st5 st7">5000</text>
</g>
<g id="expl">
	<rect x="258.9" y="60.4" class="st1" width="257.7" height="24.9"/>
	<rect x="326.1" y="66.3" class="st8" width="12.9" height="12.9"/>
	<rect x="406.1" y="66.3" class="st9" width="12.9" height="12.9"/>
	<rect x="486.1" y="65.9" class="st10" width="12.9" height="12.9"/>
	<text transform="matrix(1 0 0 1 273.808 76.128)" class="st5 st6">Incidents</text>
	<text transform="matrix(1 0 0 1 353.808 76.128)" class="st5 st6">Offenses</text>
	<text transform="matrix(1 0 0 1 433.808 75.7477)" class="st5 st6">Victims</text>
</g>
<g id="AnimeBars">
	<line class="st11" x1="494.8" y1="411.3" x2="494.8" y2="102.9"/>
	<line class="st11" x1="437.6" y1="411.3" x2="437.6" y2="304.8"/>
	<line class="st11" x1="380.7" y1="411.3" x2="380.7" y2="334"/>
	<line class="st11" x1="324.2" y1="411.3" x2="324.2" y2="402.1"/>
	<line class="st11" x1="267.7" y1="411.3" x2="267.7" y2="408"/>
	<line class="st11" x1="210" y1="411.3" x2="210" y2="404.3"/>
	<line class="st11" x1="153.8" y1="411.3" x2="153.8" y2="398.8"/>
	<line class="st12" x1="145.4" y1="411.3" x2="145.4" y2="399.7"/>
	<line class="st12" x1="201.7" y1="411.3" x2="201.7" y2="404.3"/>
	<line class="st12" x1="259.2" y1="411.3" x2="259.2" y2="409"/>
	<line class="st12" x1="315.8" y1="411.3" x2="315.8" y2="404.1"/>
	<line class="st12" x1="372.8" y1="411.3" x2="372.8" y2="335"/>
	<line class="st12" x1="429.7" y1="411.3" x2="429.7" y2="309.5"/>
	<line class="st12" x1="486.5" y1="411.3" x2="486.5" y2="118.9"/>
	<line class="st13" x1="478.1" y1="411.3" x2="478.1" y2="160.9"/>
	<line class="st13" x1="421.3" y1="411.3" x2="421.3" y2="315.9"/>
	<line class="st13" x1="364.4" y1="411.3" x2="364.4" y2="338.4"/>
	<line class="st13" x1="307.5" y1="411.3" x2="307.5" y2="404.1"/>
	<line class="st13" x1="250.8" y1="411.3" x2="250.8" y2="410.2"/>
	<line class="st13" x1="193.3" y1="411.3" x2="193.3" y2="406.2"/>
	<line class="st13" x1="137" y1="411.3" x2="137" y2="408.4"/>
</g>
</svg>
