<?xml version="1.0" encoding="utf-8"?>
<!-- Generator: Adobe Illustrator 23.0.3, SVG Export Plug-In . SVG Version: 6.00 Build 0)  -->
<svg version="1.1" id="graph1" xmlns="http://www.w3.org/2000/svg" xmlns:xlink="http://www.w3.org/1999/xlink" x="0px" y="0px"
	 viewBox="0 0 590 418" style="enable-background:new 0 0 590 418;" xml:space="preserve">
<style type="text/css">
	.st0{opacity:0.4;}
	.st1{opacity:0.4;fill:#FBFBFB;enable-background:new    ;}
	.st2{fill:none;stroke:#FBFBFB;stroke-miterlimit:10;}
	.st3{fill:#FBFBFB;}
	.st4{font-family:'OpenSans';}
	.st5{font-size:11.6212px;}
	.st6{fill:none;stroke:url(#animeLine_1_);stroke-width:3;stroke-miterlimit:10;}
</style>
<g id="Background" transform="translate(-70.9 -89.2)">
	<g id="Group_5" class="st0">
		<path id="Path_4" class="st1" d="M171.1,380.4h408v60.9h-408L171.1,380.4L171.1,380.4z"/>
		<path id="Path_5" class="st1" d="M171.1,258.6h408v60.9h-408L171.1,258.6L171.1,258.6z"/>
		<path id="Path_6" class="st1" d="M171.1,136.8h408v60.9h-408L171.1,136.8L171.1,136.8z"/>
	</g>
	<g id="Group_6">
		<path id="Path_7" class="st2" d="M171.1,462V136.8"/>
		<path id="Path_8" class="st2" d="M579.1,441.3H150.4"/>
		<path id="Path_9" class="st2" d="M232,441.3v10.5"/>
		<path id="Path_10" class="st2" d="M292.8,441.3v10.5"/>
		<path id="Path_11" class="st2" d="M353.7,441.3v10.5"/>
		<path id="Path_12" class="st2" d="M414.7,441.3v10.5"/>
		<path id="Path_13" class="st2" d="M475.6,441.3v10.5"/>
		<path id="Path_14" class="st2" d="M536.5,441.3v10.5"/>
		<path id="Path_15" class="st2" d="M160.5,380.4h10.6"/>
		<path id="Path_16" class="st2" d="M160.5,319.4h10.6"/>
		<path id="Path_17" class="st2" d="M160.5,258.6h10.6"/>
		<path id="Path_18" class="st2" d="M160.5,197.7h10.6"/>
		<text transform="matrix(1 0 0 1 211.565 464.9061)" class="st3 st4 st5">January</text>
		<text transform="matrix(1 0 0 1 143.0089 380.3611)" class="st3 st4 st5">10</text>
		<text transform="matrix(1 0 0 1 143.0089 319.5438)" class="st3 st4 st5">20</text>
		<text transform="matrix(1 0 0 1 143.0089 258.5809)" class="st3 st4 st5">30</text>
		<text transform="matrix(1 0 0 1 143.0089 197.7142)" class="st3 st4 st5">40</text>
		<text transform="matrix(1 0 0 1 268.5411 464.9061)" class="st3 st4 st5">February</text>
		<text transform="matrix(1 0 0 1 336.5631 464.9061)" class="st3 st4 st5">March</text>
		<text transform="matrix(1 0 0 1 402.1109 464.9061)" class="st3 st4 st5">April</text>
		<text transform="matrix(1 0 0 1 464.1685 464.9061)" class="st3 st4 st5">May</text>
		<text transform="matrix(1 0 0 1 524.5447 464.9061)" class="st3 st4 st5">June</text>
	</g>
</g>
<linearGradient id="animeLine_1_" gradientUnits="userSpaceOnUse" x1="467.3543" y1="-351.4083" x2="159.3449" y2="-353.1909" gradientTransform="matrix(1 0 0 -1 0 -122)">
	<stop  offset="0" style="stop-color:#E4B663"/>
	<stop  offset="0.503" style="stop-color:#E5BF75"/>
	<stop  offset="1" style="stop-color:#EBCC91"/>
</linearGradient>
<polyline id="animeLine" class="st6" points="161.1,352.1 221.9,291.2 282.8,259.6 343.8,230.2 404.7,169.4 465.6,108.5 "/>
</svg>
