<?xml version="1.0" encoding="utf-8"?>
<!-- Generator: Adobe Illustrator 23.0.3, SVG Export Plug-In . SVG Version: 6.00 Build 0)  -->
<svg version="1.1" id="illustration2" xmlns="http://www.w3.org/2000/svg" xmlns:xlink="http://www.w3.org/1999/xlink" x="0px"
	 y="0px" viewBox="0 0 590 550" style="enable-background:new 0 0 590 550;" xml:space="preserve">
<style type="text/css">
	.st0{fill:none;stroke:#FBFBFB;stroke-linecap:round;stroke-linejoin:round;stroke-miterlimit:10;}
	.st1{opacity:0;}
	.st2{fill:#00FBFB;}
</style>
<g id="Line">
	<path class="st0" d="M191,482.5c0.4-3.2-1-6.1-1.6-9.2c-0.9-5.5-2-11-3.2-16.4c-1.1-5.3-2.4-10.5-3.4-15.7
		c-1.2-6.4-2.9-12.6-4.4-18.9c-1.2-5.1-2.6-10.1-3.7-15.2c-0.5-2.3-1-4.5-1.4-6.8c-0.2-1.2-0.7-2.3-1.2-3.3c-0.5-1.2-1.6-1.9-3-1.8
		c-5.5,0.1-10.9-0.1-16.4,0.2c-3.8,0.2-7.5,0.3-11.3,0.4c-2.2,0.1-4.6-0.1-6.8-0.4c-1.4-0.2-2.9-0.1-4.3-0.1c-2.2,0-4.4-0.2-6.5-0.4
		c-3.3-0.2-6.6-0.5-9.9-0.8c-2.7-0.2-5.4-0.3-8.1-0.5c-3.1-0.1-6.2-0.2-9.3-0.3c-9.2-0.2-18.4-0.4-27.5-1.6
		c-4.8-0.6-9.6-1.1-14.5-1.8c-4.9-0.7-9.9-1.3-14.8-2.4c-1.5-0.3-3.2-0.7-4.9-0.4c-1,0.2-1.8,0.6-2.3,1.3c-1.6,2-2.2,4.4-1.7,6.9
		c0.1,0.5,0.3,0.9,0.9,1.2c1.6,0.7,2.4,2.1,2.8,3.7c1.8,8.8,4.2,17.4,6.5,26.1c1.8,6.9,4,13.6,5.4,20.6c1.7,8.5,3.7,16.9,5.9,25.3
		c1.2,4.5,2.3,9,4.1,13.4c1.3,3,3.4,4.5,6.6,5c4.5,0.8,9,1.9,13.5,2.9c4.8,1,9.6,1.9,14.5,2.9c4.5,0.9,9,2,13.5,2.7
		c6.1,1,12.3,2.1,18.3,3.4c4,0.9,8,1.9,12,2.8c2.8,0.6,5.6,0.9,8.5,1.3c3.8,0.5,7.5,1.1,11.3,1.6c4.8,0.7,9.6,1.4,14.5,2.1
		s9.7,1.6,14.5,2.7c2.8,0.6,5.6,0.9,8.4,1.6c1.4,0.4,3,0.3,4.4-0.1c1.3-0.3,2.6-0.4,3.7,0.2c1.3,0.7,2.5,0.6,3.8,0.3
		c6.4-1.5,12.8-3,19-5.3c5.3-2,10.7-3.8,16-6c5.9-2.4,12-4.5,18.1-6.5c1.9-0.6,3.9-1,5.8-1.5"/>
	<path class="st0" d="M434.3,299.8c2.7,3.1,5.7,5.9,8.5,8.9c1.8,2.1,3.7,4.2,6.2,5.5c3.5,1.8,6.6,4,9.8,6.1c2.6,1.7,5,3.9,7.4,5.9
		c3.8,3.1,8.2,5.6,12.1,8.6c3.4,2.7,6.4,5.8,9.4,9c2.1,2.4,4.3,4.7,6.4,7.1c3.9,4.6,7.4,9.5,11,14.3c2.7,3.6,5.7,6.9,8.7,10.2
		c8.6,9.2,17.6,17.9,26,27.3c3.1,3.5,6.1,7.2,8.1,11.5c1.9,4,1.9,7.9,0.4,12c-1,2.7-3.4,3.6-5.8,4.2c-6.6,1.5-13.2,2.9-19.7,4.3
		c-3.6,0.8-7.3,1.5-11,1.9c-4.4,0.6-8.8,1-13.2,1.8c-3.4,0.6-6.9,1.2-10.3,1.6c-4.8,0.5-9.6,0.5-14.3,0.2c-3.3-0.2-6.7-0.2-10-0.5
		c-0.7-0.1-1.5-0.1-2.2-0.3c-1.2-0.4-2.2-1-2.3-2.6c-0.1-1.4-1-2.7-2-3.6c-4.2-3.8-7-8.6-10-13.3c-2.8-4.4-6.5-7.7-10.8-10.4
		c-2.6-1.6-5.3-3.1-8.1-4.6c-4.2-2.2-8.7-3.4-13.2-4.7c-3.2-1-6.5-1.9-9.7-2.6c-2.6-0.5-5.2-0.9-7.8-1.2c-2.7-0.3-5.3-0.1-7.9,0.2
		c-1.4,0.2-2.8,0.3-4,1.1c-0.7,0.5-1.4,0.4-2.1-0.3c-1.2-1.1-2.1-2.5-3.1-3.7c-0.4-0.5-0.3-1-0.2-1.4c0.6-2.1,1.5-3.9,3.6-5.1
		c4.8-2.7,9.8-4.6,15.2-5.5c3.1-0.5,6.3-0.7,9.4-0.8c3.9-0.1,7.9-0.1,11.8,0c5.1,0.2,10.2,0.6,15.3,0.8c1.4,0.1,2.8-0.1,4.2-0.1
		c0.5,0,0.8-0.4,1.1-0.8c1.5-2,2.8-4.1,3.3-6.5c1-5,2.7-9.8,3.7-14.9c0.3-1.7,0.5-3.3,0.5-5"/>
	<path class="st0" d="M260.1,267.3c-1.9-0.4-3.6-0.1-5.4,0.5c-7.4,2.6-13.8,6.6-18.7,12.7c-2.4,3-5,5.6-8.1,7.8
		c-4.2,3-6.4,7.3-7.5,12.2c-1.6,7-4.1,13.6-8.1,19.6c-1.9,2.8-3.3,6-3.6,9.4c-0.3,3.5,0.2,6.9,1.3,10.2c0.8,2.1,1.4,4.3,2.1,6.4
		c1.2,3.8,0.3,7.4-1,11c-0.7,1.9-1.4,3.8-2.1,5.7c-0.6,1.9-0.4,3.8-0.2,5.7c0.3,3.2,0.9,6.3,1.9,9.3c1,2.9,2.2,5.7,3.3,8.5
		c0.2,0.4,0.4,0.8,1,0.8"/>
	<path class="st0" d="M360.3,416.1c0.4,5.2,0.7,10.4,0.5,15.6c-0.1,2.9-0.5,5.8-0.8,8.8c-0.3,2.6-0.5,5.3-0.8,7.9
		c-0.3,2.7-0.8,5.5-1.1,8.2c-0.4,3.4-0.7,6.8-1,10.2c-0.3,3.4-0.5,6.9-0.9,10.3c-0.5,5.1-1.5,10-3.4,14.8c-1.7,4.4-5,6.4-9.4,7.2
		c-4.3,0.8-8.5,0.3-12.8,0c-4.1-0.3-8.2-0.7-12.2-1.1c-3.4-0.3-6.8-0.6-10.2-1c-4.4-0.4-8.7-0.9-13.1-1.4c-3.3-0.4-6.4-1.2-9.6-2.1
		c-3.9-1.1-7.8-2.1-11.8-2.8c-3.8-0.7-7.7-0.9-11.5-0.8c-0.4,0-0.8,0.2-1.3,0.3c-1.3,0.3-2.7,0.3-4,0.2c-3.6-0.3-7.2,0.4-10.7,1.3
		c-3,0.7-5.9,1.8-8.8,2.7c-2,0.7-4.1,0.9-6.3,0.7c-4.1-0.4-7.9,0.7-11.5,2.5c-2.4,1.2-4.7,2.6-7,3.9c-0.8,0.5-1.7,0.9-2.6,0.8
		c-1.5,0-2.5-1.2-2.4-2.6c0.2-2.2,1.2-3.9,2.8-5.3c1-0.9,2-1.9,3.2-2.5"/>
	<path class="st0" d="M309.4,353.5c2.2-3.4,5.2-6,8.2-8.6c2.9-2.6,5.4-5.6,6.6-9.6c1.1-3.9,0.8-7.8-0.6-11.5c-1-2.7-2.3-5.1-3.6-7.7
		c-1.7-3.4-2.5-7.2-2.6-11c-0.2-3.9-1.2-7.5-3.2-10.8c-2.1-3.5-3.7-7.3-5.6-11c-2.1-4.2-5-7.7-9-10.2c-2.3-1.4-4.7-2-7.3-2.4
		c-4.6-0.9-9.2-1.5-13.8-2.3c-2.4-0.4-4.8-1.2-7.1-2c-3.6-1.2-7.2-1.7-10.7,0.6c-0.3,0.2-0.6,0.3-0.5,0.7"/>
	<path class="st0" d="M432.7,394.4c3.9-0.2,6.8,1.9,9.8,4c3.7,2.7,5.9,6.3,7.6,10.5c1,2.3,2.1,4.6,3,7c0.5,1.1,1.1,1.4,2.2,1
		c3.9-1.4,8-1.8,12.1-2.3c3.7-0.5,7.3-0.9,11-1.4c2.4-0.3,4.8-0.7,6.8-2.3c1.4-1.1,1.9-2.8,1-4.3c-2-3.4-4.8-6.1-7.8-8.6
		c-4.4-3.7-9.5-6.2-15-7.5c-3-0.7-6.1-1.1-9.2-1.5c-3.7-0.4-7.4-0.1-11.1,0.1c-2.8,0.2-5.6,0.6-8.2,1.9c-1.1,0.5-2.2,0.9-3.3,1.3"/>
	<path class="st0" d="M246.3,280.3c-1.3,0-2.7-0.1-4-0.1c-1.7-0.1-3.1,0.5-4.3,1.7c-2.6,2.6-4.1,5.8-5.3,9.2
		c-1.7,4.8-3.4,9.7-5.9,14.2c-1.7,3-3.5,5.9-5.3,8.9c-2.1,3.4-3.2,7.2-3.6,11.1c-0.5,5.4-0.3,10.9,0.4,16.3
		c0.6,4.5,1.1,9.1,1.5,13.6c0.4,4.9-0.2,9.8-0.7,14.6c-0.6,5.2-1.8,10.3-3.1,15.4c-0.4,1.8-1.2,3.4-1.2,5.3
		c-0.1,1.7,0.5,3.2,0.6,4.9c0.2,3,1.7,5.7,2.5,8.6c0.8,3,1.4,6.1,1,9c-0.5,3.8,0,7.4-0.2,11.1"/>
	<path class="st0" d="M36,398.3c2.3,0.2,4.6,0.7,6.8,1.1c4,0.8,8,1.2,12.1,1.4c9.1,0.6,18.3,0.6,27.4,0.5c5.2-0.1,10.5-0.2,15.7-0.1
		c8,0.1,16.1,0.3,24.1,1.3c3.9,0.5,7.8,0.9,11.7,1.5c6,0.9,11.9,1.4,17.9,1.2c3.6-0.1,7.2-0.8,10.7-1.8c2-0.6,2.4-0.4,2.8,1.7
		c1.1,6.4,2.6,12.7,3.9,19.1c1,5,1.7,10,2.7,15c0.7,3.5,1.7,6.9,2.6,10.3c1.5,5.9,3.1,11.8,4.5,17.7c2.3,9.2,4.3,18.5,6.6,27.8
		c0.7,3,1.5,6,2,9.1c0.3,1.9,0.3,3.9,1,5.8c0.4,1,0.8,2,1.2,3.1c0.1,0.2-0.1,0.5-0.1,0.7"/>
	<path class="st0" d="M310.8,361c0.8,1.6,0.7,3.4,0.8,5.1c0.3,3.4,0.6,6.8,0.9,10.1c0.5,4.7,0.2,9.4-0.1,14
		c-0.3,3.9-1.1,7.8-1.7,11.7c-0.7,4.3-1.7,8.5-3.1,12.6c-0.7,2.2-1.8,4.2-3.2,6c-2.3,2.8-5.5,3.3-8.6,1.1
		c-4.7-3.3-8.3-7.6-11.5-12.5c-4.4-6.8-8.4-13.9-12.1-21.1c-0.7-1.3-1.6-2.6-3.5-2.4"/>
	<path class="st0" d="M259.8,268.5c-1,2.4-2.7,4.4-4.3,6.4c-4.5,5.6-7.5,12-9.1,18.9c-0.2,0.9-0.7,1.4-1.4,1.8
		c-2.7,1.4-4.4,3.8-6.1,6.1c-1.4,1.9-2.8,3.7-4.1,5.6c-3.8,5.4-6,11.3-5.7,18c0,0.6,0.2,1,0.4,1.5c0.1,0.3,0.2,0.7,0.1,0.8
		c-1.2,1.6-0.2,3.3,0.1,4.9c0.6,3,1.1,5.9,1.5,8.9c0.6,3.9,2,7.4,3.8,10.8c3.8,7.2,8.3,14,12.6,20.9c1.7,2.6,4.4,3.9,6.9,5.3
		c0.4,0.2,0.8,0.2,1.1,0.1c5.6-1.2,10.9-3.4,15.6-6.8c3.7-2.7,7.5-5.4,11.1-8.2c3.5-2.7,6.6-5.7,8.1-10.1c0.6-1.7,0.9-3.4,0.7-5.3
		c-0.2-2.4-0.1-4.9,0-7.4c0-0.1,0.2-0.3,0.3-0.4"/>
	<path class="st0" d="M227.7,317.6c-2.6,5.1-4.8,10.4-5.5,16.1c-0.6,4.5-0.6,9,0.6,13.5c0.3,1.2,0.5,2.4,0.9,3.6
		c0.2,0.5,0.3,1.1,0.7,1.4c1.9,1.5,1.8,3.2,1.2,5.3c-0.4,1.2-0.2,2.7,0,4c0.2,2.2-0.1,4.5-0.3,6.7c-0.3,4.3-1.5,8.4-2.5,12.5
		c-0.5,2.1-1.2,4.1-1.4,6.3c-0.4,3.8,0,7.5,1.3,11.1c1.1,3.1,2.3,6.3,2.7,9.6c0.4,2.8-0.2,5.7-1.2,8.3c-1.3,3.3-1.1,6.6-0.4,10
		c0.5,2.4,1,4.8,1.3,7.2c0.4,3.2,0.2,6.4,0.7,9.6"/>
	<path class="st0" d="M194,475.9c4.4-3.4,9.6-4.9,15-5.6c2.7-0.3,5.4-0.7,8.1-0.6c2.5,0.1,4.9,0.2,7.4,0.4c3.6,0.4,7.2,1,10.8,1.2
		c2.1,0.1,4.2,0.6,6.3,0.5c2.2-0.1,4.2,0.8,6.4,0.8c2.1,0,4.2,0.2,6.3,0.3c4.4,0.3,8.7,0.4,13.1,0.8c8.3,0.9,16.6,0.9,24.9,1
		c4,0,8-0.1,12-0.1c1.7,0,3.3,0,5,0.1c2.7,0.1,5.5-0.3,8.2,0c1.5,0.1,2.9,0.5,4.3,0.7c2.2,0.4,4.5,0.6,6.7,1.2
		c1.1,0.3,2.1,0.8,3.1,1.3"/>
	<path class="st0" d="M305,348.2c0.2-3,0.3-5.9,0.6-8.9c0.4-4.6-1.3-8.6-3.8-12.4c-2.3-3.5-5.4-6.3-8.6-8.9
		c-5.3-4.4-10.7-8.8-14.2-14.8c-2-3.5-3.9-7.1-6.1-10.5c-2-3-4.2-5.7-7.3-7.6c-1.2-0.8-2.6-1.3-4-1.4c-0.7-0.1-1.4-0.2-2.1-0.3
		c-1.4-0.2-3-0.3-4,1.2c-0.5,0.8-1.4,1.2-2.2,1.7"/>
	<path class="st0" d="M245.2,375.7c0,2.5-0.1,5.1,0.7,7.5c0.4,1.3,1.3,2.3,2,3.5c2.4,3.9,2.5,7.9,0.8,12s-2.9,8.3-2.6,12.8
		c0.2,2.9,0.9,5.8,1.6,8.6c0.9,3.4,1.7,6.9,1.6,10.6c-0.1,3.1-0.6,6.1-2.3,8.7c-2.1,3.3-2.4,6.9-2,10.6c0.1,1,0.4,2,0.5,3.1"/>
	<path class="st0" d="M264.9,384.4c-0.2,5.5-0.1,11.1-0.9,16.5c-0.3,2.1-0.4,4.3-0.5,6.4c-0.2,5.6,1.1,10.9,3.7,15.9
		c1.7,3.3,3.4,6.6,3.8,10.4c0.3,2.7,0.1,5.3-0.3,7.9c-0.6,3.9-1,7.9,0.3,11.8c0.2,0.7,0.9,1.1,0.7,1.9"/>
	<path class="st0" d="M256.3,385.2c0.1,0.8-0.2,1.5-0.6,2.1c-2.3,3.8-3.2,7.9-3.5,12.3c-0.3,4.5,0.2,9,0.7,13.5
		c0.3,2.6,0.4,5.2,0.4,7.8c0.1,4.2-0.1,8.3,0.1,12.5c0.2,4.6,0.5,9.3,1,13.9c0.2,2.4,0.1,4.8,0,7.2"/>
	<path class="st0" d="M380.5,391.5c-2.6,0.2-4.1-1.6-6-2.9c-6.5-4.6-10.9-11-14.9-17.8c-3.7-6.1-7.4-12.2-12.2-17.5
		c-3.6-3.9-7.6-7.3-12.5-9.4c-3.7-1.6-7.6-2.5-11.7-1.9c-0.6,0.1-1.3,0.1-1.8-0.3"/>
	<path class="st0" d="M255.2,294.5c3.1,1.7,5.6,4,7.5,7c1.7,2.7,4.1,4.5,7,5.8c2.5,1.2,4.9,2.4,6,5.2c0.5,1.3,0.5,2.8,0.6,4.2
		c0.1,1.6,0.3,3.2,0.6,4.7c0.6,3.4,3.1,4.9,6,6c2.2,0.8,4.3,1.5,6.5,2.1c2.3,0.6,4.2,1.8,5.5,3.7c1.7,2.4,3.3,5,3.6,7.9
		c0.2,2.5,0,5-0.5,7.5c-0.1,0.5-0.1,0.9-0.1,1.4"/>
	<path class="st0" d="M272.2,376c-0.3,2.2-1.4,4.2-2.3,6.2c-1.3,3.1-1.8,6.4-2.5,9.6c-0.5,2.4-0.8,4.9-0.7,7.4
		c0.2,5.1,0.9,10.1,1.8,15.2c0.9,5.3,2.9,10.2,5.2,15c1.9,4.1,3.3,8.4,4.7,12.7c1,3.2,2.6,6.1,4.2,9c0.3,0.7,0.9,0.8,1.4,1.3
		c1.1,1,2.1,2.2,3.1,3.3c2.6,2.8,5.8,4.9,9.6,5.7c2.1,0.5,4.3,0.2,6.4-0.2c4.2-0.8,8.3-0.5,12.5,0.1c2.3,0.3,4.7,0.5,7.1,0.3
		c1.5-0.1,2.1,0.8,1.8,2.3c-0.5,3.1-1.2,6.1-2,9.2"/>
	<path class="st0" d="M262.4,390.8c-0.9,3.1-2.1,6.1-3.1,9.2c-1.1,3.6-1.2,7.2-0.8,10.9c0.3,3,0.7,6,1.1,9c0.6,3.8,1.2,7.5,2,11.3
		c0.7,3.7,0.9,7.3,0.1,11c-0.9,4.4-0.7,8.6,1.1,12.7c0.1,0.3,0.1,0.6,0.1,0.8"/>
	<path class="st0" d="M258.5,490.6c-0.2,1.2-1,1.7-2.1,2.1c-8,2.6-16.1,5-24.2,7.1c-5,1.3-9.8,3.2-14.6,5c-5.3,1.9-10.6,3.8-16,5.4
		c-0.6,0.2-1.2,0.5-1.8,0.7"/>
	<path class="st0" d="M307.2,314c-0.3-1.3-0.8-2.6-1.4-3.7c-0.5-1-0.2-2-0.4-2.9c-0.7-4.7-1.9-9.2-4.1-13.3
		c-1.9-3.5-5.2-5.2-8.8-6.4c-1.9-0.6-3.8-1.2-5.6-2c-3.8-1.6-6.3-4.6-8.6-7.9c-2.9-4.1-7-6.3-12-6.6c-1.2-0.1-2.5,0-3.8,0.4
		c-1,0.3-2,0.3-3.1,0"/>
	<path class="st0" d="M433.2,301.5c-0.1-2.3-1.3-4.1-2.3-6c-1.3-2.5-2.3-5.1-3.5-7.6c-0.9-1.9-2.1-3.6-3.6-5.1
		c-4.3-4.3-10.3-2.3-13.1,1.7c-1.2,1.7-0.8,3.7-0.4,5.5c0.3,1.1,0.2,2.5,1.6,3.1c0.3,0.2,0.3,1.2,0.3,1.9c-0.1,4.1,2.1,6.9,4.9,9.5
		c2.6,2.4,5.7,4.3,7.9,7.1c3.3,4,4.2,8.7,3.6,13.8c-0.3,2.3-0.8,4.5-0.7,6.8c0.1,2.5,0.8,4.9,3.1,6c3.2,1.6,6.1,4.1,9.8,4.7
		c1.6,0.2,2.9-0.6,4.3-1.1c3-1.3,5.1-3.3,6-6.6c1-3.5,3.2-6.4,5.7-9.1"/>
	<path class="st0" d="M232.7,352.6c-0.1,3.4-0.4,6.9-0.2,10.3c0.2,4-0.9,7.8-1.2,11.7c-0.2,2.9-1.1,5.8-1.8,8.8s-0.4,5.9,0,8.9
		c0.5,3.4,2.1,6.3,3.8,9.2c1.4,2.4,2.5,5,3.6,7.5c0.6,1.3,0.8,2.6,0.8,4c0,2.3,0,4.6-0.2,7c-0.2,2.6-1.5,4.8-2.7,7.1
		c-1.9,3.5-3.6,7-4,11c-0.1,1.2-0.2,2.4-0.3,3.6"/>
	<path class="st0" d="M458.7,438.7c-1.6,1.1-3.4,1.3-5.1,0.8c-1.9-0.6-3.7-0.4-5.4-0.1c-3.4,0.5-6.9,1-10.3,1.5
		c-3.9,0.6-7.7,1.4-11.5,2.5c-3.5,0.9-7,1.8-10.4,2.8c-1.9,0.6-3.9,1.4-5.7,2.2c-2.1,1-4.2,1-6.4,1.1"/>
	<path class="st0" d="M305.4,310c-1,0.2-1.8-0.4-2.3-1c-2.4-2.7-5.5-4.5-8.8-5.9c-4.8-2.1-8.1-5.7-10.4-10.3c-1.5-3-3.2-6-5.3-8.6
		c-1.6-2.1-3.8-3.5-6.3-4.3c-1.4-0.5-2.9-0.8-4.3-1.1c-2.1-0.5-4.1-0.1-6.1,0.5c-0.9,0.3-1.9,0.6-2.8,0.8"/>
	<path class="st0" d="M485.5,263.6c-1.4,2.6-3,5-4.2,7.6c-1.6,3.5-2.2,7.3-2.4,11.1c-0.2,3.5-0.5,7-0.7,10.4
		c-0.3,4.5-0.1,8.9,1.9,13.1c1,2.2,0.8,4.6,0.6,6.8c-0.2,2.3-0.4,4.6-0.6,7c-0.2,3.3-0.2,6.6-0.3,9.9c0,1.3,0.1,2.5,0.1,3.8
		c0,0.6,0,1.1-0.3,1.7"/>
	<path class="st0" d="M404.6,452c-3.8-0.4-7.2,1-10.7,1.9c-5.3,1.5-10.7,2.9-15.8,4.9c-3.3,1.3-6.6,2.9-9.9,4.3
		c-2.8,1.2-5.7,2.1-8.9,1.4c-0.5-0.1-1.1,0.1-1.7-0.1"/>
	<path class="st0" d="M358.5,403.3c3.4-1.5,6.1-3.9,8.5-6.7c0.4-0.5,0.6-1.1,0.7-1.7c0.3-1.3-0.5-2.2-2-2c-2.9,0.4-5.7,1.4-8.3,2.7
		c-7.4,3.6-14.9,6.7-22.5,9.7c-2.5,1-4.8,2.2-7.1,3.6c-2.5,1.6-3.6,4.3-2.8,7.3c1.1,4.5,1.6,9,1.7,13.6c0,2.2,0.3,4.5,0.2,6.7
		c-0.1,4.1-0.1,8.2-0.5,12.2c-0.2,2.4-0.5,4.8-0.7,7.2c-0.1,1.3-0.3,2.7-0.4,4"/>
	<path class="st0" d="M441.7,381.7c0.9,0.6,1.9,0.3,2.8,0.4c3.7,0.3,7.3,1.2,10.8,2c6.1,1.4,12,3.6,17.9,5.5
		c3.7,1.2,7.4,2.5,11.1,3.3c2.7,0.6,4.7,2.3,7.4,2.8c2.8,0.5,5.3,1.8,7.9,2.8"/>
	<path class="st0" d="M442.1,342.9c0,1,0.2,1.8,1.1,2.5c3.8,3,6.4,7,9.5,10.7c5.5,6.5,10.9,13.3,17.3,19c1.9,1.7,3.7,3.4,5.4,5.4
		c0.7,0.9,1,1.6,0.1,2.5c-0.4,0.4-0.3,0.9-0.2,1.5c0.1,1.5-0.3,3-0.5,4.4"/>
	<path class="st0" d="M239.1,370.2c-0.6,2.2-1.3,4.4-1.6,6.7c-0.4,3.2,0.4,6.2,1.5,9.2c0.9,2.4,1.7,4.8,2.6,7.2
		c1.7,4.7,0.9,9.2-1.2,13.5c-0.6,1.2-0.6,2.8-2.1,3.6"/>
	<path class="st0" d="M270.2,326.6c1,0.1,2,0.1,3.1,0.3c2.3,0.4,4,2,6,2.9c3.3,1.6,6.4,3.4,9.3,5.6c2.6,2,4.9,4.3,5.4,7.8
		c0.2,1.5,0.6,3,0.5,4.4c-0.1,1.6,0.2,3.1,0.4,4.6c0.1,1.6,1.2,3.3,3.8,3.9c2.3,0.6,4.7,0.8,7.1,0.7c1-0.1,2,0.1,2.2,1.4"/>
	<path class="st0" d="M461.9,257.2c-1.7,3-1.9,6.3-2.1,9.6c-0.2,4.1-0.6,8.2-1.1,12.2c-0.5,4.4-1.3,8.8,0,13.2
		c0.7,2.4,2,4.3,4.1,5.6c1.5,1,3.1,1.8,5,1.7c2-0.1,3.8-0.5,5.3-2"/>
	<path class="st0" d="M229.9,398.7c-0.7,0.7-0.9,1.6-1,2.5c-0.1,1.6-0.2,3.2-0.2,4.7c-0.1,3.6-0.1,7.1,0.1,10.7
		c0.2,3.5,0.6,6.9,0.3,10.4c-0.3,3.3-0.1,6.6-0.1,9.9"/>
	<path class="st0" d="M229.1,459.2c-2.3,1.7-5.1,2.4-7.5,3.9c-1.4,0.8-3,1-4.6,1.2c-3.5,0.6-7,1-10.6,0.8c-3-0.1-6-0.4-9-0.7
		c-3-0.3-5.8-0.2-8.6,0.9"/>
	<path class="st0" d="M246.4,295.5c4.9,3.9,10,7.5,14.5,12c4,4.1,7.3,8.7,10,13.8c0.1,0.2,0.2,0.5,0.3,0.7c1.1,1.3,1.6,2.9,1.4,4.6"
		/>
	<path class="st0" d="M395.7,402.2c0.5,0.6,1,1.2,1.5,1.8c2.7,3.1,6,4.7,10.2,4.3c6-0.5,11.4,0.9,16,5c0.4,0.3,0.7,0.6,1.1,1"/>
	<path class="st0" d="M201.8,475.3c-2.8,2.4-5.3,5-7.8,7.8l-0.1,0.1c-2.9,1.5-2.3,4.2-1.4,6.2c1.3,3.1,1.2,6.3,2.1,9.4
		c0.3,1,0.6,2,0.8,3.1c0.2,0.7,0.6,1,1.3,1.1"/>
	<path class="st0" d="M269.4,397.7c1,3.3,2.7,6.3,4.4,9.3c2.7,4.9,4.6,10,6.2,15.3c0.4,1.2,0.7,2.5,1.1,3.8"/>
	<path class="st0" d="M227.8,441.9c1.5,0.3,2.3,1.4,3.2,2.5c4.3,5.5,7,11.9,10.6,17.8c2,3.3,2.2,3.3,4,0c0.1-0.1,0.2-0.2,0.3-0.3"/>
	<path class="st0" d="M486.9,261.7c1.8-3.3,2.8-6.9,2.9-10.7c0.1-2.9-0.8-5.4-3.5-6.9c-1.5-0.8-3-0.9-4.4,0.1
		c-1.2,0.9-2.5,1.1-3.9,0.4c-1.1-0.6-2.1-0.4-3.1,0.4c-0.4,0.3-0.7,0.7-1.1,1.1c-0.8,0.8-1.7,1.2-2.9,1.3c-2,0.1-3.8,1.1-5.3,2.5"/>
	<path class="st0" d="M453,309.4c1.4,0.7,2.5,2,3.7,2.9c1.3,1,2.5,2.1,3.9,2.9c2.5,1.6,5.4,1.7,8.2,1.3c3-0.4,5.9-1,8.8-2
		c0.8-0.3,1.8-0.1,2.6-0.2"/>
	<path class="st0" d="M217.7,426.1c-1.3,1.8-1.8,3.9-2.5,6c-1.3,4-1.8,8.2-2.4,12.4c-0.3,2,0.1,4,0.9,5.8c0.4,1,1.1,1.6,2.2,1.4"/>
	<path class="st0" d="M281.6,308.8c-0.8,0.5-1.5,0.5-2.4,0.1c-1.8-0.9-3.8-1.3-5.4-2.5c-1.8-1.3-3.1-2.9-3.8-5
		c-0.7-2.4-2.1-4.5-3.9-6.3s-3.2-3.9-5.3-5.3c-0.6-0.4-1.2-1-2.1-1"/>
	<path class="st0" d="M306.9,315.4c-0.5,0.6-0.6,1.2-0.6,1.9c0.3,2.9,0.6,5.9,1,8.8c0.4,2.5,1.4,4.8,3,6.8c2.1,2.7,2.7,5.8,2.1,9.2"
		/>
	<path class="st0" d="M237.1,447.2c-0.1-1.6,0.6-3.1,1.1-4.6c0.9-2.6,1.8-5.1,2.6-7.6c0.7-1.9,0.6-3.8,0.1-5.7c-0.5-2-1.3-4-1.9-6
		c-0.3-0.9-0.7-1.5-1.7-1.7"/>
	<path class="st0" d="M337.3,367.4c-2.8,3.3-5.9,6.3-8.3,9.9c-2.8,4.1-4.7,8.5-5.3,13.5c-0.1,0.5-0.3,0.9-0.4,1.4
		c-0.2,0.5-0.7,0.7-1,1.1"/>
	<path class="st0" d="M428.8,381.9c-0.1,1-0.5,1.6-1.7,2c-4.1,1.2-7.9,3.1-11.5,5.3c-2.8,1.7-5.6,3.5-8.3,5.3
		c-1.1,0.7-1.9,1.7-2.2,3"/>
	<path class="st0" d="M406.5,388.3c-2.7,2.4-5.8,4-9.5,4.5c-1.7,0.2-3.3-0.1-4.9-0.4c-2.6-0.5-5.2-0.5-7.8-0.6c-1.1,0-2.2,0-3.3-0.3
		"/>
	<path class="st0" d="M478.4,304.9c-1.6,2-4.1,2.1-6.3,2.4c-3.3,0.5-6.6,0.3-9.7-1.1c-2.5-1.1-4.8-2.4-5.6-5.4
		c-0.1-0.5-0.4-1.4-1.3-1.4"/>
	<path class="st0" d="M385,398.4c-0.2,0.8,0.4,1.4,0.7,1.9c3.5,4.9,6.9,9.8,12.2,13c2.3,1.4,4.7,2.7,7.5,2.8"/>
	<path class="st0" d="M308.1,315.1c2,2.2,4,4.4,6,6.7c2.5,2.9,3.4,6.3,3.4,10.1c0,1.9-0.3,3.8,0.1,5.7"/>
	<path class="st0" d="M280.5,330.7c-0.6,0.8-0.5,1.4,0.1,2.2c3,3.9,4.4,8.4,5.3,13.2c0.5,2.5,0.7,5.1,2,7.4"/>
	<path class="st0" d="M225.4,484.8c-0.9,0-1.6,0.5-2.4,0.8c-2.2,1-4.4,1.6-6.8,2c-4.1,0.7-7.6,2.8-10.7,5.4
		c-2.9,2.4-5.3,5.2-7.6,8.1c-1.7,2.1-1.5,4.2-0.8,6.4c0.2,0.6,0.4,1.2,0.8,1.7c1.3,1.4,1.2,2.8,0.4,4.3c-0.1,0.3-0.1,0.5-0.1,0.7"/>
	<path class="st0" d="M295.8,357.1c-0.6,1.9-0.7,3.9-1.1,5.8c-0.9,4.6-1.8,9.2-2.4,13.9c-0.1,0.9-0.1,1.9-0.1,2.8"/>
	<path class="st0" d="M451,319c-1.4,2.5-3,4.9-5.3,6.7c-1,0.8-2.2,1.5-3.3,2.2c-2.3,1.5-3.7,3.7-4.7,6.1c-0.7,1.8-1.6,3.5-2.9,4.9"
		/>
	<path class="st0" d="M214.2,391.7c-1.1,0.4-1.2,1.5-1.4,2.4c-1.2,4.7-1.2,9.3,0.8,13.8c0.7,1.6,1.6,3.1,2.4,4.6"/>
	<path class="st0" d="M404,420.5c1.6,1.8,2.3,4.1,2.8,6.4c0.9,4.2,0.4,8.5,0.2,12.8c0,0.4,0.2,0.7,0.1,1.1"/>
	<path class="st0" d="M409.6,426.6c1.3,0.5,1.5,1.9,2.1,2.9c1.7,3.3,3.1,6.7,4.1,10.3c0.3,0.9,0.5,1.9,0.2,2.9
		c-0.3,0.9-0.1,1.8,0.4,2.6"/>
	<path class="st0" d="M325.6,353.8c-1.1,1.6-2.2,3.2-3.2,4.9c-1.6,2.5-1.8,5.4-2.1,8.2c-0.1,1.5,0,3,0,4.4"/>
	<path class="st0" d="M303.9,360.4c-0.7,4.6-2.9,8.7-5.1,12.7c-0.9,1.5-1.8,3.1-2.6,4.6"/>
	<path class="st0" d="M210.8,478c-3.2,3-6.9,5.4-10.4,8.1c-2,1.6-4,3.2-5.3,5.6c-0.1,0.2-0.5,0.4-0.7,0.6"/>
	<path class="st0" d="M218.5,425.8c0.5,3,1,5.9,1.3,8.9c0.1,1-0.4,2.1-1.1,2.9c-1.9,2.4-2.4,5.2-2.8,8.1c-0.3,2.1,0.1,4.2,0.2,6.3
		c0,0.9,0.3,1.8,0.8,2.6c0.3,0.6,0.7,1.1,0.7,1.8"/>
	<path class="st0" d="M288.2,314.7c-1,1.3-0.4,2.6,0,3.9c0.9,2.8,2.5,5.2,4.5,7.4c1.3,1.4,2.4,2.9,3.7,4.2"/>
	<path class="st0" d="M227.9,338.5c-0.6,0.8-0.8,1.8-1,2.8c-0.6,3.1-0.7,6.2-0.7,9.3c0,0.9-0.3,1.6-0.7,2.4"/>
	<path class="st0" d="M255.1,462.2c-1,1.2-1.3,2.7-2.5,3.8c-2.1,2-4.5,3.2-7.3,3.7c-1,0.2-1.9,0.5-1.9,1.8"/>
	<path class="st0" d="M219.5,438.3c0.4,0.4,0.6,1,0.7,1.5c0.6,3.1,1.7,6.1,2.8,9c0.2,0.5,0.1,1.1,0.3,1.7c0.2,0.7,0.8,1.2,1.5,1.4"
		/>
	<path class="st0" d="M241.6,294.8c-1.6,1-3,2.2-4.5,3.5c-2.1,1.8-2.6,4.3-3.1,6.8c-0.1,0.7,0.3,1.3,0.7,1.8"/>
	<path class="st0" d="M226.1,355.8c1.5,0.8,1.9,2.2,2.4,3.6c0.6,2,1.2,4,1.8,6c0.1,0.5,0.3,1,0.3,1.5c-0.1,1,0.5,1.2,1.3,1.1"/>
	<path class="st0" d="M476.2,382.3c1.4,0.1,2.1,1.3,3.1,2.1c2.3,2,4.3,4.1,6.3,6.4c0.6,0.6,1,1.3,0.6,2.2"/>
	<path class="st0" d="M358.5,383.1c3.3,1.6,4.9,4.8,7.1,7.5c0.4,0.5,0.3,1.4,0.5,2.1"/>
	<path class="st0" d="M391.9,409.8c-1.2,0.9-1.5,2.4-2.2,3.6c-1.4,2.6-3.3,4.7-6,6"/>
	<path class="st0" d="M333.9,393.5c-3,1-5.8,2.2-7.8,4.7c-0.3,0.3-0.6,0.6-0.7,1c-0.2,0.8-0.8,1.1-1.5,1.1"/>
	<path class="st0" d="M320.6,384.6c0.1,2.2,0.2,4.4,0.3,6.5c0,0.7,0.4,1.1,0.8,1.5c0.9,0.9,1.3,2,1.2,3.2c0,1.5,0.3,2.9,0.6,4.3
		c0.4,1.7,0.2,3.6,0,5.4c-0.1,1.2,0,2.4,0.2,3.6c0.1,0.6,0.3,1.1,0.9,1.4"/>
	<path class="st0" d="M227.7,441.4c0.2,0.6-0.3,1.1-0.6,1.3c-0.8,0.5-0.9,1.3-1,2.1c-0.2,1.8-0.7,3.6-0.7,5.4c0,1.1-1,1.9-0.9,3.1
		c0,0.8,0,1.7,0.1,2.5c0.1,1.8,0.3,3.5,0.4,5.3"/>
	<path class="st0" d="M454.4,299.8c-0.9,0.9-0.6,2.3-0.9,3.4c-0.5,2-1.1,4-0.6,6.2c-1.1,0.8-1.4,1.9-1.2,3.4
		c0.1,0.7-0.1,1.6-0.5,2.4"/>
	<path class="st0" d="M412.1,422.9c3.2,2.2,6,4.9,8.2,8.2"/>
	<path class="st0" d="M272.7,377.1c2.4,2.8,3.8,6,4.8,9.4c0.1,0.3-0.1,0.4,0,0.6"/>
	<path class="st0" d="M271.6,458.6c-0.4,1.2-0.8,2.5-0.8,3.8c0,0.5-0.3,0.9-0.5,1.3c-0.9,1.5-1.6,1.6-2.6,0.3
		c-1.3-1.7-2.9-2.1-4.9-2c-2,0.2-4,0.1-6,0.3c-0.6,0-1.2-0.4-1.8-0.7c-0.5-0.2-0.9-0.5-1.4-0.5"/>
	<path class="st0" d="M252.6,457c0.2,0.7,0.3,1.5,0.5,2.2c0.5,2.1-0.3,3.3-2.9,4.7"/>
	<path class="st0" d="M300.7,340.7c0.5,3.9,1.1,7.7,1,11.7"/>
	<path class="st0" d="M282.9,452c-1.6,1.6-1.3,2.9-0.1,5.1c0.5,1,1.1,1.8,0.1,2.8"/>
	<path class="st0" d="M172.2,397.8c-2.6,1.5-4.7,3.5-7,5.3"/>
	<path class="st0" d="M272.7,460c1.3,0.9,2.5,1.9,3.8,2.8c1.5,1,2.2,0.8,2.6-1.1c0.1-0.3,0.2-0.6,0.3-1c0.2-0.8,0.8-1.3,1.6-1.1
		c0.7,0.2,1.4,0.1,2,0.5"/>
	<path class="st0" d="M475.5,248.6c1.5-0.1,2.9-0.6,4.4-0.6c2.2,0,4,0.5,5.4,2.1"/>
	<path class="st0" d="M246.1,460.4c0.9,1.3,2.2,2.3,3.4,3.2c0.6,0.4,0.8,0.9,0.9,1.4"/>
	<path class="st0" d="M357.2,399.1c0,1.4,0.2,2.8,1.1,3.9c0.5,0.6,0.1,1-0.2,1.4"/>
	<path class="st0" d="M283.4,460.4c0.6,0.5,1.3,0.9,1.9,1.4"/>
	<path class="st0" d="M233,332.4c0.2,0,0.6,0.1,1,0.1c1.3,0.1,2.2-0.3,2.5-0.4c1.9-0.7,4.8-0.7,6.9-0.3c2.7,0.5,3.6,1.7,3.8,1.9
		c0.3,0.4,0.6,0.9,0.7,1.1"/>
	<path class="st0" d="M248,333.9c-0.5,0.5-1.3,1.4-2.6,2c-1.7,0.8-3.3,0.8-4.2,0.8c-2.4-0.1-4.2-1-4.9-1.4c-0.4-0.2-1.6-0.9-3-2.2
		c-0.3-0.3-0.5-0.5-0.7-0.7"/>
	<path class="st0" d="M237.2,335.2c-0.1-0.2-0.2-0.5-0.2-0.6c-0.1-1,0.9-2.1,2.4-2.8"/>
	<path class="st0" d="M242.8,332.3c0.3,0.2,0.5,0.5,0.6,0.7c0.5,0.9,0.2,2.2-0.8,3.3"/>
	<path class="st0" d="M240.8,332.9c-0.2-0.1-0.7-0.2-1.1,0c-0.4,0.2-0.5,0.7-0.6,1.1c-0.1,0.3-0.1,0.5,0,0.8
		c0.2,0.3,0.6,0.4,0.9,0.4c0.2,0,0.6,0.1,1.1-0.2c0.1-0.1,0.6-0.3,0.7-0.8c0.1-0.4-0.1-0.7-0.2-0.8C241.3,333.1,241,333,240.8,332.9
		z"/>
	<path class="st0" d="M245.5,349.6c0.4,1.2,0.9,1.9,1.3,2.3c0.7,0.7,1.5,1.1,2.5,1.6s1.5,0.7,2.2,0.8c1.1,0.1,2-0.1,3.7-0.7
		c1-0.3,1.5-0.5,1.9-0.8c1.3-1,1.6-2.8,1.6-3.6"/>
	<path class="st0" d="M242.8,359.2c0.2,0.1,0.5,0.4,1,0.6c4.1,2.6,6.2,3.8,8.5,4.1c3.4,0.4,6.3-1.1,7.3-1.7c1.8-0.9,4.4-2.9,4.4-2.9
		c0.1-0.3,0.2-0.6,0.1-0.7c-0.2-0.2-0.6,0-1.2,0.3c-0.1,0.1-0.9,0.3-2.3,0.7c-0.2,0.1-0.7,0.2-2.3,0.5c-1.8,0.3-3.6,0.6-4.2,0.7
		c0,0-3.8,0.4-10.8-2.3c-0.3-0.1-0.7-0.3-0.7-0.5s0.8-0.3,1.1-0.4c0.7-0.1,1.4,0,2,0.1c1.3,0.2,1.3,0.3,2.3,0.4c0.8,0.1,0.9,0,2,0.1
		c1.5,0.1,1.7,0.2,2.4,0.3c1.4,0,2.4-0.4,3-0.6c1.3-0.4,3.4-0.6,7.1,0.7"/>
	<path class="st0" d="M261.8,334.6c0.9-0.6,1.7-0.7,2-0.8c3.5-0.6,3.3-0.8,4.7-0.8c1.3-0.1,2.3,0.1,3,0.2c1.7,0.2,2.7,0.3,2.8,0.9
		c0.2,0.7-1.2,1.7-1.8,2.1c-0.4,0.3-1.5,1-3.2,1.4c-0.5,0.1-2.3,0.4-4.5-0.1c-1.6-0.4-3.8-1.4-3.7-2.1
		C261.2,335,261.4,334.9,261.8,334.6z"/>
	<path class="st0" d="M268.7,337c0.7-0.4,1.1-1.2,1-1.9c0-0.9-0.7-1.4-0.8-1.5"/>
	<path class="st0" d="M265,334c-0.2,0.1-0.7,0.3-1,0.9c-0.3,0.8,0,1.8,0.8,2.4"/>
	<path class="st0" d="M261.5,332.2c0.5-0.2,1.3-0.4,2.2-0.8c2.4-0.9,2.6-1,3.2-1.1c1.2-0.1,2.2,0.1,3.5,0.4c0.9,0.2,1.6,0.5,2.1,0.7
		"/>
	<path class="st0" d="M265.7,333.9c-0.4,0.1-0.6,1.1-0.3,1.8c0.1,0.2,0.3,0.6,0.8,0.8c0,0,0.8,0.3,1.4-0.1c0.2-0.2,0.3-0.4,0.3-0.5
		s0.2-0.5,0-1c-0.1-0.1-0.2-0.4-0.5-0.6c-0.3-0.1-0.4,0-0.8,0C266.1,334.3,266,333.9,265.7,333.9z"/>
	<path class="st0" d="M233.1,330c0.5-0.3,1-0.6,1.6-0.8c3.3-1.2,6.6,0.1,7.7,0.6"/>
	<path class="st0" d="M274.8,328c-0.1,0.1-0.4,0.3-1.5,0.3c-1.3,0-2.2-0.3-2.2-0.3c-2.1-0.6-5.1,0.1-6.8,0.9
		c-1.4,0.6-1.6,1.1-3.3,1.7c-2,0.7-2.8,0.3-3,0.2c-0.7-0.4-1.3-1.3-1.2-2.1c0.1-2.3,5-4.6,9.2-4.7c1.5,0,0.9,0.3,5.4,0.8
		c2.2,0.3,3.5,0.3,3.9,1.2C275.5,326.5,275.4,327.5,274.8,328z"/>
	<path class="st0" d="M229.9,328.9c0.9,0.1,1.6-0.3,1.8-0.5c2.8-1.7,7.9-0.7,8.1-0.7c1.7,0.3,2.1,0.8,4.6,1.2c2.4,0.4,2.8,0.1,3-0.2
		c0.4-0.6-0.3-1.8-0.8-2.4c-0.9-1-1.8-1.2-4.8-2.1c-3.9-1.2-3.6-1.2-4.3-1.3c-1.7-0.1-3,0.5-5.4,1.5c-0.5,0.2-1.4,0.6-2.3,1.4
		c-0.7,0.6-1.5,1.3-1.4,2C228.6,328.5,229.3,328.8,229.9,328.9z"/>
</g>
<g id="Opacity" class="st1">
	<path class="st2" d="M191.4,484.8c-0.6-1.3-1-2.7-1.1-4.2c-0.1-0.7,0.1-1.5-0.1-2.2c-0.2-0.7-0.6-1.3-0.8-2.1l-1.8-8.6
		c-1.2-5.7-2.3-11.5-3.5-17.2c-0.6-2.8-1.4-5.7-2-8.5c-0.6-2.9-1.1-5.7-1.9-8.5l-4.4-17l-1.1-4.2l-1-4.3l-1.9-8.5
		c-0.1-0.6-0.4-1.3-0.7-1.9l-0.5-1c-0.1-0.3-0.3-0.4-0.5-0.6c-0.4-0.3-1-0.5-1.7-0.5c-0.7-0.1-1.4,0-2.1,0l-8.7,0.2
		c-2.9,0.1-5.8,0.1-8.7,0.3c-2.9,0.2-5.9,0.3-8.8,0.3c-1.5,0-3-0.1-4.4-0.2c-0.7-0.1-1.5-0.1-2.2-0.2c-0.6,0-1.4,0-2.1,0
		c-2.9-0.1-5.9-0.2-8.8-0.4c-5.8-0.5-11.6-0.8-17.5-1.1c-5.8-0.2-11.6-0.3-17.5-0.5c-2.9-0.1-5.9,0-8.8-0.3c-3-0.3-5.8-0.6-8.8-0.9
		l-8.7-1l-8.7-1.1l-4.3-0.6c-1.5-0.2-2.9-0.4-4.3-0.6l-4.3-0.8l-2.2-0.4c-0.7-0.1-1.5-0.3-2.1-0.3c-1.3-0.1-2.2,0.2-2.8,1.2
		c-0.4,0.5-0.6,1-0.9,1.6s-0.4,1.2-0.5,1.8c-0.1,0.6-0.1,1.2,0,1.8c0.1,0.3,0.1,0.6,0.2,0.7s0.1,0.1,0.2,0.2
		c0.8,0.3,1.6,0.9,2.2,1.7c0.6,0.8,0.9,1.6,1.1,2.4c1.3,5.7,2.7,11.3,4.2,17l2.2,8.5c0.7,2.8,1.5,5.6,2.3,8.4s1.6,5.6,2.3,8.5
		s1.2,5.8,1.8,8.6c0.6,2.9,1.1,5.7,1.8,8.5l2.1,8.5c0.7,2.8,1.4,5.7,2.2,8.5c0.4,1.4,0.8,2.8,1.2,4.2l0.6,2.1c0.2,0.7,0.5,1.3,0.7,2
		c0.5,1.3,1.2,2.5,2,3.6c0.3,0.5,0.7,0.8,1.2,1c0.2,0.1,0.5,0.2,0.8,0.3l1.1,0.2c2.9,0.6,5.7,1.4,8.5,2c2.8,0.6,5.7,1.1,8.6,1.7
		l8.6,1.8c5.7,1.2,11.4,2.4,17.1,3.4c5.8,0.9,11.5,2,17.3,3.2c2.9,0.6,5.7,1.3,8.6,2c2.8,0.8,5.6,1.4,8.5,1.8
		c2.9,0.5,5.7,0.8,8.7,1.2c2.9,0.4,5.8,1.1,8.6,1.4c2.9,0.3,5.8,0.8,8.7,1.2c2.9,0.4,5.8,0.8,8.7,1.4c2.9,0.5,5.7,1.1,8.6,1.7
		c1.4,0.3,2.8,0.6,4.3,0.9c0.7,0.1,1.4,0.3,2.1,0.4l1.1,0.1c0.4,0.1,0.8,0.2,1.2,0.3c0.7,0.2,1.4,0.5,1.9,0.5c0.2,0,0.7,0,1,0
		c0.4,0,0.7,0,1.1-0.1c0.3,0,0.6-0.1,1-0.2c0.4-0.1,0.8-0.2,1.2-0.2c0.8-0.1,1.6,0,2.4,0.2c0.4,0.1,0.8,0.3,1.1,0.5
		c0.3,0.1,0.5,0.2,0.8,0.3c0.6,0.1,1.2-0.1,1.9-0.3c1.5-0.4,2.9-0.6,4.3-0.9c2.8-0.6,5.7-1.3,8.5-2.1c2.8-0.8,5.5-1.8,8.3-2.7
		c5.5-1.9,11-4,16.4-6.1c5.5-2.1,11-4,16.6-5.6c2.8-0.8,5.6-1.5,8.4-2.3l4.2-1.2l2.1-0.6l1.1-0.3c0.2-0.1,0.4-0.1,0.5-0.1
		c0.2,0,0.3-0.2,0.3-0.4c0,0.2-0.1,0.4-0.3,0.4c-0.2,0-0.4,0-0.5,0.1l-1,0.3l-2.1,0.6l-4.2,1.3c-2.8,0.9-5.6,1.7-8.4,2.5
		c-5.6,1.7-11.1,3.7-16.5,5.9c-5.4,2.2-10.8,4.4-16.3,6.4c-2.8,1-5.5,2-8.3,2.9c-2.8,0.9-5.7,1.6-8.5,2.3c-1.4,0.3-2.9,0.6-4.2,1
		c-0.7,0.2-1.5,0.4-2.4,0.3c-0.4,0-0.9-0.2-1.3-0.4c-0.3-0.1-0.6-0.3-0.9-0.4c-0.6-0.2-1.3-0.2-1.9-0.2c-0.3,0-0.6,0.1-1,0.2
		c-0.4,0.1-0.8,0.2-1.2,0.2s-0.8,0.1-1.1,0.1c-0.4,0-0.7,0.1-1.1,0c-0.9,0-1.6-0.3-2.3-0.5c-0.3-0.1-0.7-0.2-0.9-0.2l-1.1-0.1
		c-0.7-0.1-1.5-0.2-2.2-0.4c-1.5-0.3-2.9-0.6-4.3-0.9c-2.8-0.6-5.7-1.1-8.6-1.6c-2.9-0.5-5.7-0.9-8.6-1.3c-2.9-0.4-5.8-0.8-8.7-1.1
		c-3-0.3-5.8-0.9-8.7-1.3s-5.8-0.7-8.7-1.1c-1.5-0.2-2.9-0.5-4.4-0.8s-2.9-0.7-4.3-1c-2.8-0.7-5.7-1.3-8.5-1.9
		c-5.7-1.2-11.4-2.2-17.2-3.1c-5.8-1-11.5-2.2-17.2-3.4l-8.6-1.8c-2.8-0.6-5.7-1-8.6-1.7c-2.9-0.6-5.7-1.4-8.5-2l-1.1-0.2
		c-0.4-0.1-0.8-0.2-1.3-0.4c-0.8-0.4-1.6-1-2.1-1.7c-0.9-1.3-1.7-2.6-2.3-4.1c-0.3-0.7-0.6-1.4-0.8-2.1l-0.7-2.1
		c-0.4-1.4-0.8-2.8-1.2-4.2c-0.8-2.8-1.5-5.7-2.2-8.5l-2.1-8.5c-0.7-2.9-1.3-5.7-1.9-8.6c-0.6-2.9-1.1-5.7-1.8-8.5s-1.5-5.6-2.3-8.4
		s-1.6-5.7-2.3-8.5l-2.2-8.5c-1.5-5.6-2.9-11.3-4.2-17c-0.3-1.3-0.8-2.1-1.9-2.5c-0.5-0.2-1.1-0.7-1.3-1.3c-0.3-0.5-0.3-1-0.4-1.4
		c-0.1-0.8-0.2-1.7-0.1-2.5s0.4-1.7,0.7-2.4c0.3-0.7,0.7-1.5,1.2-2.2s1.3-1.4,2.2-1.7c0.9-0.4,1.8-0.4,2.7-0.4
		c0.9,0.1,1.6,0.2,2.3,0.3l2.2,0.4l4.3,0.8c1.4,0.3,2.9,0.5,4.3,0.7l4.3,0.6l8.7,1.2l8.7,1c2.9,0.3,5.8,0.7,8.7,0.9
		c2.9,0.2,5.7,0.2,8.7,0.3l8.8,0.2c2.9,0.1,5.9,0.1,8.8,0.3c5.8,0.4,11.7,0.8,17.5,1.3c2.9,0.2,5.8,0.4,8.7,0.5l2.3,0.1
		c0.7,0.1,1.4,0.2,2.1,0.2c1.4,0.1,2.9,0.2,4.3,0.2c2.9,0,5.8-0.1,8.7-0.2c2.9-0.2,5.9-0.1,8.8-0.2l8.8-0.1c0.7,0,1.5,0,2.3,0
		c0.8,0.1,1.7,0.3,2.4,0.9c0.4,0.3,0.7,0.7,0.9,1.1l0.5,1c0.3,0.7,0.6,1.4,0.8,2.2l1.8,8.6l0.9,4.3l1,4.2l4.1,17
		c0.7,2.8,1.2,5.7,1.7,8.6s1.3,5.7,1.8,8.6c1.2,5.7,2.1,11.5,3.2,17.2l1.6,8.6c0.2,0.7,0.5,1.3,0.7,2.1c0.2,0.7,0,1.5,0.1,2.2
		C190.4,482,190.9,483.4,191.4,484.8z"/>
	<path class="st2" d="M307,356.4c1.5-2.9,3.5-5.6,5.7-8c2.2-2.5,4.9-4.4,7-6.9s3.6-5.4,4-8.6c0.5-3.2-0.1-6.4-1.2-9.4
		c-0.6-1.5-1.2-3-2-4.4c-0.7-1.5-1.6-2.8-2.2-4.4c-1.4-3.1-2-6.5-2.2-9.8c-0.2-3.2-1-6.3-2.4-9.1c-0.4-0.7-0.7-1.4-1.2-2.1
		c-0.4-0.7-0.9-1.4-1.2-2.2c-0.8-1.5-1.5-3-2.2-4.4c-1.4-3-2.8-5.8-4.8-8.3c-1.9-2.4-4.4-4.6-7.1-5.9c-2.8-1.3-6-1.6-9.2-2.2
		l-9.7-1.6l-2.4-0.4c-0.4-0.1-0.8-0.1-1.2-0.2c-0.5-0.1-0.9-0.2-1.3-0.4c-1.7-0.6-3.1-1.4-4.4-1.6c-0.3-0.1-0.8-0.1-1.1-0.2
		c-0.4,0-0.8-0.1-1.2-0.1c-0.8-0.1-1.5-0.1-2.2,0s-1.4,0.2-2,0.5c-0.3,0.1-0.6,0.3-0.9,0.5c-0.1,0.1-0.3,0.2-0.4,0.3l-0.2,0.2l0,0
		c0,0-0.1,0.1-0.2,0.2s-0.3,0.1-0.4,0.2c-0.2,0.1-0.4,0.1-0.8,0.1c-0.6-0.1-0.5-0.1-0.6-0.2s-0.3-0.1-0.4-0.1
		c-0.3-0.1-0.6-0.1-0.9-0.1c-0.6,0-1.3,0.2-2.1,0.4c-1.5,0.5-3,1.1-4.5,1.7c-2.9,1.3-5.7,2.9-8.2,4.8c-1.3,1-2.5,2-3.7,3.1
		c-0.6,0.5-1.2,1.1-1.7,1.6s-0.9,1.1-1.4,1.8c-2,2.8-4.6,5.1-7.3,7.1c-0.6,0.5-1.4,1-1.9,1.5c-0.6,0.5-1.1,1-1.6,1.6
		c-1,1.1-1.8,2.4-2.5,3.8s-1.2,2.9-1.6,4.4c-0.4,1.5-0.8,3.2-1.2,4.8c-0.9,3.2-2.1,6.3-3.5,9.4c-0.7,1.5-1.5,3-2.3,4.4
		c-0.4,0.7-0.9,1.4-1.3,2.1c-0.4,0.7-0.9,1.3-1.2,2c-1.5,2.7-2.4,5.8-2.5,8.9c0,1.6,0.1,3.1,0.4,4.7c0.3,1.6,0.8,3,1.4,4.6
		c0.6,1.6,1.1,3.2,1.5,4.8c0.4,1.6,0.8,3.4,0.7,5.1s-0.5,3.4-1,5s-1.2,3.1-1.8,4.6s-1.1,3-1.3,4.5s0,3.1,0.2,4.7
		c0.2,1.7,0.4,3.2,0.8,4.8c0.4,1.6,0.8,3.1,1.3,4.7c0.5,1.5,1.1,3,1.7,4.5l0.5,1.1c0.2,0.4,0.3,0.8,0.4,1.2c0.2,0.8,0.3,1.7,0.2,2.6
		c-0.1,1.7-0.6,3.4-1.1,4.9s-0.9,3.1-1.1,4.7c-0.4,3.2,0,6.5,1.3,9.5c0.6,1.5,1.4,2.9,2.1,4.4c0.4,0.7,0.8,1.5,1.1,2.2
		s0.8,1.5,1.5,1.8c-0.8-0.3-1.3-1.1-1.6-1.8c-0.4-0.7-0.8-1.4-1.2-2.2c-0.8-1.4-1.6-2.8-2.3-4.3c-1.4-3-1.9-6.4-1.6-9.7
		c0.2-1.7,0.5-3.3,0.9-4.9c0.5-1.6,0.9-3.1,1-4.7c0-0.8-0.1-1.6-0.3-2.3c-0.1-0.4-0.2-0.7-0.4-1.1l-0.5-1.1c-0.7-1.5-1.3-3-1.9-4.6
		c-0.6-1.6-1.1-3.1-1.5-4.8c-0.4-1.6-0.6-3.3-0.9-4.9c-0.2-1.6-0.4-3.3-0.3-5.1c0.2-1.8,0.8-3.3,1.3-4.9c0.6-1.6,1.2-3.1,1.7-4.6
		s0.8-3,0.9-4.6c0.1-1.6-0.2-3-0.7-4.6c-0.4-1.5-0.9-3.1-1.5-4.6c-1.2-3.1-2.1-6.5-2-9.9c0-3.5,1-6.9,2.7-9.9
		c0.4-0.8,0.9-1.5,1.3-2.2c0.4-0.7,0.9-1.4,1.3-2c0.8-1.4,1.6-2.8,2.2-4.3c1.4-2.9,2.5-5.9,3.3-9c0.4-1.6,0.8-3.1,1.2-4.7
		s0.9-3.3,1.7-4.8c0.7-1.6,1.7-3.1,2.8-4.4c0.6-0.7,1.2-1.3,1.9-1.8c0.7-0.6,1.3-1,2-1.5c2.6-2,4.9-4.1,6.7-6.6
		c0.5-0.7,1-1.4,1.6-2.1c0.6-0.6,1.2-1.2,1.8-1.8c1.2-1.1,2.5-2.2,3.9-3.2c2.7-2,5.6-3.7,8.7-5.1c1.6-0.7,3.1-1.2,4.7-1.8
		c0.8-0.3,1.7-0.5,2.7-0.5c0.5,0,1,0,1.5,0.1c0.2,0.1,0.5,0.1,0.7,0.2c0.1,0,0.4,0.1,0,0c-0.2,0-0.2,0-0.2,0s0,0-0.1,0.1l-0.1,0.1
		l0.1-0.1l0.3-0.2c0.2-0.2,0.4-0.3,0.6-0.4c0.4-0.3,0.8-0.5,1.3-0.7c0.9-0.4,1.8-0.6,2.8-0.7c0.9-0.1,1.8,0,2.7,0.1
		c0.4,0,0.8,0.1,1.3,0.1c0.4,0.1,0.8,0.1,1.3,0.2c1.9,0.4,3.4,1.2,4.8,1.7c0.4,0.1,0.7,0.2,1,0.3c0.4,0.1,0.8,0.1,1.2,0.2l2.4,0.4
		l9.6,1.7c1.6,0.3,3.2,0.5,4.9,0.9c1.7,0.3,3.3,0.8,4.9,1.5c3.2,1.5,5.8,3.8,7.9,6.6c2.1,2.7,3.5,5.8,4.9,8.8c0.7,1.5,1.4,3,2.1,4.4
		c0.4,0.7,0.8,1.4,1.2,2.1c0.4,0.7,0.9,1.5,1.2,2.2c1.5,3.1,2.2,6.4,2.4,9.8c0.1,3.2,0.7,6.4,1.9,9.3c0.6,1.5,1.4,2.9,2.1,4.4
		s1.4,3,1.9,4.6s1,3.2,1.2,4.9c0.2,1.7,0.1,3.4-0.2,5c-0.6,3.3-2.3,6.4-4.5,8.9s-5,4.4-7.2,6.7C310.7,351,308.7,353.6,307,356.4z"/>
	<path class="st2" d="M246.7,280c-1.7-0.1-3.3-0.3-5-0.2c-1.6,0.1-3.1,0.9-4.2,2.1c-2.2,2.4-3.6,5.5-4.6,8.5c-0.6,1.6-1,3.1-1.5,4.7
		s-1.1,3.2-1.8,4.7c-1.3,3.1-2.8,6.1-4.5,9c-0.8,1.5-1.7,2.9-2.6,4.3c-0.9,1.4-1.6,2.7-2.2,4.2c-1.2,3-1.7,6.1-1.9,9.4
		c-0.2,3.2-0.1,6.5,0.1,9.8l1.2,9.8c0.4,3.3,0.8,6.6,0.9,10c0.1,3.4-0.1,6.8-0.5,10.1c-0.4,3.3-0.9,6.6-1.6,9.9
		c-0.7,3.3-1.6,6.5-2.4,9.7c-0.8,3.1-1,6.4-0.5,9.5c0.3,1.6,0.7,3.1,1.3,4.7s1.1,3.2,1.4,4.9c0.3,1.7,0.4,3.4,0.3,5.1
		c0,0.8,0.2,1.6,0.1,2.5c0,0.2,0,0.5-0.1,0.7l-0.2,0.6c-0.1,0.4-0.2,0.8-0.2,1.2c-0.2,1.6-0.1,3.3,0,4.9c0.1,1.7,0,3.4-0.4,5
		c0.7-3.3-0.5-6.6-0.2-10c0-0.4,0.1-0.9,0.2-1.3l0.1-0.6c0-0.2,0.1-0.4,0.1-0.5c0-0.8-0.2-1.6-0.3-2.4c-0.1-1.7-0.2-3.3-0.6-4.9
		c-0.3-1.6-0.8-3.1-1.5-4.6c-0.7-1.6-1.2-3.2-1.5-4.9c-0.7-3.4-0.6-6.9,0.2-10.2c0.7-3.3,1.5-6.5,2.1-9.7c0.7-3.2,1.1-6.5,1.4-9.7
		c0.3-3.3,0.5-6.5,0.4-9.8s-0.5-6.5-0.9-9.8l-1.1-10c-0.2-3.4-0.3-6.7-0.1-10.1s0.9-6.8,2.2-10c0.7-1.6,1.5-3.2,2.5-4.5
		c0.9-1.4,1.8-2.7,2.7-4.1c1.7-2.8,3.3-5.7,4.7-8.7c0.7-1.5,1.3-3,1.9-4.6c0.6-1.5,1.1-3.2,1.7-4.7c1.3-3.1,2.9-6.2,5.3-8.6
		c1.2-1.2,2.9-2,4.6-2S245,279.8,246.7,280z"/>
	<path class="st2" d="M189.3,513.9c0-0.6-0.1-1.3-0.3-1.9c-0.3-0.6-0.7-1.1-0.9-1.7c-0.5-1.2-0.8-2.5-1-3.7c-0.3-2.5-0.8-5-1.4-7.5
		c-1.2-5-2.5-9.9-3.8-14.8l-3.8-14.8l-4-14.8l-2-7.4c-0.6-2.5-1.3-4.9-1.9-7.5c-0.5-2.5-1-5.1-1.4-7.6s-0.9-5-1.5-7.5l-1.5-7.5
		l-1.6-7.5c-0.3-1.3-0.5-2.6-0.7-3.9l-0.1-1c0-0.3-0.1-0.5-0.1-0.7c-0.1-0.2-0.1-0.2-0.1-0.2s0,0-0.2,0c-0.1,0-0.3,0-0.5,0.1
		l-0.9,0.3c-0.6,0.2-1.3,0.4-1.9,0.5c-1.3,0.3-2.6,0.6-3.9,0.8c-5.2,0.8-10.4,0.6-15.6,0.1c-5.1-0.5-10.2-1.3-15.2-2
		s-10.1-1.2-15.1-1.5l-7.6-0.3c-2.6-0.1-5.1-0.2-7.6-0.1l-15.4-0.1l-7.7-0.1c-2.6-0.1-5.1-0.1-7.7-0.2c-5.1-0.2-10.2-0.6-15.3-1.1
		c-2.6-0.3-5.1-0.8-7.6-1.3c-1.2-0.3-2.5-0.5-3.8-0.7c-0.6-0.1-1.3-0.2-1.9-0.4c-0.3-0.1-0.6-0.2-0.9-0.1c-0.3,0.1-0.5,0.4-0.9,0.3
		c0.3,0,0.6-0.3,0.9-0.4c0.3-0.1,0.6,0.1,1,0.1c0.6,0.1,1.3,0.2,1.9,0.3c1.3,0.1,2.5,0.4,3.8,0.6c2.5,0.4,5,0.9,7.6,1.1
		c5.1,0.4,10.2,0.5,15.3,0.6h7.7l7.7-0.1l15.3-0.2c2.6-0.1,5.2-0.1,7.7,0c2.6,0.1,5.1,0.1,7.7,0.2c5.2,0.2,10.3,0.7,15.4,1.3
		c5.1,0.6,10.1,1.5,15.2,1.9c5,0.4,10.1,0.6,15-0.2c1.2-0.2,2.4-0.4,3.6-0.7c0.6-0.1,1.2-0.3,1.8-0.5l0.9-0.3
		c0.4-0.1,0.8-0.2,1.3-0.2s1.1,0.1,1.6,0.5s0.8,0.9,1,1.3s0.2,0.9,0.3,1.2l0.1,0.9c0.2,1.2,0.4,2.5,0.6,3.7l1.6,7.5l1.5,7.5
		c1.1,5,1.7,10.1,2.7,15.1c0.5,2.5,1.2,4.9,1.8,7.4l1.8,7.4l3.6,14.9l3.4,14.9c1.1,5,2.3,10,3.3,15c0.5,2.5,0.9,5,1.1,7.6
		c0.1,1.3,0.3,2.5,0.8,3.7c0.2,0.6,0.6,1.1,0.8,1.7C189.3,512.6,189.4,513.3,189.3,513.9z"/>
	<path class="st2" d="M229.6,315.9c-0.7,0-1.4,0.1-1.8,0.6c-0.2,0.2-0.4,0.6-0.5,0.9l-0.4,0.9c-0.6,1.2-1.1,2.5-1.6,3.8
		c-1,2.5-1.8,5.2-2.3,7.8c-1.2,5.3-1,10.8,0.2,16c0.3,1.3,0.7,2.6,1,3.9l0.6,1.9c0.2,0.7,0.4,1.4,0.6,2.1c0.7,2.8,1,5.6,1,8.4
		s-0.2,5.6-0.6,8.4c-0.4,2.8-1.1,5.5-1.8,8.2l-1.1,4c-0.4,1.3-0.7,2.6-0.8,3.9c-0.3,2.6-0.2,5.2,0.4,7.8c0.3,1.3,0.7,2.5,1.1,3.8
		c0.5,1.3,0.9,2.6,1.3,4c0.4,1.4,0.7,2.7,0.9,4.2s0.2,2.9,0,4.4c-0.2,1.4-0.5,2.8-1,4.2c-0.2,0.7-0.5,1.3-0.7,1.9s-0.4,1.3-0.5,1.9
		c-0.2,1.3-0.3,2.6-0.2,3.9s0.4,2.6,0.7,4c0.5,2.7,0.9,5.5,1,8.3c0.1,1.4,0.1,2.8,0.1,4.1c0,0.7-0.1,1.4-0.1,2.1
		c-0.1,0.7,0,1.4,0.5,1.9c-0.6-0.4-0.7-1.2-0.7-1.9c0-0.7,0-1.4-0.1-2.1c-0.1-1.4-0.2-2.7-0.4-4.1c-0.3-2.7-0.8-5.4-1.5-8
		c-0.3-1.3-0.8-2.7-0.9-4.1c-0.2-1.4-0.2-2.9,0-4.3c0.1-0.7,0.2-1.4,0.4-2.1s0.5-1.4,0.6-2c0.4-1.3,0.7-2.6,0.8-3.8
		c0.1-1.3,0.1-2.6-0.2-3.8c-0.2-1.3-0.6-2.6-1-3.9s-0.9-2.5-1.3-3.8c-0.5-1.3-1-2.7-1.3-4.1c-0.7-2.8-0.8-5.7-0.5-8.6
		c0.2-1.4,0.5-2.9,0.9-4.2l1.1-4c0.7-2.6,1.4-5.3,1.8-7.9c0.4-2.6,0.6-5.3,0.6-8s-0.2-5.4-0.8-7.9c-0.1-0.6-0.3-1.3-0.5-1.9
		c-0.2-0.7-0.4-1.3-0.6-2c-0.4-1.4-0.7-2.7-0.9-4.1c-0.5-2.8-0.8-5.6-0.7-8.4s0.5-5.6,1.3-8.3c0.7-2.7,1.7-5.3,2.9-7.8
		c0.6-1.2,1.2-2.5,1.9-3.7l0.5-0.9c0.2-0.3,0.4-0.6,0.6-0.9C228.1,315.8,228.9,315.8,229.6,315.9z"/>
	<path class="st2" d="M358.1,404.5c0.4,1.3,0.7,2.6,0.9,3.9l0.6,4l0.6,4c0.2,1.3,0.4,2.7,0.5,4c0.5,5.4,0.5,10.8,0.1,16.2
		c-0.2,2.7-0.5,5.4-0.8,8.1l-0.9,8l-0.9,8c-0.3,2.7-0.4,5.4-0.6,8l-0.6,8.1c-0.2,2.7-0.6,5.4-1.2,8.1s-1.4,5.3-2.5,7.9
		c-0.6,1.3-1.4,2.7-2.5,3.7c-1.1,1.1-2.3,1.9-3.7,2.5c-1.3,0.6-2.8,1-4.1,1.2c-1.4,0.2-2.8,0.4-4.2,0.4c-2.8,0.1-5.5-0.2-8.2-0.4
		l-16.1-1.4c-5.4-0.5-10.7-1.1-16.1-1.6c-2.7-0.3-5.4-0.6-8.1-1.2s-5.3-1.4-7.9-2.1s-5.2-1.3-7.8-1.9c-2.6-0.5-5.2-0.9-7.8-1.1
		c-1.3-0.1-2.6-0.1-3.9-0.1c-0.6,0-1.3,0.1-1.9,0.2c-0.3,0-0.6,0.1-0.9,0.2l-0.5,0.1l-0.2,0.1c-0.1,0-0.3,0.1-0.4,0.1
		c-1.1,0.1-1.7-0.3-2.2-0.3c-0.2,0-0.6,0-0.9,0h-1c-1.3,0-2.6,0.1-3.9,0.3c-2.6,0.3-5.2,0.9-7.7,1.6c-1.3,0.4-2.5,0.8-3.8,1.3
		s-2.6,0.9-4,1.1c-1.4,0.3-2.8,0.3-4.2,0.2c-1.3-0.1-2.6-0.1-3.9,0c-2.6,0.3-5.1,1-7.5,2.1c-1.2,0.5-2.4,1.2-3.5,1.8
		c-1.1,0.7-2.3,1.4-3.5,2c-0.6,0.3-1.2,0.6-1.9,0.8c-0.7,0.3-1.5,0.3-2.3,0c-0.7-0.3-1.3-0.9-1.6-1.7c-0.2-0.7-0.2-1.5,0-2.2
		c0.3-1.4,1.1-2.6,2-3.6s2-1.8,3.1-2.7c1.1-0.8,2.2-1.6,3.3-2.3c0.6-0.4,1.2-0.7,1.7-1.1s0.8-1,1.1-1.7c-0.2,0.6-0.5,1.3-1,1.7
		c-0.5,0.4-1.1,0.8-1.7,1.2c-1.1,0.8-2.2,1.6-3.2,2.4c-1,0.9-2.1,1.7-2.9,2.7c-0.9,1-1.5,2.2-1.7,3.4c-0.1,0.6-0.1,1.2,0.1,1.8
		c0.2,0.5,0.6,1,1.2,1.2c0.5,0.2,1.1,0.2,1.7-0.1c0.6-0.2,1.2-0.6,1.8-0.9c1.2-0.6,2.2-1.4,3.4-2.1s2.3-1.4,3.6-2
		c2.5-1.2,5.1-2.1,7.9-2.4c1.4-0.2,2.8-0.2,4.2-0.1c1.3,0.1,2.5,0,3.8-0.3s2.5-0.7,3.7-1.1c1.2-0.5,2.5-1,3.8-1.4
		c2.6-0.9,5.3-1.5,8-1.9c1.4-0.2,2.7-0.3,4.1-0.4h1c0.4,0,0.6,0,1.1,0c0.8,0.1,1.5,0.3,1.8,0.2c0,0,0,0,0.1,0l0.3-0.1
		c0.2,0,0.3-0.1,0.5-0.1c0.3-0.1,0.7-0.1,1.1-0.2c0.7-0.1,1.4-0.2,2.1-0.2c1.4-0.1,2.8,0,4.2,0c2.7,0.1,5.5,0.5,8.2,1
		s5.3,1.2,7.9,1.9c2.6,0.7,5.2,1.5,7.8,2c2.6,0.5,5.2,0.8,7.9,1.1c5.3,0.4,10.7,1,16.1,1.5l16.1,1.5c2.7,0.3,5.3,0.5,7.9,0.5
		c2.6-0.1,5.2-0.4,7.5-1.4s4.1-2.7,5-5c1-2.4,1.8-4.9,2.4-7.5c1.2-5.2,1.4-10.5,2-15.9c0.3-2.7,0.5-5.4,0.8-8.1l1-8l1-8
		c0.3-2.7,0.7-5.3,1-8c0.6-5.3,0.8-10.7,0.4-16.1c-0.1-2.7-0.5-5.3-0.8-8l-0.5-4C358.6,407.1,358.4,405.8,358.1,404.5z"/>
	<path class="st2" d="M259.4,267.2c0,1-0.3,2-0.8,2.8c-0.5,0.9-1.1,1.7-1.7,2.5c-1.2,1.6-2.3,3.2-3.4,4.8c-1.1,1.6-2.1,3.3-3,5.1
		c-0.9,1.7-1.6,3.6-2.2,5.4c-0.6,1.9-1.2,3.7-1.6,5.7l-0.1,0.7c0,0.2-0.2,0.7-0.4,1s-0.7,0.6-0.9,0.6c-0.2,0.1-0.4,0.2-0.6,0.3
		c-0.8,0.5-1.5,1.1-2.2,1.7c-1.4,1.3-2.5,2.9-3.6,4.5c-0.6,0.8-1.1,1.5-1.6,2.4s-1,1.8-1.9,2.6c-0.2,0.2-0.4,0.4-0.6,0.6l-0.2,0.1
		l-0.1,0.1l0.1-0.1c0.1-0.1,0,0,0,0.1c-0.1,0.3-0.3,0.8-0.5,1.4c-0.4,0.9-0.9,1.8-1.4,2.7c-0.3,0.4-0.5,0.9-0.8,1.3
		s-0.4,0.7-0.6,1.1c-0.3,0.8-0.6,1.7-0.7,2.6l-0.3,1.5l-0.1,0.7c0,0.2-0.1,0.4-0.1,0.7c-0.1,0.9-0.2,1.9-0.2,2.8c0,1,0,2-0.1,3
		l-0.1,0.7c0,0.2,0,0.4,0,0.6c0,0.4,0.1,0.9,0.1,1.3c0.1,0.9,0.4,1.8,0.6,2.8c0.2,1.1,0.4,2,0.6,3c0.4,1.9,0.7,3.9,1,5.9
		c0.1,1,0.2,1.9,0.4,2.8s0.5,1.8,0.8,2.7c0.6,1.8,1.5,3.5,2.4,5.3c1.7,3.5,3.7,6.9,5.8,10.2c2.1,3.4,4.2,6.7,6.3,10.1l0.8,1.2
		c0.2,0.4,0.5,0.7,0.8,1c0.6,0.6,1.3,1.2,2.1,1.7s1.6,1,2.5,1.5l0.6,0.4c0.1,0.1,0.2,0.1,0.2,0.1c0.1,0,0.2,0,0.4,0l0.7-0.1
		c3.8-0.7,7.4-2.1,10.8-3.9c1.7-0.9,3.4-1.9,5-3.1c1.6-1.1,3.2-2.3,4.8-3.5c3.2-2.3,6.5-4.5,9.2-7.3c1.4-1.4,2.6-2.9,3.5-4.6
		s1.5-3.6,1.6-5.5c0.1-0.9-0.1-1.9-0.1-3l0.1-3l0.3-5.9l0.1,5.9v3c0,1,0.3,1.9,0.3,3c-0.1,2-0.5,4.1-1.4,5.9c-0.9,1.9-2.1,3.5-3.5,5
		c-2.7,3-6,5.3-9.2,7.7c-1.6,1.2-3.1,2.4-4.7,3.6s-3.3,2.3-5.1,3.3c-3.5,2-7.3,3.6-11.3,4.4l-0.7,0.2c-0.3,0.1-0.6,0.1-1,0.1
		s-0.8-0.2-1.2-0.4l-0.7-0.4c-0.8-0.5-1.7-1-2.6-1.5c-0.9-0.6-1.8-1.2-2.5-2c-0.4-0.4-0.7-0.8-1-1.3l-0.8-1.3
		c-2.2-3.3-4.3-6.7-6.4-10c-2.1-3.4-4.2-6.8-6-10.4c-0.9-1.8-1.8-3.6-2.5-5.6c-0.3-1-0.6-2-0.9-3c-0.2-1-0.3-2.1-0.5-3
		c-0.2-1.9-0.6-3.9-0.9-5.8c-0.2-1-0.3-2-0.5-2.9s-0.5-1.9-0.6-3c-0.1-0.5-0.1-1.1-0.1-1.7c0-0.3,0-0.6,0-0.9l0.1-0.7
		c0.1-0.9,0.1-1.9,0.2-2.9c0-1,0.1-2,0.3-3.1c0-0.3,0.1-0.5,0.1-0.8l0.1-0.7l0.3-1.5c0.2-1,0.5-2,0.9-3.1c0.2-0.5,0.5-1,0.8-1.5
		c0.3-0.4,0.5-0.8,0.8-1.2c0.5-0.8,1-1.7,1.4-2.5c0.2-0.3,0.3-0.8,0.6-1.4c0.1-0.2,0.1-0.3,0.4-0.6c0-0.1,0.1-0.1,0.2-0.2h0.1
		l0.1-0.1c0.2-0.1,0.3-0.3,0.5-0.4c0.6-0.6,1.1-1.3,1.6-2.2c0.5-0.8,1.2-1.8,1.7-2.5c1.2-1.6,2.4-3.2,3.9-4.6
		c0.8-0.7,1.6-1.3,2.5-1.8c0.4-0.3,1.1-0.5,1.1-0.6c0.1-0.1,0.1-0.1,0.2-0.4l0.2-0.7c0.5-2,1.1-3.9,1.8-5.7c0.7-1.9,1.5-3.7,2.5-5.5
		s2.1-3.4,3.3-5s2.4-3.2,3.7-4.7c0.6-0.8,1.3-1.5,1.8-2.3C259,269.2,259.4,268.2,259.4,267.2z"/>
	<path class="st2" d="M309.9,359.6c0.4,0.4,0.8,1,1,1.6s0.3,1.2,0.4,1.8c0.1,1.2,0.3,2.4,0.5,3.6l1,7.3c0.2,2.5,0.4,4.9,0.5,7.4
		s0,4.9-0.1,7.4c-0.1,1.2-0.2,2.5-0.3,3.7l-0.5,3.7c-0.3,2.4-0.7,4.9-1.1,7.3c-0.4,2.5-0.9,4.9-1.6,7.3s-1.4,4.8-2.6,7.2
		c-0.6,1.2-1.3,2.3-2.2,3.3c-0.8,1-2,2.1-3.5,2.5c-1.5,0.5-3.1,0.3-4.4-0.2s-2.5-1.1-3.5-2c-0.5-0.4-1-0.8-1.5-1.3l-1.3-1.3
		c-0.9-0.9-1.7-1.8-2.6-2.7c-1.7-1.8-3.3-3.9-4.5-6.1c-1.1-2.1-2.6-4-3.9-6.2c-0.6-1.1-1.2-2.2-1.7-3.3l-1.7-3.3l-3.3-6.6l-1.6-3.3
		c-0.3-0.5-0.6-1.1-1.1-1.4c-0.4-0.4-1-0.6-1.6-0.7c0.6,0,1.2,0.2,1.8,0.5c0.5,0.4,0.9,0.9,1.3,1.4l1.9,3.2l3.8,6.4l1.9,3.2
		c0.6,1.1,1.2,2.2,1.9,3.1c1.3,2,2.9,3.9,4.2,6.1c1.2,2,2.7,3.9,4.4,5.6c0.8,0.9,1.7,1.7,2.6,2.6l1.3,1.3c0.4,0.4,0.9,0.8,1.3,1.1
		c1.8,1.3,4,2.3,5.8,1.7c0.9-0.3,1.6-0.9,2.3-1.8c0.7-0.9,1.3-1.8,1.9-2.9c1.1-2,1.8-4.4,2.5-6.7c0.7-2.3,1.1-4.7,1.6-7.1
		s0.8-4.8,1.2-7.2c0.4-2.5,0.8-4.8,1-7.2c0.4-4.9,0.5-9.7,0.3-14.6l-0.5-7.3c-0.1-1.2-0.2-2.5-0.2-3.7
		C310.9,361.8,310.7,360.5,309.9,359.6z"/>
	<path class="st2" d="M433.2,298.9c0.5-0.1,1,0.1,1.3,0.5l1,1l2,2.1l4,4.1c1.4,1.4,2.7,2.8,4,4.1c1.4,1.3,2.9,2.4,4.6,3.3
		c0.8,0.4,1.8,0.7,2.6,1.3c0.8,0.5,1.6,1.1,2.4,1.6c0.8,0.6,1.6,1,2.4,1.5s1.6,1.1,2.4,1.6c1.6,1.2,3,2.4,4.5,3.6s3,2.4,4.5,3.5
		c1.6,1.1,3.2,2.2,4.8,3.2c1.6,1,3.3,2.1,4.8,3.3c3.1,2.4,5.9,5.1,8.5,7.9c2.7,2.8,5.3,5.6,7.8,8.6s4.8,6,7.2,9.1
		c2.3,3,4.6,6.2,7,9.1s5.2,5.6,7.8,8.4c5.3,5.6,10.7,11,16.1,16.5c2.7,2.8,5.3,5.6,7.9,8.5c2.6,2.9,5.1,5.9,7,9.4
		c1,1.8,1.9,3.5,2.4,5.5s0.6,4.2,0.2,6.2c-0.2,1-0.4,2-0.7,3c-0.4,1-1,2.1-1.8,2.9c-1.7,1.6-3.9,2.3-5.7,2.6l-11.3,2.6
		c-3.8,0.8-7.5,1.8-11.3,2.5s-7.6,1.3-11.4,1.7l-5.7,0.7c-1.9,0.2-3.8,0.6-5.7,0.9c-3.8,0.7-7.7,1.2-11.6,1.4
		c-3.9,0.2-7.8,0.2-11.6,0l-5.7-0.3l-2.9-0.1l-1.4-0.1h-0.7c-0.3,0-0.6-0.1-0.9-0.1c-0.6-0.1-1.1-0.3-1.5-0.5l-0.7-0.3
		c-0.4-0.1-0.7-0.4-1-0.8c-0.5-0.7-0.5-1.4-0.6-1.8c0-0.2-0.1-0.3-0.1-0.5c-0.1-0.2-0.1-0.4-0.2-0.6c-0.3-0.7-0.8-1.5-1.4-2.1
		s-1.4-1.3-2-2c-2.7-2.9-4.9-6.2-6.9-9.5c-1-1.7-1.9-3.2-3.1-4.7s-2.4-2.8-3.8-4s-2.9-2.3-4.5-3.3s-3.2-2-4.9-3
		c-3.3-1.9-6.7-3.6-10.3-4.7c-3.7-1.1-7.3-2.3-11-3.4c-1.8-0.5-3.7-0.9-5.6-1.3s-3.7-0.7-5.6-1c-1.9-0.2-3.8-0.4-5.6-0.3
		c-0.9,0-1.9,0.1-2.8,0.2s-1.9,0.2-2.8,0.4c-0.4,0.1-0.9,0.2-1.3,0.4c-0.2,0.1-0.4,0.2-0.6,0.3l-0.2,0.1c-0.1,0-0.2,0.1-0.2,0.1
		c-0.2,0.1-0.3,0.1-0.5,0.1c-1.4,0-2.1-1.1-2.7-1.8c-0.6-0.8-1.1-1.6-1.7-2.3c-0.1-0.1-0.4-0.4-0.5-0.8c-0.1-0.3-0.1-0.6-0.1-0.9
		c0-0.5,0.2-1,0.3-1.5l0,0c0.1-0.2,0.3-0.3,0.5-0.3c2.9,0.4,5.8,0.2,8.8,0.6c1.5,0.1,2.9,0.5,4.4,0.7c1.4,0.2,2.9,0.3,4.3,0
		c2.8-0.6,5.5-1.9,7.8-3.8c1.1-0.9,2.1-2.1,3-3.2l1.5-1.7c0.5-0.5,0.9-1.2,0.9-1.9c0,0.7-0.4,1.4-0.9,2l-1.4,1.7
		c-0.9,1.1-1.9,2.3-3,3.3c-2.2,2-4.9,3.4-7.9,4.1c-1.5,0.3-3,0.2-4.5,0.1c-1.5-0.2-2.9-0.5-4.4-0.6c-2.9-0.2-5.9,0-8.9-0.4l0.5-0.3
		c-0.1,0.5-0.2,0.9-0.2,1.3c0,0.2,0,0.4,0.1,0.5c0.1,0.2,0.1,0.2,0.3,0.4c0.6,0.8,1.2,1.6,1.8,2.3c0.3,0.4,0.6,0.7,0.9,1
		c0.3,0.2,0.7,0.4,1,0.4c0.1,0,0.1,0,0.2,0h0.1l0.2-0.1c0.2-0.1,0.5-0.2,0.7-0.3c0.5-0.2,1-0.4,1.4-0.5c1-0.3,2-0.4,2.9-0.5
		c1-0.1,1.9-0.2,2.9-0.3c2-0.1,3.9,0,5.9,0.2c1.9,0.2,3.8,0.6,5.7,0.9c1.9,0.4,3.8,0.8,5.7,1.3c3.8,1,7.4,2.2,11.1,3.2
		c3.8,1.1,7.3,2.8,10.7,4.7c1.7,0.9,3.3,1.9,5,2.9s3.3,2.2,4.8,3.5s2.9,2.7,4.2,4.2c1.3,1.5,2.4,3.2,3.3,4.9c2,3.2,4.1,6.4,6.7,9.1
		c0.6,0.7,1.3,1.3,2,2.1c0.7,0.8,1.3,1.7,1.8,2.7c0.1,0.3,0.2,0.5,0.3,0.8c0.1,0.2,0.2,0.6,0.2,0.9c0.1,0.5,0.2,0.9,0.2,0.9
		s0,0,0.1,0.1l0.6,0.2c0.5,0.2,0.9,0.3,1.2,0.4c0.2,0,0.3,0.1,0.5,0.1h0.7l1.4,0.1l2.9,0.1l5.8,0.2c7.6,0.4,15.2,0,22.7-1.5
		c1.9-0.3,3.8-0.7,5.7-0.9l5.7-0.8c3.8-0.5,7.6-1.1,11.3-1.8c3.7-0.7,7.5-1.6,11.2-2.4l11.2-2.5c1-0.2,1.8-0.4,2.6-0.7
		c0.8-0.3,1.5-0.7,2-1.3c0.5-0.5,1-1.2,1.2-2c0.3-0.8,0.5-1.7,0.6-2.6c0.3-1.8,0.3-3.5-0.2-5.2c-0.4-1.7-1.3-3.4-2.2-5
		c-1.8-3.2-4.2-6.2-6.7-9c-2.5-2.9-5.1-5.7-7.8-8.4c-5.3-5.6-10.7-11-16-16.6c-2.6-2.8-5.3-5.5-7.8-8.6s-4.6-6.2-6.9-9.3
		c-2.3-3.1-4.6-6.2-7-9.1s-5-5.8-7.6-8.6c-2.6-2.8-5.3-5.5-8.3-7.8c-1.5-1.2-3-2.2-4.6-3.3c-1.6-1.1-3.2-2.2-4.7-3.3
		c-1.6-1.1-3.1-2.4-4.5-3.6c-1.5-1.3-2.9-2.5-4.4-3.7c-0.8-0.6-1.5-1.1-2.3-1.6s-1.7-1-2.4-1.6c-0.8-0.6-1.5-1.1-2.3-1.6
		s-1.7-0.8-2.5-1.3c-1.7-0.9-3.3-2.1-4.7-3.5c-1.4-1.4-2.6-2.8-3.9-4.2l-3.9-4.2l-2-2.1l-1-1.1C434.1,299.1,433.7,298.8,433.2,298.9
		z"/>
	<path class="st2" d="M190.5,478.8c0.7-0.3,1.1-1,1.6-1.6c0.2-0.3,0.4-0.6,0.7-0.9s0.6-0.5,0.9-0.8c1.2-1,2.5-1.8,3.8-2.6
		c2.7-1.5,5.8-2.4,8.8-3s6.1-1,9.2-1.1c3.1-0.1,6.2,0.1,9.2,0.3c3.1,0.2,6.1,0.7,9.1,0.9c1.5,0.1,3,0.2,4.5,0.3
		c1.5,0,3.1,0.2,4.6,0.3l4.5,0.5c1.5,0.2,3,0.2,4.5,0.3l9.1,0.5c3.1,0.2,6.1,0.4,9.2,0.7l4.6,0.4c1.5,0.1,3,0.2,4.5,0.3
		c6.1,0.2,12.2,0.1,18.2,0.3c3,0,6.1-0.1,9.2,0c1.5,0,3.1,0.1,4.6,0.2c1.5,0,3,0,4.6,0c1.5,0,3.1,0.2,4.6,0.7
		c1.4,0.4,2.9,0.6,4.4,0.9s3,0.6,4.5,1.2c0.7,0.3,1.4,0.7,2,1.2s1.1,1.1,1.8,1.4c-0.7-0.3-1.3-0.8-1.9-1.3s-1.3-0.7-2-1
		c-1.4-0.5-2.9-0.7-4.4-0.9c-1.5-0.2-3-0.3-4.6-0.7c-1.4-0.3-2.9-0.4-4.4-0.4s-3,0.2-4.6,0.2s-3,0-4.6,0c-3,0-6.1,0.2-9.1,0.3
		l-9.2,0.1c-3.1,0-6.1,0.1-9.2,0c-1.5,0-3.1-0.1-4.6-0.2L270,475c-3-0.2-6.1-0.5-9.1-0.6l-9.1-0.6c-1.5-0.1-3.1-0.2-4.6-0.3
		c-1.5-0.2-3.1-0.4-4.6-0.6s-2.9-0.3-4.5-0.4c-1.5-0.1-3.1-0.2-4.6-0.4c-3.1-0.3-6.1-0.9-9.1-1.2c-3-0.3-6-0.6-9-0.6s-6,0.2-9,0.7
		c-3,0.4-5.9,1.1-8.7,2.4c-1.4,0.6-2.7,1.4-3.9,2.3c-0.6,0.4-1.2,0.9-1.7,1.5C191.7,477.9,191.2,478.5,190.5,478.8z"/>
	<path class="st2" d="M264.4,383.6c0.6,1.5,0.3,3.1,0.4,4.6s0.2,3.1,0.2,4.7c0,3.1-0.2,6.2-0.5,9.3c-0.5,6-0.1,12.1,2.4,17.5
		c0.6,1.3,1.4,2.8,2,4.2l1.8,4.3c1.2,3.1,1.6,6.4,1.3,9.6c-0.1,1.6-0.4,3.1-0.7,4.7c-0.3,1.5-0.6,3-0.7,4.5s0,3,0.2,4.5
		c0.1,0.7,0.3,1.5,0.5,2.2c0.1,0.4,0.2,0.7,0.4,1.1c0.1,0.4,0.1,0.8,0.2,1.2c-0.1-0.4-0.2-0.8-0.4-1.1c-0.2-0.3-0.4-0.7-0.6-1
		c-0.4-0.7-0.6-1.4-0.9-2.2c-0.5-1.5-0.7-3.1-0.8-4.7c-0.1-1.6,0.1-3.2,0.3-4.7c0.2-1.5,0.4-3,0.4-4.5c0.1-3-0.3-5.9-1.5-8.5
		l-1.8-4.2c-0.6-1.4-1.3-2.6-2-4.1c-1.3-2.9-2.1-6.1-2.4-9.3c-0.3-3.2-0.1-6.4,0.3-9.4c0.4-3.1,0.9-6.1,1.2-9.1
		c0.2-1.5,0.3-3,0.3-4.6C264.2,386.6,264.7,385.1,264.4,383.6z"/>
	<path class="st2" d="M253.9,293.5c3.1,1.2,5.8,3.3,7.9,5.9c0.5,0.6,1,1.4,1.5,2s1,1.2,1.6,1.7c1.1,1,2.4,1.9,3.9,2.5
		s3.1,1.4,4.5,2.4c0.7,0.5,1.4,1.1,2,1.9s1,1.7,1.3,2.6s0.3,1.9,0.4,2.7c0,0.8,0.1,1.6,0.1,2.4c0.1,0.8,0.1,1.6,0.3,2.3
		c0.1,0.8,0.3,1.5,0.6,2.1c0.5,1.2,1.5,2.2,2.8,2.9c1.3,0.7,2.8,1.2,4.3,1.7c0.8,0.2,1.5,0.5,2.3,0.7s1.5,0.4,2.4,0.7
		c1.7,0.6,3.3,1.6,4.5,2.9s2.1,2.8,2.8,4.4c0.7,1.5,1.3,3.1,1.5,4.9c0.1,1.8-0.2,3.4-0.4,5c-0.1,0.8-0.2,1.6-0.3,2.4
		c-0.2,0.8-0.4,1.6-0.6,2.4c0.1-0.8,0.2-1.6,0.3-2.4c0-0.8,0-1.6,0-2.5c0.1-1.6,0.2-3.3-0.1-4.8c-0.3-1.5-1-2.9-1.8-4.3
		s-1.6-2.7-2.7-3.7s-2.4-1.8-3.8-2.2c-0.7-0.2-1.5-0.4-2.3-0.6s-1.6-0.4-2.4-0.6c-1.6-0.5-3.2-1-4.8-1.9c-1.6-0.8-3.1-2.2-3.9-4
		c-0.4-0.9-0.6-1.8-0.7-2.7c-0.1-0.9-0.2-1.7-0.3-2.6c0-0.8-0.1-1.7-0.1-2.5s-0.1-1.5-0.2-2.2c-0.3-1.4-1.1-2.4-2.3-3.4
		c-1.2-0.9-2.5-1.7-4-2.4c-1.5-0.8-3-1.9-4.1-3.1c-0.6-0.6-1.1-1.3-1.6-2s-0.8-1.4-1.3-2.1C259.1,297.5,256.7,295.2,253.9,293.5z"/>
	<path class="st2" d="M256,384.8c0.1,0.7-0.2,1.5-0.5,2.2s-0.7,1.3-0.9,2c-0.5,1.3-0.9,2.7-1.2,4.1c-0.5,2.8-0.8,5.7-0.7,8.6
		s0.4,5.8,0.8,8.7c0.4,2.9,0.6,5.9,0.8,8.9c0.1,3,0.1,5.9-0.1,8.9c-0.2,3-0.4,5.8,0,8.6c0.3,3,0.2,6,0.3,8.9c0,1.5,0.1,2.9,0.1,4.4
		c0,0.7-0.1,1.5-0.2,2.2c-0.1,0.7-0.3,1.5-0.4,2.2c0.3-3-0.3-5.8-0.7-8.7c-0.3-2.9-0.5-5.9-1-8.7c-0.1-0.7-0.3-1.5-0.3-2.2
		c-0.1-0.8-0.1-1.5-0.1-2.3c0-1.5,0-3,0-4.4c0-2.9,0-5.8-0.1-8.7c-0.1-2.9-0.3-5.8-0.6-8.7c-0.2-2.9-0.5-5.9-0.4-8.9
		c0.1-1.5,0.2-3,0.4-4.5c0.3-1.5,0.6-2.9,1-4.4c0.4-1.4,1-2.9,1.8-4.2c0.4-0.7,0.8-1.3,1.2-1.9C255.5,386.2,255.9,385.5,256,384.8z"
		/>
	<path class="st2" d="M320.8,341.2c0.8,0.4,1.6,0.2,2.5,0.1s1.7-0.2,2.6-0.2c1.7-0.1,3.5,0.1,5.2,0.5c3.4,0.7,6.7,2.2,9.6,4.2
		c2.9,1.9,5.5,4.3,7.9,6.8c2.3,2.6,4.4,5.4,6.3,8.2c1.9,2.9,3.6,5.8,5.4,8.7c1.7,2.9,3.4,5.8,5.3,8.6c1.9,2.8,4,5.3,6.5,7.5
		c1.2,1.1,2.5,2.2,3.8,3.3c0.6,0.5,1.3,1.2,1.9,1.6c0.7,0.4,1.5,0.6,2.4,0.5c-0.8,0.1-1.7,0.2-2.6-0.2c-0.8-0.5-1.4-1-2.2-1.4
		c-1.4-1-2.8-1.9-4.2-2.9c-1.4-1-2.7-2.2-3.9-3.4c-1.2-1.2-2.3-2.6-3.4-3.9c-4.2-5.5-7.4-11.5-11.2-17.1
		c-3.7-5.6-7.9-10.8-13.2-14.8c-2.6-2-5.6-3.6-8.7-4.6c-1.6-0.5-3.2-0.8-4.9-1c-0.8-0.1-1.7-0.1-2.5-0.1
		C322.5,341.8,321.6,341.8,320.8,341.2z"/>
	<path class="st2" d="M431.5,394.3c1.4-0.3,2.8-0.3,4.2-0.1c1.4,0.2,2.7,0.8,4,1.5s2.4,1.5,3.5,2.3s2.3,1.7,3.2,2.8
		c1.9,2.1,3.3,4.7,4.4,7.3c0.6,1.3,1.2,2.5,1.7,3.8l0.9,1.9l0.4,0.9l0.2,0.5c0.1,0.1,0.1,0.2,0.2,0.3c0.1,0.2,0.2,0.2,0.2,0.2
		c0.1,0,0.3,0,0.5-0.1c0.6-0.2,1.3-0.5,2-0.7c1.4-0.4,2.8-0.7,4.2-1c2.8-0.5,5.6-0.8,8.3-1.2l8.3-1c2.8-0.4,5.4-0.7,7.1-2.3
		c0.8-0.7,0.9-1.4,0.5-2.4c-0.2-0.5-0.5-1-0.9-1.5s-0.8-1.1-1.3-1.6c-1.7-2.1-3.6-4-5.7-5.7c-4.1-3.5-9.1-5.8-14.4-7.2
		c-2.6-0.7-5.4-1.1-8.1-1.5s-5.5-0.5-8.2-0.4c-2.8,0-5.5,0.1-8.2,0.6s-5.2,1.7-7.9,2.6c2.5-1.1,4.9-2.6,7.7-3.3
		c2.7-0.7,5.6-1,8.3-1.2c2.8-0.2,5.6-0.2,8.4,0s5.6,0.6,8.4,1.2c5.6,1.2,10.9,3.7,15.4,7.3c2.3,1.8,4.3,3.8,6.1,6
		c0.5,0.6,0.9,1.1,1.3,1.7s0.9,1.3,1.2,2c0.3,0.8,0.5,1.8,0.3,2.8s-0.8,1.8-1.4,2.4c-1.3,1.1-2.7,1.8-4.2,2.2
		c-1.5,0.4-2.9,0.5-4.3,0.7l-8.3,1c-2.8,0.3-5.6,0.6-8.2,1c-1.3,0.2-2.7,0.5-4,0.8c-0.7,0.2-1.2,0.4-2,0.6c-0.4,0.1-0.9,0.2-1.5,0.1
		s-1.1-0.6-1.4-1c-0.1-0.2-0.2-0.4-0.3-0.6l-0.2-0.5l-0.4-1l-0.8-1.9c-0.5-1.3-1.1-2.6-1.6-3.9c-1-2.6-2.2-5-3.9-7.1
		c-0.8-1.1-1.8-1.9-2.9-2.8s-2.1-1.8-3.3-2.5C437.1,394.7,434.3,393.9,431.5,394.3z"/>
	<path class="st2" d="M262.4,389.7c-1.3,5.5-3.7,10.9-3.5,16.3c0.1,2.7,0.5,5.5,0.9,8.3l1.2,8.4c0.4,2.8,1,5.5,1.4,8.3
		c0.6,2.9,0.7,5.9,0.2,8.8c-0.1,0.7-0.3,1.4-0.4,2.2c-0.2,0.7-0.3,1.3-0.4,2c-0.2,1.3-0.3,2.7-0.3,4.1s0.2,2.8,0.5,4.1
		c0.3,1.4,0.7,2.7,1.1,4.1c-0.6-1.3-1.3-2.5-1.8-3.9s-0.8-2.8-1-4.2c-0.2-1.4-0.2-2.9-0.1-4.4c0-0.7,0.1-1.5,0.3-2.2
		c0.1-0.7,0.2-1.4,0.3-2c0.2-2.7,0.1-5.4-0.6-8.1c-0.5-2.8-1.1-5.6-1.6-8.4l-1.1-8.5c-0.3-2.8-0.7-5.6-0.5-8.6c0.1-3,0.9-5.8,2-8.5
		C260.1,394.9,261.2,392.3,262.4,389.7z"/>
	<path class="st2" d="M272.3,374.3c-0.5,2.9-1.6,5.6-2.6,8.3c-1,2.7-1.4,5.5-1.9,8.4s-0.8,5.7-0.6,8.5c0.2,2.8,0.6,5.7,1,8.6
		c0.9,5.7,2,11.4,4.4,16.5c1.2,2.6,2.6,5.2,3.6,8c1.1,2.8,2,5.5,2.9,8.3c0.8,2.8,2,5.2,3.3,7.8l0.5,1l0.1,0.2l0.1,0.1
		c0.1,0.2,0.1,0.3,0.1,0.4v0.2c0,0,0,0-0.1-0.2c-0.1-0.1-0.2-0.3-0.4-0.4c-0.1,0,0,0,0,0l0.1,0.1c0.7,0.4,1.4,0.9,2,1.5
		c1.2,1.1,2.1,2.3,3,3.3c0.5,0.5,0.9,1,1.4,1.4s1.1,0.9,1.7,1.3c1.1,0.8,2.3,1.5,3.6,1.9c1.3,0.5,2.6,0.7,3.9,0.8
		c0.6,0,1.4-0.1,2.1-0.1l2.2-0.2l4.4-0.4c1.6-0.1,3.1,0.1,4.5,0.3c1.4,0.1,2.9,0.4,4.3,0.6c0.7,0.1,1.4,0.2,2.1,0.2
		c0.8,0,1.5,0.1,2.2,0.2s1.4,0.1,2.1,0c0.2,0,0.3,0,0.6-0.1c0.3,0,0.5,0.1,0.8,0.2c0.4,0.3,0.7,0.6,0.9,1c0.2,0.4,0.3,0.8,0.2,1.3
		c0,0.5-0.1,0.7-0.2,1.1l-0.5,2.1c-0.6,2.8-1.4,5.7-2.5,8.4c0.8-2.8,1.4-5.6,1.8-8.5l0.3-2.2c0-0.3,0.1-0.8,0.1-1
		c0-0.3-0.1-0.6-0.2-0.8c-0.1-0.2-0.3-0.5-0.5-0.5c-0.2-0.1-0.3-0.1-0.8,0c-0.8,0.1-1.5,0.1-2.3,0.1c-0.7,0-1.5-0.1-2.2-0.1
		c-0.8,0-1.5,0-2.2-0.1c-1.5-0.1-2.9-0.3-4.3-0.4c-1.5-0.1-2.9-0.2-4.2-0.1L303,462l-2.2,0.3c-0.7,0.1-1.4,0.2-2.3,0.2
		c-1.6,0-3.2-0.3-4.6-0.8c-1.5-0.5-2.8-1.3-4.1-2.1c-0.6-0.4-1.2-0.9-1.8-1.3c-0.6-0.5-1.2-1-1.7-1.6c-1-1.1-1.9-2.3-2.9-3.2
		c-0.5-0.4-1-0.8-1.5-1.1l-0.1-0.1l-0.1-0.1c-0.3-0.2-0.4-0.4-0.5-0.5c-0.1-0.3-0.1-0.4-0.2-0.5v-0.1c0,0,0,0.1,0.1,0.1l-0.1-0.1
		l-0.1-0.2l-0.5-1c-0.7-1.3-1.3-2.6-2-4c-0.6-1.3-1.2-2.8-1.6-4.2c-0.9-2.8-1.8-5.5-2.8-8.2s-2.3-5.2-3.5-7.9
		c-0.6-1.4-1.2-2.8-1.6-4.2c-0.4-1.4-0.8-2.9-1.2-4.3c-0.7-2.9-1.1-5.8-1.4-8.7c-0.3-2.9-0.6-5.8-0.7-8.8c0-1.5,0-3,0.2-4.5
		s0.5-2.9,0.8-4.3c0.6-2.8,1.2-5.8,2.4-8.5C270.3,379.7,271.6,377.1,272.3,374.3z"/>
	<path class="st2" d="M258.4,490.8c0,0.3-0.1,0.7-0.3,1c-0.2,0.3-0.5,0.5-0.8,0.6c-0.6,0.3-1.2,0.6-1.8,0.8c-1.2,0.5-2.4,1-3.7,1.5
		c-2.5,1-4.9,1.9-7.5,2.7c-2.5,0.8-5,1.6-7.6,2.3c-2.6,0.7-5,1.4-7.5,2.2c-5,1.5-9.9,3.3-14.9,4.9c-2.5,0.8-5.1,1.5-7.6,2.2l-3.8,1
		c-1.3,0.3-2.6,0.6-3.8,1c0.6-0.3,1.2-0.6,1.8-0.9l1.8-0.8l3.6-1.5c2.4-1,4.9-1.9,7.3-2.9c4.9-2,9.8-3.9,14.8-5.5
		c5.1-1.6,10.2-2.6,15.3-4c2.5-0.7,5.1-1.3,7.6-2l3.8-1l1.9-0.5c0.3-0.1,0.6-0.2,0.8-0.4C258.2,491.4,258.3,491.1,258.4,490.8z"/>
	<path class="st2" d="M232.3,352.1c0.2,3.9,0.2,7.8,0.5,11.7c0.1,2.1-0.4,4-0.6,5.9c0,0.5-0.1,0.9-0.1,1.4s0,1-0.1,1.5
		c-0.1,1-0.2,2-0.4,3c-0.3,2-0.8,3.9-1.2,5.8s-0.7,3.8-0.7,5.6c0,1.8,0.4,3.7,0.8,5.6c0.3,1.9,0.9,3.5,1.8,5.1
		c1.1,1.7,2,3.5,2.8,5.3c0.9,1.8,1.7,3.5,2.5,5.4c0.9,2.1,0.9,4.3,0.8,6.3c-0.1,1-0.1,2-0.2,2.9v1.5c0,0.5-0.1,1.1-0.2,1.6
		c-0.4,2.1-1.4,3.9-2.4,5.7c-1,1.7-2,3.3-2.8,5.1c-0.8,1.7-1.5,3.5-2,5.4c-0.1,0.5-0.2,0.9-0.3,1.4s-0.2,0.9-0.2,1.4s0,1-0.2,1.5
		c-0.1,0.5-0.4,0.9-0.8,1.2c0.3-0.4,0.6-0.8,0.6-1.3c0.1-0.5,0-0.9,0-1.4c-0.1-0.5,0-1,0-1.5c0.1-0.5,0.1-1,0.2-1.5
		c0.3-2,0.8-3.9,1.5-5.8c1.4-3.8,3.9-7,4.4-10.6c0.1-0.4,0.1-0.9,0.1-1.3v-1.4c0-1,0-2,0.1-3c0-1.9-0.1-3.7-0.8-5.3
		c-0.8-1.7-1.7-3.5-2.5-5.2c-0.9-1.7-1.7-3.4-2.8-5c-1.1-1.8-1.8-3.9-2.1-5.9c-0.4-1.9-0.8-3.9-0.7-6c0-2.2,0.5-4.1,0.9-6
		s1-3.8,1.4-5.7c0.2-0.9,0.4-1.9,0.5-2.8c0.1-0.5,0.1-0.9,0.1-1.4s0.1-1,0.2-1.5c0.4-2,0.9-3.8,1-5.7
		C231.5,359.9,231.9,355.9,232.3,352.1z"/>
	<path class="st2" d="M307.2,314.2c-0.5-1.4-1.1-2.8-1.8-4.1c-0.1-0.2-0.2-0.3-0.3-0.6c-0.1-0.3-0.1-0.5-0.1-0.6
		c0-0.4-0.1-0.7-0.2-1.1c-0.1-0.7-0.2-1.5-0.4-2.2c-0.6-2.9-1.5-5.7-2.7-8.5c-0.3-0.7-0.6-1.4-0.9-2s-0.7-1.2-1-1.8
		c-0.8-1.1-1.8-2-3-2.8s-2.4-1.4-3.8-1.9c-1.3-0.5-2.8-0.9-4.2-1.4c-1.5-0.5-3-1.1-4.4-1.9c-1.4-0.9-2.6-2-3.7-3.1s-2.1-2.4-3-3.6
		l-0.7-1c-0.2-0.3-0.4-0.6-0.6-0.9c-0.4-0.6-0.9-1.1-1.4-1.6c-2-2-4.7-3.2-7.5-3.8c-1.4-0.3-2.9-0.3-4.4-0.2c-0.7,0-1.5,0.2-2.3,0.2
		s-1.6-0.3-2.1-0.8c0.6,0.4,1.4,0.5,2.1,0.4s1.4-0.3,2.2-0.5c1.5-0.3,3.1-0.4,4.6-0.3c3.1,0.3,6.2,1.4,8.7,3.5
		c0.6,0.5,1.2,1.1,1.7,1.7c0.3,0.3,0.5,0.6,0.7,1l0.7,0.9c0.9,1.2,1.8,2.3,2.9,3.3c1,1,2.1,2,3.3,2.7c1.2,0.7,2.5,1.2,3.9,1.6
		c2.8,0.9,5.9,1.8,8.6,3.7c1.3,0.9,2.5,2.1,3.4,3.5c0.4,0.7,0.9,1.4,1.2,2.2c0.3,0.7,0.5,1.4,0.8,2.2c1,2.9,1.7,5.9,2,9
		c0.1,0.8,0.1,1.5,0.2,2.3c0,0.4,0,0.8,0,1.1c0,0.2,0,0.4,0,0.5s0.1,0.3,0.2,0.5C306.6,311.3,306.9,312.7,307.2,314.2z"/>
	<path class="st2" d="M462.6,255.7c-1.2,2-1.8,4.2-1.9,6.5c-0.1,1.1-0.1,2.2-0.1,3.4c0,1.2,0,2.3-0.1,3.5c0,2.3-0.2,4.6-0.4,7
		c-0.2,2.3-0.6,4.6-0.8,6.9c-0.2,2.2-0.3,4.5,0,6.6s1,4.1,2.4,5.7c0.7,0.8,1.5,1.4,2.4,2c0.9,0.5,1.9,1,3,1.1
		c1.1,0.2,2.2,0.1,3.2-0.1c0.5-0.1,1.1-0.3,1.6-0.6c0.3-0.1,0.5-0.2,0.8-0.4c0.3-0.1,0.4-0.4,0.5-0.6l-0.1,0.4
		c0,0.2-0.2,0.3-0.3,0.4c-0.2,0.2-0.4,0.4-0.7,0.6c-0.5,0.3-1,0.6-1.5,0.9c-1.1,0.5-2.3,0.7-3.6,0.7c-1.3,0-2.5-0.4-3.6-0.9
		s-2.2-1.2-3.1-2.1c-1.9-1.8-2.9-4.3-3.3-6.7c-0.4-2.4-0.3-4.9-0.1-7.2c0.3-2.4,0.6-4.6,0.9-6.9s0.5-4.6,0.8-6.8l0.4-3.4
		c0.1-1.1,0.2-2.3,0.5-3.5C460,259.6,461,257.4,462.6,255.7z"/>
	<path class="st2" d="M305.2,309.6c-0.6,0.1-1.3-0.1-1.9-0.4s-1.1-0.7-1.6-1.1c-1-0.8-1.9-1.5-3-2.1s-2.2-1.2-3.3-1.7
		c-1.1-0.5-2.3-0.9-3.5-1.5c-2.4-1.1-4.5-2.8-6.2-4.8c-1.8-2-3.1-4.3-4.2-6.6c-1.1-2.2-2.3-4.4-3.7-6.3c-0.7-1-1.5-2-2.3-2.7
		s-1.8-1.3-2.9-1.8s-2.3-0.8-3.5-1.3c-1.1-0.4-2.3-0.7-3.5-0.7c-1.2-0.1-2.4,0.1-3.6,0.3c-0.6,0.1-1.2,0.2-1.8,0.4l-0.9,0.2
		c-0.3,0.1-0.7,0.1-0.9-0.1c0.3,0.1,0.6,0.1,0.9-0.1l0.9-0.4c0.6-0.3,1.2-0.5,1.8-0.7c1.2-0.4,2.5-0.7,3.8-0.8c1.3-0.1,2.7,0,4,0.4
		c1.2,0.3,2.4,0.6,3.7,1c1.3,0.4,2.5,1,3.6,1.9s1.9,1.9,2.8,2.9c1.6,2.1,2.9,4.3,4.1,6.6c0.6,1.2,1.1,2.2,1.7,3.2s1.3,2,2.1,2.9
		c1.5,1.9,3.3,3.4,5.4,4.6c1,0.6,2.2,1.1,3.3,1.8c1.1,0.6,2.2,1.3,3.2,2.1c1,0.8,2,1.7,2.8,2.6C303,308.5,303.9,309.4,305.2,309.6z"
		/>
	<path class="st2" d="M356.6,404.8c0.3,0,0.6-0.1,0.8-0.3c0.2-0.2,0.4-0.4,0.5-0.7c0.3-0.5,0.7-1,1.2-1.4s1-0.7,1.5-1s0.9-0.7,1.4-1
		c0.9-0.7,1.8-1.5,2.6-2.4c0.4-0.4,0.8-0.8,1.2-1.3c0.4-0.5,0.7-0.8,0.9-1.3c0.2-0.5,0.3-1,0.3-1.4c-0.1-0.4-0.3-0.6-0.6-0.7
		c-0.4-0.1-0.8,0-1.4,0.1s-1.1,0.3-1.7,0.4c-2.2,0.7-4.4,1.6-6.4,2.6c-4.2,2.2-8.6,4.2-13,6.1s-9,3.3-13,5.5c-1,0.5-2,1.1-2.9,1.7
		c-0.8,0.6-1.5,1.3-1.9,2.2c-0.4,0.8-0.5,1.8-0.3,2.8c0,0.3,0.1,0.5,0.2,0.8l0.2,0.9c0.1,0.6,0.3,1.2,0.4,1.8
		c0.8,4.8,1.1,9.6,1,14.4v3.6c0,1.2-0.1,2.4-0.2,3.6c-0.2,2.4-0.3,4.8-0.5,7.1L326,454l-0.5,3.5l-0.3,1.8c-0.1,0.6-0.5,1.1-1,1.5
		c0.5-0.4,0.8-0.9,0.8-1.5l0.1-1.8l0.2-3.6l0.4-7.1c0-2.4,0-4.7,0-7.1c0-1.2,0-2.4,0-3.5l-0.2-3.5l-0.2-3.5c0-1.2-0.1-2.4-0.2-3.5
		c-0.2-2.3-0.5-4.7-1-6.9c-0.1-0.6-0.2-1.1-0.4-1.7l-0.2-0.8c-0.1-0.3-0.2-0.6-0.2-1c-0.3-1.4-0.1-2.9,0.5-4.2
		c0.6-1.3,1.6-2.4,2.7-3.2c1.1-0.7,2.1-1.4,3.2-1.9c2.2-1.2,4.4-2.1,6.7-2.9c2.2-0.8,4.4-1.7,6.6-2.6c4.4-1.7,8.7-3.7,13-5.6
		c2.2-1,4.5-1.9,6.9-2.5c0.6-0.1,1.2-0.3,1.8-0.4c0.5-0.1,1.3-0.3,2.1,0c0.4,0.1,0.8,0.4,1,0.8c0.3,0.4,0.4,0.8,0.4,1.2
		c0.1,0.8-0.2,1.5-0.5,2.1s-0.8,1.1-1.2,1.5c-0.4,0.4-0.9,0.8-1.3,1.2c-0.9,0.8-1.8,1.6-2.8,2.2c-0.5,0.3-1,0.7-1.5,1
		s-1.1,0.5-1.6,0.8s-0.9,0.7-1.2,1.2c-0.2,0.2-0.4,0.5-0.7,0.6C357.2,404.7,356.9,404.8,356.6,404.8z"/>
	<path class="st2" d="M404.6,451.8c-4.2-0.1-7.7,1.9-11.8,3.1c-3.9,1.2-7.8,2.4-11.6,3.7c-1.9,0.7-3.8,1.4-5.7,2.2
		c-1.9,0.8-3.8,1.5-5.7,2.3c-1.9,0.7-3.9,1.5-6,1.8c-1.1,0.1-2.2,0.1-3.2-0.1s-2-0.5-3-0.7c2.1-0.1,4.2,0.3,6-0.4
		c1.9-0.5,3.6-1.5,5.5-2.4c3.7-1.8,7.4-3.7,11.4-5c3.9-1.4,7.9-2.4,12-3.3c2-0.4,3.9-1,6-1.4C400.4,451.3,402.6,451.2,404.6,451.8z"
		/>
	<path class="st2" d="M433.8,303.4c0-1.5-1.1-2.6-1-4.2v-0.3c0-0.1,0-0.1,0-0.2s-0.2-0.3-0.3-0.4c-0.2-0.3-0.4-0.6-0.7-0.9
		c-0.4-0.6-0.8-1.2-1.2-1.9c-1.4-2.5-2.4-5.3-3.8-7.7c-1.3-2.5-3-4.8-5.4-6c-1.1-0.6-2.4-0.9-3.7-0.8c-1.3,0.1-2.5,0.6-3.6,1.3
		c-1.2,0.7-2.2,1.5-2.6,2.5c-0.5,1-0.6,2.3-0.3,3.5c0.1,0.3,0.1,0.6,0.2,1s0.2,0.8,0.3,1.1c0.1,0.7,0.3,1.2,0.5,1.5
		c0.1,0.1,0.1,0.2,0.2,0.2l0.2,0.1c0.3,0.2,0.4,0.4,0.5,0.6c0.3,0.7,0.3,1.1,0.3,1.5v0.6c0,0.2,0,0.3,0,0.5c0,0.3,0,0.6,0.1,0.9
		c0.4,2.5,2,4.6,4,6.5c1,0.9,2.1,1.8,3.2,2.7c1.1,0.9,2.3,1.7,3.4,2.8c2.2,2.1,4,4.7,5,7.6s1.1,6.1,0.7,9c-0.2,1.5-0.4,2.9-0.6,4.3
		s-0.2,2.7,0,3.9c0.2,1.3,0.8,2.4,1.6,3.2c0.4,0.4,0.9,0.7,1.4,1c0.3,0.1,0.6,0.2,0.9,0.3l0.2,0.1l0.2,0.1c0.2,0,0.7,0.2,1,0.5
		c0.8,1,1.9,1.6,3.1,2.1c1.3,0.5,2.7,0.8,4.1,1.3c0.1,0,0.2,0.1,0.5-0.1c0.2-0.1,0.6-0.3,1.1-0.4c0.7-0.2,1.3-0.4,1.9-0.7
		c1.3-0.5,2.4-1.2,3.4-2.2c1-0.9,1.6-2.1,2-3.4c0.4-1.4,1-2.8,1.8-4c0.8-1.3,1.6-2.4,2.6-3.5c0.9-1.1,2-2.1,3-3.1
		c-1.9,2.2-3.7,4.4-5,6.9c-0.6,1.3-1.1,2.6-1.5,3.9c-0.3,1.5-1,2.9-2.1,4c-1,1.1-2.3,2-3.7,2.6c-0.7,0.3-1.4,0.6-2.1,0.9
		c-0.3,0.1-0.5,0.2-0.9,0.4c-0.4,0.2-1,0.4-1.6,0.2c-1.3-0.4-2.7-0.6-4.2-1.1c-0.7-0.2-1.5-0.5-2.1-1c-0.7-0.4-1.4-1-1.8-1.5
		c0,0.1,0.2,0.1,0.1,0.1l-0.3-0.1l-0.3-0.1c-0.4-0.1-0.8-0.2-1.2-0.4c-0.8-0.3-1.5-0.8-2.1-1.4c-1.2-1.2-1.9-2.8-2.3-4.3
		c-0.4-1.6-0.3-3.2-0.1-4.6c0.1-1.5,0.3-2.9,0.5-4.3c0.3-2.8,0.2-5.5-0.7-8c-0.8-2.5-2.4-4.8-4.4-6.6c-2-1.8-4.4-3.5-6.6-5.6
		c-1.1-1-2.1-2.2-3-3.5c-0.8-1.3-1.5-2.8-1.7-4.5c-0.1-0.4-0.1-0.8-0.1-1.2c0-0.2,0-0.4,0-0.6V294c0-0.3,0-0.6,0-0.6s0,0.1,0.1,0.2
		l0,0l-0.1-0.1l-0.1-0.1c-0.2-0.2-0.4-0.4-0.5-0.6c-0.6-0.8-0.8-1.8-0.9-2.5c-0.1-0.4-0.1-0.6-0.2-1s-0.2-0.8-0.2-1.1
		c-0.3-1.5-0.2-3.3,0.6-4.9c0.4-0.8,1-1.4,1.6-2c0.6-0.5,1.3-0.9,1.9-1.3c1.3-0.7,2.9-1.3,4.5-1.4s3.3,0.3,4.6,1.1
		c1.4,0.8,2.5,1.9,3.4,3c0.9,1.2,1.6,2.5,2.3,3.8c1.3,2.6,2.1,5.4,3.3,7.9c0.3,0.6,0.6,1.3,1,1.9c0.2,0.3,0.4,0.6,0.6,0.9
		c0.1,0.2,0.2,0.3,0.3,0.5c0,0.1,0,0.3,0,0.4l-0.1,0.2C432.9,300.6,433.8,302,433.8,303.4z"/>
	<path class="st2" d="M244.9,375.2c0,1.7,0.1,3.4,0.4,5c0.2,0.8,0.3,1.6,0.6,2.4c0.2,0.7,0.7,1.4,1.2,2c1,1.3,2,2.8,2.6,4.5
		s0.9,3.5,0.7,5.3c-0.1,1.8-0.7,3.6-1.4,5.2c-0.6,1.5-1.1,3.1-1.5,4.6c-0.7,3.1-0.8,6.4-0.3,9.6c0.2,1.6,0.6,3.2,1,4.8
		c0.4,1.6,0.9,3.3,1.2,5c0.6,3.4,0.9,7,0.1,10.4c-0.4,1.7-1,3.4-1.9,5c-0.2,0.4-0.5,0.8-0.7,1.1c-0.2,0.3-0.4,0.7-0.6,1
		c-0.4,0.7-0.6,1.5-0.9,2.2c-0.5,1.5-0.6,3.2-0.6,4.9c0,0.8,0,1.7,0.1,2.5c0,0.8,0.3,1.6,0.4,2.5c-0.3-0.8-0.7-1.6-0.8-2.4
		c-0.2-0.8-0.3-1.7-0.4-2.5c-0.2-1.7-0.2-3.4,0.1-5.2c0.2-0.9,0.4-1.7,0.8-2.6c0.2-0.4,0.4-0.8,0.6-1.2c0.2-0.4,0.4-0.7,0.6-1.1
		c0.7-1.4,1.2-3,1.4-4.6c0.5-3.2,0.2-6.4-0.5-9.6s-1.8-6.4-2.3-9.9c-0.6-3.5-0.4-7.1,0.5-10.5c0.4-1.7,1-3.4,1.7-4.9
		s1.2-2.9,1.4-4.5c0.2-1.5,0.1-3.1-0.3-4.6c-0.4-1.5-1.2-2.9-2.1-4.4c-0.4-0.7-0.9-1.5-1.1-2.5c-0.1-0.9-0.3-1.7-0.3-2.6
		C244.5,378.6,244.6,376.8,244.9,375.2z"/>
	<path class="st2" d="M459.3,438.1c-0.8,0.8-1.9,1.3-3,1.6c-1.2,0.2-2.4,0.2-3.5,0c-2.1-0.3-4.2,0.2-6.4,0.7
		c-2.2,0.4-4.4,0.8-6.7,1.2c-1.1,0.2-2.2,0.3-3.3,0.5c-1.1,0.2-2.2,0.4-3.2,0.6c-2.2,0.4-4.3,1-6.5,1.5s-4.3,1.1-6.5,1.5l-3.3,0.7
		c-1.1,0.2-2.1,0.6-3.2,0.9l-3.2,1c-0.6,0.2-1,0.3-1.6,0.5c-0.6,0.1-1.1,0-1.6,0.4c0.3-0.5,1-0.6,1.5-0.8c0.5-0.2,1-0.5,1.5-0.8
		c1-0.5,2-1,3-1.5s2.1-0.9,3.2-1.3l3.2-1c4.3-1.3,8.6-2.7,13.1-3.6c2.2-0.5,4.6-0.7,6.8-1c2.2-0.3,4.4-0.5,6.7-0.7
		c2.2-0.2,4.6-0.6,7,0.1c1,0.3,2.1,0.5,3.2,0.5C457.2,439,458.3,438.7,459.3,438.1z"/>
	<path class="st2" d="M486,262.3c-0.6,1.4-1.3,2.8-2,4.3c-0.6,1.4-1.4,2.8-2,4.2c-1.1,2.8-1.7,5.8-1.9,8.9c-0.1,3.1-0.4,6.2-0.6,9.3
		c-0.2,3.1-0.3,6.2-0.1,9.1c0.1,1.5,0.3,2.9,0.7,4.3c0.2,0.6,0.5,1.2,0.8,2c0.3,0.7,0.7,1.6,0.8,2.6c0.2,1.6,0.2,3.3,0,4.9
		c-0.2,1.5-0.4,3-0.5,4.6c-0.2,1.5-0.3,3.1-0.4,4.7l-0.3,2.3c-0.1,0.8-0.2,1.5-0.2,2.3c-0.1,1.5-0.1,3.1-0.2,4.7
		c0,0.8-0.1,1.6-0.1,2.3c0,0.4-0.1,0.8-0.1,1.2c0,0.4-0.1,0.8-0.4,1.1c0.4-0.7,0.1-1.5,0.1-2.3c-0.1-0.8-0.1-1.5-0.2-2.3
		c-0.1-1.5-0.3-3.1-0.4-4.7c0-0.8,0-1.6,0-2.4l0.1-2.3l0.1-4.7c0-1.6,0.1-3.2,0.3-4.7c0.1-1.5,0.1-2.9-0.2-4.4
		c-0.1-0.6-0.3-1.1-0.7-1.8c-0.3-0.7-0.8-1.4-1-2.3c-0.5-1.6-0.7-3.2-0.9-4.8c-0.4-6.5,0.6-12.6,1.2-18.8c0.4-3.2,1.3-6.3,2.7-9.2
		c0.8-1.4,1.6-2.7,2.5-4C484.3,264.9,485.2,263.6,486,262.3z"/>
	<path class="st2" d="M238.9,369.5c-0.8,3.5-1.4,7-0.8,10.4c0.3,1.7,0.8,3.3,1.5,4.9l1.9,5c0.6,1.7,1.2,3.4,1.6,5.3
		c0.3,1.9,0.4,3.9-0.1,5.8c-0.2,0.9-0.5,1.9-0.9,2.7l-1.2,2.4l-1.3,2.4c-0.2,0.4-0.5,0.8-0.8,1.2c-0.3,0.3-0.7,0.6-1.1,0.8
		c0.7-0.6,1.1-1.4,1.3-2.2l0.8-2.6l0.8-2.6c0.2-0.8,0.4-1.6,0.5-2.5c0.2-1.7,0.1-3.3-0.3-4.9c-0.4-1.6-1-3.3-1.6-4.9
		c-1.2-3.3-2.7-6.7-3-10.5c-0.2-1.9,0.1-3.8,0.6-5.6C237.3,372.7,238,371.1,238.9,369.5z"/>
	<path class="st2" d="M448.6,353.3c0.3,3.9-0.5,7.8-1.3,11.6c-0.4,1.9-0.9,3.8-1.3,5.6c-0.4,1.9-0.8,3.8-1.3,5.7l-0.2,0.7
		c-0.1,0.3-0.2,0.5-0.3,0.8c-0.2,0.5-0.5,1-0.8,1.4c-0.6,0.9-1.2,1.6-1.6,2.4l-0.1,0.2c-0.1,0.1-0.1,0.2-0.2,0.2
		c-0.1,0.1-0.3,0.3-0.4,0.4c-0.2,0.1-0.3,0.2-0.6,0.3c-0.1,0-0.3,0.1-0.5,0.1c-0.1,0-0.2,0-0.3,0h-0.1c-0.4,0-0.8,0-1.2,0
		c-0.9,0.1-1.9,0.3-3.1,0.2c-0.3,0-0.6-0.1-0.9-0.2l-0.4-0.1c-0.1,0-0.1,0-0.2,0c-0.3,0-0.7,0-1.2,0c-1,0.1-2,0.1-3,0
		c-2-0.1-3.9-0.2-5.8-0.3c-1-0.1-1.9-0.1-2.8-0.1s-2,0-2.9-0.1c-1-0.1-1.9-0.1-2.9-0.2c-0.9,0-1.8,0-2.8,0l-2.9,0.1
		c-1,0-1.9,0-2.9,0c-1.9,0-3.8,0.1-5.7,0.3c-3.8,0.4-7.5,1.2-11.1,2.5c-1.8,0.6-3.5,1.4-5.3,2.3c-0.9,0.4-1.7,0.9-2.4,1.5
		c-0.7,0.6-1.2,1.5-1.4,2.4c0-1,0.4-1.9,1.1-2.7c0.7-0.7,1.5-1.3,2.3-1.8c1.6-1.1,3.4-2,5.1-2.8c3.6-1.6,7.4-2.7,11.3-3.3
		c1.9-0.3,3.9-0.5,5.9-0.6c1,0,2-0.1,2.9-0.1l2.9-0.2c0.9-0.1,2-0.1,3-0.1s2,0.1,2.9,0.1c1,0.1,1.8,0.1,2.9,0.1c1,0,2,0.1,3,0.1
		c2,0.1,3.9,0.3,5.7,0.4c0.9,0,1.9,0,2.8,0c0.4,0,1-0.1,1.7,0c0.2,0,0.3,0.1,0.5,0.1l0.3,0.1c0.2,0,0.3,0.1,0.5,0.1
		c0.7,0.1,1.6,0,2.7-0.1c0.5,0,1.1,0,1.7,0.1h0.1c0,0-0.1,0-0.2,0s-0.1,0-0.1,0s0,0,0.1,0l0.1-0.1l0,0l0,0l0.1-0.1
		c0.6-0.9,1.2-1.6,1.7-2.4c0.3-0.4,0.5-0.7,0.7-1.1c0.1-0.2,0.2-0.4,0.3-0.6l0.2-0.7c0.6-1.8,1.1-3.6,1.6-5.5s1.1-3.7,1.7-5.6
		C447.3,360.8,448.4,357.1,448.6,353.3z"/>
	<path class="st2" d="M442,343.2c0.2,0.6,0.5,1.1,1,1.5c0.5,0.3,1,0.7,1.5,1.1c1,0.7,2,1.6,2.9,2.5c1.8,1.8,3.4,3.7,5,5.6
		c1.6,1.8,3.3,3.7,4.9,5.6s3.2,3.8,4.9,5.6c1.6,1.9,3.3,3.7,5,5.4c0.8,0.9,1.7,1.8,2.6,2.6c0.9,0.8,1.7,1.8,2.6,2.7l2.6,2.7
		c0.4,0.5,0.9,0.9,1.3,1.5c0.2,0.3,0.4,0.7,0.5,1.1c0.1,0.5-0.1,1-0.3,1.3c-0.1,0.2-0.2,0.3-0.4,0.5l-0.2,0.2l-0.1,0.1
		c-0.1,0.1-0.1,0.2-0.1,0.5s0.1,0.6,0.1,1c0,0.1,0,0.2,0,0.3l-0.1,0.2l-0.1,0.4c-0.3,1.2-0.6,2.4-0.9,3.6c0.1-1.2,0.1-2.5,0.2-3.7
		V385v-0.2c0,0,0-0.1,0-0.2c0-0.2-0.1-0.5-0.2-0.8s-0.1-0.9,0.1-1.3c0.1-0.1,0.1-0.2,0.2-0.3l0.1-0.2c0.1-0.1,0.1-0.2,0.2-0.3
		c0.2-0.4,0.1-0.6-0.3-1c-0.3-0.4-0.8-0.8-1.3-1.2l-2.8-2.5l-2.7-2.5c-0.9-0.8-1.9-1.7-2.8-2.5c-1.8-1.7-3.5-3.6-5.2-5.4
		c-3.3-3.8-6.4-7.6-9.4-11.6c-1.5-2-2.9-4.1-4.4-6c-0.7-1-1.5-1.9-2.4-2.8c-0.4-0.5-0.9-0.8-1.3-1.3
		C442.3,344.5,442.1,343.8,442,343.2z"/>
	<path class="st2" d="M230,397.7c-1.1,1.3-1,2.9-0.9,4.6c0,1.6,0.1,3.3,0.2,4.9l0.2,4.9c0.1,1.6,0.1,3.2,0.3,4.8
		c0.1,1.6,0.3,3.3,0.3,5c0,0.9,0,1.7-0.1,2.6l-0.3,2.4c-0.3,3.2-0.4,6.6-1.1,9.8c-0.4-3.3-0.8-6.5-0.9-9.9c0-0.8,0-1.7,0-2.5
		s0-1.6-0.1-2.4c-0.1-1.6-0.3-3.2-0.4-4.8c-0.3-3.4-0.2-6.7,0-10c0.1-1.7,0.3-3.3,0.6-5c0.1-0.8,0.3-1.7,0.6-2.5
		C228.7,398.9,229.3,398.1,230,397.7z"/>
	<path class="st2" d="M304.5,348.8c0.3-3.9,0.4-7.8,0.1-11.7c-0.1-1-0.1-1.9-0.4-2.8c-0.2-0.9-0.5-1.8-0.9-2.6
		c-0.8-1.7-1.8-3.4-2.9-4.9s-2.3-3-3.7-4.3c-0.7-0.7-1.4-1.3-2.1-1.9c-0.4-0.3-0.7-0.6-1.1-0.9l-1.2-0.9c-0.9-0.6-1.6-1.4-2.3-2
		c-0.7-0.6-1.5-1.3-2.2-1.9c-1.5-1.3-3-2.5-4.5-4c-1.4-1.5-2.6-3.1-3.8-4.7c-1.2-1.6-2.2-3.3-3.2-5.1c-1.9-3.4-3.7-7-5.8-10.1
		c-1.1-1.6-2.3-3-3.7-4.3c-0.7-0.6-1.5-1.2-2.2-1.7c-0.8-0.5-1.6-0.8-2.5-1.1c-0.9-0.2-1.9-0.4-2.8-0.5l-1.5-0.2
		c-0.2,0-0.5-0.1-0.7-0.1l-0.3-0.1c-0.1,0-0.1,0-0.1,0c-0.1,0-0.2,0.2-0.5,0.5l-0.6,0.5c-0.4,0.3-0.8,0.6-1.2,0.9
		c-0.8,0.6-1.7,1.1-2.5,1.5c0.8-0.6,1.6-1.2,2.3-1.8c0.4-0.3,0.7-0.7,1.1-1l0.5-0.5c0.1-0.1,0.2-0.4,0.5-0.6
		c0.2-0.1,0.4-0.2,0.6-0.2h0.4h0.7l1.5,0.1c1,0,2,0.1,3,0.3c1,0.2,2,0.5,3,1c0.9,0.5,1.7,1.1,2.5,1.7c1.6,1.3,3,2.8,4.2,4.4
		c2.5,3.2,4.3,6.7,6.3,10.1c1,1.7,2,3.3,3.1,4.8c1.1,1.6,2.3,3.1,3.6,4.4c1.3,1.3,2.8,2.6,4.3,3.8c0.7,0.6,1.5,1.3,2.3,1.9
		c0.8,0.7,1.4,1.4,2.1,1.9l1.2,0.9c0.4,0.3,0.8,0.6,1.2,1c0.8,0.7,1.5,1.4,2.2,2.1c1.4,1.5,2.7,3.1,3.7,4.8c1.1,1.7,2,3.5,2.8,5.4
		c0.4,1,0.7,2,0.8,3c0.2,1.1,0.2,2,0.2,3C305.8,341,305.3,344.9,304.5,348.8z"/>
	<path class="st2" d="M229,458.7c-0.3,0.3-0.7,0.5-1,0.8s-0.6,0.7-0.9,1c-0.7,0.6-1.7,1.1-2.4,1.4s-1.4,0.8-2.2,1.3
		c-0.4,0.3-0.8,0.5-1.2,0.7c-0.2,0.1-0.5,0.2-0.7,0.3l-0.7,0.2c-3.5,1.1-7.1,1.6-10.8,1.8c-3.7,0.1-7.3-0.2-10.8-0.8
		c-1.8-0.3-3.5-0.6-5.2-0.7s-3.5,0.1-5.2,0.7c1.5-1.1,3.3-1.6,5.1-1.9s3.7-0.1,5.5-0.1c3.5,0.1,7.1,0.4,10.5,0.2
		c1.7,0,3.5-0.2,5.2-0.4c1.7-0.2,3.4-0.4,5.1-0.8l0.6-0.1c0.2,0,0.4-0.1,0.5-0.2c0.4-0.1,0.7-0.3,1.1-0.5c0.8-0.4,1.6-0.8,2.6-1.1
		l0.7-0.1c0.2,0,0.4-0.1,0.6-0.1c0.4-0.1,0.8-0.3,1.2-0.5s0.7-0.4,1.1-0.7C228.1,459,228.5,458.9,229,458.7z"/>
	<path class="st2" d="M441.3,381c0.5,0.5,1.1,0.6,1.7,0.6s1.2-0.1,2-0.1c1.3,0,2.6,0.1,3.9,0.3c2.6,0.3,5.2,0.8,7.7,1.3
		c2.6,0.6,5,1.2,7.6,1.9c2.5,0.7,4.9,1.7,7.4,2.5c2.4,0.8,4.9,1.5,7.4,2.3s4.9,1.6,7.4,2.5c1.3,0.5,2.5,1.1,3.6,1.6
		c0.6,0.3,1.1,0.5,1.7,0.7s1.2,0.4,1.8,0.6c1.2,0.4,2.5,0.9,3.6,1.6c0.6,0.3,1.2,0.7,1.7,1s1.2,0.5,1.8,0.8
		c-0.6-0.2-1.3-0.2-1.9-0.5s-1.2-0.5-1.8-0.7c-1.2-0.4-2.4-0.8-3.7-1c-0.6-0.1-1.2-0.2-1.9-0.4c-0.7-0.2-1.3-0.4-1.9-0.6
		c-1.2-0.4-2.4-1-3.6-1.3c-2.5-0.6-5-1.4-7.4-2.1c-2.5-0.7-4.9-1.4-7.5-2.2c-2.5-0.8-4.9-1.8-7.3-2.6c-2.4-0.8-4.9-1.5-7.4-2.3
		c-2.5-0.7-4.9-1.4-7.4-2c-1.2-0.3-2.5-0.5-3.8-0.8c-0.6-0.1-1.3-0.1-1.9-0.2C442.3,381.9,441.6,381.6,441.3,381z"/>
	<path class="st2" d="M245.9,294.8c3,1.7,5.8,3.6,8.6,5.5c2.8,1.9,5.4,4.2,7.8,6.7s4.5,5.3,6.2,8.3c0.9,1.5,1.6,3,2.3,4.6
		c0.3,0.8,0.7,1.5,1,2.3l0.5,1.2c0.1,0.2,0.2,0.4,0.2,0.6s-0.1,0.5-0.2,0.6c0.2-0.4-0.1-0.8-0.4-1.1l-0.8-1
		c-0.5-0.7-1.1-1.4-1.5-2.1c-0.9-1.4-1.9-2.8-2.8-4.1c-1-1.3-2-2.7-3.1-3.9c-1.1-1.3-2.1-2.5-3.3-3.7c-1.1-1.2-2.3-2.4-3.5-3.5
		c-1.2-1.2-2.4-2.3-3.7-3.4C250.7,299.6,248.3,297.3,245.9,294.8z"/>
	<path class="st2" d="M227.9,337.6c-0.7,1.2-0.9,2.5-0.9,3.7c-0.1,1.3-0.1,2.6-0.1,3.9c0,2.6,0.1,5.2,0.6,7.6
		c0.1,0.6,0.3,1.2,0.4,1.8l0.5,1.9c0.3,1.3,0.7,2.6,1,3.9s0.6,2.6,0.8,3.9l0.1,0.5c0,0.2,0.1,0.4,0.1,0.6c0,0.4,0,0.7,0,1
		c0,0.6,0,1.2,0.6,1.7c-0.3-0.1-0.6-0.3-0.8-0.6c-0.2-0.3-0.3-0.7-0.4-1c-0.1-0.3-0.1-0.7-0.2-1c0-0.1-0.1-0.3-0.2-0.4l-0.2-0.5
		c-0.5-1.2-1-2.5-1.5-3.7s-0.9-2.5-1.4-3.8l-0.6-1.9c-0.2-0.7-0.4-1.4-0.5-2.1c-0.6-2.8-0.5-5.6-0.1-8.3c0.2-1.4,0.5-2.7,0.9-4
		C226.2,339.8,226.8,338.4,227.9,337.6z"/>
	<path class="st2" d="M395.5,401.6c2,2.1,4.1,3.9,6.5,4.7c2.4,0.9,5,0.7,7.9,0.4c3.1-0.2,6.1,0.7,8.7,2.1s4.8,3.4,6.4,5.8
		c-2.4-1.6-4.7-3-7.2-4s-5.1-1.5-7.7-1.4c-2.7,0.2-6,0.3-8.8-1.2C398.4,406.7,396.6,404.2,395.5,401.6z"/>
	<path class="st2" d="M268.9,397.1c1.4,2.3,2.7,4.5,4.1,6.7c1.4,2.1,2.8,4.5,3.9,6.9s1.9,4.9,2.6,7.5c0.3,1.3,0.6,2.6,0.8,3.9
		c0.1,0.7,0.2,1.3,0.3,2c0,0.6,0.4,1.2,0.3,1.9c-0.2-0.6-0.8-1-1-1.7l-0.8-1.8l-1.5-3.6c-1-2.4-2-4.8-3-7.1c-1-2.4-2.2-4.6-3.3-7
		C270.2,402.3,269.3,399.7,268.9,397.1z"/>
	<path class="st2" d="M257.8,326.8c1.3-0.8,2.5-1.5,3.8-2.2s2.9-1.1,4.4-1.1s3,0.2,4.5,0.4c0.3,0.1,0.7,0.1,1,0.1c0.1,0,0.3,0,0.4,0
		c0.2,0,0.5,0,0.7,0c0.5,0,1,0.3,1.4,0.5c0.2,0.1,0.4,0.3,0.6,0.5c0.1,0.1,0.2,0.2,0.4,0.3c1,0.9,2.2,1.5,3.5,2.4l0.5,0.3
		c0.1,0.1,0.2,0.1,0.3,0.2c0.2,0.1,0.5,0.2,0.8,0.4l1.1,0.4c0.4,0.1,0.8,0.4,1.1,0.5c2.6,1.4,5.2,3.1,7.5,5c0.6,0.5,1.1,1,1.7,1.5
		c0.5,0.5,1.1,1.1,1.6,1.8c1,1.4,1.5,3,1.8,4.5c0.1,0.8,0.2,1.5,0.3,2.2c0.1,0.7,0.2,1.5,0.2,2.3c0.1,1.5,0,3,0.1,4.4
		c0.1,1.2,0.6,2.4,1.6,3.1c0.5,0.4,1.1,0.6,1.7,0.8c0.7,0.2,1.4,0.3,2.1,0.5c1.4,0.3,2.8,0.4,4.3,0.5c0.4,0,0.7,0,1.1,0.1
		s0.8,0.3,1.1,0.6c0.5,0.6,0.7,1.4,0.9,2.1c-0.2-0.7-0.6-1.4-1.1-1.8c-0.3-0.2-0.6-0.3-0.9-0.3s-0.7,0.1-1.1,0.1
		c-1.5,0.1-3,0.1-4.5,0c-0.7-0.1-1.5-0.2-2.2-0.3c-0.8-0.1-1.6-0.4-2.3-0.8c-1.5-0.9-2.5-2.6-2.7-4.2s-0.2-3-0.3-4.4
		c-0.1-0.7-0.2-1.3-0.3-2.1c-0.1-0.7-0.2-1.4-0.4-2.1c-0.3-1.3-0.7-2.6-1.5-3.6c-0.7-1-1.9-1.9-2.9-2.8c-2.1-1.9-4.5-3.4-7-4.9
		c-0.3-0.2-0.5-0.3-0.8-0.4l-1-0.4c-0.4-0.1-0.8-0.3-1.2-0.6c-0.2-0.1-0.4-0.3-0.6-0.4l-0.4-0.3c-1.1-0.8-2.4-1.6-3.5-2.8
		c-0.1-0.1-0.3-0.3-0.4-0.4s-0.2-0.2-0.3-0.3c-0.2-0.1-0.4-0.2-0.6-0.3c-0.1,0-0.2,0-0.4,0c-0.2,0-0.5,0-0.7,0
		c-0.4,0-0.8-0.1-1.2-0.2c-1.4-0.4-2.8-0.7-4.2-0.8c-1.4-0.1-2.8,0-4.1,0.5C260.5,325.8,259.2,326.3,257.8,326.8z"/>
	<path class="st2" d="M337.4,366.8c-2.4,3.3-5.1,6.5-7.3,9.8c-2.2,3.3-3.9,6.9-4.9,10.7c-0.2,0.9-0.5,1.9-0.6,2.9l-0.5,3
		c-0.4,2-0.5,3.8-0.1,5.7c0.5,2.2,0.1,4.4-0.1,6.4c-0.1,1-0.2,2-0.2,3s0.3,2,1.2,2.5c-0.5-0.1-1-0.4-1.3-0.9s-0.5-1-0.6-1.5
		c-0.2-1-0.3-2.1-0.3-3.1c-0.1-2.1,0-4.1-0.6-5.8c-0.7-2.1-0.6-4.5-0.3-6.5c0.1-1.1,0.3-2,0.4-3.1s0.4-2.1,0.6-3.1
		c0.6-2.1,1.3-4.1,2.3-6s2.1-3.7,3.4-5.3C331.2,372.2,334.2,369.4,337.4,366.8z"/>
	<path class="st2" d="M282,308.5c-0.6,0.4-1.3,0.6-2.1,0.6c-0.8,0-1.5-0.3-2.1-0.5s-1.3-0.3-2-0.5s-1.4-0.5-2.1-0.8
		c-1.3-0.7-2.6-1.7-3.5-2.9c-0.5-0.6-0.9-1.3-1.2-2c-0.3-0.7-0.6-1.5-0.8-2c-0.4-1.2-1-2.2-1.8-3.3c-0.7-1-1.7-2.1-2.6-3.2
		c-0.4-0.5-0.9-1.1-1.3-1.6c-0.4-0.6-0.8-1.1-1.2-1.6c-0.9-1-1.9-1.8-3.2-2.5c1.4,0.2,2.8,0.8,4,1.6c1.2,0.9,2.1,1.9,3.1,2.8
		c0.5,0.5,1,1,1.5,1.5s1,1,1.5,1.6c1,1.1,1.8,2.4,2.3,3.9c0.3,0.8,0.4,1.3,0.6,1.9s0.5,1.1,0.9,1.6c0.7,1,1.6,1.9,2.6,2.6
		c1.1,0.8,2.2,1.3,3.5,1.9c0.7,0.4,1.2,0.7,1.8,0.9C280.6,308.6,281.3,308.6,282,308.5z"/>
	<path class="st2" d="M227.4,441.6c1.2,0.1,2.4,0.9,3.2,1.8c0.4,0.4,0.8,0.9,1.2,1.3s0.8,0.9,1.2,1.4c1.6,1.9,2.9,3.9,4.1,6
		c1.2,2.1,2.3,4.2,3.3,6.3c0.5,1.1,1.1,2.1,1.6,3.2c0.5,1.2,0.9,2,1.7,2.3h-0.4c0.2-0.1,0.4-0.2,0.6-0.4c0.2-0.2,0.4-0.5,0.6-0.8
		c0.2-0.3,0.4-0.6,0.7-0.9s0.6-0.5,1-0.5c-0.6,0.4-0.8,1-1,1.7c-0.1,0.3-0.2,0.7-0.4,1.1s-0.5,0.7-0.9,1c-0.1,0.1-0.2,0.1-0.3,0.1
		h-0.1c-0.8-0.1-1.5-0.5-2-1s-0.8-1.1-1.1-1.6c-0.7-1-1.3-2-1.9-3.1c-1.3-2.1-2.4-4.2-3.5-6.3c-1.1-2.1-2.2-4.2-3.4-6.2
		c-0.6-1-1.3-2-1.9-3.1C229.2,443,228.5,442.1,227.4,441.6z"/>
	<path class="st2" d="M306.9,314.7c-0.7,1.1-0.4,2.1,0,3.3c0.3,1.2,0.5,2.4,0.7,3.6s0.4,2.4,0.6,3.5s0.5,2.1,0.9,3.2
		c0.4,1,0.9,2,1.5,2.9s1.4,2,1.8,3.3c0.2,0.6,0.4,1.3,0.5,1.9c0.1,0.7,0.1,1.3,0.1,1.9c-0.1,1.3-0.3,2.5-0.7,3.6
		c-0.1-1.2-0.2-2.4-0.5-3.5c-0.2-1.2-0.6-2.1-1.1-3.1c-0.3-0.5-0.6-0.9-0.9-1.4l-1.1-1.4c-0.8-1-1.4-2.1-1.9-3.3
		c-0.5-1.2-0.8-2.5-0.9-3.8c-0.1-1.2-0.2-2.4-0.2-3.6s0-2.4,0-3.6c0-0.6,0-1.2,0.1-1.9C305.9,315.5,306.3,315,306.9,314.7z"/>
	<path class="st2" d="M454.6,299.2c-0.7,0.6-0.5,1.4-0.5,2.3s-0.2,1.7-0.3,2.5c-0.1,0.8-0.2,1.6-0.2,2.4c0,0.4,0,0.8,0,1.1
		c0,0.4,0.1,0.6,0.2,0.7c0,0.1,0.1,0.1,0.2,0.2l0.5,0.3c0.3,0.2,0.7,0.5,1,0.8l2,1.5l1.9,1.5c0.6,0.5,1.3,1,1.9,1.3
		c2.5,1.5,5.7,1.5,9,1.1c3.2-0.3,6.5-1.1,9.9-1.3c-3.1,1.2-6.2,2.5-9.6,3.2c-1.7,0.4-3.4,0.6-5.2,0.5c-1.8-0.1-3.7-0.5-5.3-1.4
		c-0.8-0.5-1.5-1-2.2-1.5s-1.3-1.1-1.9-1.6l-1.9-1.7l-0.9-0.8l-0.5-0.4c-0.2-0.2-0.4-0.4-0.6-0.7c-0.4-0.6-0.3-1.3-0.3-1.7
		c0-0.5,0.1-0.9,0.1-1.3c0.1-0.9,0.4-1.7,0.6-2.5c0.3-0.8,0.6-1.6,0.8-2.3c0.1-0.4,0.1-0.8,0.3-1.2
		C453.9,299.7,454.3,299.4,454.6,299.2z"/>
	<path class="st2" d="M217.4,425.6c-0.4,0.5-0.5,1-0.6,1.6c0,0.3-0.1,0.6-0.2,0.9l-0.2,0.9c-0.3,1.1-0.5,2.3-0.8,3.4
		c-0.5,2.3-0.8,4.6-1.2,6.9c-0.2,1.2-0.4,2.3-0.6,3.5c-0.2,1.1-0.4,2.3-0.5,3.3c0,1.1,0.1,2.1,0.4,3.3c0.1,0.6,0.3,1.1,0.6,1.5
		s0.8,0.8,1.3,0.9c-0.3,0.1-0.6,0.1-0.9,0c-0.3-0.1-0.6-0.2-0.9-0.4c-0.5-0.4-0.9-1-1.2-1.6c-0.3-0.5-0.6-1.1-0.8-1.7
		s-0.4-1.3-0.4-1.9c-0.2-1.3,0-2.6,0.1-3.8c0.1-1.2,0.3-2.4,0.5-3.6c0.4-2.4,1-4.7,1.8-7c0.4-1.1,0.9-2.3,1.5-3.3l0.5-0.8
		c0.1-0.2,0.3-0.5,0.4-0.8C216.4,426.5,216.8,425.8,217.4,425.6z"/>
	<path class="st2" d="M237.5,420.8c0.9,0.8,1.6,1.8,2.1,2.9s1,2.2,1.4,3.2s0.9,2.3,1.1,3.5c0.2,1.3,0.1,2.6-0.2,3.9
		c-0.6,2.4-1.7,4.5-2.6,6.6l-0.7,1.6l-0.7,1.6c-0.5,1-1,2-1.3,3.2c-0.2-1.2,0-2.4,0.2-3.6l0.3-1.7c0.1-0.6,0.3-1.2,0.4-1.7
		c0.6-2.3,1.5-4.4,2-6.5c0.3-1,0.4-2,0.3-3c0-0.5-0.1-1-0.2-1.5l-0.2-0.8l-0.2-0.9C238.6,425.2,238.5,423,237.5,420.8z"/>
	<path class="st2" d="M429.3,381.8c0,0.6-0.5,1.2-1.1,1.6s-1.1,0.6-1.7,0.9c-1.1,0.5-2.2,1.1-3.2,1.6c-2.1,1.1-4.2,2.2-6.3,3.4
		l-6.3,3.6l-1.6,0.9l-1.6,0.9c-1.1,0.5-2,1.2-2.5,2.3c0-0.6,0.2-1.3,0.5-1.8c0.3-0.6,0.8-1,1.3-1.5l1.4-1.2c0.5-0.4,1-0.8,1.4-1.2
		c1.9-1.5,4-2.9,6.1-4.1c2.2-1.2,4.4-2.2,6.8-3c1.2-0.4,2.4-0.7,3.6-1c0.6-0.1,1.3-0.2,1.8-0.3C428.4,382.7,428.9,382.3,429.3,381.8
		z"/>
	<path class="st2" d="M455,298.8c0.6,0,1.3,0.3,1.7,0.8c0.5,0.5,0.7,1.1,1,1.6c0.6,0.9,1.3,1.6,2.2,2.2c0.9,0.5,1.9,1,3,1.4
		c1,0.4,2.1,0.7,3.2,0.8c2.1,0.4,4.4,0.4,6.7,0.2c0.6,0,1.1-0.1,1.7-0.1l0.9-0.1c0.3,0,0.5,0,0.7-0.1c1-0.2,1.8-1.2,2.9-1.8
		c-0.7,1-1.2,2.1-2.4,2.9c-0.3,0.2-0.7,0.3-0.9,0.4l-0.9,0.3c-0.6,0.2-1.2,0.3-1.8,0.5c-2.4,0.5-4.9,0.8-7.4,0.3
		c-1.2-0.2-2.5-0.6-3.6-1.1s-2.3-1.1-3.2-2c-1-0.8-1.8-2-2.2-3.2c-0.2-0.7-0.2-1.2-0.4-1.7C456,299.4,455.6,299,455,298.8z"/>
	<path class="st2" d="M384.8,397.9c0.1,0.6,0.4,1.1,0.7,1.5l1.2,1.3c0.8,0.9,1.6,1.8,2.4,2.7c1.6,1.8,3.1,3.5,4.8,5.1
		c0.8,0.8,1.7,1.5,2.6,2.2s1.9,1.4,2.8,2.1c1.9,1.4,3.8,2.5,6.2,3c-2.4,0.5-5.1-0.2-7.2-1.3c-1.1-0.5-2.1-1.2-3.1-1.9
		c-1.1-0.7-2-1.5-2.9-2.3c-1.8-1.7-3.3-3.7-4.6-5.7c-0.7-1-1.3-2.1-1.8-3.1c-0.3-0.5-0.6-1-0.8-1.6
		C384.7,399.1,384.6,398.4,384.8,397.9z"/>
	<path class="st2" d="M225.9,484.3c-1.9,0.6-3.5,1.8-5.4,2.7c-0.9,0.5-1.9,0.9-3.1,1l-0.7,0.1c-0.2,0-0.4,0.1-0.7,0.1
		c-0.4,0.1-0.9,0.2-1.3,0.4c-3.6,1.4-7,3.3-9.8,5.9c-1.5,1.3-2.8,2.7-4.1,4.1c-0.7,0.7-1.3,1.5-1.9,2.2L198,502
		c-0.3,0.4-0.5,0.7-0.7,1c-0.4,0.7-0.4,1.5-0.3,2.4c0.1,0.9,0.3,1.9,0.7,2.7c0.1,0.2,0.2,0.4,0.3,0.6s0.3,0.4,0.5,0.7
		c0.3,0.5,0.5,1,0.5,1.6c0,1.2-0.6,2.1-1.2,2.9c0.4-0.9,0.7-1.9,0.5-2.8c-0.1-0.4-0.3-0.8-0.6-1.1c-0.2-0.2-0.3-0.3-0.5-0.5
		s-0.4-0.4-0.5-0.7c-0.3-0.5-0.5-1-0.7-1.5s-0.4-1-0.5-1.5c-0.3-1.1-0.3-2.4,0.2-3.5c0.2-0.6,0.5-1.1,0.8-1.5l0.9-1.2
		c0.6-0.8,1.2-1.6,1.9-2.4c1.3-1.6,2.7-3.1,4.3-4.5s3.3-2.6,5.1-3.6c0.9-0.5,1.9-0.9,2.8-1.3c1-0.4,1.9-0.7,2.9-1
		c0.5-0.1,1-0.3,1.6-0.3c0.3,0,0.6-0.1,0.8-0.1c0.1,0,0.3,0,0.4,0h0.3c0.9,0,1.8-0.2,2.7-0.5C222,485.3,223.9,484.4,225.9,484.3z"/>
	<path class="st2" d="M279.4,329.8c-0.2,1.2,0.6,1.7,1.4,2.4c0.8,0.8,1.5,1.6,2.1,2.5c1.3,1.8,2.2,3.9,2.8,5.9
		c0.6,2.1,1,4.2,1.2,6.3c0.2,2.2,0.2,4.1,0.9,6.2c-0.8-0.7-1.4-1.7-1.8-2.8c-0.4-1-0.7-2.1-1-3.1c-0.6-2-1.1-4-1.7-6
		s-1.2-3.9-2.1-5.7c-0.4-0.9-0.9-1.8-1.4-2.7c-0.2-0.5-0.6-0.9-0.7-1.5C278.9,330.9,279,330.2,279.4,329.8z"/>
	<path class="st2" d="M451.3,318.1c-0.7,2.3-1.8,4.4-3.3,6.3c-0.8,1-1.7,1.8-2.7,2.6c-1.1,0.8-2,1.2-2.8,1.9c-1.6,1.3-2.9,3-3.9,5
		c-1,2.2-2.6,4.2-4.7,5.4c1.4-2,2.3-4,2.9-6.1c0.7-2.3,2.1-4.7,4.1-6.2c0.5-0.4,1-0.7,1.6-1.1c0.6-0.3,1-0.5,1.5-0.8
		c0.9-0.5,1.8-1.2,2.6-1.9C448.3,321.7,449.7,319.9,451.3,318.1z"/>
	<path class="st2" d="M307.5,314.4c1.8,1.3,3.5,2.7,5.1,4.2c0.8,0.7,1.6,1.5,2.3,2.3c0.8,0.9,1.5,1.9,2,3c1,2.2,1.3,4.6,1.2,6.8
		c-0.1,2.3-0.5,4.4-0.9,6.6c-0.6-2.2-0.7-4.4-1-6.5s-0.7-4.1-1.6-5.9c-0.4-0.9-0.9-1.7-1.5-2.5c-0.7-0.8-1.4-1.7-2-2.6
		C309.8,318.1,308.6,316.3,307.5,314.4z"/>
	<path class="st2" d="M295.5,356.6c-0.1,1,0,1.9,0,2.9s0,2-0.1,3c-0.2,1.9-0.4,3.8-0.8,5.7c-0.3,1.9-0.7,3.8-1.2,5.6l-1.4,5.6
		c-0.6-1.9-0.6-3.9-0.5-5.9s0.3-3.8,0.7-5.8c0.3-1.9,0.8-3.8,1.3-5.7c0.3-1,0.6-1.8,0.8-2.7C294.6,358.4,294.9,357.4,295.5,356.6z"
		/>
	<path class="st2" d="M403.9,420.1c1.5,1.1,2.6,2.7,3.3,4.4c0.8,1.7,1.1,3.6,1.2,5.5c0.1,1.8,0,3.7-0.3,5.4
		c-0.3,1.8-0.6,3.5-1.2,5.3c-0.5-1.8-0.7-3.6-0.8-5.4c-0.1-1.8-0.2-3.5-0.3-5.2c-0.1-1.7-0.2-3.3-0.6-5
		C405,423.4,404.5,421.8,403.9,420.1z"/>
	<path class="st2" d="M271.1,458.4l0.2,0.1l0.1,0.1l0,0c0,0,0,0,0,0.1s0,0.1,0,0.1c0,0.1-0.1,0.2-0.1,0.4c-0.1,0.2-0.1,0.5-0.1,0.7
		c-0.1,0.5-0.1,1-0.1,1.5s0,1-0.1,1.6c0,0.3-0.1,0.6-0.2,0.9s-0.3,0.6-0.4,0.8c-0.2,0.2-0.3,0.5-0.6,0.8c-0.1,0.1-0.4,0.3-0.7,0.4
		c-0.3,0.1-0.8,0.1-1,0c-0.6-0.2-0.8-0.4-1-0.6s-0.4-0.4-0.6-0.6c-0.7-0.8-1.3-1.4-1.9-1.6c-0.1-0.1-0.3-0.1-0.4-0.1s-0.5,0-0.7,0
		H262c-1-0.1-2,0-3-0.1c-0.5,0-1,0-1.5-0.1l-0.8-0.1c-0.3,0-0.6-0.1-0.9-0.2c-1.2-0.4-1.8-1.3-2.6-1.9c1.1,0.1,2,0.7,2.9,0.7
		c0.2,0,0.4,0,0.6-0.1l0.8-0.2c0.5-0.1,1-0.2,1.5-0.3c1-0.2,2-0.3,3.1-0.3h1.6h0.4c0.1,0,0.3,0,0.5,0c0.4,0,0.7,0.1,1,0.3
		c1.4,0.6,2.1,1.6,2.7,2.3c0.2,0.2,0.3,0.4,0.4,0.5s0.3,0.3,0.2,0.2c0,0-0.2,0-0.3,0c-0.1,0-0.1,0.1-0.1,0c0.1,0,0.2-0.2,0.4-0.4
		c0.2-0.2,0.3-0.3,0.4-0.5s0.2-0.3,0.3-0.5c0.2-0.4,0.3-0.9,0.5-1.4s0.3-1,0.6-1.5c0.1-0.2,0.3-0.5,0.5-0.7c0.1-0.1,0.2-0.2,0.3-0.3
		c0,0.1,0,0,0,0v-0.1L271.1,458.4z"/>
	<path class="st2" d="M464.7,250.3c1-1.6,2.5-2.9,4.3-3.7c0.5-0.2,0.9-0.3,1.4-0.5c0.2-0.1,0.5-0.1,0.7-0.1c0.3,0,0.5-0.1,0.7-0.1
		c0.4-0.1,0.6-0.2,0.8-0.4c0.1-0.1,0.1-0.1,0.2-0.2l0.2-0.2c0.2-0.2,0.4-0.4,0.5-0.6c0.2-0.2,0.3-0.3,0.4-0.4
		c0.2-0.2,0.4-0.5,0.6-0.7c0.5-0.4,1.1-0.7,1.8-0.8c0.7-0.1,1.3,0,1.9,0.2c0.1,0,0.3,0.1,0.4,0.2l0.3,0.1c0.2,0.1,0.3,0.1,0.5,0.1
		c0.6,0.1,1,0,1.6-0.4l0.2-0.2c0.1-0.1,0.2-0.2,0.4-0.3c0.3-0.2,0.5-0.3,0.8-0.4c0.6-0.2,1.2-0.4,1.8-0.3c1.2,0,2.3,0.5,3.2,1.1
		c0.9,0.6,1.7,1.4,2.3,2.3c1.1,1.9,1.3,4.1,1.1,6c-0.3,3.9-1.8,7.5-4.1,10.5c1.4-3.5,2.3-7,2.2-10.5c0-1.8-0.3-3.4-1.1-4.7
		c-0.4-0.6-0.9-1.1-1.6-1.5c-0.6-0.4-1.3-0.6-2-0.6c-0.3,0-0.6,0-0.9,0.1c-0.1,0.1-0.3,0.1-0.4,0.2c-0.1,0-0.1,0.1-0.2,0.1l-0.3,0.2
		c-0.5,0.3-1,0.6-1.7,0.8c-0.6,0.2-1.3,0.1-1.9,0c-0.3-0.1-0.6-0.2-0.8-0.3l-0.6-0.3c-0.3-0.1-0.6-0.2-0.8-0.2
		c-0.2,0-0.5,0.1-0.7,0.3c-0.1,0.1-0.2,0.2-0.4,0.3c-0.2,0.2-0.4,0.4-0.6,0.6c-0.2,0.2-0.3,0.3-0.5,0.4l-0.3,0.3
		c-0.1,0.1-0.2,0.2-0.4,0.3c-0.5,0.4-1.2,0.6-1.7,0.6c-0.3,0-0.5,0-0.7,0s-0.4,0-0.6,0c-0.4,0-0.8,0.1-1.3,0.2
		C467.7,248.1,466.1,249,464.7,250.3z"/>
	<path class="st2" d="M227.2,441c0.2,0.2,0.2,0.4,0.2,0.7c0,0.3-0.1,0.5-0.2,0.7c-0.3,0.5-0.5,0.7-0.6,1.1c-0.3,0.7-0.2,1.4-0.2,2.2
		c0,0.9,0,1.7-0.1,2.6l-0.1,1.3l-0.1,1.4c-0.1,0.7-0.4,1.3-0.6,1.6c-0.1,0.2-0.1,0.3-0.2,0.4v0.1v0.1v0.1c-0.1,0.8-0.1,1.7-0.1,2.5
		c-0.1,1.7-0.1,3.5-0.7,5.3c-0.5-1.7-0.9-3.4-1.2-5.1c-0.2-0.9-0.3-1.8-0.3-2.7v-0.2v-0.3c0-0.2,0-0.3,0.1-0.5
		c0.1-0.3,0.2-0.6,0.3-0.8c0.2-0.4,0.3-0.7,0.3-0.8l0.1-1.2l0.2-1.3c0.1-0.9,0.3-1.7,0.5-2.6c0.2-0.8,0.4-1.9,1.1-2.8
		C226.3,441.9,227.3,442,227.2,441z"/>
	<path class="st2" d="M409.4,426.2c0.9,0.1,1.7,1,2.2,1.7c0.3,0.4,0.5,0.7,0.8,1.1s0.5,0.7,0.7,1.1c0.9,1.5,1.7,3.1,2.4,4.8
		c0.6,1.7,1.1,3.3,1.4,5.2c0.1,0.9,0,2.1-0.4,2.9c-0.3,0.7-0.3,1.5-0.3,2.5c-0.5-0.7-0.9-1.6-0.9-2.7c0.1-0.9-0.1-1.5-0.4-2.3
		l-1.8-4.7l-1.8-4.8l-0.4-1.2c-0.1-0.4-0.3-0.9-0.4-1.3C410.3,427.6,410.1,426.9,409.4,426.2z"/>
	<path class="st2" d="M210.9,477.3c-1,1.8-2.4,3.2-3.9,4.6c-1.5,1.3-3,2.6-4.6,3.7c-1.6,1.2-3.1,2.3-4.6,3.4
		c-0.7,0.6-1.5,1.2-2.1,1.9c-0.4,0.3-0.7,0.7-1,1l-0.5,0.6c-0.2,0.2-0.5,0.3-0.7,0.4c0.1-0.2,0.3-0.4,0.4-0.6l0.2-0.7
		c0.2-0.5,0.4-0.9,0.6-1.4c0.5-0.9,1.1-1.8,1.7-2.5c1.3-1.6,2.9-2.9,4.5-4.1s3.2-2.2,4.9-3.3C207.5,479.3,209.2,478.3,210.9,477.3z"
		/>
	<path class="st2" d="M325.4,353.3c-0.2,1.7-1.2,3.2-1.9,4.5c-0.7,1.3-1.2,2.6-1.5,4s-0.6,2.9-0.9,4.5c-0.2,1.6-0.6,3.1-1.1,4.7
		c-0.5-1.6-0.7-3.2-0.8-4.8c-0.1-1.6,0-3.3,0.4-4.9s1.2-3.3,2.4-4.6C323,355.4,324.2,354.5,325.4,353.3z"/>
	<path class="st2" d="M303.6,360c0.3,1.7,0.1,3.4-0.3,5s-1,3.2-1.8,4.7s-1.7,2.9-2.6,4.2c-1,1.3-2,2.6-3.3,3.7
		c0.7-3.3,2.3-6.2,3.7-9l2.1-4.2C302.2,363,302.8,361.5,303.6,360z"/>
	<path class="st2" d="M287.7,313.9c-0.1,1.7,0.6,3,1.4,4.4l0.6,1.1l0.3,0.6c0.1,0.2,0.2,0.3,0.3,0.5c0.4,0.6,0.8,1.3,1.2,1.9
		c0.9,1.2,2,2.4,2.9,3.8s1.8,2.8,2.4,4.4c-1.5-0.9-2.7-2-3.9-3.1c-1.2-1.1-2.4-2.2-3.5-3.6c-0.5-0.7-1-1.5-1.4-2.3
		c-0.1-0.2-0.2-0.4-0.3-0.6l-0.2-0.6c-0.1-0.4-0.3-0.8-0.4-1.2c-0.3-0.8-0.4-1.7-0.4-2.6C286.9,315.5,287.1,314.6,287.7,313.9z"/>
	<path class="st2" d="M219,437.2c0.1,0.1,0.3,0.2,0.4,0.3c0.1,0.1,0.1,0.1,0.2,0.2c0,0.1,0.1,0.1,0.1,0.2l0.1,0.1
		c0.1,0.3,0.2,0.6,0.4,0.9c0.2,0.6,0.5,1.2,0.7,1.8c0.5,1.2,1,2.4,1.4,3.7c0.4,1.3,0.8,2.6,1,3.9c0.1,0.7,0.1,1.4,0.1,2.1
		c0,0.8-0.3,1.3,0.3,1.8c-0.4,0-0.8-0.2-1-0.6c-0.1-0.1-0.1-0.2-0.1-0.3l-0.1-0.2l-0.2-0.5l-0.8-1.8c-0.5-1.2-1-2.4-1.5-3.7
		c-0.4-1.3-0.8-2.6-0.9-4c-0.1-0.7-0.1-1.4,0-2.1c0-0.4,0.1-0.7,0.1-1v-0.1c0,0,0,0,0-0.1s0-0.1,0-0.2
		C219.1,437.5,219.1,437.4,219,437.2z"/>
	<path class="st2" d="M254.6,461.8c0,1.5-0.4,3-1.3,4.3c-0.9,1.3-2.1,2.4-3.5,3.1s-2.8,1.1-4.4,1.3c-1.6,0.1-2.7-0.2-4,0.7
		c0.2-0.8,0.8-1.4,1.5-1.8s1.5-0.6,2.1-0.8c1.2-0.5,2.5-1,3.6-1.6s2.2-1.3,3.2-2.1C252.8,464.1,253.7,463,254.6,461.8z"/>
	<path class="st2" d="M217.5,425.3c0.3-0.1,0.8,0.1,0.9,0.5c0.2,0.4,0.2,0.7,0.3,1c0.2,0.7,0.4,1.3,0.6,2c0.4,1.3,0.7,2.7,1,4
		c0.1,0.4,0.2,0.6,0.2,1.1c0.1,0.4,0.1,0.8,0,1.3c-0.1,0.9-0.4,1.7-0.8,2.4c-0.5,0.8-0.9,1.1-1.1,1.7c-0.3,0.5-0.5,1.1-0.8,1.6
		c-0.4,1.2-0.7,2.4-0.9,3.8c-0.1,0.7-0.2,1.3-0.3,1.9c0,0.6,0,1.3,0,2s0,1.4,0,2.1c0,0.4-0.1,0.7-0.1,1.1c0,0.3,0,0.5,0,0.8
		c0.1,0.6,0.3,1.2,0.5,1.9c0.1,0.3,0.3,0.7,0.3,1c0,0.4,0,0.7,0.1,1c-0.2-0.3-0.4-0.6-0.5-0.9s-0.3-0.5-0.6-0.8
		c-0.4-0.6-0.8-1.2-1.1-1.9c-0.1-0.4-0.2-0.8-0.3-1.2c0-0.3-0.1-0.7-0.1-1l-0.3-2c-0.1-0.7-0.2-1.4-0.2-2.1s0-1.5,0.1-2.2
		c0.1-1.4,0.4-2.9,0.9-4.3c0.3-0.7,0.6-1.4,1-2.1s1-1.3,1.3-1.7c0.3-0.4,0.5-0.9,0.6-1.4s0.1-1.1,0-1.8c-0.1-1.4-0.2-2.7-0.3-4.1
		c0-0.7-0.1-1.4-0.1-2.1C218.1,426.2,218.3,425.5,217.5,425.3z"/>
	<path class="st2" d="M241.3,294.1c-0.7,1.3-1.7,2.3-2.6,3.2c-0.9,0.9-1.8,1.8-2.3,2.8c-0.6,0.9-1,2.1-1.5,3.3
		c-0.2,0.6-0.5,1.3-0.8,1.9l-0.2,0.5c-0.1,0-0.1,0.1-0.1,0.2c0,0.3,0.2,0.7,0.2,1c-0.3-0.2-0.5-0.4-0.8-0.7
		c-0.1-0.1-0.3-0.4-0.2-0.7v-0.5c0-0.7,0-1.4,0-2.1c0.1-1.4,0.4-2.9,1.3-4.2c0.8-1.3,2.1-2.3,3.3-3
		C238.7,295,239.9,294.6,241.3,294.1z"/>
	<path class="st2" d="M487.1,393.2c0.2-0.8-0.5-0.6-1.2-1.3l-1.5-1.3c-1-0.9-2-1.8-2.9-2.8c-1-0.9-1.9-1.9-2.8-3
		c-0.4-0.5-0.8-1.1-1.3-1.7l-0.3-0.4l-0.1-0.2c0,0,0-0.1-0.1-0.1c-0.2-0.2-0.5-0.4-0.8-0.6c0.4,0,0.7-0.1,1.1,0
		c0.1,0,0.2,0.1,0.3,0.1l0.2,0.1l0.5,0.3c0.6,0.4,1.2,0.7,1.8,1.1c1.1,0.8,2.2,1.7,3.2,2.7s1.9,2.1,2.7,3.3c0.4,0.6,0.7,1.2,1,1.9
		l0.1,0.2c0,0.1,0,0.1,0.1,0.2s0.2,0.3,0.3,0.5c0.1,0.2,0.2,0.4,0.1,0.7C487.4,393,487.2,393.1,487.1,393.2z"/>
	<path class="st2" d="M300.4,340c0.6,0.9,1,1.9,1.3,2.9s0.5,2,0.6,3s0.1,2,0,3s-0.3,2.1-0.9,3.1c-0.4-1-0.7-2-1-2.9
		c-0.3-1-0.5-1.9-0.5-3c-0.1-1-0.2-2-0.1-3S300,341.1,300.4,340z"/>
	<path class="st2" d="M271.4,459.1c1.6,0.5,3,1.4,4.4,2.1c0.7,0.4,1.3,0.8,2,1c0.1,0.1,0.3,0.1,0.3,0.1s0,0-0.1,0c0,0-0.1,0-0.2,0
		s-0.3,0.1-0.4,0.2s0,0,0-0.1s0.1-0.3,0.1-0.5l0.3-1.2c0.1-0.4,0.2-0.8,0.5-1.3c0.1-0.2,0.3-0.5,0.6-0.9c0.2-0.2,0.5-0.3,0.8-0.4
		s0.5,0,0.7,0c0.7,0.2,1,0.4,1.4,0.6c1.3,0.9,2.8,1.8,3.7,3.2c-1.6-0.6-3.1-0.9-4.6-1.4c-0.3-0.1-0.8-0.3-0.8-0.2c0,0,0,0,0.2,0
		c0.1,0,0.2-0.1,0.2-0.1c0.1-0.1,0,0,0,0.1c-0.1,0.3-0.2,0.6-0.3,1l-0.2,1.1c-0.1,0.2-0.1,0.4-0.2,0.7c-0.1,0.3-0.2,0.5-0.6,0.9
		c-0.2,0.2-0.5,0.4-0.9,0.5c-0.2,0-0.3,0-0.5,0s-0.3,0-0.4-0.1c-0.4-0.1-0.6-0.2-0.9-0.4c-0.8-0.5-1.4-1-2-1.6
		C273.4,461.7,272.5,460.5,271.4,459.1z"/>
	<path class="st2" d="M333.8,393.2c-0.9,0.8-1.8,1.4-2.7,2c-0.9,0.6-1.7,1.2-2.5,1.8c-0.4,0.3-0.8,0.6-1.2,0.9l-0.6,0.5
		c-0.2,0.2-0.4,0.4-0.5,0.4c-0.3,0.2-0.6,0.7-1,1.2s-1.1,0.9-1.7,0.8c0.9-0.9,0.5-1.7,1.2-3.1c0.2-0.4,0.4-0.6,0.5-0.8
		c0.2-0.2,0.4-0.5,0.6-0.7c0.4-0.4,0.9-0.8,1.3-1.2c1-0.7,2-1.2,3.2-1.5C331.4,393.1,332.6,393,333.8,393.2z"/>
	<path class="st2" d="M391.9,409.1c-0.3,1.2-0.5,2.2-0.8,3.3c-0.3,1.1-0.8,2.2-1.5,3.2c-1.4,2-3.5,3.5-6,3.6c0.7-1,1.5-1.8,2.1-2.6
		c0.6-0.8,1.2-1.6,1.8-2.5l1.8-2.6C389.9,410.6,390.7,409.6,391.9,409.1z"/>
	<path class="st2" d="M320.2,384.2c0.7,0.8,1.1,1.8,1.3,2.8c0.2,1,0.3,2,0.3,2.9s0,1.8,0,2.7c0,0.8-0.1,1.5,0.7,2.3
		c-0.5,0.1-1.2,0-1.7-0.4s-0.8-1-1-1.5c-0.4-1-0.5-2-0.5-3s0.1-1.9,0.2-2.9C319.7,386.1,319.9,385.2,320.2,384.2z"/>
	<path class="st2" d="M201.5,474.9c-0.1,0.4-0.3,0.7-0.5,0.9c-0.2,0.3-0.5,0.5-0.7,0.8c-0.5,0.5-0.9,1-1.3,1.6l-2.6,3.2
		c-0.9,1.1-1.8,2.1-2.8,3.2c-0.2,0.3-0.5,0.5-0.8,0.7c-0.1,0.1-0.1,0.1-0.1,0.1l0,0c0,0,0,0,0,0.1s0.1,1,0.2,1.6
		c0.2,1.3,0.5,2.6,0.9,3.8c0.1,0.3,0.2,0.6,0.3,0.9c0.1,0.1,0.1,0.2,0.2,0.5c0.1,0.3,0.2,0.5,0.2,0.7c0.1,0.9,0,1.6,0,2.2
		c0,1.3,0.2,2.6,0.4,4c0.1,0.7,0.2,1.4,0.3,2.1v0.5c0,0.2,0,0.3,0.1,0.4c0.1,0.3,0.4,0.6,0.4,0.9c-0.2-0.3-0.5-0.4-0.8-0.7
		c-0.1-0.1-0.2-0.4-0.3-0.5l-0.2-0.5l-0.8-1.9c-0.5-1.3-1-2.7-1.2-4.2c-0.1-0.8-0.1-1.5-0.2-1.9c0-0.1-0.1-0.2-0.1-0.3l-0.2-0.4
		c-0.2-0.3-0.4-0.7-0.5-1c-0.6-1.4-0.9-2.9-1.1-4.3l-0.2-1c0-0.3-0.1-0.9,0-1.4c0.1-0.3,0.2-0.6,0.4-0.9c0.1-0.1,0.2-0.3,0.3-0.4
		s0.2-0.2,0.3-0.3l0.8-0.6c1-0.8,2-1.8,3-2.8s2-1.9,3.1-2.8c0.6-0.4,1.1-0.9,1.7-1.2c0.3-0.2,0.6-0.4,0.9-0.6
		C201,475.4,201.3,475.2,201.5,474.9z"/>
	<path class="st2" d="M272.2,376.8c1.1,0.2,2,0.9,2.7,1.7c0.7,0.8,1.2,1.7,1.6,2.5c0.4,0.9,0.7,1.7,1,2.7c0.2,1,0.3,2.2-0.3,3.2
		c-0.5-1-1-1.6-1.5-2.4c-0.5-0.7-1.1-1.6-1.4-2.5c-0.4-0.9-0.7-1.7-1-2.6C272.9,378.7,272.6,377.8,272.2,376.8z"/>
	<path class="st2" d="M485.6,249.8c-1-0.3-1.8-0.6-2.5-0.8c-0.8-0.2-1.5-0.2-2.3-0.3c-0.8,0-1.6-0.1-2.5-0.1c-0.4,0-0.9-0.1-1.4-0.2
		c-0.3-0.1-1,0-1.4-0.3c0.5-0.3,0.7-0.6,1.2-0.9c0.4-0.2,0.9-0.4,1.3-0.6c0.9-0.3,1.9-0.5,2.9-0.4c1,0,2.1,0.4,3,1
		C484.7,247.9,485.4,248.8,485.6,249.8z"/>
	<path class="st2" d="M358.1,382.7c1.2-0.1,2.4,0.4,3.3,1c1,0.7,1.8,1.5,2.4,2.4c0.3,0.4,0.6,0.9,0.9,1.3s0.5,0.8,0.8,1.3
		s0.5,1.1,0.6,1.7s0,1.3-0.3,1.8c-0.4-1.1-1.1-1.6-1.8-2.3c-0.4-0.3-0.8-0.7-1.2-1.2c-0.4-0.4-0.7-0.8-1-1.2l-1.8-2.4
		C359.5,384.4,358.9,383.6,358.1,382.7z"/>
	<path class="st2" d="M411.8,422.3c1.1,0.2,2.1,0.7,3,1.2s1.7,1.2,2.5,1.9c0.8,0.7,1.4,1.6,2,2.5c0.5,0.9,1,1.9,1.1,3.1
		c-1-0.6-1.8-1.2-2.6-1.8c-0.8-0.6-1.5-1.3-2.2-2s-1.4-1.4-2-2.2C412.9,424.2,412.3,423.4,411.8,422.3z"/>
	<path class="st2" d="M282.3,451.3c-0.1,1,0,1.6,0.2,2.2s0.5,1.2,0.8,2l0.2,0.5c0.1,0.1,0.1,0.3,0.2,0.5c0.1,0.3,0.3,0.7,0.4,1.2
		s0.2,1,0.1,1.5s-0.4,1-0.8,1.3c-0.2-1-0.6-1.4-1.1-1.9c-0.2-0.3-0.5-0.6-0.8-0.9c-0.1-0.2-0.2-0.4-0.4-0.6
		c-0.1-0.3-0.2-0.5-0.3-0.6c-0.3-0.8-0.5-1.7-0.4-2.8C280.7,452.6,281.3,451.6,282.3,451.3z"/>
	<path class="st2" d="M171.6,397.6c-0.6,0.7-0.9,1.3-1.3,1.9c-0.4,0.6-0.8,1.3-1.5,1.9c-0.2,0.1-0.4,0.3-0.6,0.4
		c-0.2,0.1-0.4,0.2-0.6,0.3c-0.4,0.2-0.7,0.3-1.1,0.4c-0.7,0.2-1.4,0.3-2.2,0.7c0-1,0.6-1.8,1.2-2.4c0.3-0.3,0.6-0.5,0.9-0.8
		c0.3-0.2,0.5-0.4,0.7-0.6c0.5-0.4,1.1-0.9,1.8-1.4C169.7,397.6,170.7,397.3,171.6,397.6z"/>
	<path class="st2" d="M453,309c-0.3,0.7-0.3,1.1-0.3,1.4s0.1,0.6,0.1,1.1c0,0.4-0.1,1.1-0.3,1.6c-0.2,0.5-0.6,1.2-1.3,1.4
		c-0.3-0.7-0.5-1.1-0.6-1.6s-0.2-0.9-0.2-1.5s0.1-1.3,0.7-1.9C451.5,308.9,452.3,308.7,453,309z"/>
	<path class="st2" d="M356.9,398.6c0.6,0.4,0.9,0.7,1.1,1.1c0.2,0.3,0.4,0.7,0.5,1s0.1,0.7,0.1,1.1s-0.1,0.8-0.4,1.5
		c-0.7-0.1-1.1-0.4-1.5-0.7c-0.3-0.4-0.6-0.8-0.7-1.2c-0.1-0.4-0.1-0.9,0-1.4C356.2,399.5,356.4,399.1,356.9,398.6z"/>
	<path class="st2" d="M414.5,288.7c0.4,0.5,0.5,1.1,0.5,1.6s-0.2,1-0.4,1.3c-0.2,0.4-0.6,0.7-0.9,0.9c-0.4,0.2-0.8,0.4-1.5,0.5
		c-0.2-0.6-0.2-1.1-0.1-1.6s0.2-0.8,0.4-1.2c0.2-0.3,0.5-0.6,0.8-0.8C413.6,289.2,413.9,289,414.5,288.7z"/>
	<path class="st2" d="M252.1,456.6c0.4,0.2,0.7,0.6,0.9,1c0.1,0.2,0.2,0.3,0.3,0.4c0,0.1,0.1,0.1,0.1,0.1c0,0.1,0.1,0.2,0.2,0.3
		c0.4,0.8,0.5,1.8,0.3,2.7c-0.5,1.8-2.2,3.1-3.9,2.7c0.4-0.8,0.7-1.4,1-1.9c0.2-0.5,0.4-1,0.5-1.5s0.2-0.9,0.2-1.5
		c0-0.1,0-0.1,0-0.2s0-0.3,0-0.4c0-0.2,0.1-0.4,0.1-0.6C251.9,457.3,252,457,252.1,456.6z"/>
	<path class="st2" d="M459.4,295c0.1,0.6,0.4,0.8,0.5,1.1c0.1,0.3,0.1,0.8,0,1.2c-0.1,0.4-0.4,0.8-0.8,1s-0.9,0.4-1.5,0.2
		c-0.1-0.6-0.1-1-0.1-1.3s0-0.5,0.1-0.8c0.1-0.2,0.2-0.4,0.5-0.7C458.3,295.3,458.8,294.8,459.4,295z"/>
	<path class="st2" d="M407.2,449.5c-0.1-0.1-0.3-0.1-0.4-0.1s-0.1,0.1-0.1,0.3c0.2,0.2,0.2,0.3-0.1,0.4c-0.1,0.1-0.4,0.1-0.6,0.1
		c-0.1,0-0.1,0-0.2,0.1c-0.1,0-0.2,0-0.3,0c-0.2,0-0.5-0.1-0.9-0.2c-0.3-0.2-0.7-0.5-1-1c0.4-0.5,0.6-0.7,0.9-0.9
		c0.3-0.2,0.6-0.3,1-0.3c0.2,0,0.4,0,0.6,0.1c0.1,0,0.2,0.1,0.3,0.1c0,0-0.2,0.1-0.1,0.1c0.1,0.1,0.3,0.1,0.8,0.4
		c0.2,0.2,0.3,0.4,0.2,0.6C407.4,449.3,407.3,449.4,407.2,449.5z"/>
	<path class="st2" d="M244.9,459c0.8,0.3,1.4,0.6,2,1s1,0.8,1.5,1.2c0.5,0.4,0.9,0.9,1.3,1.4l0.3,0.4c0.1,0.1,0.1,0.1,0.2,0.2
		c0.1,0.1,0.2,0.3,0.3,0.4c0.1,0.4,0,0.7-0.1,0.8c-0.1,0.2-0.2,0.3-0.4,0.5c-0.2-0.2-0.2-0.4-0.3-0.5c-0.1-0.2-0.2-0.2-0.3-0.1
		c0,0,0,0.1-0.1,0.1h-0.2c-0.2,0-0.4-0.1-0.5-0.2c-0.7-0.3-1.3-0.7-1.9-1.2c-0.5-0.5-1-1.1-1.3-1.8C245,460.6,244.8,459.8,244.9,459
		z"/>
	<path class="st2" d="M261.8,335.1c1.7-1.7,4.7-2.1,7-2.1c1.1,0,2.5,0,3.5,0.4c1.3,0.6,1.7,0.8,0.4,2c-3.3,3.1-7.8,2.5-11.1-0.1
		c-0.2-0.2-1.2,0-0.9,0.2c4.6,3.7,10.8,3.4,14.3-1.5c0.1-0.1-0.1-0.2-0.1-0.2c-4.1-1.6-10.8-2.2-14.1,1.2
		C260.6,335.1,261.5,335.3,261.8,335.1L261.8,335.1z"/>
	<path class="st2" d="M233,332.8c2.2,0.1,4.2-0.8,6.4-1c3.2-0.2,6.5,0.4,8.2,3.3c0.2,0.3,1.1,0.1,1-0.1c-1.2-2.1-3.3-3.1-5.6-3.5
		c-1.2-0.2-2.5-0.2-3.8-0.1c-2.1,0.1-4.1,1.1-6.2,1C232.4,332.3,232.4,332.7,233,332.8L233,332.8z"/>
	<path class="st2" d="M233,332.8c-0.3,1,1.9,1.6,2.5,2c1.5,1,3.1,1.7,4.8,2.1c3.1,0.6,5.5-0.8,8-2.7c0.3-0.2-0.6-0.4-0.9-0.2
		c-0.9,0.7-2,1.7-3.2,2.1c-1.7,0-3.4,0-5.1-0.1c-0.8-0.3-1.5-0.6-2.3-1c-0.3-0.2-3-2.1-2.9-2.2C234,332.6,233,332.5,233,332.8
		L233,332.8z"/>
	<path class="st2" d="M262.3,332.7c2.8-1.4,6.2-2.9,9.1-0.8c0.6,0.4,2.9,0,2.2-0.5c-4-2.9-9.1-1.4-13,0.6
		C259.4,332.6,261.7,333,262.3,332.7L262.3,332.7z"/>
	<path class="st2" d="M234.1,329.9c1.7-0.8,2.9-1.3,4.8-0.8c0.4,0.1,0.8,0.1,1.2,0.2c0.7,0.2,1.2,0.7,1.9,1c0.6,0.3,3-0.2,1.8-0.7
		c-1.1-0.5-1.5-1.1-2.7-1.3c-1-0.2-1.9-0.5-2.9-0.6c-2.1-0.3-4,0.7-5.8,1.6C231.2,329.7,233.5,330.2,234.1,329.9L234.1,329.9z"/>
	<path class="st2" d="M274.4,327.3c-1.7,0.7-4.4-0.3-6.3-0.1c-1.9,0.2-3.8,0.7-5.6,1.6c-0.4,0.2-0.8,0.6-1.2,0.7
		c-0.4,0.4-0.9,0.3-1.5-0.1c-1.1,0.1-1.4-0.2-0.8-0.9c0.3-1.3,2-2.2,3-2.7c2.7-1.2,5.7-1.1,8.5-0.3c0.9,0.3,3.7,0.8,1.5,1.7
		c-0.9,0.4-2.6-0.1-3.6-0.2c-1.8,0-3.5,0.1-5.2,0.8c-0.6,0.2-2.7,1.6-3.3,1.4c-1.9-0.7,2-2.7,2.6-2.9c1.7-0.6,3.5-0.7,5.4-0.5
		c1.3,0.1,4.3,0.1,5,1.3c0.4-0.2,0.8-0.4,1.2-0.7c-2.7,0-5.4-0.1-8.1,0.1c-1.1,0.1-2.2,0.3-3.3,0.6c-0.6,0.2-1.1,0.4-1.7,0.6
		c-0.4,0.1-2.2,0.6-1.1,0.7c0.3,0.1,0.6,0.2,0.9,0.4c-0.7-1.1,3.9-1.9,4.4-2c1.5-0.3,4.6-1,5.9,0.1c0.4-0.3,0.7-0.5,1.1-0.8
		c-4.2-0.2-8.3,0.2-12.3,1.2c-1.6,0.4,0.5,1.1,1.3,0.9c3.7-0.9,7.3-1.2,11-1c0.3,0,1.7-0.3,1.1-0.8c-2-1.6-5.6-1-8-0.7
		c-1.5,0.2-6.4,0.6-7,2.3c-0.7,1.8,2.2,1.5,3.1,1.2c2.5-0.8,4.4-1.7,7.1-1.7c1.9,0,3.8,0,5.7,0c0.2,0,1.5-0.1,1.2-0.7
		c-1.2-2.1-6.1-2-8.2-2.1c-2.9-0.1-6.2,0.2-8.7,2c-1.6,1.1-2.1,3.5,0.3,3.8c1.3,0.2,2.7-0.4,3.8-0.9c2.6-1.1,4.8-1.6,7.7-1.5
		c0.8,0,6.7,0.5,6.2-1.6c-0.2-0.8-1.6-1.1-2.2-1.2c-1.6-0.5-3.3-1.2-5-1.5c-2.8-0.5-6.1-0.1-8.7,1c-1.8,0.7-5.7,3.3-4,5.6
		c1.5,2.1,4.8,0.8,6.5-0.2c2.8-1.6,5.4-2.1,8.6-1.7c1.5,0.2,2.9,0.2,4.4-0.4C277.4,327.5,275,327,274.4,327.3L274.4,327.3z"/>
	<path class="st2" d="M231.3,326.7c2.1-2.6,4-3.6,7.6-2.7c1.1,0.3,2.2,0.4,3.3,0.7c0.2,0,3,1,3.3,1.8c0,1.5-0.6,2.1-1.6,1.8
		c-0.6,0-1.3-0.1-1.9-0.3c-1.4-0.3-2.8-0.7-4.2-0.9c-1.2-0.2-2.5-0.3-3.8-0.2c-0.6,0.1-1.3,0.3-1.9,0.4c-2,0.2-0.5-0.9,0.4-1.6
		c4.2-3.1,9-0.3,13.2,1.4c-0.1-0.2-0.2-0.3-0.3-0.5c0.6,0.3,0.6,0.3,0,0.1c-0.4-0.2-0.9-0.3-1.3-0.5c-0.7-0.3-1.4-0.6-2.2-0.8
		c-1.4-0.5-2.7-1.2-4.2-1.5c-1.8-0.4-3.7-0.3-5.1,1c-0.5,0.5,0.4,0.7,0.7,0.8c4.1,0.5,8,1.4,11.8,2.8c0.4-0.3,0.8-0.6,1.2-0.9
		c-3.5-0.2-6.7-1.5-10.1-2.2c-1.6-0.3-3.8-0.8-5.1,0.4c-0.5,0.5,0.4,0.7,0.7,0.8c3.3,0.3,6.6,1,9.8,2c0.5,0.2,2.7-0.3,1.5-0.8
		c-2.4-1-5.1-1.4-7.7-1.6c-2.3-0.2-3.9,0.4-5.9,1.3c0.7,0,1.3,0.1,2,0.1c-0.2-0.2,1.3-0.9,1.4-0.9c0.8-0.4-1.6-0.9-2.2-0.5
		c-0.8,0.4-2.5,0.9-1.4,2c0.4,0.4,1.5,0.3,2,0.1c3.3-1.4,6.8-1,10.1,0.4c0.5-0.3,1-0.5,1.5-0.8c-3.4-1.1-6.9-1.7-10.4-2.1
		c0.2,0.3,0.5,0.5,0.7,0.8c1-1,5.6,0.9,6.9,1.3c1.8,0.5,3.6,0.8,5.5,1c0.4,0,2.4-0.4,1.2-0.9c-4.2-1.6-8.5-2.6-12.9-3.1
		c0.2,0.3,0.5,0.5,0.7,0.8c2.7-2.5,11.2,5.7,12.9,1.5c0.1-0.3-0.1-0.4-0.3-0.5c-3.2-1.3-6.7-3.4-10.1-3.5c-2.7-0.1-5.6,1.1-7.7,2.8
		c-1.4,1.2-2.2,2.7,0.2,2.9c1.8,0.2,3.4-0.7,5.2-0.7c2.1,0,4.3,0.8,6.4,1.2c1.8,0.3,5.4,1,6.9-0.4c1.9-1.7-2.6-4.1-3.9-4.6
		c-1.5-0.5-3-0.6-4.5-1.1c-1.3-0.4-2.5-0.8-3.9-0.7c-3,0.2-5.4,1.9-7.2,4.2C228.5,326.9,230.8,327.3,231.3,326.7L231.3,326.7z"/>
	<path class="st2" d="M244.6,350c0.3,1.4,2.2,2.8,3.3,3.7c1.2,0.9,2.5,1.1,3.9,1c1.8-0.1,4-0.5,5.6-1.3c1.8-0.9,2.2-2.6,2.4-4.4
		c0.1-0.5-1.9-0.6-2,0c-0.1,1-0.2,2.4-1,3.1c-1,0.9-3.3,1.6-4.6,1.6c-1.5,0.1-5.2-1.8-5.6-3.7C246.5,349.4,244.5,349.5,244.6,350
		L244.6,350z"/>
	<path class="st2" d="M263.6,358.3c-3.4,2.1-7.3,2.1-11.2,2c-2.4-0.1-4.7-0.3-7-1.1c-0.4-0.1-0.8-0.3-1.2-0.5c0.5-0.2,1-0.5,1.4-0.7
		c0.5,0,1.4,0.4,1.9,0.5c0.8,0.1,1.4,0,2.2,0c1,0,2,0.5,3,0.4c1.6-0.1,3.1-0.8,4.7-0.8c2,0,4.3,0.6,6.2,1c0.3,0.1,1.1-0.2,0.5-0.4
		c-2.3-0.5-4.7-1-7.1-1.1c-1.9-0.1-3.5,0.8-5.5,0.6c-1.9-0.2-3.8-0.3-5.7-0.7c-1.4-0.3-2.5-0.3-3.8,0.3c-0.1,0-0.2,0.2-0.1,0.3
		c3.7,2.2,7.4,2.6,11.6,2.7c3.8,0,7.6-0.2,10.9-2.3C264.8,358.4,263.8,358.2,263.6,358.3L263.6,358.3z"/>
	<path class="st2" d="M242.8,359.2c2.6,1.6,5.2,3.7,8.2,4.5c2.5,0.7,4.9,0.1,7.4-0.6c1.7-0.5,5.5-1.6,6.1-3.7c0.3-0.9-0.1-1.3-1.1-1
		c-0.6,0.2,0.2,0.4,0.5,0.4c-0.1,0-1.9,2.1-1.8,2.1c-0.6,0.4-1.2,0.8-1.8,1.1c-1.6,0.7-3.4,1.3-5.1,1.6c-4.5,0.6-7.9-2.2-11.5-4.5
		C243.4,358.8,242.5,359,242.8,359.2L242.8,359.2z"/>
	<path class="st2" d="M268.2,333.3c1.5,0.8,0.7,3.1-0.3,3.9c-0.3,0.3,0.7,0.4,0.9,0.2c1.2-1.1,1.8-3.5,0.1-4.4
		C268.7,332.9,267.7,333.1,268.2,333.3L268.2,333.3z"/>
	<path class="st2" d="M264.1,333.8c-0.4,0.5-0.8,1.1-0.5,1.7c0.1,0.2,0.2,0.3,0.3,0.6c0,0.1,0,0.3,0.1,0.4c0.1,0.3,0.2,0.5,0.5,0.6
		c0.2,0.1,0.5,0.1,0.7,0c0.1-0.1,0.2-0.2,0-0.3c-0.3-0.1-0.3-0.5-0.4-0.8c-0.1-0.2-0.2-0.3-0.3-0.5c-0.2-0.6,0.2-1.1,0.5-1.5
		C265.3,333.7,264.3,333.6,264.1,333.8L264.1,333.8z"/>
	<path class="st2" d="M263.5,334.7c0.9-0.3,1.6-0.7,2.5-0.8c0.9-0.1,1.8-0.3,2.7-0.5c0.4-0.1,0.8-0.3,0.4-0.7
		c-0.3-0.4-1.3-0.3-1.7-0.2c-1,0.3-2.1,0.3-3.1,0.5c-0.9,0.2-1.7,0.6-2.5,0.9c-0.5,0.2-0.4,0.5,0,0.7
		C262.2,335,263,334.9,263.5,334.7L263.5,334.7z"/>
	<path class="st2" d="M265.7,333.6c-0.5,0.5-0.8,1.1-0.9,1.8c-0.1,0.7,0.1,1.2,0.8,1.4c0.7,0.2,1.3,0.2,1.9-0.1
		c0.3-0.1,0.6-0.3,0.8-0.6c0.2-0.3,0.1-0.7,0-1c-0.1-0.6-0.3-1.2-1-1.4c-0.6-0.2-1.2,0-1.5,0.6c-0.2,0.5-0.6,1.5-0.2,2
		c0.3,0.3,1,0.3,1.4,0.1c0.7-0.3,0.7-1.5,0.5-2.1c-0.2-0.4-1.1-0.5-1.3-0.1c-0.1,0.3,0.8,0.4,1,0.1v-0.1c-0.1,0-0.2,0.1-0.2,0.1h0.1
		c-0.2,0-0.3,0-0.5,0h0.1c-0.1,0-0.2-0.1-0.2-0.1c0.2,0.3,0.2,0.9,0.1,1.3c0,0.1,0,0.2-0.1,0.3c-0.1,0.1-0.1,0.1,0,0.2
		c0-0.2,0-0.3,0-0.5c0-0.4,0.1-0.9,0.4-1.2c0-0.1,0-0.1,0.1,0s0.1,0.2,0.2,0.3c0.1,0.2,0.1,0.4,0.2,0.7c0.1,0.5,0.1,0.7-0.2,1
		c-0.5,0.4-1.1,0.5-1.2-0.2s0.2-1.5,0.7-2.1C266.9,333.5,265.9,333.4,265.7,333.6L265.7,333.6z"/>
	<path class="st2" d="M237.7,335.1c-0.6-1.4,1.1-2.7,2.1-3.2c-0.2,0-0.3,0-0.5,0.1h0.1c0.1,0,0.6,0,0.6-0.1c0-0.2-0.2-0.2-0.3-0.3
		c-0.9-0.1-1.6,0.7-2.2,1.3c-0.7,0.6-1.1,1.5-0.8,2.4C236.9,335.4,237.9,335.4,237.7,335.1L237.7,335.1z"/>
	<path class="st2" d="M242.2,332.2c0.8,0.4,1,1.4,1,2.2c0,0.9-0.6,1.3-1.2,1.9c-0.3,0.3,0.7,0.4,0.9,0.2c0.8-0.8,1.5-1.3,1.3-2.4
		c-0.1-0.9-0.4-1.8-1.2-2.2C242.7,331.8,241.7,332,242.2,332.2L242.2,332.2z"/>
	<path class="st2" d="M241.4,332.5c-0.8-0.2-1.8-0.2-2.5,0.2c-0.8,0.5-0.5,1.5-0.1,2.2c0.7,1.4,3.3,0.9,3.5-0.6
		c0.1-0.8-0.6-1.5-1.3-1.6c-0.6-0.1-1.7,0.2-1.9,0.9c0,0.1,0,0.3,0,0.4c0.1,0.2,0.2,0.4,0.3,0.7c0.1,0.3,0.2,0.5,0.5,0.6
		c0.8,0.2,1.4-0.2,1.5-1c0-0.4,0-1-0.4-1.2c-0.3-0.1-0.8-0.1-1,0.1c-0.3,0.2-0.4,0.7-0.2,1s0.7,0.4,1,0.3c0.1,0,0.4-0.1,0.3-0.3
		c-0.1-0.2-0.5-0.2-0.6-0.1h-0.1c0.2,0,0.3,0,0.5,0.1c-0.3-0.1-0.2-0.7,0-0.8c-0.2,0-0.3,0-0.5,0.1h0.1c-0.1,0-0.2-0.1-0.3-0.1
		c0.4,0.4,0.2,1,0.1,1.4l-0.1,0.1c0.2,0.1,0.3,0,0.1-0.2c0-0.1,0-0.2-0.1-0.4c-0.1-0.2-0.2-0.3-0.2-0.5c0-0.3,0.3-0.6,0.6-0.6
		s0.6,0.6,0.7,0.9c0,0.4-0.3,0.8-0.6,1c-0.2,0.2-0.4,0.3-0.7,0.1c-0.2-0.1-0.3-0.3-0.4-0.5c-0.2-0.4-0.3-0.8-0.2-1.2
		c0.1-0.7,0.9-0.7,1.4-0.6c0.2,0,0.6,0.1,0.7-0.1C241.7,332.6,241.5,332.5,241.4,332.5L241.4,332.5z"/>
</g>
</svg>
