<?xml version="1.0" encoding="utf-8"?>
<!-- Generator: Adobe Illustrator 23.0.3, SVG Export Plug-In . SVG Version: 6.00 Build 0)  -->
<svg version="1.1" id="Title" xmlns="http://www.w3.org/2000/svg" xmlns:xlink="http://www.w3.org/1999/xlink" x="0px" y="0px"
	 viewBox="0 0 1920 1080" enable-background="new 0 0 1920 1080" xml:space="preserve">
<text id="breaking" transform="matrix(1 0 0 1 396.6938 486.7607)" opacity="0" fill="#FBFBFB" font-family="'LibreBaskerville-Regular'" font-size="240.8936px">Breaking</text>
<text transform="matrix(1 0 0 1 684.7803 785.7402)" fill="#FBFBFB" font-family="'LibreBaskerville-Regular'" font-size="240.8936px">Bias</text>
<g id="animate_1_">
	<path class="glass" fill="none" stroke="#323234" stroke-width="2" stroke-miterlimit="10" d="M486.5,394.4c4.5,0.1,8.2,0.5,11.5,0.8
		c3.3,0.4,6,1,8.4,1.8c0,0,0,0,0.1,0l-12.8-16c-2.3,0.4-5.1,0.6-8.3,0.8c-3.4,0.1-7.6,0.2-12.5,0.2h-13.5v-32.8l-25.2,27.1
		l31.6,17.7h4.5C476.6,394.2,482,394.3,486.5,394.4z"/>
	<path class="glass" fill="none" stroke="#323234" stroke-width="2" stroke-miterlimit="10" d="M420.1,475.2c-3.7,0.8-8.8,1.3-15.1,1.4v9.2h18.5
		l-2.2-10.9C421,475,420.5,475.1,420.1,475.2z"/>
	<path class="glass" fill="none" stroke="#323234" stroke-width="2" stroke-miterlimit="10" d="M630.6,441.6l-0.5-0.6l-19.4,7.6v0.6
		c0,6.2-0.2,11-0.6,14.6c-0.4,3.6-1.3,6.4-2.8,8.3c-0.4,0.4-0.6,0.7-1,1.1l2.8,1.6l-15,11h60.1v-8.4c-4.7-0.4-8.3-0.8-10.9-1.4
		c-2.5-0.6-4.6-1.9-5.9-4s-2.2-4.9-2.5-8.8c-0.4-3.9-0.5-9-0.5-15.7v-8.2l-2.4,1L630.6,441.6z"/>
	<path class="glass" fill="none" stroke="#323234" stroke-width="2" stroke-miterlimit="10" d="M610.8,420.2l4.5,0.8l-4.5-6
		C610.8,416.7,610.8,418.4,610.8,420.2z"/>
	<path class="glass" fill="none" stroke="#323234" stroke-width="2" stroke-miterlimit="10" d="M787.4,485.5c6.3-1.9,12.1-4.8,17.6-8.7l-17.9-2.7
		L787.4,485.5z"/>
	<path class="glass" fill="none" stroke="#323234" stroke-width="2" stroke-miterlimit="10" d="M768.1,488.2c0.1,0,0.1,0,0.2,0c0.4,0,0.6,0,1,0
		l-2.5-2.5L768.1,488.2z"/>
	<path class="glass" fill="none" stroke="#323234" stroke-width="2" stroke-miterlimit="10" d="M850.6,480.3c1,0.8,1.9,1.6,3,2.3l-7.4-7.4
		C847.5,477,848.9,478.7,850.6,480.3z"/>
	<path class="glass" fill="none" stroke="#323234" stroke-width="2" stroke-miterlimit="10" d="M940.8,485l-3.1,3.1c0.4,0,0.6,0,1,0
		c5.7,0,11-1.2,16.2-3.7c3.4-1.6,5.9-3.5,8-5.5l-22.1-1.2L940.8,485z"/>
	<path class="glass" fill="none" stroke="#323234" stroke-width="2" stroke-miterlimit="10" d="M1026.5,485.8h11.3v-8.4c-2.1-0.1-4-0.2-5.7-0.4
		l-10.5,4.1L1026.5,485.8z"/>
	<polygon class="glass" fill="none" stroke="#323234" stroke-width="2" stroke-miterlimit="10" points="969.3,481.3 969.3,485.8 970.9,485.8
		971.4,483.2 	"/>
	<path class="glass" fill="none" stroke="#323234" stroke-width="2" stroke-miterlimit="10" d="M1003.3,400.4l-10.9,1.3v47.4c0,1.4,0,2.9-0.1,4.2
		l10,9.5l11.7-11.5l-7.4-46.8L1003.3,400.4z"/>
	<polygon class="glass" fill="none" stroke="#323234" stroke-width="2" stroke-miterlimit="10" points="1105.6,485.8 1112.6,485.8 1112.6,479.9
		1112,479 	"/>
	<polygon class="glass" fill="none" stroke="#323234" stroke-width="2" stroke-miterlimit="10" points="970.6,294.4 969.8,294.5 970.5,295.3 	"/>
	<path class="glass" fill="none" stroke="#323234" stroke-width="2" stroke-miterlimit="10" d="M1081.4,457.7l-20.6,8.1v4.1
		c1.4,2.3,2.3,3.9,2.4,4.8c0,0.8-1,1.4-3,1.9c-2.1,0.5-5.7,0.7-11,0.7v8.4h38.6l-4-25.3L1081.4,457.7z"/>
	<path class="glass" fill="none" stroke="#323234" stroke-width="2" stroke-miterlimit="10" d="M1143.2,298.8c-1.4,2.3-2.2,4.9-2.2,7.8
		c0,4.2,1.4,7.7,4.3,10.6c1.2,1.2,2.7,2.2,4.1,2.9V320L1143.2,298.8z"/>
	<path class="glass" fill="none" stroke="#323234" stroke-width="2" stroke-miterlimit="10" d="M1170,301.3v10.6c0.6-1.7,1-3.4,1-5.3
		C1171,304.7,1170.6,302.9,1170,301.3z"/>
	<polygon class="glass" fill="none" stroke="#323234" stroke-width="2" stroke-miterlimit="10" points="1147.7,443.3 1147.1,441.1 1145.2,443.3
		1145.2,447 	"/>
	<path class="glass" fill="none" stroke="#323234" stroke-width="2" stroke-miterlimit="10" d="M1346,476.2c-2.7-0.6-4.6-1.9-5.9-4
		c-0.4-0.6-0.7-1.3-1.1-2.1l3.7,13.1l-15.7-2.4l-1.3,4.8h21.8l2.3-8.9C1348.3,476.7,1347.1,476.4,1346,476.2z"/>
	<path class="glass" fill="none" stroke="#323234" stroke-width="2" stroke-miterlimit="10" d="M1334.5,454.1l3.4,11.9c-0.1-0.8-0.2-1.7-0.4-2.7
		c-0.2-2.4-0.5-5.3-0.5-8.8l-2.3-1L1334.5,454.1z"/>
	<path class="glass" fill="none" stroke="#323234" stroke-width="2" stroke-miterlimit="10" d="M1300.9,477c-2.1,0.2-4.3,0.5-6.9,0.6v8.2h25.3
		l-7.1-7.1L1300.9,477z"/>
	<polygon class="glass" fill="none" stroke="#323234" stroke-width="2" stroke-miterlimit="10" points="1261.2,485.8 1261.2,485.8 1261.1,485.7
		"/>
	<path class="glass" fill="none" stroke="#323234" stroke-width="2" stroke-miterlimit="10" d="M1322.8,362.9c-2.2-1.4-4.6-2.8-7.4-3.9
		c-2.7-1.1-5.4-1.8-8.2-2.4l3.5,12.3L1322.8,362.9z"/>
	<path class="glass" fill="none" stroke="#323234" stroke-width="2" stroke-miterlimit="10" d="M1492.4,515.4c0.5-2.7,0.7-5.4,0.7-8.4
		c0-10.7-3.5-19.7-10.4-26.8l-27-1.4L1492.4,515.4z"/>
	<path class="glass" fill="none" stroke="#323234" stroke-width="2" stroke-miterlimit="10" d="M1466,366.5l9.4,6.3c2.1-0.7,4-1.1,6-1.1
		c1.9,0,3.5,0.4,4.8,1.2c1.3,0.8,2.5,1.7,3.7,2.5s2.5,1.7,4,2.5s3.3,1.2,5.5,1.2c2.8,0,5.1-0.8,6.9-2.4s2.8-3.7,2.8-6.5
		c0-4.5-1.7-8.1-5.2-10.7c-2.5-1.9-5.8-3.3-9.6-3.7l-20,4.9C1471.7,362.3,1468.9,364.3,1466,366.5z"/>
	<path class="glass" fill="none" stroke="#323234" stroke-width="2" stroke-miterlimit="10" d="M1458.7,417.8l-10-5.3c-0.5,2.5-1.1,4.8-1.9,6.9
		l13.3,13.3c0.8-0.7,1.8-1.4,2.5-2.2c7.5-6.9,11.7-15.9,12.5-27.3l-19.5,2.4L1458.7,417.8z"/>
	<path class="glass" fill="none" stroke="#323234" stroke-width="2" stroke-miterlimit="10" d="M1399.8,482.2l-11.3-4.9
		C1391.5,479.4,1395.3,481.1,1399.8,482.2z"/>
	<path class="glass" fill="none" stroke="#323234" stroke-width="2" stroke-miterlimit="10" d="M1396.9,491.3c-1.7-0.4-3.5-0.6-5.4-0.6
		c-2.9,0-5.7,0.6-8.3,1.9c-0.2,0.1-0.4,0.2-0.6,0.4l8.2,8.2L1396.9,491.3z"/>
	<polygon class="glass" fill="none" stroke="#323234" stroke-width="2" stroke-miterlimit="10" points="1406.3,476.2 1402.8,476.1 1404.6,478.8
		"/>
	<path class="glass" fill="none" stroke="#323234" stroke-width="2" stroke-miterlimit="10" d="M1387.2,421.2c0.5,0.7,1,1.4,1.6,2.2l3.9-27.4
		l-8.6,19.4C1385,417.4,1386,419.4,1387.2,421.2z"/>
	<path class="glass" fill="none" stroke="#323234" stroke-width="2" stroke-miterlimit="10" d="M1385.3,447.7c-0.2,0.4-0.6,0.7-0.8,1.1l0.6,0.8
		L1385.3,447.7z"/>
	<polygon class="glass" fill="none" stroke="#323234" stroke-width="2" stroke-miterlimit="10" points="459.3,394.2 465.7,394.2 434.1,376.4
		434,376.6 434,398 459.3,432.4 	"/>
	<path class="glass" fill="none" stroke="#323234" stroke-width="2" stroke-miterlimit="10" d="M529.4,483.2c1.4-0.4,2.8-0.6,4-1.1
		c2.9-0.8,5.7-2.1,8.4-3.5c4.3-2.2,8.3-4.7,11.7-7.7l-26.2,10.3L529.4,483.2z"/>
	<path class="glass" fill="none" stroke="#323234" stroke-width="2" stroke-miterlimit="10" d="M477.2,483.2L434,445.9v3.3
		c0,5.7-0.4,10.3-1.1,13.8c-0.7,3.5-2.1,6.3-4.1,8.2c-1.8,1.7-4.3,3-7.5,3.9l2.2,10.9h53.1L477.2,483.2z"/>
	<path class="glass" fill="none" stroke="#323234" stroke-width="2" stroke-miterlimit="10" d="M606.4,473.2c-1.3,1.3-3.1,2.3-5.3,2.9
		c-2.8,0.7-6.4,1.2-11.1,1.3v8.4h4.2l15-11L606.4,473.2z"/>
	<path class="glass" fill="none" stroke="#323234" stroke-width="2" stroke-miterlimit="10" d="M467.1,469.1c-5.2-4.2-7.7-11.3-7.7-21.1v-15.6
		L434,398v47.9l43.2,37.3l1.8-8.9C473.9,473.2,470,471.5,467.1,469.1z"/>
	<polygon class="glass" fill="none" stroke="#323234" stroke-width="2" stroke-miterlimit="10" points="477.2,483.2 476.6,485.8 480.3,485.8 	"/>
	<path class="glass" fill="none" stroke="#323234" stroke-width="2" stroke-miterlimit="10" d="M491.1,475.5l1.8,2.4l2.5-2.4c-0.8,0-1.8,0-2.7,0
		C492,475.5,491.6,475.5,491.1,475.5z"/>
	<path class="glass" fill="none" stroke="#323234" stroke-width="2" stroke-miterlimit="10" d="M517.5,485c2.1-0.2,4-0.4,5.8-0.7
		c2.2-0.4,4.2-0.7,6.2-1.1l-2.2-2.1L517.5,485z"/>
	<path class="glass" fill="none" stroke="#323234" stroke-width="2" stroke-miterlimit="10" d="M484.7,485.8l8.2-8l-1.8-2.4
		c-4.6-0.1-8.6-0.5-12.1-1.2l-1.8,8.9l3.1,2.7L484.7,485.8L484.7,485.8z"/>
	<path class="glass" fill="none" stroke="#323234" stroke-width="2" stroke-miterlimit="10" d="M601.7,376.7c2.9,0.6,5.1,2.3,6.4,5.2
		c1.3,2.9,2.2,7.4,2.4,13.5c0.2,4.9,0.4,11.6,0.4,19.8l4.5,6l5.9,1.2l13.3-39.9l-2.8-24.1l-19.4,4.2l-12.9,13.9
		C600.2,376.4,601,376.6,601.7,376.7z"/>
	<polygon class="glass" fill="none" stroke="#323234" stroke-width="2" stroke-miterlimit="10" points="630.6,441.6 632.1,440.2 630.1,441 	"/>
	<path class="glass" fill="none" stroke="#323234" stroke-width="2" stroke-miterlimit="10" d="M511.1,396.1l-1.6-8.1c-0.2,0-0.4,0-0.6,0v-1
		c0.1,0,0.2-0.1,0.4-0.1l-2.2-11.2c-0.4,0.2-0.7,0.5-1.1,0.7c-1.9,1.3-3.9,2.3-5.7,3c-1.8,0.7-4,1.3-6.4,1.7c-0.1,0-0.2,0-0.4,0
		l12.8,16c1.7,0.6,3.4,1.2,5.2,1.9L511.1,396.1z"/>
	<path class="glass" fill="none" stroke="#323234" stroke-width="2" stroke-miterlimit="10" d="M511.1,396.1l-1.3-8.1c-0.1,0-0.2,0-0.2,0
		L511.1,396.1z"/>
	<path class="glass" fill="none" stroke="#323234" stroke-width="2" stroke-miterlimit="10" d="M507.2,375.6l2.2,11.2c0.1,0,0.2-0.1,0.4-0.1
		l-1.8-11.6C507.6,375.4,507.4,375.5,507.2,375.6z"/>
	<path class="glass" fill="none" stroke="#323234" stroke-width="2" stroke-miterlimit="10" d="M717.1,463.6c0.6,0.8,1.3,1.8,2.1,2.7l1.6-2.2
		L717.1,463.6z"/>
	<path class="glass" fill="none" stroke="#323234" stroke-width="2" stroke-miterlimit="10" d="M459.3,349.3V338l-14-17.6l15.4-8.2
		c0.2-0.2,0.6-0.4,1-0.5l9.2-4.8l3.7-3.6l0.6-3.1h-65.4v9.2c5.2,0.4,9.3,0.8,12.5,1.6s5.7,2.1,7.4,4.1s2.8,4.7,3.4,8.2
		c0.6,3.5,0.8,8,0.8,13.6v39.6l0.1,0.1L459.3,349.3z"/>
	<polygon class="glass" fill="none" stroke="#323234" stroke-width="2" stroke-miterlimit="10" points="434.1,376.4 434,376.3 434,376.6 	"/>
	<polygon class="glass" fill="none" stroke="#323234" stroke-width="2" stroke-miterlimit="10" points="468.9,311.4 472.9,311.4 473.2,309.7 	"/>
	<path class="glass" fill="none" stroke="#323234" stroke-width="2" stroke-miterlimit="10" d="M466.1,311.4l4.7-4.6l-9.2,4.8
		c0.5-0.1,1.1-0.2,1.8-0.2H466.1z"/>
	<path class="glass" fill="none" stroke="#323234" stroke-width="2" stroke-miterlimit="10" d="M460.7,312.1l-15.4,8.2l14,17.6v-22.4
		C459.3,314,459.8,312.9,460.7,312.1z"/>
	<path class="glass" fill="none" stroke="#323234" stroke-width="2" stroke-miterlimit="10" d="M566.7,450.9c1.4-4.2,2.2-8.7,2.2-13.4
		c0-5.1-0.8-9.9-2.4-14.4v27.5L566.7,450.9z"/>
	<path class="glass" fill="none" stroke="#323234" stroke-width="2" stroke-miterlimit="10" d="M616.4,436.7l3.3-9.9l-4.3-5.8l-4.5-0.8
		c0,0.2,0,0.5,0,0.7v27.6l19.4-7.6l-3.1-4.2H616.4z"/>
	<path class="glass" fill="none" stroke="#323234" stroke-width="2" stroke-miterlimit="10" d="M634.5,438.1l-2.4,2.2l2.4-1l0,0
		C634.5,438.9,634.5,438.4,634.5,438.1z"/>
	<path class="glass" fill="none" stroke="#323234" stroke-width="2" stroke-miterlimit="10" d="M559.8,464.1l-19.3-24.2l-4.6,4.9
		c-1.6,12.9-8,21.7-18.9,26.4l10.4,9.9l26.2-10.3C555.8,468.8,558,466.5,559.8,464.1z"/>
	<path class="glass" fill="none" stroke="#323234" stroke-width="2" stroke-miterlimit="10" d="M566.5,451.7c0.1-0.2,0.1-0.5,0.2-0.7l-0.2-0.1
		V451.7z"/>
	<path class="glass" fill="none" stroke="#323234" stroke-width="2" stroke-miterlimit="10" d="M517,471.2c-5.9,2.5-13,3.9-21.6,4.1l-2.5,2.4
		l5.8,8c4.1,0,7.8-0.1,11.2-0.4c2.7-0.1,5.2-0.4,7.6-0.5l9.8-3.9L517,471.2z"/>
	<path class="glass" fill="none" stroke="#323234" stroke-width="2" stroke-miterlimit="10" d="M491.9,485.8c2.4,0,4.6,0,6.8,0l-5.8-8l-8.2,8
		H491.9z"/>
	<polygon class="glass" fill="none" stroke="#323234" stroke-width="2" stroke-miterlimit="10" points="615.3,421.1 619.6,426.9 621.2,422.3 	"/>
	<path class="glass" fill="none" stroke="#323234" stroke-width="2" stroke-miterlimit="10" d="M627.1,436.7l3.1,4.2l1.9-0.7l2.4-2.2
		c0-0.5,0-0.8,0-1.3L627.1,436.7L627.1,436.7z"/>
	<path class="glass" fill="none" stroke="#323234" stroke-width="2" stroke-miterlimit="10" d="M542.8,437.5l23.8,13.3v-27.5
		c-1-2.7-2.1-5.1-3.5-7.5L542.8,437.5z"/>
	<path class="glass" fill="none" stroke="#323234" stroke-width="2" stroke-miterlimit="10" d="M542.8,437.5l-2.3,2.4l19.3,24.2
		c0.7-0.8,1.3-1.8,1.9-2.8c2.1-3.1,3.6-6.4,4.7-9.6v-1L542.8,437.5z"/>
	<path class="glass" fill="none" stroke="#323234" stroke-width="2" stroke-miterlimit="10" d="M712,391.3l0.1,0.4h24.5c0.8-2.7,1.8-5.2,2.9-7.5
		l-10.9-14.4c-1.8,1.4-3.6,3-5.3,4.7C718.9,379.5,715.1,385,712,391.3z"/>
	<path class="glass" fill="none" stroke="#323234" stroke-width="2" stroke-miterlimit="10" d="M803.7,464.5c-3.3,2.8-6.5,5.1-9.8,6.8
		c-2.2,1.1-4.5,2.1-6.8,2.8v0.1l17.9,2.7c2.1-1.4,4.1-3.1,6.2-4.8L803.7,464.5z"/>
	<path class="glass" fill="none" stroke="#323234" stroke-width="2" stroke-miterlimit="10" d="M735.8,365l6,15.4c1.7-2.5,3.6-4.8,5.8-6.6l-1-14
		c-0.6,0.2-1.3,0.5-1.9,0.7C741.5,362,738.6,363.4,735.8,365z"/>
	<path class="glass" fill="none" stroke="#323234" stroke-width="2" stroke-miterlimit="10" d="M786.8,373.8c2.3,2.2,4,4.6,5.2,7.5l18.7-9.3
		c-1-1.3-2.1-2.5-3.3-3.7c-8.6-8.4-20.6-12.7-36.2-12.7c0,0,0,0-0.1,0l-1.8,11.7C776.7,367.5,782.5,369.7,786.8,373.8z"/>
	<path class="glass" fill="none" stroke="#323234" stroke-width="2" stroke-miterlimit="10" d="M724.1,402.7l14.4,0.1l7-4.6h-10.4
		c0.5-2.3,1.1-4.6,1.7-6.6h-24.5l11.7,20.9l9-5.9L724.1,402.7z"/>
	<path class="glass" fill="none" stroke="#323234" stroke-width="2" stroke-miterlimit="10" d="M706.2,436.7c0.7,4.5,1.9,8.7,3.4,12.7l17.4-3.6
		l-9.2-9.2h-11.6V436.7z"/>
	<path class="glass" fill="none" stroke="#323234" stroke-width="2" stroke-miterlimit="10" d="M731,449.9l-4-4l-17.4,3.6c0,0.1,0.1,0.2,0.1,0.4
		c1.9,5.1,4.5,9.6,7.4,13.9l3.5,0.5L731,449.9z"/>
	<path class="glass" fill="none" stroke="#323234" stroke-width="2" stroke-miterlimit="10" d="M747.5,373.8c5.2-4.5,11.8-6.6,19.8-6.6
		c0.7,0,1.3,0,2.1,0.1l1.8-11.7c-8.9,0-17.1,1.4-24.6,4.3L747.5,373.8z"/>
	<path class="glass" fill="none" stroke="#323234" stroke-width="2" stroke-miterlimit="10" d="M786.8,474c-3.7,1.1-7.6,1.6-11.7,1.6
		c-1.6,0-3-0.1-4.5-0.2l-5.5,7.1l1.7,3.1l2.5,2.5c6.4-0.1,12.4-1,18.1-2.8l-0.2-11.3L786.8,474z"/>
	<path class="glass" fill="none" stroke="#323234" stroke-width="2" stroke-miterlimit="10" d="M765.1,482.6l5.5-7.1c-3.7-0.4-7.2-1.2-10.6-2.7
		L765.1,482.6z"/>
	<path class="glass" fill="none" stroke="#323234" stroke-width="2" stroke-miterlimit="10" d="M787.2,474.1V474c-0.1,0-0.2,0.1-0.4,0.1H787.2z"/>
	<path class="glass" fill="none" stroke="#323234" stroke-width="2" stroke-miterlimit="10" d="M735.6,443.6c0-0.2-0.1-0.4-0.2-0.6
		c-0.6-2.1-1.1-4.1-1.4-6.3h-16l9.2,9.2l8.1-1.7L735.6,443.6z"/>
	<polygon class="glass" fill="none" stroke="#323234" stroke-width="2" stroke-miterlimit="10" points="748.6,403 749.7,402.4 749.3,398.3
		745.4,398.3 738.5,402.9 	"/>
	<path class="glass" fill="none" stroke="#323234" stroke-width="2" stroke-miterlimit="10" d="M732.4,420.2c0-2.3,0.1-4.3,0.2-6.2
		c0.1-1.8,0.4-3.4,0.7-4.7h6l-6.4-2.8l-9,5.9l8.8,15.7C732.5,425.6,732.4,423,732.4,420.2z"/>
	<polygon class="glass" fill="none" stroke="#323234" stroke-width="2" stroke-miterlimit="10" points="727,445.9 731,449.9 735.2,444.2 	"/>
	<polygon class="glass" fill="none" stroke="#323234" stroke-width="2" stroke-miterlimit="10" points="758,398.3 749.3,398.3 749.7,402.4 	"/>
	<path class="glass" fill="none" stroke="#323234" stroke-width="2" stroke-miterlimit="10" d="M959.3,472.7c-0.7,0.6-1.6,1-2.5,1.2
		c-2.1,0.6-4.2,0.8-6.5,0.8c-5.4,0-8.8-5.2-10.3-15.6l0.6,18.6l22.1,1.2c0.6-0.6,1.1-1.2,1.6-1.9L959.3,472.7z"/>
	<path class="glass" fill="none" stroke="#323234" stroke-width="2" stroke-miterlimit="10" d="M906.8,461.8c-0.2,0.2-0.4,0.5-0.6,0.7l-1.9,7.1
		l3.3,4.8c3.5-3.5,6.5-7.5,8.9-12.1h1.2c0,1.6,0.1,3,0.2,4.5l12.2-19.4l-14.4-12.4c-0.1,4.9-1,9.5-2.4,14
		C911.8,454,909.6,458.2,906.8,461.8z"/>
	<polygon class="glass" fill="none" stroke="#323234" stroke-width="2" stroke-miterlimit="10" points="936.1,408.6 939.4,413.1 939.4,408.3 	"/>
	<polygon class="glass" fill="none" stroke="#323234" stroke-width="2" stroke-miterlimit="10" points="914.1,378.8 920.8,375.5 913,377.4 	"/>
	<polygon class="glass" fill="none" stroke="#323234" stroke-width="2" stroke-miterlimit="10" points="925.4,394.2 925.5,394.4 925.6,393.2 	"/>
	<path class="glass" fill="none" stroke="#323234" stroke-width="2" stroke-miterlimit="10" d="M858,391l-0.2,0.8c0.6,0.1,1.3,0.1,2.1,0.1
		c1.9,0,3.6-0.2,5.1-0.8l-1.7-1.4L858,391z"/>
	<path class="glass" fill="none" stroke="#323234" stroke-width="2" stroke-miterlimit="10" d="M764.5,483.4L761,488c2.3,0.2,4.7,0.4,7.2,0.4
		l-1.3-2.5L764.5,483.4z"/>
	<path class="glass" fill="none" stroke="#323234" stroke-width="2" stroke-miterlimit="10" d="M731,465.7l-4.7,7.8c4.8,4.1,10.3,7.5,16.4,10
		c5.7,2.3,11.8,3.7,18.5,4.3l3.5-4.6l-14.8-14.8L731,465.7z"/>
	<path class="glass" fill="none" stroke="#323234" stroke-width="2" stroke-miterlimit="10" d="M719.2,466.3c1.1,1.3,2.3,2.8,3.5,4
		c1.1,1.2,2.3,2.3,3.5,3.3l4.7-7.8l-10.3-1.6L719.2,466.3z"/>
	<polygon class="glass" fill="none" stroke="#323234" stroke-width="2" stroke-miterlimit="10" points="731,465.7 749.7,468.5 736.9,455.8 	"/>
	<polygon class="glass" fill="none" stroke="#323234" stroke-width="2" stroke-miterlimit="10" points="731,449.9 720.6,464.1 731,465.7
		736.9,455.8 	"/>
	<polygon class="glass" fill="none" stroke="#323234" stroke-width="2" stroke-miterlimit="10" points="766.8,485.7 765.1,482.6 764.5,483.4 	"/>
	<path class="glass" fill="none" stroke="#323234" stroke-width="2" stroke-miterlimit="10" d="M757.6,471.7c-1.6-0.8-3-1.7-4.5-2.7l-3.5-0.5
		l14.8,14.8l0.6-0.8l-5.1-9.6C759.2,472.4,758.5,472.1,757.6,471.7z"/>
	<path class="glass" fill="none" stroke="#323234" stroke-width="2" stroke-miterlimit="10" d="M744.1,460.5c-1.9-2.4-3.6-5.2-5.1-8.2l-2.1,3.5
		l12.7,12.7l3.5,0.5C749.8,466.7,746.8,463.9,744.1,460.5z"/>
	<path class="glass" fill="none" stroke="#323234" stroke-width="2" stroke-miterlimit="10" d="M735.2,444.2l0.6-0.1c0-0.1-0.1-0.4-0.1-0.5
		L735.2,444.2z"/>
	<path class="glass" fill="none" stroke="#323234" stroke-width="2" stroke-miterlimit="10" d="M735.2,444.2l-4.1,5.7l5.9,5.9l2.1-3.5
		c-1.2-2.5-2.3-5.3-3.3-8.2L735.2,444.2z"/>
	<path class="glass" fill="none" stroke="#323234" stroke-width="2" stroke-miterlimit="10" d="M899.1,481.1c0.5-0.4,1.1-0.7,1.6-1.1l-11.6-5.1
		l-1.9-0.1l0.1-0.7l-1.6-0.7c0,0,0,0-0.1,0c-5.8,0-10.5-1.7-14-5.1c-0.6-0.6-1.1-1.2-1.7-1.8l-2.3-1l-0.7,1.7l0.2-1.8l-24.8-10.9
		c-0.2,1.7-0.4,3.3-0.4,4.9c0,0.2,0,0.4,0,0.6l4.2,15l0.1,0.1l7.4,7.4c5.4,3.6,12.4,5.4,20.9,5.4C883.6,488,891.8,485.7,899.1,481.1
		z"/>
	<path class="glass" fill="none" stroke="#323234" stroke-width="2" stroke-miterlimit="10" d="M872.8,423.1l0.2,0.4l0.1-0.5
		C873.1,423,872.9,423,872.8,423.1z"/>
	<path class="glass" fill="none" stroke="#323234" stroke-width="2" stroke-miterlimit="10" d="M889.8,415.4l-6.5,14.8c2.7-1.8,5.8-3.6,9.2-5.4
		c0.6-0.4,1.3-0.7,1.9-1l0.8-6.3l-3.5-3L889.8,415.4z"/>
	<path class="glass" fill="none" stroke="#323234" stroke-width="2" stroke-miterlimit="10" d="M841.9,460.1c0.1,5.8,1.4,10.7,4.2,15L841.9,460.1z
		"/>
	<polygon class="glass" fill="none" stroke="#323234" stroke-width="2" stroke-miterlimit="10" points="887.2,475 889.1,475 887.2,474.3 	"/>
	<path class="glass" fill="none" stroke="#323234" stroke-width="2" stroke-miterlimit="10" d="M902.3,466.8l1.9,2.9l1.9-7.1
		C905,464.1,903.7,465.6,902.3,466.8z"/>
	<path class="glass" fill="none" stroke="#323234" stroke-width="2" stroke-miterlimit="10" d="M899.7,421.2l-4.3-3.7l-0.8,6.3
		C896.1,422.9,897.8,422,899.7,421.2z"/>
	<polygon class="glass" fill="none" stroke="#323234" stroke-width="2" stroke-miterlimit="10" points="927.6,373.8 920.8,375.5 914.1,378.8
		920,386.8 925.8,392.6 	"/>
	<polygon class="glass" fill="none" stroke="#323234" stroke-width="2" stroke-miterlimit="10" points="925.8,392.6 920,386.8 925.4,394.2
		925.6,393.2 	"/>
	<path class="glass" fill="none" stroke="#323234" stroke-width="2" stroke-miterlimit="10" d="M940.6,477.8l-20.5-1.1c0.7,1.8,1.7,3.4,2.8,4.8
		c3.3,4.3,8.2,6.5,14.8,6.8l3.1-3.1L940.6,477.8z"/>
	<path class="glass" fill="none" stroke="#323234" stroke-width="2" stroke-miterlimit="10" d="M930.1,447.5l-12.2,19.4c0.4,3.7,1.1,7,2.3,9.8
		l20.5,1.1l-0.6-18.6c-0.1-1.1-0.2-2.2-0.4-3.4L930.1,447.5z"/>
	<path class="glass" fill="none" stroke="#323234" stroke-width="2" stroke-miterlimit="10" d="M901.4,479.6c1.6-1.1,3.1-2.3,4.6-3.6l-3.5-0.2
		L901.4,479.6z"/>
	<polygon class="glass" fill="none" stroke="#323234" stroke-width="2" stroke-miterlimit="10" points="724.1,402.7 732.9,406.6 738.5,402.9 	"/>
	<polygon class="glass" fill="none" stroke="#323234" stroke-width="2" stroke-miterlimit="10" points="732.9,406.6 739.4,409.4 748.6,409.4
		744.2,405.1 748.6,403 738.5,402.9 	"/>
	<path class="glass" fill="none" stroke="#323234" stroke-width="2" stroke-miterlimit="10" d="M902.5,475.7l3.5,0.2c0.5-0.5,1-1,1.4-1.4l-3.3-4.8
		L902.5,475.7z"/>
	<path class="glass" fill="none" stroke="#323234" stroke-width="2" stroke-miterlimit="10" d="M885.6,473.5l1.6,0.7l0.1-0.7
		C886.8,473.5,886.2,473.5,885.6,473.5z"/>
	<path class="glass" fill="none" stroke="#323234" stroke-width="2" stroke-miterlimit="10" d="M902.5,475.7l-13.4-0.7l11.6,5.1
		c0.2-0.1,0.5-0.4,0.8-0.5L902.5,475.7z"/>
	<path class="glass" fill="none" stroke="#323234" stroke-width="2" stroke-miterlimit="10" d="M866.3,455.4c0-3.5,0.8-7,2.5-10.4
		c0.5-1,1-1.8,1.6-2.8l2.7-18.9l-0.2-0.4c-3.7,1.9-7.2,3.7-10.1,5.7c-4.9,3.1-9,6.3-12.1,9.5c-3,3.3-5.3,6.6-6.6,10.1
		c-0.7,1.9-1.3,4-1.7,6.2l24.8,10.9l0.4-2.8C866.8,460.5,866.3,458.1,866.3,455.4z"/>
	<path class="glass" fill="none" stroke="#323234" stroke-width="2" stroke-miterlimit="10" d="M867.6,465.7l2.3,1c-0.6-0.8-1.2-1.6-1.7-2.5
		L867.6,465.7z"/>
	<path class="glass" fill="none" stroke="#323234" stroke-width="2" stroke-miterlimit="10" d="M904.2,469.7l-1.9-2.9c-1.6,1.3-3.3,2.5-4.9,3.6
		c-3.1,1.8-6.4,2.8-10,3l-0.1,0.7l1.9,0.8l13.4,0.7L904.2,469.7z"/>
	<polygon class="glass" fill="none" stroke="#323234" stroke-width="2" stroke-miterlimit="10" points="972.2,479.4 969.3,479.2 969.3,481.3
		971.4,483.2 	"/>
	<path class="glass" fill="none" stroke="#323234" stroke-width="2" stroke-miterlimit="10" d="M965.5,475.2l-3.4-5.8c-0.8,1.3-1.8,2.4-2.8,3.3
		l5.1,4.3C964.7,476.4,965.1,475.8,965.5,475.2z"/>
	<path class="glass" fill="none" stroke="#323234" stroke-width="2" stroke-miterlimit="10" d="M924.1,410.2l1.2-13.1l-0.6-0.4l-9,32v4.8
		c0,0.5,0,1.1,0,1.6l14.4,12.4l9.2-14.5l0.2,5.7v-25.6l-3.3-4.5L924.1,410.2z"/>
	<path class="glass" fill="none" stroke="#323234" stroke-width="2" stroke-miterlimit="10" d="M969.3,477.4v1.8l2.9,0.1l0.5-2.2
		C971.6,477.3,970.5,477.4,969.3,477.4z"/>
	<path class="glass" fill="none" stroke="#323234" stroke-width="2" stroke-miterlimit="10" d="M912.7,377.4c0.2,0.6,0.5,1.1,0.7,1.7l0.6-0.4
		l-1.1-1.4L912.7,377.4z"/>
	<polygon class="glass" fill="none" stroke="#323234" stroke-width="2" stroke-miterlimit="10" points="925.4,394.2 924.7,396.7 925.3,396.9
		925.5,394.4 	"/>
	<path class="glass" fill="none" stroke="#323234" stroke-width="2" stroke-miterlimit="10" d="M868.2,388.5l-5.1,1.2l1.7,1.4
		c0.8-0.4,1.7-0.8,2.3-1.4C867.5,389.3,867.9,389,868.2,388.5z"/>
	<polygon class="glass" fill="none" stroke="#323234" stroke-width="2" stroke-miterlimit="10" points="895.4,417.4 896,412.7 891.9,414.4 	"/>
	<path class="glass" fill="none" stroke="#323234" stroke-width="2" stroke-miterlimit="10" d="M915.8,394.2v9.9l-19.8,8.7l-0.7,4.8l4.3,3.7
		c4.8-2.2,10.1-4.5,16-6.8v14.2l9-32l-9-4.8C915.8,392.6,915.8,393.3,915.8,394.2z"/>
	<path class="glass" fill="none" stroke="#323234" stroke-width="2" stroke-miterlimit="10" d="M913.5,379.1c0.2,0.6,0.4,1.2,0.6,1.8l6,6l-5.9-8.1
		L913.5,379.1z"/>
	<path class="glass" fill="none" stroke="#323234" stroke-width="2" stroke-miterlimit="10" d="M920,386.8l-6-6c1,3.1,1.4,6.9,1.7,11l9,4.8
		l0.7-2.4L920,386.8z"/>
	<path class="glass" fill="none" stroke="#323234" stroke-width="2" stroke-miterlimit="10" d="M930.1,447.5l9.6,8.3c-0.2-2.5-0.4-5.4-0.4-8.6
		v-8.7l-0.2-5.7L930.1,447.5z"/>
	<polygon class="glass" fill="none" stroke="#323234" stroke-width="2" stroke-miterlimit="10" points="971.4,483.2 970.9,485.8 974.5,485.8 	"/>
	<polygon class="glass" fill="none" stroke="#323234" stroke-width="2" stroke-miterlimit="10" points="1009.5,485.8 1026.5,485.8 1021.5,481.1
		"/>
	<path class="glass" fill="none" stroke="#323234" stroke-width="2" stroke-miterlimit="10" d="M992.1,458.9l7.1,7.1l3.3-3.1l-10-9.5
		C992.4,455.3,992.2,457.2,992.1,458.9z"/>
	<path class="glass" fill="none" stroke="#323234" stroke-width="2" stroke-miterlimit="10" d="M988,471.6c-1,1.2-2.1,2.1-3.4,2.9l2.5,3.4
		l12.1-11.8l-7.1-7.1c-0.1,1.6-0.4,3-0.6,4.2C990.9,466.7,989.7,469.6,988,471.6z"/>
	<polygon class="glass" fill="none" stroke="#323234" stroke-width="2" stroke-miterlimit="10" points="984.9,480 972.2,479.4 971.4,483.2
		974.5,485.8 979,485.8 	"/>
	<path class="glass" fill="none" stroke="#323234" stroke-width="2" stroke-miterlimit="10" d="M987,477.9l-2.5-3.4c-1.1,0.6-2.3,1.1-3.6,1.4
		c-2.3,0.6-5.1,1.1-8.3,1.3l-0.5,2.2l12.7,0.7L987,477.9z"/>
	<polygon class="glass" fill="none" stroke="#323234" stroke-width="2" stroke-miterlimit="10" points="1102.5,358.9 1102.5,358 1101.4,358
		1100.4,358.2 	"/>
	<path class="glass" fill="none" stroke="#323234" stroke-width="2" stroke-miterlimit="10" d="M1121.5,364.7v8.4c4,0,7.4,0.1,10.1,0.5l3.9-11.7
		L1121.5,364.7z"/>
	<polygon class="glass" fill="none" stroke="#323234" stroke-width="2" stroke-miterlimit="10" points="1101.4,358 1099.5,358 1100.4,358.2 	"/>
	<path class="glass" fill="none" stroke="#323234" stroke-width="2" stroke-miterlimit="10" d="M1058.4,466.7c0.2,0.4,0.5,0.7,0.7,1.1
		c0.6,0.7,1.1,1.4,1.4,2.2v-4.1L1058.4,466.7z"/>
	<polygon class="glass" fill="none" stroke="#323234" stroke-width="2" stroke-miterlimit="10" points="1003.3,400.4 1006.8,404.7 1006.1,400.1
		"/>
	<polygon class="glass" fill="none" stroke="#323234" stroke-width="2" stroke-miterlimit="10" points="1002.1,375 999.1,356.1 992.5,357.7
		992.5,380.3 1003.8,387.8 1001.3,375 	"/>
	<polygon class="glass" fill="none" stroke="#323234" stroke-width="2" stroke-miterlimit="10" points="1002.1,375 1001.3,375 1003.8,387.8
		1004.2,388 	"/>
	<path class="glass" fill="none" stroke="#323234" stroke-width="2" stroke-miterlimit="10" d="M1171.9,470c-0.8-1.4-1.4-3.3-1.9-5.3v5.3H1171.9z"
		/>
	<path class="glass" fill="none" stroke="#323234" stroke-width="2" stroke-miterlimit="10" d="M1205,477.9l0.1-0.2h-0.1V477.9z"/>
	<path class="glass" fill="none" stroke="#323234" stroke-width="2" stroke-miterlimit="10" d="M1170,485.8h21.2v-8.4c-4.8-0.1-8.7-0.6-11.6-1.4
		c-2.9-0.8-5.2-2.3-6.8-4.5c-0.4-0.5-0.6-1-1-1.4h-1.9V485.8L1170,485.8z"/>
	<path class="glass" fill="none" stroke="#323234" stroke-width="2" stroke-miterlimit="10" d="M1111,477.4c-2.4,0-4.5-0.2-6.3-0.6
		c-2.2-0.4-4.2-1.1-6-2.1c-1.8-1-3.7-2.3-5.5-4c-1.8-1.7-3.9-3.9-6.2-6.6l-3.3-3.6l4,25.3h17.9l6.4-6.9L1111,477.4z"/>
	<polygon class="glass" fill="none" stroke="#323234" stroke-width="2" stroke-miterlimit="10" points="1146.1,436.7 1145.2,436.7 1145.2,443.3
		1147.1,441.1 	"/>
	<path class="glass" fill="none" stroke="#323234" stroke-width="2" stroke-miterlimit="10" d="M1153.9,470.6l-0.5-0.6h0.4l-3.6-15.6l-5.1-0.7
		c-0.1,3.6-0.4,6.8-0.7,9.4c-0.6,3.6-1.7,6.4-3.4,8.4l0,0l4.5,14.4h12.1L1153.9,470.6z"/>
	<polygon class="glass" fill="none" stroke="#323234" stroke-width="2" stroke-miterlimit="10" points="1153.4,470 1153.9,470.6 1153.7,470 	"/>
	<polygon class="glass" fill="none" stroke="#323234" stroke-width="2" stroke-miterlimit="10" points="1148.9,439.2 1147.1,441.1 1147.7,443.3
		1149.3,440.8 	"/>
	<polygon class="glass" fill="none" stroke="#323234" stroke-width="2" stroke-miterlimit="10" points="1148.9,439.2 1149.3,440.8 1152,436.7
		1151.2,436.7 	"/>
	<polygon class="glass" fill="none" stroke="#323234" stroke-width="2" stroke-miterlimit="10" points="1148.4,436.7 1146.1,436.7 1147.1,441.1
		1148.9,439.2 	"/>
	<polygon class="glass" fill="none" stroke="#323234" stroke-width="2" stroke-miterlimit="10" points="1148.4,436.7 1148.9,439.2 1151.2,436.7
		"/>
	<polygon class="glass" fill="none" stroke="#323234" stroke-width="2" stroke-miterlimit="10" points="1156,473.5 1153.9,470.6 1157.4,485.8
		1158.6,485.8 	"/>
	<polygon class="glass" fill="none" stroke="#323234" stroke-width="2" stroke-miterlimit="10" points="1152.2,454.7 1150.2,454.5 1153.7,470
		1155.3,470 	"/>
	<polygon class="glass" fill="none" stroke="#323234" stroke-width="2" stroke-miterlimit="10" points="1155.3,470 1153.7,470 1153.9,470.6
		1156,473.5 	"/>
	<path class="glass" fill="none" stroke="#323234" stroke-width="2" stroke-miterlimit="10" d="M1169.1,457.2l-16.9-2.5l3.1,15.3h14.7v-5.3
		c-0.1-0.7-0.2-1.4-0.4-2.2C1169.4,461,1169.2,459.3,1169.1,457.2z"/>
	<polygon class="glass" fill="none" stroke="#323234" stroke-width="2" stroke-miterlimit="10" points="1165.3,485.8 1156,473.5 1158.6,485.8 	"/>
	<polygon class="glass" fill="none" stroke="#323234" stroke-width="2" stroke-miterlimit="10" points="1155.3,470 1156,473.5 1165.3,485.8
		1170,485.8 1170,470 	"/>
	<path class="glass" fill="none" stroke="#323234" stroke-width="2" stroke-miterlimit="10" d="M1019.4,471.5c-1.6-2.2-2.5-5.2-3.1-8.9
		c-0.1-0.7-0.2-1.6-0.2-2.4l-0.4,0.4l-1.4-9l-11.7,11.5l19.2,18.2l10.5-4.1c-2.3-0.2-4.3-0.6-6-1.1
		C1023.1,475.1,1020.9,473.7,1019.4,471.5z"/>
	<polygon class="glass" fill="none" stroke="#323234" stroke-width="2" stroke-miterlimit="10" points="1060.7,465.8 1081.4,457.7 1060.7,434.3
		"/>
	<polygon class="glass" fill="none" stroke="#323234" stroke-width="2" stroke-miterlimit="10" points="1014.8,481.6 988.9,480.3 993,485.8
		1009.5,485.8 1021.5,481.1 1002.4,462.9 999.2,466.1 	"/>
	<polygon class="glass" fill="none" stroke="#323234" stroke-width="2" stroke-miterlimit="10" points="988.9,480.3 1014.8,481.6 999.2,466.1
		987,477.9 	"/>
	<polygon class="glass" fill="none" stroke="#323234" stroke-width="2" stroke-miterlimit="10" points="979,485.8 993,485.8 988.9,480.3
		984.9,480 	"/>
	<polygon class="glass" fill="none" stroke="#323234" stroke-width="2" stroke-miterlimit="10" points="984.9,480 988.9,480.3 987,477.9 	"/>
	<path class="glass" fill="none" stroke="#323234" stroke-width="2" stroke-miterlimit="10" d="M1050.6,422.9l-14.7,15.8l14,16.9
		c3.5,4.2,6.4,7.8,8.7,11l2.3-0.8v-31.5L1050.6,422.9z"/>
	<polygon class="glass" fill="none" stroke="#323234" stroke-width="2" stroke-miterlimit="10" points="1112,479 1112.6,479.9 1112.6,478.4 	"/>
	<path class="glass" fill="none" stroke="#323234" stroke-width="2" stroke-miterlimit="10" d="M1133.8,475.8c-3,0.8-7,1.4-11.8,1.6v8.4h19.7
		l-3.5-11.9C1136.8,474.7,1135.4,475.3,1133.8,475.8z"/>
	<path class="glass" fill="none" stroke="#323234" stroke-width="2" stroke-miterlimit="10" d="M1111,477.4l1,1.6l0.6-0.6v-1
		C1112,477.4,1111.5,477.4,1111,477.4z"/>
	<path class="glass" fill="none" stroke="#323234" stroke-width="2" stroke-miterlimit="10" d="M1141,471.5c-0.7,1-1.7,1.7-2.8,2.4l3.5,11.9h3.7
		L1141,471.5z"/>
	<path class="glass" fill="none" stroke="#323234" stroke-width="2" stroke-miterlimit="10" d="M1145.2,447v2.2c0,1.4,0,2.9-0.1,4.2h4.8l-2.3-10.1
		L1145.2,447z"/>
	<path class="glass" fill="none" stroke="#323234" stroke-width="2" stroke-miterlimit="10" d="M1334.5,454.1l-7.5,26.8l15.7,2.4l-3.7-13.1
		c-0.5-1.2-0.8-2.5-1.1-4L1334.5,454.1z"/>
	<path class="glass" fill="none" stroke="#323234" stroke-width="2" stroke-miterlimit="10" d="M1204.5,369.9v2.5c3.5,0,6.4,0.1,8.7,0.4
		c2.3,0.2,4.1,0.7,5.5,1.4c1.4,0.7,2.5,1.8,3.3,3.1c0.7,1.3,1.3,3.1,1.8,5.2c0.4,1.7,0.7,4.7,1,9h14.8l-22.6-29.9l-4.7,1.1
		L1204.5,369.9z"/>
	<polygon class="glass" fill="none" stroke="#323234" stroke-width="2" stroke-miterlimit="10" points="1240.5,391.6 1243.1,391.6 1240.6,356.2
		1227.8,359.2 	"/>
	<path class="glass" fill="none" stroke="#323234" stroke-width="2" stroke-miterlimit="10" d="M1308.2,474.7c-1,0.6-2.2,1.2-3.5,1.6
		c-1.1,0.4-2.4,0.6-3.9,0.7l11.3,1.7L1308.2,474.7z"/>
	<path class="glass" fill="none" stroke="#323234" stroke-width="2" stroke-miterlimit="10" d="M1268.4,361.8c-1.4,0.7-2.9,1.6-4.3,2.4l-2.1,13.3
		c1.4-1.2,2.9-2.3,4.5-3.3c6-3.7,12.7-5.7,19.9-5.7c4.9,0,9.3,0.8,12.8,2.5c1.2,0.6,2.2,1.2,3.3,2.1l8.2-4.1l-3.5-12.3
		c-3.9-0.8-7.8-1.2-12.1-1.2C1285.6,355.6,1276.6,357.6,1268.4,361.8z"/>
	<polygon class="glass" fill="none" stroke="#323234" stroke-width="2" stroke-miterlimit="10" points="1204.5,364.7 1204.5,369.9 1212.2,362.9
		"/>
	<path class="glass" fill="none" stroke="#323234" stroke-width="2" stroke-miterlimit="10" d="M1225.1,405.6c0,0.7,0,1.4,0,2.2l2.1-1.3
		L1225.1,405.6z"/>
	<path class="glass" fill="none" stroke="#323234" stroke-width="2" stroke-miterlimit="10" d="M1241.3,394l-1.8-2.4h-14.7c0.1,3,0.2,6.8,0.4,11.1
		l7.6,0.1l10.7-7l-0.4-4.2h-2.7L1241.3,394z"/>
	<path class="glass" fill="none" stroke="#323234" stroke-width="2" stroke-miterlimit="10" d="M1225.3,450L1225.3,450v-0.1
		C1225.3,449.9,1225.3,449.9,1225.3,450z"/>
	<path class="glass" fill="none" stroke="#323234" stroke-width="2" stroke-miterlimit="10" d="M1145.1,453.4c0,0.1,0,0.2,0,0.2l5.1,0.7l-0.2-1.1
		h-4.8V453.4z"/>
	<polygon class="glass" fill="none" stroke="#323234" stroke-width="2" stroke-miterlimit="10" points="1147.7,443.3 1150,453.4 1151.9,453.4
		1149.3,440.8 	"/>
	<path class="glass" fill="none" stroke="#323234" stroke-width="2" stroke-miterlimit="10" d="M1168.8,436.7H1152l-2.8,4.1l2.5,12.5h17
		c-0.1-1.8-0.1-3.9-0.1-5.9v-10.7H1168.8z"/>
	<polygon class="glass" fill="none" stroke="#323234" stroke-width="2" stroke-miterlimit="10" points="1151.9,453.4 1150,453.4 1150.2,454.5
		1152.2,454.7 	"/>
	<path class="glass" fill="none" stroke="#323234" stroke-width="2" stroke-miterlimit="10" d="M1152.2,454.7l16.9,2.5c-0.1-1.2-0.1-2.5-0.2-3.9
		h-17L1152.2,454.7z"/>
	<path class="glass" fill="none" stroke="#323234" stroke-width="2" stroke-miterlimit="10" d="M1247,379.5h-1l-2.9-23.9l-2.5,0.6l2.7,35.5h6.6
		l2.7-1.8l0,0c2.5-4.8,5.7-8.9,9.6-12.3l2.1-13.3C1257.7,368.2,1251.9,373.2,1247,379.5z"/>
	<polygon class="glass" fill="none" stroke="#323234" stroke-width="2" stroke-miterlimit="10" points="1249.7,391.6 1243.1,391.6 1243.5,395.9
		"/>
	<path class="glass" fill="none" stroke="#323234" stroke-width="2" stroke-miterlimit="10" d="M1268.2,477.6c-1.7-0.1-3.1-0.2-4.6-0.4l-4.1,5.3
		l1.7,3.1l0.1,0.1h7v-8.2H1268.2z"/>
	<path class="glass" fill="none" stroke="#323234" stroke-width="2" stroke-miterlimit="10" d="M1255.9,475.7l3.5,6.8l4.1-5.3
		c-2.5-0.2-4.7-0.6-6.4-1.1C1256.7,476.1,1256.3,475.9,1255.9,475.7z"/>
	<polygon class="glass" fill="none" stroke="#323234" stroke-width="2" stroke-miterlimit="10" points="1246.7,440.7 1246,431.1 1239.4,442.2 	"/>
	<polygon class="glass" fill="none" stroke="#323234" stroke-width="2" stroke-miterlimit="10" points="1239.4,442.2 1238.8,443.1 1248.3,461.2
		1246.7,440.7 	"/>
	<path class="glass" fill="none" stroke="#323234" stroke-width="2" stroke-miterlimit="10" d="M1225.1,407.8c0,3,0,6.3,0,9.8v7.5l6.6,11.7h-6.6
		v8.3l4.2-0.8l5.8-8l3.3,6.2l1-0.2l6.6-11.1l-1.2-16.9l-17.6-7.7L1225.1,407.8z"/>
	<polygon class="glass" fill="none" stroke="#323234" stroke-width="2" stroke-miterlimit="10" points="1244,402.4 1243.5,395.9 1232.7,402.9
		1242.9,403 	"/>
	<path class="glass" fill="none" stroke="#323234" stroke-width="2" stroke-miterlimit="10" d="M1225.3,445.1v4.6c0,0.1,0,0.1,0,0.2l0,0l4.1-5.7
		L1225.3,445.1z"/>
	<polygon class="glass" fill="none" stroke="#323234" stroke-width="2" stroke-miterlimit="10" points="1238.4,442.4 1238.8,443.1 1239.4,442.2
		"/>
	<path class="glass" fill="none" stroke="#323234" stroke-width="2" stroke-miterlimit="10" d="M1252.5,389.8l-2.7,1.8h1.8
		C1251.9,391,1252.2,390.4,1252.5,389.8z"/>
	<polygon class="glass" fill="none" stroke="#323234" stroke-width="2" stroke-miterlimit="10" points="1246.7,440.7 1248.2,440.4 1248.2,427.6
		1246,431.1 	"/>
	<path class="glass" fill="none" stroke="#323234" stroke-width="2" stroke-miterlimit="10" d="M1248.3,461.2l0.2,0.5c-0.2-3.6-0.4-8.1-0.4-13.8
		v-7.6l-1.4,0.2L1248.3,461.2z"/>
	<polygon class="glass" fill="none" stroke="#323234" stroke-width="2" stroke-miterlimit="10" points="1244.8,414.3 1246,431.1 1248.2,427.6
		1248.2,415.8 	"/>
	<path class="glass" fill="none" stroke="#323234" stroke-width="2" stroke-miterlimit="10" d="M1244,402.4l5.2-2.5c0-0.1,0-0.2,0-0.4
		c0.4-1.9,0.7-3.6,1.3-5.1c0.4-0.8,0.7-1.8,1.2-2.8h-1.8l-6.4,4.2L1244,402.4z"/>
	<path class="glass" fill="none" stroke="#323234" stroke-width="2" stroke-miterlimit="10" d="M1444.2,424.8c-2.8,4.5-6.3,7.2-10.7,8.4l0.4,9.6
		c10.9-1.8,19.7-5.3,26.3-10.4l-13.3-13.3C1446,421.3,1445.1,423.1,1444.2,424.8z"/>
	<path class="glass" fill="none" stroke="#323234" stroke-width="2" stroke-miterlimit="10" d="M1392.7,396l-3.9,27.4c1.8,2.5,4,4.8,6.3,6.9
		c3,2.7,6.4,4.7,9.9,6.2v1c-7.1,1.1-12.9,3.9-17.6,8.2c-0.7,0.7-1.4,1.4-2.1,2.2l-0.2,1.9l17.7,26.4l3.5,0.2l8.8-14.1l0,0
		c-5.7-0.4-9.9-1.1-12.8-2.3c-2.9-1.2-4.3-3.1-4.3-5.7c0-3.4,1.9-5.7,5.8-7c3.9-1.3,10.7-2.3,20.5-3.1c0.8,0,1.6-0.1,2.3-0.2
		l6.6-10.5c-1.6,0.4-3.1,0.6-4.8,0.6c-6.9,0-12.4-3.3-16.6-9.6c-4.2-6.4-6.3-15-6.3-25.6c0-3.3,0.2-6.2,0.6-9l-8.6-4.6L1392.7,396z"
		/>
	<path class="glass" fill="none" stroke="#323234" stroke-width="2" stroke-miterlimit="10" d="M1454.9,466.8c-3.7-0.5-7.1-1-10.3-1.4
		c-0.8-0.1-1.8-0.2-2.7-0.4l13.9,13.9l27,1.4l-0.1-0.1C1475.8,473.1,1466.5,468.6,1454.9,466.8z"/>
	<path class="glass" fill="none" stroke="#323234" stroke-width="2" stroke-miterlimit="10" d="M1448.6,412.5l10,5.3l-3-12.2l-6.2,0.7
		C1449.4,408.5,1449,410.6,1448.6,412.5z"/>
	<path class="glass" fill="none" stroke="#323234" stroke-width="2" stroke-miterlimit="10" d="M1409.8,376.8l-4.5,1.1l2.9,2.9
		C1408.6,379.3,1409.2,378,1409.8,376.8z"/>
	<path class="glass" fill="none" stroke="#323234" stroke-width="2" stroke-miterlimit="10" d="M1405.3,377.9l-5.2,1.3l-2.7,6l8.6,4.6
		c0.5-3.3,1.1-6.3,2.1-9L1405.3,377.9z"/>
	<path class="glass" fill="none" stroke="#323234" stroke-width="2" stroke-miterlimit="10" d="M1402,532.2c-3.3-1.8-5.8-4-7.5-6.4l-1.3,1.3
		l18.5,18.5l-0.7,1.6c4,0.6,8.2,1.1,12.5,1.3l1-10.6C1415.1,537.1,1407.6,535.3,1402,532.2z"/>
	<path class="glass" fill="none" stroke="#323234" stroke-width="2" stroke-miterlimit="10" d="M1434.9,477.8l0.2,7.2l-1.7,1.7
		c1.8,0.2,3.7,0.5,5.5,0.7c4.1,0.6,8.1,1.1,11.9,1.6c5.9,0.8,11.1,3.4,15.4,7.6c4.3,4.2,6.5,9.6,6.5,16c0,16.4-13,24.8-39.1,25.3
		l14.5,9.5c11.8-1.6,21.5-4.7,28.7-9.5c8.3-5.5,13.4-13,15.3-22.4l-36.5-36.5L1434.9,477.8z"/>
	<path class="glass" fill="none" stroke="#323234" stroke-width="2" stroke-miterlimit="10" d="M1434.5,464l0.5,13.8l21,1.1l-13.9-13.9
		c-2.3-0.4-4.5-0.6-6.8-0.8C1435,464.1,1434.8,464.1,1434.5,464z"/>
	<path class="glass" fill="none" stroke="#323234" stroke-width="2" stroke-miterlimit="10" d="M1393.2,527l-10,10c1.2,0.8,2.4,1.6,3.6,2.3
		c5.3,3,11.7,5.3,19.2,6.9c1.6,0.4,3.3,0.6,4.9,1l0.7-1.6L1393.2,527z"/>
	<path class="glass" fill="none" stroke="#323234" stroke-width="2" stroke-miterlimit="10" d="M1424.5,537.7l-1,10.6c2.4,0.1,4.8,0.2,7.2,0.2
		c6.4,0,12.3-0.4,17.7-1.1l-14.5-9.5c-0.7,0-1.4,0-2.2,0C1429.2,537.9,1426.8,537.8,1424.5,537.7z"/>
	<polygon class="glass" fill="none" stroke="#323234" stroke-width="2" stroke-miterlimit="10" points="1258.8,483.4 1256.9,485.8 1261.2,485.8
		1261.1,485.7 	"/>
	<polygon class="glass" fill="none" stroke="#323234" stroke-width="2" stroke-miterlimit="10" points="1213.1,485.8 1224.9,485.8 1218,477.5 	"/>
	<path class="glass" fill="none" stroke="#323234" stroke-width="2" stroke-miterlimit="10" d="M1225.1,465.7l-1.2,2.1c-0.5,1.8-1.2,3.4-2.2,4.6
		c-0.5,0.6-1.1,1.2-1.7,1.7l-2.1,3.5l6.9,8.3h32l1.9-2.4l-14.8-14.8L1225.1,465.7z"/>
	<path class="glass" fill="none" stroke="#323234" stroke-width="2" stroke-miterlimit="10" d="M1216.7,475.8c-0.4,0.1-0.6,0.2-1,0.4
		c-2.7,0.6-6.2,1.1-10.6,1.4l-0.1,0.2v8h8.1l5.1-8.3L1216.7,475.8z"/>
	<path class="glass" fill="none" stroke="#323234" stroke-width="2" stroke-miterlimit="10" d="M1218,477.5l2.1-3.5c-1,0.8-2.2,1.4-3.5,1.8
		L1218,477.5z"/>
	<path class="glass" fill="none" stroke="#323234" stroke-width="2" stroke-miterlimit="10" d="M1223.9,467.7l1.2-2.1l-0.7-0.1
		C1224.3,466.3,1224.2,467,1223.9,467.7z"/>
	<polygon class="glass" fill="none" stroke="#323234" stroke-width="2" stroke-miterlimit="10" points="1225.1,465.7 1244,468.5 1231.2,455.8 	"/>
	<path class="glass" fill="none" stroke="#323234" stroke-width="2" stroke-miterlimit="10" d="M1225.3,449.9L1225.3,449.9c0,6-0.2,10.7-0.6,14.2
		c0,0.5-0.1,1-0.2,1.4l0.7,0.1l6-9.9L1225.3,449.9z"/>
	<polygon class="glass" fill="none" stroke="#323234" stroke-width="2" stroke-miterlimit="10" points="1261.1,485.7 1259.4,482.6 1258.8,483.4
		"/>
	<path class="glass" fill="none" stroke="#323234" stroke-width="2" stroke-miterlimit="10" d="M1251.2,472.2c-0.5-0.8-1-1.7-1.3-2.8l-5.9-0.8
		l14.8,14.8l0.6-0.8l-3.5-6.8C1253.8,475,1252.3,473.9,1251.2,472.2z"/>
	<path class="glass" fill="none" stroke="#323234" stroke-width="2" stroke-miterlimit="10" d="M1248.7,466.5l-0.4-5.3l-9.4-18.1l-7.6,12.7
		l12.7,12.7l5.9,0.8c-0.5-1.2-0.7-2.7-1-4.2L1248.7,466.5z"/>
	<polygon class="glass" fill="none" stroke="#323234" stroke-width="2" stroke-miterlimit="10" points="1229.4,444.2 1238.4,442.4 1235.2,436.3
		"/>
	<polygon class="glass" fill="none" stroke="#323234" stroke-width="2" stroke-miterlimit="10" points="1229.4,444.2 1225.3,449.9 1231.2,455.8
		1238.8,443.1 1238.4,442.4 	"/>
	<path class="glass" fill="none" stroke="#323234" stroke-width="2" stroke-miterlimit="10" d="M1248.7,466.5l0.2-1.3c-0.1-0.6-0.1-1.1-0.2-1.7
		c0-0.6-0.1-1.2-0.1-1.8l-0.2-0.5L1248.7,466.5z"/>
	<path class="glass" fill="none" stroke="#323234" stroke-width="2" stroke-miterlimit="10" d="M1374,527.7l7.4-11.7l0.1-0.8l0.2,0.2l9-14.5
		l-8.2-8.2c-2.1,1.1-3.9,2.4-5.5,4.1l-6.5,12.3c-0.4,1.8-0.6,3.6-0.6,5.5C1370,519.5,1371.3,523.8,1374,527.7z"/>
	<polygon class="glass" fill="none" stroke="#323234" stroke-width="2" stroke-miterlimit="10" points="1381.3,515.3 1381.2,516.1 1381.6,515.5
		"/>
	<polygon class="glass" fill="none" stroke="#323234" stroke-width="2" stroke-miterlimit="10" points="1404.6,478.8 1406.2,481 1409.2,476.4
		1406.3,476.2 	"/>
	<path class="glass" fill="none" stroke="#323234" stroke-width="2" stroke-miterlimit="10" d="M1390.7,501l1.3,1.3l7-10.5
		c-0.7-0.2-1.4-0.5-2.2-0.6L1390.7,501z"/>
	<path class="glass" fill="none" stroke="#323234" stroke-width="2" stroke-miterlimit="10" d="M1426.6,443.9c2.5-0.2,4.9-0.6,7.2-1l-0.4-9.6
		c-0.1,0-0.2,0.1-0.2,0.1L1426.6,443.9z"/>
	<path class="glass" fill="none" stroke="#323234" stroke-width="2" stroke-miterlimit="10" d="M1409.2,476.4l9.2-13.9c-1.1-0.1-2.2-0.2-3.3-0.2
		l-8.8,14.1H1409.2z"/>
	<path class="glass" fill="none" stroke="#323234" stroke-width="2" stroke-miterlimit="10" d="M1406.2,481l1.8,2.7c2.1,0.4,4.8,0.6,8.2,1
		c3.4,0.4,7,0.7,11,1.2c2.2,0.2,4.3,0.5,6.5,0.8l1.7-1.7l-0.2-7.2l-25.7-1.3L1406.2,481z"/>
	<path class="glass" fill="none" stroke="#323234" stroke-width="2" stroke-miterlimit="10" d="M1394.4,504.7c0.4-0.6,0.7-1.2,1.2-1.8
		c2.8-3.7,6.3-6.2,10.6-7.1c-2.3-1.7-4.6-3-7.1-3.9l-7,10.5L1394.4,504.7z"/>
	<polygon class="glass" fill="none" stroke="#323234" stroke-width="2" stroke-miterlimit="10" points="1393.2,527 1394.5,525.8 1394.5,525.8 	"/>
	<path class="glass" fill="none" stroke="#323234" stroke-width="2" stroke-miterlimit="10" d="M1425.7,463.2c-2.3-0.2-4.7-0.5-7.4-0.7l-9.2,13.9
		l25.7,1.3l-0.5-13.8C1431.6,463.8,1428.6,463.4,1425.7,463.2z"/>
	<polygon class="glass" fill="none" stroke="#323234" stroke-width="2" stroke-miterlimit="10" points="1393.2,527 1383.1,537 1383.1,537 	"/>
	<path class="glass" fill="none" stroke="#323234" stroke-width="2" stroke-miterlimit="10" d="M1374,527.7c0.1,0.2,0.4,0.5,0.5,0.7
		c0.1,0.1,0.1,0.2,0.2,0.2l6.2-9.3l0.5-3.5L1374,527.7z"/>
	<polygon class="glass" fill="none" stroke="#323234" stroke-width="2" stroke-miterlimit="10" points="1382.7,516.6 1392.1,502.4 1390.7,501
		1381.6,515.5 	"/>
	<polygon class="glass" fill="none" stroke="#323234" stroke-width="2" stroke-miterlimit="10" points="1381.2,516.1 1380.7,519.5 1382.7,516.6
		1381.6,515.5 	"/>
	<path class="glass" fill="none" stroke="#323234" stroke-width="2" stroke-miterlimit="10" d="M1378.8,533.5l1.9-14l-6.2,9.3
		C1375.9,530.5,1377.2,532,1378.8,533.5z"/>
	<path class="glass" fill="none" stroke="#323234" stroke-width="2" stroke-miterlimit="10" d="M1382.7,516.6L1393,527l1.3-1.3
		c-2.1-2.9-3-6.2-3-10c0-4.1,1-7.7,2.9-11.1l-2.3-2.3L1382.7,516.6z"/>
	<path class="glass" fill="none" stroke="#323234" stroke-width="2" stroke-miterlimit="10" d="M1380.7,519.5l-1.9,14c1.3,1.2,2.8,2.4,4.3,3.5
		l10-10l-10.4-10.4L1380.7,519.5z"/>
	<path class="glass" fill="none" stroke="#323234" stroke-width="2" stroke-miterlimit="10" d="M1337.1,454.7c0-2.1-0.1-4.3-0.1-6.8v-2.3l-2.3,8
		L1337.1,454.7z"/>
	<path class="glass" fill="none" stroke="#323234" stroke-width="2" stroke-miterlimit="10" d="M1404.6,478.8l-1.8-2.8l-16.8-0.8
		c0.5,0.5,0.8,0.8,1.3,1.2c0.4,0.4,0.7,0.6,1.2,0.8l11.3,4.9c0.7,0.2,1.6,0.4,2.3,0.5L1404.6,478.8z"/>
	<path class="glass" fill="none" stroke="#323234" stroke-width="2" stroke-miterlimit="10" d="M1384.4,448.8c-2.7,3.5-4.1,7.5-4.1,11.7
		c0,3.4,0.6,6.4,1.8,9.2l2.9-20L1384.4,448.8z"/>
	<path class="glass" fill="none" stroke="#323234" stroke-width="2" stroke-miterlimit="10" d="M1227.2,406.6l5.5-3.6l-7.6-0.1c0,1,0,1.9,0,2.9
		L1227.2,406.6z"/>
	<polygon class="glass" fill="none" stroke="#323234" stroke-width="2" stroke-miterlimit="10" points="1244.8,414.3 1244.6,411.2 1238.5,405.1
		1242.9,403 1232.7,402.9 1227.2,406.6 	"/>
	<path class="glass" fill="none" stroke="#323234" stroke-width="2" stroke-miterlimit="10" d="M1248.2,414.7l-3.6-3.6l0.2,3.1l3.4,1.4v-0.1
		C1248.2,415.3,1248.2,415,1248.2,414.7z"/>
	<path class="glass" fill="none" stroke="#323234" stroke-width="2" stroke-miterlimit="10" d="M1386,475.2l16.8,0.8l-17.7-26.4l-2.9,20
		C1383,471.7,1384.4,473.5,1386,475.2z"/>
	<path class="glass" fill="none" stroke="#323234" stroke-width="2" stroke-miterlimit="10" d="M1402.2,482.8c0.8,0.1,1.7,0.4,2.5,0.5l1.4-2.2
		l-1.4-2.2L1402.2,482.8z"/>
	<path class="glass" fill="none" stroke="#323234" stroke-width="2" stroke-miterlimit="10" d="M1407.9,483.7L1407.9,483.7l-1.7-2.7l-1.4,2.2
		C1405.7,483.4,1406.8,483.5,1407.9,483.7z"/>
	<path class="glass" fill="none" stroke="#323234" stroke-width="2" stroke-miterlimit="10" d="M1356.5,477.6c-2.5-0.2-4.8-0.5-6.8-0.7l-2.3,8.9h9
		V477.6z"/>
	<path class="glass" fill="none" stroke="#323234" stroke-width="2" stroke-miterlimit="10" d="M1376.3,497.8c-1.9,2.2-3.5,4.7-4.6,7.6
		c-0.5,1.2-0.8,2.5-1.1,3.9l6.5-12.3C1376.8,497.3,1376.5,497.5,1376.3,497.8z"/>
	<path class="glass" fill="none" stroke="#323234" stroke-width="2" stroke-miterlimit="10" d="M501.8,303.6l-8.1,8.8c7.4,1.2,13.1,3.7,17.4,7.5
		c3.1,2.8,5.4,6.4,7,11l32.4,10.1l0.1-0.4c-1-12.2-7-21.8-18-28.8c-9.3-5.9-21.3-9.5-36.3-11l-1.6,0.6L501.8,303.6z"/>
	<path class="glass" fill="none" stroke="#323234" stroke-width="2" stroke-miterlimit="10" d="M550.7,341c0-0.1,0-0.2,0-0.5l-0.1,0.4L550.7,341z"
		/>
	<polygon class="glass" fill="none" stroke="#323234" stroke-width="2" stroke-miterlimit="10" points="477.8,300.1 475.3,300.1 474.5,303.2 	"/>
	<path class="glass" fill="none" stroke="#323234" stroke-width="2" stroke-miterlimit="10" d="M493.7,312.3l8.1-8.8l-7.1-2.2l-21.5,8.4l-0.4,1.7
		h9.2C486.2,311.4,490.2,311.7,493.7,312.3z"/>
	<path class="glass" fill="none" stroke="#323234" stroke-width="2" stroke-miterlimit="10" d="M741.8,380.4l-6-15.4c-2.4,1.4-4.8,3.1-7,4.8
		l10.9,14.4C740.4,382.8,741.1,381.6,741.8,380.4z"/>
	<path class="glass" fill="none" stroke="#323234" stroke-width="2" stroke-miterlimit="10" d="M536.2,435.5l0.5-0.5l-0.5-0.6
		C536.2,434.8,536.2,435.2,536.2,435.5z"/>
	<path class="glass" fill="none" stroke="#323234" stroke-width="2" stroke-miterlimit="10" d="M589.6,375.8c4,0,7.2,0.1,9.9,0.5l12.9-13.9
		l-22.8,4.9L589.6,375.8L589.6,375.8z"/>
	<path class="glass" fill="none" stroke="#323234" stroke-width="2" stroke-miterlimit="10" d="M520.1,341.7c0.1,1.7,0.2,3.5,0.2,5.4
		c0,7.2-1.1,13.1-3.3,17.6c-1.9,3.9-4.9,7.4-9,10.3h27.1c1.1-0.8,2.2-1.7,3.1-2.5l11.8-30.8H520.1z"/>
	<path class="glass" fill="none" stroke="#323234" stroke-width="2" stroke-miterlimit="10" d="M511.6,399C511.7,399,511.7,399.1,511.6,399l-0.5-3
		L511.6,399z"/>
	<path class="glass" fill="none" stroke="#323234" stroke-width="2" stroke-miterlimit="10" d="M550.2,401.5l-15.1,24.7c0.5,2.4,0.8,4.8,1.1,7.5
		l1.2,0.7l23-22.6C557.6,408.2,554.3,404.8,550.2,401.5z"/>
	<path class="glass" fill="none" stroke="#323234" stroke-width="2" stroke-miterlimit="10" d="M536.2,434.5l0.5,0.6l0.6-0.6l-1.2-0.7
		C536.2,434,536.2,434.2,536.2,434.5z"/>
	<path class="glass" fill="none" stroke="#323234" stroke-width="2" stroke-miterlimit="10" d="M538.4,372.5c0.8-0.7,1.7-1.4,2.4-2.2
		c6.6-6.8,10-15.4,10-26.1c0-0.8,0-1.7-0.1-2.5H550L538.4,372.5z"/>
	<path class="glass" fill="none" stroke="#323234" stroke-width="2" stroke-miterlimit="10" d="M509.6,386.7c10.6-3.3,19.2-7.1,25.6-11.7h-27.1
		c-0.1,0-0.1,0.1-0.2,0.1L509.6,386.7z"/>
	<path class="glass" fill="none" stroke="#323234" stroke-width="2" stroke-miterlimit="10" d="M511.7,399.1c0.7,0.2,1.4,0.6,2.2,0.8
		c11.5,5.5,18.6,14.4,21.2,26.3l15.1-24.7c-0.8-0.7-1.8-1.4-2.8-2.1c-2.4-1.6-4.8-3-7.4-4.3s-5.2-2.4-8.1-3.3
		c-2.9-0.8-6.2-1.7-9.9-2.3c-3.5-0.6-7.6-1.1-12.2-1.6l1.3,8.1L511.7,399.1z"/>
	<path class="glass" fill="none" stroke="#323234" stroke-width="2" stroke-miterlimit="10" d="M536.2,435.5c0,0.8,0.1,1.7,0.1,2.5
		c0,2.4-0.1,4.6-0.4,6.8l4.6-4.9l-3.9-4.8L536.2,435.5z"/>
	<path class="glass" fill="none" stroke="#323234" stroke-width="2" stroke-miterlimit="10" d="M542.8,437.5l20.1-21.7c-0.7-1.3-1.6-2.5-2.5-3.9
		l-23,22.6L542.8,437.5z"/>
	<polygon class="glass" fill="none" stroke="#323234" stroke-width="2" stroke-miterlimit="10" points="537.4,434.5 536.7,435.1 540.5,439.9
		542.8,437.5 	"/>
	<path class="glass" fill="none" stroke="#323234" stroke-width="2" stroke-miterlimit="10" d="M550.2,341.7l0.4-0.8l-32.4-10.1
		c1.1,3.3,1.8,6.9,2.1,11H550.2z"/>
	<path class="glass" fill="none" stroke="#323234" stroke-width="2" stroke-miterlimit="10" d="M550.2,341.7h0.6c0-0.2,0-0.5-0.1-0.8h-0.2
		L550.2,341.7z"/>
	<path class="glass" fill="none" stroke="#323234" stroke-width="2" stroke-miterlimit="10" d="M678.1,355.6c-0.8,0-1.6,0-2.3,0.1v0.4h7.1
		C681.4,355.7,679.8,355.6,678.1,355.6z"/>
	<path class="glass" fill="none" stroke="#323234" stroke-width="2" stroke-miterlimit="10" d="M635.1,424.9c0.1-1.4,0.2-2.8,0.5-4.1
		c0.7-5.9,1.7-11.1,3-15.8c1.1-3.7,2.3-7.1,3.7-10.3l-2.9-12.9c-1.2,2.1-2.2,4.1-3.1,6.3h-1l-0.6-5.8l-13.3,39.9L635.1,424.9z"/>
	<path class="glass" fill="none" stroke="#323234" stroke-width="2" stroke-miterlimit="10" d="M691.2,378.4c2.4-2.2,3.6-5.2,3.6-9
		c0-4.2-1.4-7.5-4.5-10c-2.1-1.7-4.5-2.8-7.5-3.4h-7.1V381c1.4,0.4,3.1,0.5,4.9,0.5C685.3,381.6,688.8,380.5,691.2,378.4z"/>
	<path class="glass" fill="none" stroke="#323234" stroke-width="2" stroke-miterlimit="10" d="M648.7,383.9c4.3-5.5,8.7-8.3,13-8.3
		c1.4,0,2.8,0.4,4,1c1.2,0.6,2.5,1.3,3.9,2.1c1.1,0.6,2.3,1.1,3.5,1.6l-6.6-22.4c-0.2,0.1-0.4,0.1-0.6,0.2c-4,1.6-7.8,3.9-11.6,6.6
		c-3.7,2.8-7.1,6.3-10.3,10.3c-0.8,1.2-1.7,2.4-2.5,3.6l6.6,6.3C648.4,384.4,648.5,384.2,648.7,383.9z"/>
	<path class="glass" fill="none" stroke="#323234" stroke-width="2" stroke-miterlimit="10" d="M648.1,384.8l-6.6-6.3c-0.7,1.1-1.4,2.3-2.1,3.4
		l2.9,12.9C644,391,645.9,387.7,648.1,384.8z"/>
	<polygon class="glass" fill="none" stroke="#323234" stroke-width="2" stroke-miterlimit="10" points="616.4,436.7 627.1,436.7 619.6,426.9 	"/>
	<path class="glass" fill="none" stroke="#323234" stroke-width="2" stroke-miterlimit="10" d="M619.6,426.9l7.4,9.9h7.5c0-4.1,0.2-8,0.6-11.8
		l-13.9-2.7L619.6,426.9z"/>
	<path class="glass" fill="none" stroke="#323234" stroke-width="2" stroke-miterlimit="10" d="M712,391.3c0,0.1-0.1,0.2-0.1,0.4h0.4L712,391.3z"
		/>
	<path class="glass" fill="none" stroke="#323234" stroke-width="2" stroke-miterlimit="10" d="M705.6,424.6l18.3-12.1l-11.7-20.9h-0.4
		c-0.7,1.4-1.3,2.9-1.9,4.5c-3.3,8.3-4.8,17.5-4.8,27.3c0,4.7,0.4,9.2,1.1,13.4h11.7L705.6,424.6z"/>
	<path class="glass" fill="none" stroke="#323234" stroke-width="2" stroke-miterlimit="10" d="M724,412.5l-18.3,12.1l12.3,12.3h15.9
		c-0.5-2.8-1-5.7-1.2-8.6L724,412.5z"/>
	<path class="glass" fill="none" stroke="#323234" stroke-width="2" stroke-miterlimit="10" d="M673,355.9h2.8v-0.4
		C674.9,355.7,673.9,355.8,673,355.9z"/>
	<path class="glass" fill="none" stroke="#323234" stroke-width="2" stroke-miterlimit="10" d="M674.3,380.7c0.5,0.1,1,0.4,1.6,0.5v-25.1h-2.8
		c-2.2,0.4-4.3,1-6.5,1.8l6.6,22.4C673.4,380.4,673.9,380.5,674.3,380.7z"/>
	<polygon class="glass" fill="none" stroke="#323234" stroke-width="2" stroke-miterlimit="10" points="474.5,303.2 470.9,306.8 474.2,305 	"/>
	<polygon class="glass" fill="none" stroke="#323234" stroke-width="2" stroke-miterlimit="10" points="468.9,311.4 473.2,309.7 474.2,305
		470.9,306.8 466.1,311.4 	"/>
	<path class="glass" fill="none" stroke="#323234" stroke-width="2" stroke-miterlimit="10" d="M496.4,300.7c-1.6-0.1-3-0.2-4.7-0.4l3,1
		L496.4,300.7z"/>
	<path class="glass" fill="none" stroke="#323234" stroke-width="2" stroke-miterlimit="10" d="M474.2,305l9.3-4.9c-0.5,0-1,0-1.6,0h-4.2l-3.1,3.1
		L474.2,305z"/>
	<path class="glass" fill="none" stroke="#323234" stroke-width="2" stroke-miterlimit="10" d="M494.8,301.3l-3-1c-2.7-0.1-5.3-0.2-8.2-0.2
		l-9.3,4.9l-1,4.7L494.8,301.3z"/>
	<path class="glass" fill="none" stroke="#323234" stroke-width="2" stroke-miterlimit="10" d="M883.3,430.2l6.5-14.8l-8.8,3.9
		c-2.8,1.2-5.4,2.5-7.8,3.7l-0.1,0.5l6.4,9.5C880.7,432,882,431.2,883.3,430.2z"/>
	<polygon class="glass" fill="none" stroke="#323234" stroke-width="2" stroke-miterlimit="10" points="866.9,467.3 867.6,465.7 867.3,465.5 	"/>
	<path class="glass" fill="none" stroke="#323234" stroke-width="2" stroke-miterlimit="10" d="M867.6,462.7l-0.4,2.8l0.5,0.2l0.6-1.4
		C868.1,463.6,867.9,463.2,867.6,462.7z"/>
	<path class="glass" fill="none" stroke="#323234" stroke-width="2" stroke-miterlimit="10" d="M877.2,434.9c0.7-0.6,1.6-1.3,2.4-1.9l-6.4-9.5
		l-2.7,18.9C872.1,439.9,874.4,437.3,877.2,434.9z"/>
	<polygon class="glass" fill="none" stroke="#323234" stroke-width="2" stroke-miterlimit="10" points="939.4,406.2 939.4,404.4 935.7,402.5 	"/>
	<polygon class="glass" fill="none" stroke="#323234" stroke-width="2" stroke-miterlimit="10" points="992.5,401.8 1003.3,400.4 992.5,386.7 	"/>
	<polygon class="glass" fill="none" stroke="#323234" stroke-width="2" stroke-miterlimit="10" points="935.7,402.5 928.9,398.9 936.1,408.6
		939.4,408.3 939.4,406.2 	"/>
	<path class="glass" fill="none" stroke="#323234" stroke-width="2" stroke-miterlimit="10" d="M935.3,371.9l-3.9,1l-5.5,19.9l9.8,9.8l3.7,2.1
		v-11.2C939.4,384.5,938,377.4,935.3,371.9z"/>
	<polygon class="glass" fill="none" stroke="#323234" stroke-width="2" stroke-miterlimit="10" points="925.6,393.2 925.5,394.4 928.9,398.9
		935.7,402.5 925.9,392.7 	"/>
	<polygon class="glass" fill="none" stroke="#323234" stroke-width="2" stroke-miterlimit="10" points="925.8,392.6 925.9,392.7 931.4,372.8
		927.6,373.8 	"/>
	<polygon class="glass" fill="none" stroke="#323234" stroke-width="2" stroke-miterlimit="10" points="925.6,393.2 925.9,392.7 925.8,392.6 	"/>
	<polygon class="glass" fill="none" stroke="#323234" stroke-width="2" stroke-miterlimit="10" points="925.3,396.9 924.1,410.2 936.1,408.6
		928.9,398.9 	"/>
	<polygon class="glass" fill="none" stroke="#323234" stroke-width="2" stroke-miterlimit="10" points="925.5,394.4 925.3,396.9 928.9,398.9 	"/>
	<polygon class="glass" fill="none" stroke="#323234" stroke-width="2" stroke-miterlimit="10" points="1005.4,396.1 1003.8,387.8 992.5,380.3
		992.5,386.7 1003.3,400.4 1006.1,400.1 	"/>
	<polygon class="glass" fill="none" stroke="#323234" stroke-width="2" stroke-miterlimit="10" points="1003.8,387.8 1005.4,396.1 1004.2,388 	"/>
	<path class="glass" fill="none" stroke="#323234" stroke-width="2" stroke-miterlimit="10" d="M968.8,303l0.1-0.7l-0.2,0.2L968.8,303L968.8,303z"
		/>
	<polygon class="glass" fill="none" stroke="#323234" stroke-width="2" stroke-miterlimit="10" points="968.8,297.3 970,297.7 970.5,295.3
		969.8,294.5 968.8,294.8 	"/>
	<path class="glass" fill="none" stroke="#323234" stroke-width="2" stroke-miterlimit="10" d="M909.1,371.7c1.2,1.3,2.3,2.9,3.1,4.6l0.7,1.1
		l7.7-1.9l6.9-3.5l0.8-8.4c-3.4-2.7-7.7-4.6-13.1-5.9L909.1,371.7z"/>
	<polygon class="glass" fill="none" stroke="#323234" stroke-width="2" stroke-miterlimit="10" points="858.3,389.8 858,391 863.2,389.7
		862.2,388.9 	"/>
	<path class="glass" fill="none" stroke="#323234" stroke-width="2" stroke-miterlimit="10" d="M880.9,356.3c-1.4,0.1-3,0.4-4.3,0.6l-2.4,2.4
		L880.9,356.3z"/>
	<polygon class="glass" fill="none" stroke="#323234" stroke-width="2" stroke-miterlimit="10" points="969.1,302.3 970,297.7 968.8,297.3
		968.8,302.5 	"/>
	<path class="glass" fill="none" stroke="#323234" stroke-width="2" stroke-miterlimit="10" d="M869.8,363.5l1.3,1.3l11.3-8.7l0,0
		c-0.5,0-1.1,0.1-1.6,0.1l-6.9,3L869.8,363.5z"/>
	<polygon class="glass" fill="none" stroke="#323234" stroke-width="2" stroke-miterlimit="10" points="859.3,386.3 858.3,389.8 862.2,388.9 	"/>
	<polygon class="glass" fill="none" stroke="#323234" stroke-width="2" stroke-miterlimit="10" points="864.1,369.3 863.8,370.4 868.6,366.8
		867.4,366.1 	"/>
	<polygon class="glass" fill="none" stroke="#323234" stroke-width="2" stroke-miterlimit="10" points="868.6,366.8 871.1,364.9 869.8,363.5
		867.4,366.1 	"/>
	<polygon class="glass" fill="none" stroke="#323234" stroke-width="2" stroke-miterlimit="10" points="920.8,375.5 927.6,373.8 927.7,372 	"/>
	<path class="glass" fill="none" stroke="#323234" stroke-width="2" stroke-miterlimit="10" d="M913,377.4l-0.7-1.1c0.2,0.4,0.4,0.7,0.5,1.1H913z"
		/>
	<path class="glass" fill="none" stroke="#323234" stroke-width="2" stroke-miterlimit="10" d="M862.2,388.9l1,0.8l5.1-1.2
		c0.2-0.4,0.6-0.7,0.8-1.2L862.2,388.9z"/>
	<path class="glass" fill="none" stroke="#323234" stroke-width="2" stroke-miterlimit="10" d="M876.7,370.4c0.7-1,1.4-1.8,2.2-2.5
		c0.6-0.6,1.3-1.1,2.2-1.4l1.4-10.3l-11.3,8.7L876.7,370.4z"/>
	<path class="glass" fill="none" stroke="#323234" stroke-width="2" stroke-miterlimit="10" d="M869.1,387.3c1.1-1.7,2.2-4,3.3-6.9
		c1-3,1.9-5.7,3-7.7c0.4-0.7,0.7-1.3,1.1-1.8l-7.7-4.1l-4.8,3.7l-4.5,15.9l2.9,2.5L869.1,387.3z"/>
	<path class="glass" fill="none" stroke="#323234" stroke-width="2" stroke-miterlimit="10" d="M876.4,370.9c0.1-0.1,0.2-0.4,0.2-0.5l-5.5-5.5
		l-2.4,1.9L876.4,370.9z"/>
	<path class="glass" fill="none" stroke="#323234" stroke-width="2" stroke-miterlimit="10" d="M996.8,341.7h-4.3c0,2.1,0,4.1,0,6.4v9.6l6.6-1.7
		L996.8,341.7z"/>
	<path class="glass" fill="none" stroke="#323234" stroke-width="2" stroke-miterlimit="10" d="M908,370.6c0.4,0.4,0.7,0.7,1.1,1.1l6.2-14.1
		c-0.5-0.1-0.8-0.2-1.3-0.4l-9,9L908,370.6z"/>
	<path class="glass" fill="none" stroke="#323234" stroke-width="2" stroke-miterlimit="10" d="M914,357.4c-4.8-1.1-10.5-1.7-17-1.7l8,10.7
		L914,357.4z"/>
	<path class="glass" fill="none" stroke="#323234" stroke-width="2" stroke-miterlimit="10" d="M882.5,356.2L882.5,356.2L882.5,356.2L882.5,356.2z
		"/>
	<path class="glass" fill="none" stroke="#323234" stroke-width="2" stroke-miterlimit="10" d="M908,370.6l-3.1-4.2l-1.2,1.2
		C905.4,368.4,906.8,369.4,908,370.6z"/>
	<path class="glass" fill="none" stroke="#323234" stroke-width="2" stroke-miterlimit="10" d="M882.5,356.2L882.5,356.2l-1.4,10.3
		c0.8-0.4,1.7-0.7,2.7-1c1.9-0.5,4.2-0.7,7-0.7c5.2,0,9.5,1,13.1,2.8l1.2-1.2l-8-10.7c-0.6,0-1.3,0-1.9,0
		C890.6,355.6,886.3,355.8,882.5,356.2z"/>
	<path class="glass" fill="none" stroke="#323234" stroke-width="2" stroke-miterlimit="10" d="M932.3,369.7l-0.8,3.1l3.9-1
		c-1.6-3.1-3.5-5.7-6-7.7c-0.2-0.2-0.5-0.4-0.7-0.6l-0.8,8.4L932.3,369.7z"/>
	<polygon class="glass" fill="none" stroke="#323234" stroke-width="2" stroke-miterlimit="10" points="927.7,372 927.6,373.8 931.4,372.8
		932.3,369.7 	"/>
	<path class="glass" fill="none" stroke="#323234" stroke-width="2" stroke-miterlimit="10" d="M819.3,463.4l-7.5-6.8c-2.8,3-5.4,5.7-8.1,7.8
		l7.4,7.4C814,469.4,816.6,466.5,819.3,463.4z"/>
	<path class="glass" fill="none" stroke="#323234" stroke-width="2" stroke-miterlimit="10" d="M793.9,391.5c0,1.4-0.1,2.7-0.5,3.5
		c-0.4,0.8-1,1.6-1.9,2.1c-1,0.5-2.4,0.8-4.3,1c-0.6,0-1.2,0.1-1.9,0.1l0.1,5.3l34.9,0.5c0-1.7-0.1-3.3-0.1-4.8l-15.2,3.6l12.4-18.5
		c-1.6-4.7-3.7-8.8-6.5-12.3l-18.7,9.3C793.3,384.3,793.9,387.7,793.9,391.5z"/>
	<path class="glass" fill="none" stroke="#323234" stroke-width="2" stroke-miterlimit="10" d="M771.6,398.3l-3,4.9l16.8,0.2l-0.1-5.3
		c-1.6,0.1-3.5,0.1-5.8,0.1L771.6,398.3L771.6,398.3z"/>
	<polygon class="glass" fill="none" stroke="#323234" stroke-width="2" stroke-miterlimit="10" points="764.7,398.3 764,403.2 768.6,403.2
		771.6,398.3 	"/>
	<polygon class="glass" fill="none" stroke="#323234" stroke-width="2" stroke-miterlimit="10" points="749.7,403 749.7,402.4 748.6,403 	"/>
	<polygon class="glass" fill="none" stroke="#323234" stroke-width="2" stroke-miterlimit="10" points="749.7,402.4 749.7,403 764,403.2
		764.7,398.3 758,398.3 	"/>
	<path class="glass" fill="none" stroke="#323234" stroke-width="2" stroke-miterlimit="10" d="M820,399c-0.4-5.4-1.3-10.4-2.8-14.7l-12.4,18.5
		L820,399z"/>
	<path class="glass" fill="none" stroke="#323234" stroke-width="2" stroke-miterlimit="10" d="M855.7,391.5c0.6,0.1,1.3,0.2,2.1,0.4l0.2-0.8
		L855.7,391.5z"/>
	<path class="glass" fill="none" stroke="#323234" stroke-width="2" stroke-miterlimit="10" d="M785.5,409.4h27.1c3.3,0,5.3-0.2,6.2-0.7
		c0.8-0.5,1.3-1.8,1.3-4.1c0-0.2,0-0.5,0-0.7l-34.9-0.5L785.5,409.4z"/>
	<polygon class="glass" fill="none" stroke="#323234" stroke-width="2" stroke-miterlimit="10" points="768.6,403.2 764.9,409.4 785.5,409.4
		785.4,403.5 	"/>
	<polygon class="glass" fill="none" stroke="#323234" stroke-width="2" stroke-miterlimit="10" points="748.6,403 744.2,405.1 748.6,409.4
		750.2,409.4 749.7,403 	"/>
	<polygon class="glass" fill="none" stroke="#323234" stroke-width="2" stroke-miterlimit="10" points="763.1,409.4 764.9,409.4 768.6,403.2
		764,403.2 	"/>
	<polygon class="glass" fill="none" stroke="#323234" stroke-width="2" stroke-miterlimit="10" points="750.2,409.4 763.1,409.4 764,403.2
		749.7,403 	"/>
	<path class="glass" fill="none" stroke="#323234" stroke-width="2" stroke-miterlimit="10" d="M858.3,389.8l-4.6,1.1c0.6,0.2,1.3,0.5,1.9,0.6
		l2.3-0.6L858.3,389.8z"/>
	<polygon class="glass" fill="none" stroke="#323234" stroke-width="2" stroke-miterlimit="10" points="860.3,373.1 863.8,370.4 864.1,369.3 	"/>
	<path class="glass" fill="none" stroke="#323234" stroke-width="2" stroke-miterlimit="10" d="M859.3,386.3l-6.6-5.7l-4.2,4.2l0,0l0,0
		c0.8,2.9,2.7,4.8,5.3,5.9l4.6-1.1L859.3,386.3z"/>
	<polygon class="glass" fill="none" stroke="#323234" stroke-width="2" stroke-miterlimit="10" points="860.3,373.1 852.7,380.7 859.3,386.3
		863.8,370.4 	"/>
	<path class="glass" fill="none" stroke="#323234" stroke-width="2" stroke-miterlimit="10" d="M851.7,379.8L851.7,379.8l0.1-0.2l12.2-19.4
		c-1.4,0.6-2.8,1.2-4,1.8c-8.2,4.2-12.3,10.3-12.3,18c0,1.9,0.2,3.6,0.7,5.1l1.8-2.7L851.7,379.8z"/>
	<polygon class="glass" fill="none" stroke="#323234" stroke-width="2" stroke-miterlimit="10" points="851.6,379.7 851.7,379.8 851.8,379.6 	"/>
	<path class="glass" fill="none" stroke="#323234" stroke-width="2" stroke-miterlimit="10" d="M848.5,385l1.7-2.7L848.5,385L848.5,385L848.5,385z
		"/>
	<polygon class="glass" fill="none" stroke="#323234" stroke-width="2" stroke-miterlimit="10" points="874,359.3 876.6,356.9 876.6,356.9 	"/>
	<polygon class="glass" fill="none" stroke="#323234" stroke-width="2" stroke-miterlimit="10" points="869.8,363.5 874,359.3 874,359.3 	"/>
	<polygon class="glass" fill="none" stroke="#323234" stroke-width="2" stroke-miterlimit="10" points="867.4,366.1 867.4,366.1 864.1,369.3
		864.1,369.3 	"/>
	<polygon class="glass" fill="none" stroke="#323234" stroke-width="2" stroke-miterlimit="10" points="867.4,366.1 867.4,366.1 869.8,363.5
		869.8,363.5 	"/>
	<polygon class="glass" fill="none" stroke="#323234" stroke-width="2" stroke-miterlimit="10" points="864.1,369.3 864.1,369.3 860.3,373.1
		860.3,373.1 	"/>
	<polygon class="glass" fill="none" stroke="#323234" stroke-width="2" stroke-miterlimit="10" points="852.7,380.7 852.7,380.7 848.5,385
		848.5,385 	"/>
	<polygon class="glass" fill="none" stroke="#323234" stroke-width="2" stroke-miterlimit="10" points="860.3,373.1 852.7,380.7 852.7,380.7 	"/>
	<path class="glass" fill="none" stroke="#323234" stroke-width="2" stroke-miterlimit="10" d="M868.2,362l5.8-2.7l2.4-2.4
		c-3.5,0.6-6.6,1.3-9.5,2.2l-0.4,1.2L868.2,362z"/>
	<polygon class="glass" fill="none" stroke="#323234" stroke-width="2" stroke-miterlimit="10" points="874,359.3 868.2,362 869.8,363.5 	"/>
	<polygon class="glass" fill="none" stroke="#323234" stroke-width="2" stroke-miterlimit="10" points="866.7,360.4 865.9,363 868.2,362 	"/>
	<polygon class="glass" fill="none" stroke="#323234" stroke-width="2" stroke-miterlimit="10" points="865.3,365 864.1,369.3 867.4,366.1 	"/>
	<polygon class="glass" fill="none" stroke="#323234" stroke-width="2" stroke-miterlimit="10" points="869.8,363.5 868.2,362 865.9,363
		865.3,365 867.4,366.1 	"/>
	<path class="glass" fill="none" stroke="#323234" stroke-width="2" stroke-miterlimit="10" d="M852,379.5l12.9-19.7c-0.4,0.1-0.6,0.2-1,0.4
		l-12.2,19.4L852,379.5z"/>
	<path class="glass" fill="none" stroke="#323234" stroke-width="2" stroke-miterlimit="10" d="M851.7,379.8l-1.6,2.4L851.7,379.8z"/>
	<polygon class="glass" fill="none" stroke="#323234" stroke-width="2" stroke-miterlimit="10" points="852,379.5 851.8,379.6 851.7,379.8
		851.7,379.8 	"/>
	<path class="glass" fill="none" stroke="#323234" stroke-width="2" stroke-miterlimit="10" d="M867,359.1c-0.4,0.1-0.8,0.2-1.2,0.4l0.8,0.8
		L867,359.1z"/>
	<path class="glass" fill="none" stroke="#323234" stroke-width="2" stroke-miterlimit="10" d="M864.1,369.3l1.2-4.3l-1.7-1l2.3-1l0.7-2.7
		l-0.8-0.8c-0.2,0.1-0.6,0.2-0.8,0.2l-12.9,19.7l8.3-6.4L864.1,369.3z"/>
	<polygon class="glass" fill="none" stroke="#323234" stroke-width="2" stroke-miterlimit="10" points="851.7,379.8 850.1,382.2 848.5,385
		852.7,380.7 	"/>
	<polygon class="glass" fill="none" stroke="#323234" stroke-width="2" stroke-miterlimit="10" points="863.7,364 865.3,365 865.9,363 	"/>
	<polygon class="glass" fill="none" stroke="#323234" stroke-width="2" stroke-miterlimit="10" points="852.7,380.7 860.3,373.1 852,379.5
		851.7,379.8 	"/>
	<polygon class="glass" fill="none" stroke="#323234" stroke-width="2" stroke-miterlimit="10" points="976.2,300.9 999.1,288.7 970.6,294.4
		970.5,295.3 	"/>
	<path class="glass" fill="none" stroke="#323234" stroke-width="2" stroke-miterlimit="10" d="M982.3,303.6c3.4,0.4,5.8,1.7,7.2,4
		c1.1,1.8,1.9,4.8,2.3,9l11.2,11.2l12.3,3.9v-46.1l-16.3,3.3l-22.9,12.2l2.3,2.3C979.9,303.3,981.1,303.5,982.3,303.6z"/>
	<path class="glass" fill="none" stroke="#323234" stroke-width="2" stroke-miterlimit="10" d="M969.1,302.3L969,303c1.2,0,2.3,0,3.4,0l3.9-2.1
		l-5.7-5.7l-0.5,2.4l2.8,0.8L969.1,302.3z"/>
	<polygon class="glass" fill="none" stroke="#323234" stroke-width="2" stroke-miterlimit="10" points="972.8,298.5 970,297.7 969.1,302.3 	"/>
	<path class="glass" fill="none" stroke="#323234" stroke-width="2" stroke-miterlimit="10" d="M992.5,341.7h4.3l-2.7-16.6l8.9,2.8l-11.2-11.2
		c0.1,1.2,0.2,2.4,0.2,3.7C992.4,325.5,992.4,332.7,992.5,341.7z"/>
	<path class="glass" fill="none" stroke="#323234" stroke-width="2" stroke-miterlimit="10" d="M978.5,303.2l-2.3-2.3l-3.9,2.1
		C974.6,303.1,976.7,303.1,978.5,303.2z"/>
	<polygon class="glass" fill="none" stroke="#323234" stroke-width="2" stroke-miterlimit="10" points="1240.5,391.6 1227.8,359.2 1216.9,361.7
		1239.5,391.6 	"/>
	<polygon class="glass" fill="none" stroke="#323234" stroke-width="2" stroke-miterlimit="10" points="1241.3,394 1240.5,391.6 1239.5,391.6 	"/>
	<path class="glass" fill="none" stroke="#323234" stroke-width="2" stroke-miterlimit="10" d="M1015.4,447.5l-8.2-42.3l-0.4-0.5l7.4,46.8l1.2-1.2
		C1015.4,449.4,1015.4,448.4,1015.4,447.5z"/>
	<polygon class="glass" fill="none" stroke="#323234" stroke-width="2" stroke-miterlimit="10" points="1071.4,381.6 1069.2,367.8 1060.7,370.3
		1060.7,375 1060.7,388.9 1061.9,389.9 	"/>
	<path class="glass" fill="none" stroke="#323234" stroke-width="2" stroke-miterlimit="10" d="M1070.6,367.3l13,4.1c1.6-1.1,3-1.9,4.3-2.5
		c2.1-1,4.1-1.6,6.4-1.9s4.9-0.5,8-0.5v-7.5l-2.1-0.6L1070.6,367.3z"/>
	<polygon class="glass" fill="none" stroke="#323234" stroke-width="2" stroke-miterlimit="10" points="1069.2,367.8 1069.1,367 1062.2,358
		1060.7,358 1060.7,370.3 	"/>
	<polygon class="glass" fill="none" stroke="#323234" stroke-width="2" stroke-miterlimit="10" points="1069.1,367 1068.9,366.8 1070.6,367.3
		1100.4,358.2 1099.5,358 1062.2,358 	"/>
	<path class="glass" fill="none" stroke="#323234" stroke-width="2" stroke-miterlimit="10" d="M1015.4,433.2l8.1-7.6l-6.9-8.7l-1.1,1.1v-2.5
		l-8.2-10.3l8.2,42.3c0,0,0,0,0-0.1v-14.2H1015.4z"/>
	<polygon class="glass" fill="none" stroke="#323234" stroke-width="2" stroke-miterlimit="10" points="1002.1,375 1015.4,375 1015.4,352.1
		999.1,356.1 	"/>
	<polygon class="glass" fill="none" stroke="#323234" stroke-width="2" stroke-miterlimit="10" points="1060.1,391.5 1056,384.5 1060.7,388.9
		1060.7,375 1027.7,428.9 1032,434.1 1047.2,419.1 1039.3,410.1 	"/>
	<polygon class="glass" fill="none" stroke="#323234" stroke-width="2" stroke-miterlimit="10" points="1006.1,400.1 1006.8,404.7 1007.2,405.3
		1006.2,400.1 	"/>
	<path class="glass" fill="none" stroke="#323234" stroke-width="2" stroke-miterlimit="10" d="M1058.2,375h2.5v-4.7l-1.8,0.6
		c0.2,0.4,0.4,0.8,0.4,1.3C1059.3,372.9,1058.9,373.9,1058.2,375z"/>
	<path class="glass" fill="none" stroke="#323234" stroke-width="2" stroke-miterlimit="10" d="M1060.7,358h-21v8.4c6.3,0,11.1,0.5,14.5,1.6
		c2.5,0.7,4.1,1.7,4.7,2.9l1.8-0.6V358z"/>
	<polygon class="glass" fill="none" stroke="#323234" stroke-width="2" stroke-miterlimit="10" points="1015.4,399 1006.2,400.1 1007.2,405.3
		1015.4,415.5 	"/>
	<path class="glass" fill="none" stroke="#323234" stroke-width="2" stroke-miterlimit="10" d="M1054,380.1c-3.5,3.5-8.9,8.8-16.2,16l-21.3,20.9
		l6.9,8.7l0.8-0.8l3.4,4.1l33-53.9h-2.5C1057.4,376.4,1055.9,378.1,1054,380.1z"/>
	<polygon class="glass" fill="none" stroke="#323234" stroke-width="2" stroke-miterlimit="10" points="1004.2,388 1015.4,395.4 1015.4,375
		1002.1,375 	"/>
	<path class="glass" fill="none" stroke="#323234" stroke-width="2" stroke-miterlimit="10" d="M1069.2,367.8l2.2,13.8l2.7-2.4
		c0.8-0.7,1.7-1.4,2.5-2.2l-7-9.3L1069.2,367.8z"/>
	<path class="glass" fill="none" stroke="#323234" stroke-width="2" stroke-miterlimit="10" d="M1076.5,377c1.9-1.6,3.6-3,5.2-4.2
		c0.7-0.5,1.3-1,2.1-1.4l-13-4.1l-1.2,0.4L1076.5,377z"/>
	<polygon class="glass" fill="none" stroke="#323234" stroke-width="2" stroke-miterlimit="10" points="1069.5,367.6 1069.1,367 1069.2,367.8 	"/>
	<polygon class="glass" fill="none" stroke="#323234" stroke-width="2" stroke-miterlimit="10" points="1070.6,367.3 1068.9,366.8 1069.1,367
		1069.5,367.6 	"/>
	<path class="glass" fill="none" stroke="#323234" stroke-width="2" stroke-miterlimit="10" d="M1014.2,451.5l1.4,9l0.4-0.4
		c-0.2-2.8-0.5-6.2-0.5-9.9L1014.2,451.5z"/>
	<polygon class="glass" fill="none" stroke="#323234" stroke-width="2" stroke-miterlimit="10" points="1047.2,419.1 1032,434.1 1035.9,438.7
		1050.6,422.9 	"/>
	<polygon class="glass" fill="none" stroke="#323234" stroke-width="2" stroke-miterlimit="10" points="1061.9,389.9 1060.7,388.9 1060.7,391 	"/>
	<polygon class="glass" fill="none" stroke="#323234" stroke-width="2" stroke-miterlimit="10" points="1060.7,388.9 1056,384.5 1060.1,391.5
		1060.7,391 	"/>
	<polygon class="glass" fill="none" stroke="#323234" stroke-width="2" stroke-miterlimit="10" points="1006.1,400.1 1006.2,400.1 1005.4,396.1
		"/>
	<polygon class="glass" fill="none" stroke="#323234" stroke-width="2" stroke-miterlimit="10" points="1004.2,388 1005.4,396.1 1006.2,400.1
		1015.4,399 1015.4,395.4 	"/>
	<polygon class="glass" fill="none" stroke="#323234" stroke-width="2" stroke-miterlimit="10" points="1015.4,352.1 1015.4,341.7 996.8,341.7
		999.1,356.1 	"/>
	<polygon class="glass" fill="none" stroke="#323234" stroke-width="2" stroke-miterlimit="10" points="1015.4,340.1 1015.4,331.7 1003.1,327.8
		"/>
	<polygon class="glass" fill="none" stroke="#323234" stroke-width="2" stroke-miterlimit="10" points="996.8,341.7 1015.4,341.7 1015.4,340.1
		1003.1,327.8 994.2,325.1 	"/>
	<path class="glass" fill="none" stroke="#323234" stroke-width="2" stroke-miterlimit="10" d="M1149.5,320.1L1149.5,320.1L1149.5,320.1
		L1149.5,320.1z"/>
	<path class="glass" fill="none" stroke="#323234" stroke-width="2" stroke-miterlimit="10" d="M1143.5,382.8c0.2,0.8,0.5,2.1,0.6,3.5l5.7,5.3
		h19.1V385l-8.2-27.9l-25,4.8l-3.9,11.7c2.8,0.4,4.8,0.8,6.3,1.6C1140.8,376.6,1142.6,379.1,1143.5,382.8z"/>
	<polygon class="glass" fill="none" stroke="#323234" stroke-width="2" stroke-miterlimit="10" points="1168.8,398 1168.8,391.6 1149.8,391.6
		1150.5,392.2 	"/>
	<polygon class="glass" fill="none" stroke="#323234" stroke-width="2" stroke-miterlimit="10" points="1145.3,432.9 1145.2,432.9 1145.2,436.7
		1146.1,436.7 	"/>
	<polygon class="glass" fill="none" stroke="#323234" stroke-width="2" stroke-miterlimit="10" points="1168.8,402 1164.7,405.6 1168.8,409.5 	"/>
	<polygon class="glass" fill="none" stroke="#323234" stroke-width="2" stroke-miterlimit="10" points="1168.8,402 1168.8,398 1150.5,392.2
		1164.7,405.6 	"/>
	<path class="glass" fill="none" stroke="#323234" stroke-width="2" stroke-miterlimit="10" d="M1148.4,391.6h1.3l-5.7-5.3
		c0.1,1.2,0.2,2.5,0.4,4.1L1148.4,391.6z"/>
	<polygon class="glass" fill="none" stroke="#323234" stroke-width="2" stroke-miterlimit="10" points="1151.2,436.7 1152,436.7 1154.2,433.5 	"/>
	<polygon class="glass" fill="none" stroke="#323234" stroke-width="2" stroke-miterlimit="10" points="1150.5,392.2 1149.8,391.6 1148.4,391.6
		"/>
	<polygon class="glass" fill="none" stroke="#323234" stroke-width="2" stroke-miterlimit="10" points="1145.7,422.9 1145.2,423.4 1145.2,428.1
		1146.7,428.3 	"/>
	<polygon class="glass" fill="none" stroke="#323234" stroke-width="2" stroke-miterlimit="10" points="1147.5,431.9 1145.3,432.9 1146.1,436.7
		1148.4,436.7 	"/>
	<path class="glass" fill="none" stroke="#323234" stroke-width="2" stroke-miterlimit="10" d="M1144.6,390.4c0,0.4,0,0.8,0.1,1.2h3.9
		L1144.6,390.4z"/>
	<polygon class="glass" fill="none" stroke="#323234" stroke-width="2" stroke-miterlimit="10" points="1145.2,420.8 1145.2,423.4 1145.7,422.9
		"/>
	<polygon class="glass" fill="none" stroke="#323234" stroke-width="2" stroke-miterlimit="10" points="1151.2,436.7 1154.2,433.5 1168.8,411.7
		1168.8,409.5 1164.7,405.6 1145.7,422.9 1146.7,428.3 1153.4,429.6 1147.5,431.9 1148.4,436.7 	"/>
	<path class="glass" fill="none" stroke="#323234" stroke-width="2" stroke-miterlimit="10" d="M1164.7,405.6l-14.4-13.4l-2.1-0.6h-3.9
		c0.1,1.1,0.1,2.3,0.2,3.6c0.2,6,0.4,13.8,0.4,23v2.5l0.5,2.2L1164.7,405.6z"/>
	<polygon class="glass" fill="none" stroke="#323234" stroke-width="2" stroke-miterlimit="10" points="1145.2,432.4 1145.2,432.9 1145.3,432.9
		"/>
	<polygon class="glass" fill="none" stroke="#323234" stroke-width="2" stroke-miterlimit="10" points="1147.5,431.9 1146.7,428.3 1145.2,428.1
		1145.2,432.4 1145.3,432.9 	"/>
	<polygon class="glass" fill="none" stroke="#323234" stroke-width="2" stroke-miterlimit="10" points="1146.7,428.3 1147.5,431.9 1153.4,429.6
		"/>
	<polygon class="glass" fill="none" stroke="#323234" stroke-width="2" stroke-miterlimit="10" points="1152,436.7 1168.8,436.7 1168.8,417.8
		1154.2,433.5 	"/>
	<polygon class="glass" fill="none" stroke="#323234" stroke-width="2" stroke-miterlimit="10" points="1154.2,433.5 1168.8,417.8 1168.8,411.7
		"/>
	<polygon class="glass" fill="none" stroke="#323234" stroke-width="2" stroke-miterlimit="10" points="1231.8,436.7 1225.3,425 1225.3,436.7 	"/>
	<path class="glass" fill="none" stroke="#323234" stroke-width="2" stroke-miterlimit="10" d="M1155.8,301.3l9.5,17c0.5-0.4,0.8-0.7,1.3-1.1
		c1.6-1.6,2.7-3.4,3.4-5.3v-10.6c-0.7-1.9-1.8-3.7-3.4-5.3c-2.9-2.9-6.4-4.3-10.6-4.3s-7.7,1.4-10.6,4.3c-0.8,0.8-1.6,1.8-2.2,2.8
		l6.3,21.3L1155.8,301.3z"/>
	<polygon class="glass" fill="none" stroke="#323234" stroke-width="2" stroke-miterlimit="10" points="1166.6,355.9 1168.8,355.9 1168.8,355.6
		"/>
	<path class="glass" fill="none" stroke="#323234" stroke-width="2" stroke-miterlimit="10" d="M1165.3,318.3l-9.5-17l-6.3,18.7v0.1
		c1.9,1,4.1,1.4,6.4,1.4C1159.6,321.6,1162.7,320.5,1165.3,318.3z"/>
	<polygon class="glass" fill="none" stroke="#323234" stroke-width="2" stroke-miterlimit="10" points="1168.8,355.9 1166.6,355.9 1160.5,357.1
		1168.8,385 	"/>
	<path class="glass" fill="none" stroke="#323234" stroke-width="2" stroke-miterlimit="10" d="M1390.6,381.5l-8,1.9c-1.7,4.5-2.5,9.3-2.5,14.6
		c0,4.2,0.6,8.2,1.9,12.2c0.6,1.8,1.3,3.5,2.1,5.2l8.6-19.4l1.8-12.5L1390.6,381.5z"/>
	<polygon class="glass" fill="none" stroke="#323234" stroke-width="2" stroke-miterlimit="10" points="1392.7,396 1397.5,385.1 1394.5,383.6 	"/>
	<polygon class="glass" fill="none" stroke="#323234" stroke-width="2" stroke-miterlimit="10" points="1394.8,380.4 1390.6,381.5 1394.5,383.6
		"/>
	<polygon class="glass" fill="none" stroke="#323234" stroke-width="2" stroke-miterlimit="10" points="1394.5,383.6 1397.5,385.1 1400.2,379.2
		1394.8,380.4 	"/>
	<path class="glass" fill="none" stroke="#323234" stroke-width="2" stroke-miterlimit="10" d="M1463.8,368.4c-1.4-1.3-3.1-2.7-4.7-3.7l-12.7,3.1
		l9.3,37.9l19.5-2.4c0.1-1.6,0.2-3.3,0.2-4.9c0-9-1.9-16.5-5.8-22.4c1.9-1.3,3.9-2.3,5.8-3l-9.4-6.3
		C1465.3,367.1,1464.6,367.8,1463.8,368.4z"/>
	<path class="glass" fill="none" stroke="#323234" stroke-width="2" stroke-miterlimit="10" d="M1444.2,373.5c3.7,6,5.7,14.5,5.7,25.5
		c0,2.5-0.1,5.1-0.4,7.4l6.2-0.7l-9.3-37.9l-5.8,1.4C1441.9,370.4,1443.1,371.9,1444.2,373.5z"/>
	<path class="glass" fill="none" stroke="#323234" stroke-width="2" stroke-miterlimit="10" d="M1478.3,358.6c-1.3,0.6-2.7,1.3-4,2.2l20-4.9
		c-1.3-0.1-2.8-0.2-4.2-0.2C1486.4,355.6,1482.5,356.5,1478.3,358.6z"/>
	<path class="glass" fill="none" stroke="#323234" stroke-width="2" stroke-miterlimit="10" d="M1402.1,374.6l3.3,3.3l4.5-1.1
		c0.6-1.1,1.1-2.2,1.8-3.1c2.9-4.3,6.6-7.2,11-8.4l1-9.5c-5.1,0.4-9.9,1.3-14.4,2.9L1402.1,374.6z"/>
	<polygon class="glass" fill="none" stroke="#323234" stroke-width="2" stroke-miterlimit="10" points="1405.3,377.9 1402.1,374.6 1400.2,379.2
		"/>
	<path class="glass" fill="none" stroke="#323234" stroke-width="2" stroke-miterlimit="10" d="M1386.4,379.2l-3.3,3.3l0,0c-0.1,0.4-0.2,0.6-0.4,1
		l8-1.9L1386.4,379.2z"/>
	<path class="glass" fill="none" stroke="#323234" stroke-width="2" stroke-miterlimit="10" d="M1390.6,381.5l4.2-1.1l1.6-11.3l5.5,5.5l7.1-16
		c-0.2,0.1-0.4,0.1-0.6,0.2c-1.1,0.4-2.1,0.8-3.1,1.3l-19.1,19.1L1390.6,381.5z"/>
	<polygon class="glass" fill="none" stroke="#323234" stroke-width="2" stroke-miterlimit="10" points="1394.8,380.4 1400.2,379.2 1402.1,374.6
		1396.5,369.1 	"/>
	<path class="glass" fill="none" stroke="#323234" stroke-width="2" stroke-miterlimit="10" d="M1383,382.5L1383,382.5l3.3-3.3l-1.4-0.7
		c-0.5,0.8-1,1.7-1.3,2.7C1383.4,381.6,1383.3,382,1383,382.5z"/>
	<path class="glass" fill="none" stroke="#323234" stroke-width="2" stroke-miterlimit="10" d="M1383,382.6L1383,382.6L1383,382.6L1383,382.6z"/>
	<path class="glass" fill="none" stroke="#323234" stroke-width="2" stroke-miterlimit="10" d="M1405.5,360.2c-4.5,2.1-8.4,4.6-11.9,7.6
		c-3.5,3.1-6.4,6.8-8.6,10.7l1.4,0.7L1405.5,360.2z"/>
	<path class="glass" fill="none" stroke="#323234" stroke-width="2" stroke-miterlimit="10" d="M1383,382.5L1383,382.5L1383,382.5L1383,382.5z"/>
	<path class="glass" fill="none" stroke="#323234" stroke-width="2" stroke-miterlimit="10" d="M1443.9,357.7l2.4,10l12.7-3.1
		c-3.4-2.4-7.2-4.2-11.5-5.8C1446.5,358.3,1445.1,358,1443.9,357.7z"/>
	<path class="glass" fill="none" stroke="#323234" stroke-width="2" stroke-miterlimit="10" d="M1427.7,355.6c-1.4,0-2.8,0-4.1,0.1l-1,9.5
		c1.7-0.5,3.5-0.7,5.5-0.7c4.9,0,9,1.6,12.4,4.7l5.8-1.4l-2.4-10C1438.8,356.3,1433.3,355.6,1427.7,355.6z"/>
	<polygon class="glass" fill="none" stroke="#323234" stroke-width="2" stroke-miterlimit="10" points="1334.4,453.5 1334.5,454.1 1334.7,453.6
		"/>
	<polygon class="glass" fill="none" stroke="#323234" stroke-width="2" stroke-miterlimit="10" points="1320.3,397.5 1318.7,397.9 1319.8,401.6
		"/>
	<polygon class="glass" fill="none" stroke="#323234" stroke-width="2" stroke-miterlimit="10" points="1312.2,478.7 1319.2,485.8 1325.6,485.8
		1327.1,481 	"/>
	<path class="glass" fill="none" stroke="#323234" stroke-width="2" stroke-miterlimit="10" d="M1313.9,380.7l9.9-14.6l0.2-2.2
		c-0.4-0.2-0.8-0.6-1.2-0.8l-12.2,6L1313.9,380.7z"/>
	<path class="glass" fill="none" stroke="#323234" stroke-width="2" stroke-miterlimit="10" d="M1319.6,403.6l0.2-1.9l-1-3.6l-5.7,1.3
		c0.1,1.4,0.2,3,0.4,4.6l5.8,0.1L1319.6,403.6z"/>
	<path class="glass" fill="none" stroke="#323234" stroke-width="2" stroke-miterlimit="10" d="M1334.4,453.5l-15.6-6.8l-4.7,4.7l0.7-6.4l-0.8-0.4
		v5.1c0,5.9-0.2,10.7-0.6,14.4s-1.3,6.4-2.7,8.3c-0.7,1-1.6,1.8-2.5,2.4l4,4l14.8,2.2l7.5-26.8L1334.4,453.5z"/>
	<path class="glass" fill="none" stroke="#323234" stroke-width="2" stroke-miterlimit="10" d="M1307.9,379.5c1,1.8,1.9,3.9,2.7,6.3l3.4-5.1
		l-3.3-11.6l-8.2,4.1C1304.6,374.7,1306.4,376.8,1307.9,379.5z"/>
	<polygon class="glass" fill="none" stroke="#323234" stroke-width="2" stroke-miterlimit="10" points="1244,403 1244,402.4 1242.9,403 	"/>
	<path class="glass" fill="none" stroke="#323234" stroke-width="2" stroke-miterlimit="10" d="M1248.7,403.1c0.1-1.1,0.2-2.2,0.4-3.1l-5.2,2.5
		v0.6H1248.7z"/>
	<polygon class="glass" fill="none" stroke="#323234" stroke-width="2" stroke-miterlimit="10" points="1320.3,397.5 1323.8,366.1 1313.9,380.7
		1318.7,397.9 	"/>
	<path class="glass" fill="none" stroke="#323234" stroke-width="2" stroke-miterlimit="10" d="M1312.6,394.6c0.2,1.4,0.5,3,0.6,4.7l5.7-1.3
		l-4.8-17.2l-3.4,5.1C1311.4,388.4,1312.1,391.3,1312.6,394.6z"/>
	<path class="glass" fill="none" stroke="#323234" stroke-width="2" stroke-miterlimit="10" d="M1336,395l0.5-0.7c0-0.2,0-0.4,0-0.6l-3.3,0.8
		l-9.5,9.5l13.1,0.1c0-3.4-0.1-6.4-0.4-9.3L1336,395z"/>
	<path class="glass" fill="none" stroke="#323234" stroke-width="2" stroke-miterlimit="10" d="M1324,363.9l-0.2,2.2l1.1-1.6
		C1324.6,364.3,1324.3,364,1324,363.9z"/>
	<polygon class="glass" fill="none" stroke="#323234" stroke-width="2" stroke-miterlimit="10" points="1320.1,402.6 1323.2,396.9 1320.3,397.5
		1319.8,401.6 	"/>
	<polygon class="glass" fill="none" stroke="#323234" stroke-width="2" stroke-miterlimit="10" points="1319.8,401.6 1319.6,403.6 1320.1,402.6
		"/>
	<polygon class="glass" fill="none" stroke="#323234" stroke-width="2" stroke-miterlimit="10" points="1314.2,451.5 1318.9,446.8 1314.9,444.9
		"/>
	<path class="glass" fill="none" stroke="#323234" stroke-width="2" stroke-miterlimit="10" d="M1323.2,396.9l10.5-19.4c-1.1-3.3-2.5-6-4.2-8.4
		c-1.3-1.7-2.8-3.3-4.6-4.6l-1.1,1.6l-3.6,31.6L1323.2,396.9z"/>
	<path class="glass" fill="none" stroke="#323234" stroke-width="2" stroke-miterlimit="10" d="M1336.3,391.4l-3.1,3.1l3.3-0.8
		C1336.5,392.8,1336.3,392.1,1336.3,391.4z"/>
	<polygon class="glass" fill="none" stroke="#323234" stroke-width="2" stroke-miterlimit="10" points="1329.5,436.1 1334.4,453.5 1334.7,453.6
		1337,445.7 1337,428.7 	"/>
	<path class="glass" fill="none" stroke="#323234" stroke-width="2" stroke-miterlimit="10" d="M1314.2,413.5l5.2-9.5l-5.8-0.1
		c0.2,4.2,0.5,8.8,0.5,14v26.8l0.8,0.4l4.1-36.3L1314.2,413.5z"/>
	<polygon class="glass" fill="none" stroke="#323234" stroke-width="2" stroke-miterlimit="10" points="1318.9,446.8 1334.4,453.5 1329.5,436.1
		"/>
	<polygon class="glass" fill="none" stroke="#323234" stroke-width="2" stroke-miterlimit="10" points="1242.9,403 1238.5,405.1 1244.6,411.2
		1244,403 	"/>
	<path class="glass" fill="none" stroke="#323234" stroke-width="2" stroke-miterlimit="10" d="M1248.4,406.1c0.1-1.1,0.1-2.1,0.2-3h-4.7l0.6,8.1
		l3.6,3.6C1248.2,411.3,1248.3,408.4,1248.4,406.1z"/>
	<path class="glass" fill="none" stroke="#323234" stroke-width="2" stroke-miterlimit="10" d="M1321.2,406.5l8.3,29.6l7.5-7.5v-21
		c0-1.2,0-2.4,0-3.5l-13.1-0.1L1321.2,406.5z"/>
	<polygon class="glass" fill="none" stroke="#323234" stroke-width="2" stroke-miterlimit="10" points="1321.2,406.5 1319,408.6 1314.9,444.9
		1318.9,446.8 1329.5,436.1 	"/>
	<path class="glass" fill="none" stroke="#323234" stroke-width="2" stroke-miterlimit="10" d="M1336.6,394.9c0-0.2,0-0.5,0-0.6l-0.5,0.7
		L1336.6,394.9z"/>
	<polygon class="glass" fill="none" stroke="#323234" stroke-width="2" stroke-miterlimit="10" points="1319.6,403.6 1319.3,403.9 1319.6,403.9
		"/>
	<polygon class="glass" fill="none" stroke="#323234" stroke-width="2" stroke-miterlimit="10" points="1320.4,403.9 1323.7,403.9 1333.2,394.5
		1323.2,396.9 1320.1,402.6 	"/>
	<polygon class="glass" fill="none" stroke="#323234" stroke-width="2" stroke-miterlimit="10" points="1320.4,403.9 1320.1,402.6 1319.6,403.6
		1319.6,403.9 	"/>
	<path class="glass" fill="none" stroke="#323234" stroke-width="2" stroke-miterlimit="10" d="M1336.3,391.4c-0.2-3-0.6-5.7-1.1-8
		c-0.4-2.2-1-4.1-1.6-5.9l-10.5,19.4l10-2.4L1336.3,391.4z"/>
	<polygon class="glass" fill="none" stroke="#323234" stroke-width="2" stroke-miterlimit="10" points="1319.3,403.9 1314.2,413.5 1319,408.6
		1319.6,403.9 	"/>
	<polygon class="glass" fill="none" stroke="#323234" stroke-width="2" stroke-miterlimit="10" points="1320.4,403.9 1321.2,406.5 1323.7,403.9
		"/>
	<polygon class="glass" fill="none" stroke="#323234" stroke-width="2" stroke-miterlimit="10" points="1319.6,403.9 1319,408.6 1321.2,406.5
		1320.4,403.9 	"/>
</g>
</svg>
